M48
; DRILL file {KiCad 9.0.6} date 2026-03-05T15:19:00-0800
; FORMAT={-:-/ absolute / metric / decimal}
; #@! TF.CreationDate,2026-03-05T15:19:00-08:00
; #@! TF.GenerationSoftware,Kicad,Pcbnew,9.0.6
; #@! TF.FileFunction,Plated,1,2,PTH
FMAT,2
METRIC
; #@! TA.AperFunction,Plated,PTH,ComponentDrill
T1C1.000
; #@! TA.AperFunction,Plated,PTH,ComponentDrill
T2C1.016
; #@! TA.AperFunction,Plated,PTH,ComponentDrill
T3C1.100
%
G90
G05
T1
X147.5Y-117.25
X150.04Y-117.25
X152.58Y-117.25
X160.0Y-57.42
X160.0Y-59.96
X160.0Y-62.5
X160.0Y-65.04
X160.0Y-67.58
X165.0Y-94.96
X165.0Y-97.5
T2
X135.0Y-77.38
X135.0Y-92.62
X137.54Y-77.38
X137.54Y-92.62
X140.08Y-77.38
X140.08Y-92.62
X142.62Y-77.38
X142.62Y-92.62
X145.16Y-77.38
X145.16Y-92.62
X147.7Y-77.38
X147.7Y-92.62
X150.24Y-77.38
X150.24Y-92.62
X160.4Y-82.46
X160.4Y-87.54
T3
X146.75Y-107.75
X146.75Y-112.25
X153.25Y-107.75
X153.25Y-112.25
M30
