%TF.GenerationSoftware,KiCad,Pcbnew,9.0.6*%
%TF.CreationDate,2026-03-05T15:19:03-08:00*%
%TF.ProjectId,schematic,73636865-6d61-4746-9963-2e6b69636164,rev?*%
%TF.SameCoordinates,Original*%
%TF.FileFunction,Legend,Top*%
%TF.FilePolarity,Positive*%
%FSLAX46Y46*%
G04 Gerber Fmt 4.6, Leading zero omitted, Abs format (unit mm)*
G04 Created by KiCad (PCBNEW 9.0.6) date 2026-03-05 15:19:03*
%MOMM*%
%LPD*%
G01*
G04 APERTURE LIST*
%ADD10C,0.150000*%
%ADD11C,0.100000*%
%ADD12C,0.120000*%
G04 APERTURE END LIST*
D10*
X162166666Y-112804819D02*
X161833333Y-112328628D01*
X161595238Y-112804819D02*
X161595238Y-111804819D01*
X161595238Y-111804819D02*
X161976190Y-111804819D01*
X161976190Y-111804819D02*
X162071428Y-111852438D01*
X162071428Y-111852438D02*
X162119047Y-111900057D01*
X162119047Y-111900057D02*
X162166666Y-111995295D01*
X162166666Y-111995295D02*
X162166666Y-112138152D01*
X162166666Y-112138152D02*
X162119047Y-112233390D01*
X162119047Y-112233390D02*
X162071428Y-112281009D01*
X162071428Y-112281009D02*
X161976190Y-112328628D01*
X161976190Y-112328628D02*
X161595238Y-112328628D01*
X162595238Y-112281009D02*
X162928571Y-112281009D01*
X163071428Y-112804819D02*
X162595238Y-112804819D01*
X162595238Y-112804819D02*
X162595238Y-111804819D01*
X162595238Y-111804819D02*
X163071428Y-111804819D01*
X163833333Y-112281009D02*
X163500000Y-112281009D01*
X163500000Y-112804819D02*
X163500000Y-111804819D01*
X163500000Y-111804819D02*
X163976190Y-111804819D01*
X164500000Y-111804819D02*
X164500000Y-112042914D01*
X164261905Y-111947676D02*
X164500000Y-112042914D01*
X164500000Y-112042914D02*
X164738095Y-111947676D01*
X164357143Y-112233390D02*
X164500000Y-112042914D01*
X164500000Y-112042914D02*
X164642857Y-112233390D01*
X165261905Y-111804819D02*
X165261905Y-112042914D01*
X165023810Y-111947676D02*
X165261905Y-112042914D01*
X165261905Y-112042914D02*
X165500000Y-111947676D01*
X165119048Y-112233390D02*
X165261905Y-112042914D01*
X165261905Y-112042914D02*
X165404762Y-112233390D01*
X135166666Y-55804819D02*
X134833333Y-55328628D01*
X134595238Y-55804819D02*
X134595238Y-54804819D01*
X134595238Y-54804819D02*
X134976190Y-54804819D01*
X134976190Y-54804819D02*
X135071428Y-54852438D01*
X135071428Y-54852438D02*
X135119047Y-54900057D01*
X135119047Y-54900057D02*
X135166666Y-54995295D01*
X135166666Y-54995295D02*
X135166666Y-55138152D01*
X135166666Y-55138152D02*
X135119047Y-55233390D01*
X135119047Y-55233390D02*
X135071428Y-55281009D01*
X135071428Y-55281009D02*
X134976190Y-55328628D01*
X134976190Y-55328628D02*
X134595238Y-55328628D01*
X135595238Y-55281009D02*
X135928571Y-55281009D01*
X136071428Y-55804819D02*
X135595238Y-55804819D01*
X135595238Y-55804819D02*
X135595238Y-54804819D01*
X135595238Y-54804819D02*
X136071428Y-54804819D01*
X136833333Y-55281009D02*
X136500000Y-55281009D01*
X136500000Y-55804819D02*
X136500000Y-54804819D01*
X136500000Y-54804819D02*
X136976190Y-54804819D01*
X137500000Y-54804819D02*
X137500000Y-55042914D01*
X137261905Y-54947676D02*
X137500000Y-55042914D01*
X137500000Y-55042914D02*
X137738095Y-54947676D01*
X137357143Y-55233390D02*
X137500000Y-55042914D01*
X137500000Y-55042914D02*
X137642857Y-55233390D01*
X138261905Y-54804819D02*
X138261905Y-55042914D01*
X138023810Y-54947676D02*
X138261905Y-55042914D01*
X138261905Y-55042914D02*
X138500000Y-54947676D01*
X138119048Y-55233390D02*
X138261905Y-55042914D01*
X138261905Y-55042914D02*
X138404762Y-55233390D01*
X153774819Y-100166666D02*
X153298628Y-100499999D01*
X153774819Y-100738094D02*
X152774819Y-100738094D01*
X152774819Y-100738094D02*
X152774819Y-100357142D01*
X152774819Y-100357142D02*
X152822438Y-100261904D01*
X152822438Y-100261904D02*
X152870057Y-100214285D01*
X152870057Y-100214285D02*
X152965295Y-100166666D01*
X152965295Y-100166666D02*
X153108152Y-100166666D01*
X153108152Y-100166666D02*
X153203390Y-100214285D01*
X153203390Y-100214285D02*
X153251009Y-100261904D01*
X153251009Y-100261904D02*
X153298628Y-100357142D01*
X153298628Y-100357142D02*
X153298628Y-100738094D01*
X153774819Y-99214285D02*
X153774819Y-99785713D01*
X153774819Y-99499999D02*
X152774819Y-99499999D01*
X152774819Y-99499999D02*
X152917676Y-99595237D01*
X152917676Y-99595237D02*
X153012914Y-99690475D01*
X153012914Y-99690475D02*
X153060533Y-99785713D01*
D11*
X127877419Y-84491904D02*
X128686942Y-84491904D01*
X128686942Y-84491904D02*
X128782180Y-84444285D01*
X128782180Y-84444285D02*
X128829800Y-84396666D01*
X128829800Y-84396666D02*
X128877419Y-84301428D01*
X128877419Y-84301428D02*
X128877419Y-84110952D01*
X128877419Y-84110952D02*
X128829800Y-84015714D01*
X128829800Y-84015714D02*
X128782180Y-83968095D01*
X128782180Y-83968095D02*
X128686942Y-83920476D01*
X128686942Y-83920476D02*
X127877419Y-83920476D01*
X128877419Y-82920476D02*
X128877419Y-83491904D01*
X128877419Y-83206190D02*
X127877419Y-83206190D01*
X127877419Y-83206190D02*
X128020276Y-83301428D01*
X128020276Y-83301428D02*
X128115514Y-83396666D01*
X128115514Y-83396666D02*
X128163133Y-83491904D01*
D10*
X148666667Y-114657200D02*
X148809524Y-114704819D01*
X148809524Y-114704819D02*
X149047619Y-114704819D01*
X149047619Y-114704819D02*
X149142857Y-114657200D01*
X149142857Y-114657200D02*
X149190476Y-114609580D01*
X149190476Y-114609580D02*
X149238095Y-114514342D01*
X149238095Y-114514342D02*
X149238095Y-114419104D01*
X149238095Y-114419104D02*
X149190476Y-114323866D01*
X149190476Y-114323866D02*
X149142857Y-114276247D01*
X149142857Y-114276247D02*
X149047619Y-114228628D01*
X149047619Y-114228628D02*
X148857143Y-114181009D01*
X148857143Y-114181009D02*
X148761905Y-114133390D01*
X148761905Y-114133390D02*
X148714286Y-114085771D01*
X148714286Y-114085771D02*
X148666667Y-113990533D01*
X148666667Y-113990533D02*
X148666667Y-113895295D01*
X148666667Y-113895295D02*
X148714286Y-113800057D01*
X148714286Y-113800057D02*
X148761905Y-113752438D01*
X148761905Y-113752438D02*
X148857143Y-113704819D01*
X148857143Y-113704819D02*
X149095238Y-113704819D01*
X149095238Y-113704819D02*
X149238095Y-113752438D01*
X149571429Y-113704819D02*
X149809524Y-114704819D01*
X149809524Y-114704819D02*
X150000000Y-113990533D01*
X150000000Y-113990533D02*
X150190476Y-114704819D01*
X150190476Y-114704819D02*
X150428572Y-113704819D01*
X151333333Y-114704819D02*
X150761905Y-114704819D01*
X151047619Y-114704819D02*
X151047619Y-113704819D01*
X151047619Y-113704819D02*
X150952381Y-113847676D01*
X150952381Y-113847676D02*
X150857143Y-113942914D01*
X150857143Y-113942914D02*
X150761905Y-113990533D01*
X133774819Y-100166666D02*
X133298628Y-100499999D01*
X133774819Y-100738094D02*
X132774819Y-100738094D01*
X132774819Y-100738094D02*
X132774819Y-100357142D01*
X132774819Y-100357142D02*
X132822438Y-100261904D01*
X132822438Y-100261904D02*
X132870057Y-100214285D01*
X132870057Y-100214285D02*
X132965295Y-100166666D01*
X132965295Y-100166666D02*
X133108152Y-100166666D01*
X133108152Y-100166666D02*
X133203390Y-100214285D01*
X133203390Y-100214285D02*
X133251009Y-100261904D01*
X133251009Y-100261904D02*
X133298628Y-100357142D01*
X133298628Y-100357142D02*
X133298628Y-100738094D01*
X132774819Y-99833332D02*
X132774819Y-99214285D01*
X132774819Y-99214285D02*
X133155771Y-99547618D01*
X133155771Y-99547618D02*
X133155771Y-99404761D01*
X133155771Y-99404761D02*
X133203390Y-99309523D01*
X133203390Y-99309523D02*
X133251009Y-99261904D01*
X133251009Y-99261904D02*
X133346247Y-99214285D01*
X133346247Y-99214285D02*
X133584342Y-99214285D01*
X133584342Y-99214285D02*
X133679580Y-99261904D01*
X133679580Y-99261904D02*
X133727200Y-99309523D01*
X133727200Y-99309523D02*
X133774819Y-99404761D01*
X133774819Y-99404761D02*
X133774819Y-99690475D01*
X133774819Y-99690475D02*
X133727200Y-99785713D01*
X133727200Y-99785713D02*
X133679580Y-99833332D01*
X158774819Y-100166666D02*
X158298628Y-100499999D01*
X158774819Y-100738094D02*
X157774819Y-100738094D01*
X157774819Y-100738094D02*
X157774819Y-100357142D01*
X157774819Y-100357142D02*
X157822438Y-100261904D01*
X157822438Y-100261904D02*
X157870057Y-100214285D01*
X157870057Y-100214285D02*
X157965295Y-100166666D01*
X157965295Y-100166666D02*
X158108152Y-100166666D01*
X158108152Y-100166666D02*
X158203390Y-100214285D01*
X158203390Y-100214285D02*
X158251009Y-100261904D01*
X158251009Y-100261904D02*
X158298628Y-100357142D01*
X158298628Y-100357142D02*
X158298628Y-100738094D01*
X157870057Y-99785713D02*
X157822438Y-99738094D01*
X157822438Y-99738094D02*
X157774819Y-99642856D01*
X157774819Y-99642856D02*
X157774819Y-99404761D01*
X157774819Y-99404761D02*
X157822438Y-99309523D01*
X157822438Y-99309523D02*
X157870057Y-99261904D01*
X157870057Y-99261904D02*
X157965295Y-99214285D01*
X157965295Y-99214285D02*
X158060533Y-99214285D01*
X158060533Y-99214285D02*
X158203390Y-99261904D01*
X158203390Y-99261904D02*
X158774819Y-99833332D01*
X158774819Y-99833332D02*
X158774819Y-99214285D01*
X159666666Y-54494819D02*
X159666666Y-55209104D01*
X159666666Y-55209104D02*
X159619047Y-55351961D01*
X159619047Y-55351961D02*
X159523809Y-55447200D01*
X159523809Y-55447200D02*
X159380952Y-55494819D01*
X159380952Y-55494819D02*
X159285714Y-55494819D01*
X160666666Y-55494819D02*
X160095238Y-55494819D01*
X160380952Y-55494819D02*
X160380952Y-54494819D01*
X160380952Y-54494819D02*
X160285714Y-54637676D01*
X160285714Y-54637676D02*
X160190476Y-54732914D01*
X160190476Y-54732914D02*
X160095238Y-54780533D01*
X145574819Y-123821428D02*
X144574819Y-123821428D01*
X144574819Y-123821428D02*
X144574819Y-123583333D01*
X144574819Y-123583333D02*
X144622438Y-123440476D01*
X144622438Y-123440476D02*
X144717676Y-123345238D01*
X144717676Y-123345238D02*
X144812914Y-123297619D01*
X144812914Y-123297619D02*
X145003390Y-123250000D01*
X145003390Y-123250000D02*
X145146247Y-123250000D01*
X145146247Y-123250000D02*
X145336723Y-123297619D01*
X145336723Y-123297619D02*
X145431961Y-123345238D01*
X145431961Y-123345238D02*
X145527200Y-123440476D01*
X145527200Y-123440476D02*
X145574819Y-123583333D01*
X145574819Y-123583333D02*
X145574819Y-123821428D01*
X145051009Y-122488095D02*
X145051009Y-122821428D01*
X145574819Y-122821428D02*
X144574819Y-122821428D01*
X144574819Y-122821428D02*
X144574819Y-122345238D01*
X145574819Y-121392857D02*
X145098628Y-121726190D01*
X145574819Y-121964285D02*
X144574819Y-121964285D01*
X144574819Y-121964285D02*
X144574819Y-121583333D01*
X144574819Y-121583333D02*
X144622438Y-121488095D01*
X144622438Y-121488095D02*
X144670057Y-121440476D01*
X144670057Y-121440476D02*
X144765295Y-121392857D01*
X144765295Y-121392857D02*
X144908152Y-121392857D01*
X144908152Y-121392857D02*
X145003390Y-121440476D01*
X145003390Y-121440476D02*
X145051009Y-121488095D01*
X145051009Y-121488095D02*
X145098628Y-121583333D01*
X145098628Y-121583333D02*
X145098628Y-121964285D01*
X145574819Y-120821428D02*
X145527200Y-120916666D01*
X145527200Y-120916666D02*
X145479580Y-120964285D01*
X145479580Y-120964285D02*
X145384342Y-121011904D01*
X145384342Y-121011904D02*
X145098628Y-121011904D01*
X145098628Y-121011904D02*
X145003390Y-120964285D01*
X145003390Y-120964285D02*
X144955771Y-120916666D01*
X144955771Y-120916666D02*
X144908152Y-120821428D01*
X144908152Y-120821428D02*
X144908152Y-120678571D01*
X144908152Y-120678571D02*
X144955771Y-120583333D01*
X144955771Y-120583333D02*
X145003390Y-120535714D01*
X145003390Y-120535714D02*
X145098628Y-120488095D01*
X145098628Y-120488095D02*
X145384342Y-120488095D01*
X145384342Y-120488095D02*
X145479580Y-120535714D01*
X145479580Y-120535714D02*
X145527200Y-120583333D01*
X145527200Y-120583333D02*
X145574819Y-120678571D01*
X145574819Y-120678571D02*
X145574819Y-120821428D01*
X145574819Y-120059523D02*
X144574819Y-120059523D01*
X144955771Y-120059523D02*
X144908152Y-119964285D01*
X144908152Y-119964285D02*
X144908152Y-119773809D01*
X144908152Y-119773809D02*
X144955771Y-119678571D01*
X144955771Y-119678571D02*
X145003390Y-119630952D01*
X145003390Y-119630952D02*
X145098628Y-119583333D01*
X145098628Y-119583333D02*
X145384342Y-119583333D01*
X145384342Y-119583333D02*
X145479580Y-119630952D01*
X145479580Y-119630952D02*
X145527200Y-119678571D01*
X145527200Y-119678571D02*
X145574819Y-119773809D01*
X145574819Y-119773809D02*
X145574819Y-119964285D01*
X145574819Y-119964285D02*
X145527200Y-120059523D01*
X145574819Y-119011904D02*
X145527200Y-119107142D01*
X145527200Y-119107142D02*
X145479580Y-119154761D01*
X145479580Y-119154761D02*
X145384342Y-119202380D01*
X145384342Y-119202380D02*
X145098628Y-119202380D01*
X145098628Y-119202380D02*
X145003390Y-119154761D01*
X145003390Y-119154761D02*
X144955771Y-119107142D01*
X144955771Y-119107142D02*
X144908152Y-119011904D01*
X144908152Y-119011904D02*
X144908152Y-118869047D01*
X144908152Y-118869047D02*
X144955771Y-118773809D01*
X144955771Y-118773809D02*
X145003390Y-118726190D01*
X145003390Y-118726190D02*
X145098628Y-118678571D01*
X145098628Y-118678571D02*
X145384342Y-118678571D01*
X145384342Y-118678571D02*
X145479580Y-118726190D01*
X145479580Y-118726190D02*
X145527200Y-118773809D01*
X145527200Y-118773809D02*
X145574819Y-118869047D01*
X145574819Y-118869047D02*
X145574819Y-119011904D01*
X144908152Y-118392856D02*
X144908152Y-118011904D01*
X144574819Y-118249999D02*
X145431961Y-118249999D01*
X145431961Y-118249999D02*
X145527200Y-118202380D01*
X145527200Y-118202380D02*
X145574819Y-118107142D01*
X145574819Y-118107142D02*
X145574819Y-118011904D01*
X145670057Y-117916666D02*
X145670057Y-117154761D01*
X145527200Y-116964284D02*
X145574819Y-116821427D01*
X145574819Y-116821427D02*
X145574819Y-116583332D01*
X145574819Y-116583332D02*
X145527200Y-116488094D01*
X145527200Y-116488094D02*
X145479580Y-116440475D01*
X145479580Y-116440475D02*
X145384342Y-116392856D01*
X145384342Y-116392856D02*
X145289104Y-116392856D01*
X145289104Y-116392856D02*
X145193866Y-116440475D01*
X145193866Y-116440475D02*
X145146247Y-116488094D01*
X145146247Y-116488094D02*
X145098628Y-116583332D01*
X145098628Y-116583332D02*
X145051009Y-116773808D01*
X145051009Y-116773808D02*
X145003390Y-116869046D01*
X145003390Y-116869046D02*
X144955771Y-116916665D01*
X144955771Y-116916665D02*
X144860533Y-116964284D01*
X144860533Y-116964284D02*
X144765295Y-116964284D01*
X144765295Y-116964284D02*
X144670057Y-116916665D01*
X144670057Y-116916665D02*
X144622438Y-116869046D01*
X144622438Y-116869046D02*
X144574819Y-116773808D01*
X144574819Y-116773808D02*
X144574819Y-116535713D01*
X144574819Y-116535713D02*
X144622438Y-116392856D01*
X145051009Y-115964284D02*
X145051009Y-115630951D01*
X145574819Y-115488094D02*
X145574819Y-115964284D01*
X145574819Y-115964284D02*
X144574819Y-115964284D01*
X144574819Y-115964284D02*
X144574819Y-115488094D01*
X145574819Y-115059522D02*
X144574819Y-115059522D01*
X144574819Y-115059522D02*
X145574819Y-114488094D01*
X145574819Y-114488094D02*
X144574819Y-114488094D01*
X144574819Y-113821427D02*
X144574819Y-113726189D01*
X144574819Y-113726189D02*
X144622438Y-113630951D01*
X144622438Y-113630951D02*
X144670057Y-113583332D01*
X144670057Y-113583332D02*
X144765295Y-113535713D01*
X144765295Y-113535713D02*
X144955771Y-113488094D01*
X144955771Y-113488094D02*
X145193866Y-113488094D01*
X145193866Y-113488094D02*
X145384342Y-113535713D01*
X145384342Y-113535713D02*
X145479580Y-113583332D01*
X145479580Y-113583332D02*
X145527200Y-113630951D01*
X145527200Y-113630951D02*
X145574819Y-113726189D01*
X145574819Y-113726189D02*
X145574819Y-113821427D01*
X145574819Y-113821427D02*
X145527200Y-113916665D01*
X145527200Y-113916665D02*
X145479580Y-113964284D01*
X145479580Y-113964284D02*
X145384342Y-114011903D01*
X145384342Y-114011903D02*
X145193866Y-114059522D01*
X145193866Y-114059522D02*
X144955771Y-114059522D01*
X144955771Y-114059522D02*
X144765295Y-114011903D01*
X144765295Y-114011903D02*
X144670057Y-113964284D01*
X144670057Y-113964284D02*
X144622438Y-113916665D01*
X144622438Y-113916665D02*
X144574819Y-113821427D01*
X145574819Y-112535713D02*
X145574819Y-113107141D01*
X145574819Y-112821427D02*
X144574819Y-112821427D01*
X144574819Y-112821427D02*
X144717676Y-112916665D01*
X144717676Y-112916665D02*
X144812914Y-113011903D01*
X144812914Y-113011903D02*
X144860533Y-113107141D01*
X145574819Y-112059522D02*
X145574819Y-111869046D01*
X145574819Y-111869046D02*
X145527200Y-111773808D01*
X145527200Y-111773808D02*
X145479580Y-111726189D01*
X145479580Y-111726189D02*
X145336723Y-111630951D01*
X145336723Y-111630951D02*
X145146247Y-111583332D01*
X145146247Y-111583332D02*
X144765295Y-111583332D01*
X144765295Y-111583332D02*
X144670057Y-111630951D01*
X144670057Y-111630951D02*
X144622438Y-111678570D01*
X144622438Y-111678570D02*
X144574819Y-111773808D01*
X144574819Y-111773808D02*
X144574819Y-111964284D01*
X144574819Y-111964284D02*
X144622438Y-112059522D01*
X144622438Y-112059522D02*
X144670057Y-112107141D01*
X144670057Y-112107141D02*
X144765295Y-112154760D01*
X144765295Y-112154760D02*
X145003390Y-112154760D01*
X145003390Y-112154760D02*
X145098628Y-112107141D01*
X145098628Y-112107141D02*
X145146247Y-112059522D01*
X145146247Y-112059522D02*
X145193866Y-111964284D01*
X145193866Y-111964284D02*
X145193866Y-111773808D01*
X145193866Y-111773808D02*
X145146247Y-111678570D01*
X145146247Y-111678570D02*
X145098628Y-111630951D01*
X145098628Y-111630951D02*
X145003390Y-111583332D01*
X144574819Y-111249998D02*
X144574819Y-110630951D01*
X144574819Y-110630951D02*
X144955771Y-110964284D01*
X144955771Y-110964284D02*
X144955771Y-110821427D01*
X144955771Y-110821427D02*
X145003390Y-110726189D01*
X145003390Y-110726189D02*
X145051009Y-110678570D01*
X145051009Y-110678570D02*
X145146247Y-110630951D01*
X145146247Y-110630951D02*
X145384342Y-110630951D01*
X145384342Y-110630951D02*
X145479580Y-110678570D01*
X145479580Y-110678570D02*
X145527200Y-110726189D01*
X145527200Y-110726189D02*
X145574819Y-110821427D01*
X145574819Y-110821427D02*
X145574819Y-111107141D01*
X145574819Y-111107141D02*
X145527200Y-111202379D01*
X145527200Y-111202379D02*
X145479580Y-111249998D01*
X148804819Y-100738094D02*
X147804819Y-100738094D01*
X147804819Y-100738094D02*
X147804819Y-100499999D01*
X147804819Y-100499999D02*
X147852438Y-100357142D01*
X147852438Y-100357142D02*
X147947676Y-100261904D01*
X147947676Y-100261904D02*
X148042914Y-100214285D01*
X148042914Y-100214285D02*
X148233390Y-100166666D01*
X148233390Y-100166666D02*
X148376247Y-100166666D01*
X148376247Y-100166666D02*
X148566723Y-100214285D01*
X148566723Y-100214285D02*
X148661961Y-100261904D01*
X148661961Y-100261904D02*
X148757200Y-100357142D01*
X148757200Y-100357142D02*
X148804819Y-100499999D01*
X148804819Y-100499999D02*
X148804819Y-100738094D01*
X148804819Y-99214285D02*
X148804819Y-99785713D01*
X148804819Y-99499999D02*
X147804819Y-99499999D01*
X147804819Y-99499999D02*
X147947676Y-99595237D01*
X147947676Y-99595237D02*
X148042914Y-99690475D01*
X148042914Y-99690475D02*
X148090533Y-99785713D01*
X141383333Y-74539580D02*
X141335714Y-74587200D01*
X141335714Y-74587200D02*
X141192857Y-74634819D01*
X141192857Y-74634819D02*
X141097619Y-74634819D01*
X141097619Y-74634819D02*
X140954762Y-74587200D01*
X140954762Y-74587200D02*
X140859524Y-74491961D01*
X140859524Y-74491961D02*
X140811905Y-74396723D01*
X140811905Y-74396723D02*
X140764286Y-74206247D01*
X140764286Y-74206247D02*
X140764286Y-74063390D01*
X140764286Y-74063390D02*
X140811905Y-73872914D01*
X140811905Y-73872914D02*
X140859524Y-73777676D01*
X140859524Y-73777676D02*
X140954762Y-73682438D01*
X140954762Y-73682438D02*
X141097619Y-73634819D01*
X141097619Y-73634819D02*
X141192857Y-73634819D01*
X141192857Y-73634819D02*
X141335714Y-73682438D01*
X141335714Y-73682438D02*
X141383333Y-73730057D01*
X141716667Y-73634819D02*
X142335714Y-73634819D01*
X142335714Y-73634819D02*
X142002381Y-74015771D01*
X142002381Y-74015771D02*
X142145238Y-74015771D01*
X142145238Y-74015771D02*
X142240476Y-74063390D01*
X142240476Y-74063390D02*
X142288095Y-74111009D01*
X142288095Y-74111009D02*
X142335714Y-74206247D01*
X142335714Y-74206247D02*
X142335714Y-74444342D01*
X142335714Y-74444342D02*
X142288095Y-74539580D01*
X142288095Y-74539580D02*
X142240476Y-74587200D01*
X142240476Y-74587200D02*
X142145238Y-74634819D01*
X142145238Y-74634819D02*
X141859524Y-74634819D01*
X141859524Y-74634819D02*
X141764286Y-74587200D01*
X141764286Y-74587200D02*
X141716667Y-74539580D01*
X147333333Y-71179580D02*
X147285714Y-71227200D01*
X147285714Y-71227200D02*
X147142857Y-71274819D01*
X147142857Y-71274819D02*
X147047619Y-71274819D01*
X147047619Y-71274819D02*
X146904762Y-71227200D01*
X146904762Y-71227200D02*
X146809524Y-71131961D01*
X146809524Y-71131961D02*
X146761905Y-71036723D01*
X146761905Y-71036723D02*
X146714286Y-70846247D01*
X146714286Y-70846247D02*
X146714286Y-70703390D01*
X146714286Y-70703390D02*
X146761905Y-70512914D01*
X146761905Y-70512914D02*
X146809524Y-70417676D01*
X146809524Y-70417676D02*
X146904762Y-70322438D01*
X146904762Y-70322438D02*
X147047619Y-70274819D01*
X147047619Y-70274819D02*
X147142857Y-70274819D01*
X147142857Y-70274819D02*
X147285714Y-70322438D01*
X147285714Y-70322438D02*
X147333333Y-70370057D01*
X148285714Y-71274819D02*
X147714286Y-71274819D01*
X148000000Y-71274819D02*
X148000000Y-70274819D01*
X148000000Y-70274819D02*
X147904762Y-70417676D01*
X147904762Y-70417676D02*
X147809524Y-70512914D01*
X147809524Y-70512914D02*
X147714286Y-70560533D01*
X164214285Y-99811009D02*
X164357142Y-99858628D01*
X164357142Y-99858628D02*
X164404761Y-99906247D01*
X164404761Y-99906247D02*
X164452380Y-100001485D01*
X164452380Y-100001485D02*
X164452380Y-100144342D01*
X164452380Y-100144342D02*
X164404761Y-100239580D01*
X164404761Y-100239580D02*
X164357142Y-100287200D01*
X164357142Y-100287200D02*
X164261904Y-100334819D01*
X164261904Y-100334819D02*
X163880952Y-100334819D01*
X163880952Y-100334819D02*
X163880952Y-99334819D01*
X163880952Y-99334819D02*
X164214285Y-99334819D01*
X164214285Y-99334819D02*
X164309523Y-99382438D01*
X164309523Y-99382438D02*
X164357142Y-99430057D01*
X164357142Y-99430057D02*
X164404761Y-99525295D01*
X164404761Y-99525295D02*
X164404761Y-99620533D01*
X164404761Y-99620533D02*
X164357142Y-99715771D01*
X164357142Y-99715771D02*
X164309523Y-99763390D01*
X164309523Y-99763390D02*
X164214285Y-99811009D01*
X164214285Y-99811009D02*
X163880952Y-99811009D01*
X164738095Y-99334819D02*
X165309523Y-99334819D01*
X165023809Y-100334819D02*
X165023809Y-99334819D01*
X165595238Y-99430057D02*
X165642857Y-99382438D01*
X165642857Y-99382438D02*
X165738095Y-99334819D01*
X165738095Y-99334819D02*
X165976190Y-99334819D01*
X165976190Y-99334819D02*
X166071428Y-99382438D01*
X166071428Y-99382438D02*
X166119047Y-99430057D01*
X166119047Y-99430057D02*
X166166666Y-99525295D01*
X166166666Y-99525295D02*
X166166666Y-99620533D01*
X166166666Y-99620533D02*
X166119047Y-99763390D01*
X166119047Y-99763390D02*
X165547619Y-100334819D01*
X165547619Y-100334819D02*
X166166666Y-100334819D01*
D12*
%TO.C,R1*%
X155735000Y-100261252D02*
X155735000Y-99738748D01*
X154265000Y-100261252D02*
X154265000Y-99738748D01*
D11*
%TO.C,U1*%
X132460000Y-88810000D02*
X136270000Y-88810000D01*
X136270000Y-88810000D02*
X136270000Y-81190000D01*
X158876000Y-83984000D02*
X158876000Y-80936000D01*
X161924000Y-83984000D02*
X158876000Y-83984000D01*
X162432000Y-83476000D02*
X162432000Y-81444000D01*
X162940000Y-82968000D02*
X162940000Y-81952000D01*
X136270000Y-81190000D02*
X132460000Y-81190000D01*
X158876000Y-80936000D02*
X161924000Y-80936000D01*
X161924000Y-80936000D02*
X161924000Y-83984000D01*
D12*
%TO.C,SW1*%
X153500000Y-110750000D02*
X153500000Y-109250000D01*
X152250000Y-106750000D02*
X147750000Y-106750000D01*
X147750000Y-113250000D02*
X152250000Y-113250000D01*
X146500000Y-109250000D02*
X146500000Y-110750000D01*
%TO.C,R3*%
X134265000Y-100261252D02*
X134265000Y-99738748D01*
X135735000Y-100261252D02*
X135735000Y-99738748D01*
%TO.C,R2*%
X159265000Y-100261252D02*
X159265000Y-99738748D01*
X160735000Y-100261252D02*
X160735000Y-99738748D01*
%TO.C,J1*%
X158620000Y-56040000D02*
X160000000Y-56040000D01*
X158620000Y-57420000D02*
X158620000Y-56040000D01*
X158620000Y-58690000D02*
X158620000Y-68960000D01*
X158620000Y-58690000D02*
X161380000Y-58690000D01*
X158620000Y-68960000D02*
X161380000Y-68960000D01*
X161380000Y-58690000D02*
X161380000Y-68960000D01*
%TO.C,DFRobot_SEN0193*%
X146120000Y-118630000D02*
X146120000Y-117250000D01*
X147500000Y-118630000D02*
X146120000Y-118630000D01*
X148770000Y-118630000D02*
X153960000Y-118630000D01*
X148770000Y-118630000D02*
X148770000Y-115870000D01*
X153960000Y-118630000D02*
X153960000Y-115870000D01*
X148770000Y-115870000D02*
X153960000Y-115870000D01*
%TO.C,D1*%
X149040000Y-101685000D02*
X150960000Y-101685000D01*
X150960000Y-101685000D02*
X150960000Y-99000000D01*
X149040000Y-99000000D02*
X149040000Y-101685000D01*
%TO.C,C3*%
X141811252Y-73235000D02*
X141288748Y-73235000D01*
X141811252Y-71765000D02*
X141288748Y-71765000D01*
%TO.C,C1*%
X147238748Y-71765000D02*
X147761252Y-71765000D01*
X147238748Y-73235000D02*
X147761252Y-73235000D01*
%TO.C,BT2*%
X166380000Y-98880000D02*
X165000000Y-98880000D01*
X166380000Y-97500000D02*
X166380000Y-98880000D01*
X166380000Y-96230000D02*
X166380000Y-93580000D01*
X166380000Y-96230000D02*
X163620000Y-96230000D01*
X166380000Y-93580000D02*
X163620000Y-93580000D01*
X163620000Y-96230000D02*
X163620000Y-93580000D01*
%TD*%
M02*
