%TF.GenerationSoftware,KiCad,Pcbnew,9.0.6*%
%TF.CreationDate,2026-03-07T11:23:44-08:00*%
%TF.ProjectId,schematic,73636865-6d61-4746-9963-2e6b69636164,rev?*%
%TF.SameCoordinates,Original*%
%TF.FileFunction,Legend,Bot*%
%TF.FilePolarity,Positive*%
%FSLAX46Y46*%
G04 Gerber Fmt 4.6, Leading zero omitted, Abs format (unit mm)*
G04 Created by KiCad (PCBNEW 9.0.6) date 2026-03-07 11:23:44*
%MOMM*%
%LPD*%
G01*
G04 APERTURE LIST*
%ADD10C,0.150000*%
%ADD11C,0.100000*%
%ADD12C,0.120000*%
G04 APERTURE END LIST*
D10*
X100373333Y-64734819D02*
X100373333Y-65449104D01*
X100373333Y-65449104D02*
X100420952Y-65591961D01*
X100420952Y-65591961D02*
X100516190Y-65687200D01*
X100516190Y-65687200D02*
X100659047Y-65734819D01*
X100659047Y-65734819D02*
X100754285Y-65734819D01*
X99373333Y-65734819D02*
X99944761Y-65734819D01*
X99659047Y-65734819D02*
X99659047Y-64734819D01*
X99659047Y-64734819D02*
X99754285Y-64877676D01*
X99754285Y-64877676D02*
X99849523Y-64972914D01*
X99849523Y-64972914D02*
X99944761Y-65020533D01*
D11*
X70177419Y-98008095D02*
X70986942Y-98008095D01*
X70986942Y-98008095D02*
X71082180Y-98055714D01*
X71082180Y-98055714D02*
X71129800Y-98103333D01*
X71129800Y-98103333D02*
X71177419Y-98198571D01*
X71177419Y-98198571D02*
X71177419Y-98389047D01*
X71177419Y-98389047D02*
X71129800Y-98484285D01*
X71129800Y-98484285D02*
X71082180Y-98531904D01*
X71082180Y-98531904D02*
X70986942Y-98579523D01*
X70986942Y-98579523D02*
X70177419Y-98579523D01*
X71177419Y-99579523D02*
X71177419Y-99008095D01*
X71177419Y-99293809D02*
X70177419Y-99293809D01*
X70177419Y-99293809D02*
X70320276Y-99198571D01*
X70320276Y-99198571D02*
X70415514Y-99103333D01*
X70415514Y-99103333D02*
X70463133Y-99008095D01*
D10*
X103833332Y-119407200D02*
X103690475Y-119454819D01*
X103690475Y-119454819D02*
X103452380Y-119454819D01*
X103452380Y-119454819D02*
X103357142Y-119407200D01*
X103357142Y-119407200D02*
X103309523Y-119359580D01*
X103309523Y-119359580D02*
X103261904Y-119264342D01*
X103261904Y-119264342D02*
X103261904Y-119169104D01*
X103261904Y-119169104D02*
X103309523Y-119073866D01*
X103309523Y-119073866D02*
X103357142Y-119026247D01*
X103357142Y-119026247D02*
X103452380Y-118978628D01*
X103452380Y-118978628D02*
X103642856Y-118931009D01*
X103642856Y-118931009D02*
X103738094Y-118883390D01*
X103738094Y-118883390D02*
X103785713Y-118835771D01*
X103785713Y-118835771D02*
X103833332Y-118740533D01*
X103833332Y-118740533D02*
X103833332Y-118645295D01*
X103833332Y-118645295D02*
X103785713Y-118550057D01*
X103785713Y-118550057D02*
X103738094Y-118502438D01*
X103738094Y-118502438D02*
X103642856Y-118454819D01*
X103642856Y-118454819D02*
X103404761Y-118454819D01*
X103404761Y-118454819D02*
X103261904Y-118502438D01*
X102928570Y-118454819D02*
X102690475Y-119454819D01*
X102690475Y-119454819D02*
X102499999Y-118740533D01*
X102499999Y-118740533D02*
X102309523Y-119454819D01*
X102309523Y-119454819D02*
X102071428Y-118454819D01*
X101166666Y-119454819D02*
X101738094Y-119454819D01*
X101452380Y-119454819D02*
X101452380Y-118454819D01*
X101452380Y-118454819D02*
X101547618Y-118597676D01*
X101547618Y-118597676D02*
X101642856Y-118692914D01*
X101642856Y-118692914D02*
X101738094Y-118740533D01*
X101968094Y-103994819D02*
X101968094Y-102994819D01*
X101968094Y-102994819D02*
X101729999Y-102994819D01*
X101729999Y-102994819D02*
X101587142Y-103042438D01*
X101587142Y-103042438D02*
X101491904Y-103137676D01*
X101491904Y-103137676D02*
X101444285Y-103232914D01*
X101444285Y-103232914D02*
X101396666Y-103423390D01*
X101396666Y-103423390D02*
X101396666Y-103566247D01*
X101396666Y-103566247D02*
X101444285Y-103756723D01*
X101444285Y-103756723D02*
X101491904Y-103851961D01*
X101491904Y-103851961D02*
X101587142Y-103947200D01*
X101587142Y-103947200D02*
X101729999Y-103994819D01*
X101729999Y-103994819D02*
X101968094Y-103994819D01*
X100444285Y-103994819D02*
X101015713Y-103994819D01*
X100729999Y-103994819D02*
X100729999Y-102994819D01*
X100729999Y-102994819D02*
X100825237Y-103137676D01*
X100825237Y-103137676D02*
X100920475Y-103232914D01*
X100920475Y-103232914D02*
X101015713Y-103280533D01*
D12*
%TO.C,J1*%
X98660000Y-68930000D02*
X98660000Y-79200000D01*
X101420000Y-66280000D02*
X100040000Y-66280000D01*
X101420000Y-67660000D02*
X101420000Y-66280000D01*
X101420000Y-68930000D02*
X98660000Y-68930000D01*
X101420000Y-68930000D02*
X101420000Y-79200000D01*
X101420000Y-79200000D02*
X98660000Y-79200000D01*
D11*
%TO.C,U1*%
X74760000Y-93690000D02*
X78570000Y-93690000D01*
X78570000Y-93690000D02*
X78570000Y-101310000D01*
X78570000Y-101310000D02*
X74760000Y-101310000D01*
X101176000Y-98516000D02*
X101176000Y-101564000D01*
X101176000Y-101564000D02*
X104224000Y-101564000D01*
X104224000Y-98516000D02*
X101176000Y-98516000D01*
X104224000Y-101564000D02*
X104224000Y-98516000D01*
X104732000Y-99024000D02*
X104732000Y-101056000D01*
X105240000Y-99532000D02*
X105240000Y-100548000D01*
D12*
%TO.C,SW1*%
X99000000Y-115500000D02*
X99000000Y-114000000D01*
X100250000Y-111500000D02*
X104750000Y-111500000D01*
X104750000Y-118000000D02*
X100250000Y-118000000D01*
X106000000Y-114000000D02*
X106000000Y-115500000D01*
%TO.C,D1*%
X103790000Y-105955000D02*
X103790000Y-109045000D01*
X98240000Y-107500000D02*
G75*
G02*
X103790000Y-105955170I2990000J0D01*
G01*
X103790000Y-109044830D02*
G75*
G02*
X98240000Y-107500000I-2560000J1544830D01*
G01*
X103730000Y-107500000D02*
G75*
G02*
X98730000Y-107500000I-2500000J0D01*
G01*
X98730000Y-107500000D02*
G75*
G02*
X103730000Y-107500000I2500000J0D01*
G01*
%TD*%
M02*
