%TF.GenerationSoftware,KiCad,Pcbnew,9.0.6*%
%TF.CreationDate,2026-03-07T12:05:52-08:00*%
%TF.ProjectId,schematic,73636865-6d61-4746-9963-2e6b69636164,rev?*%
%TF.SameCoordinates,Original*%
%TF.FileFunction,Legend,Top*%
%TF.FilePolarity,Positive*%
%FSLAX46Y46*%
G04 Gerber Fmt 4.6, Leading zero omitted, Abs format (unit mm)*
G04 Created by KiCad (PCBNEW 9.0.6) date 2026-03-07 12:05:52*
%MOMM*%
%LPD*%
G01*
G04 APERTURE LIST*
%ADD10C,0.100000*%
%ADD11C,0.150000*%
%ADD12C,0.120000*%
G04 APERTURE END LIST*
D10*
X125000000Y-97500000D02*
X125000000Y-175000000D01*
X130097143Y-65842419D02*
X130097143Y-64842419D01*
X130097143Y-64842419D02*
X130335238Y-64842419D01*
X130335238Y-64842419D02*
X130478095Y-64890038D01*
X130478095Y-64890038D02*
X130573333Y-64985276D01*
X130573333Y-64985276D02*
X130620952Y-65080514D01*
X130620952Y-65080514D02*
X130668571Y-65270990D01*
X130668571Y-65270990D02*
X130668571Y-65413847D01*
X130668571Y-65413847D02*
X130620952Y-65604323D01*
X130620952Y-65604323D02*
X130573333Y-65699561D01*
X130573333Y-65699561D02*
X130478095Y-65794800D01*
X130478095Y-65794800D02*
X130335238Y-65842419D01*
X130335238Y-65842419D02*
X130097143Y-65842419D01*
X131097143Y-65842419D02*
X131097143Y-64842419D01*
X131525714Y-65794800D02*
X131668571Y-65842419D01*
X131668571Y-65842419D02*
X131906666Y-65842419D01*
X131906666Y-65842419D02*
X132001904Y-65794800D01*
X132001904Y-65794800D02*
X132049523Y-65747180D01*
X132049523Y-65747180D02*
X132097142Y-65651942D01*
X132097142Y-65651942D02*
X132097142Y-65556704D01*
X132097142Y-65556704D02*
X132049523Y-65461466D01*
X132049523Y-65461466D02*
X132001904Y-65413847D01*
X132001904Y-65413847D02*
X131906666Y-65366228D01*
X131906666Y-65366228D02*
X131716190Y-65318609D01*
X131716190Y-65318609D02*
X131620952Y-65270990D01*
X131620952Y-65270990D02*
X131573333Y-65223371D01*
X131573333Y-65223371D02*
X131525714Y-65128133D01*
X131525714Y-65128133D02*
X131525714Y-65032895D01*
X131525714Y-65032895D02*
X131573333Y-64937657D01*
X131573333Y-64937657D02*
X131620952Y-64890038D01*
X131620952Y-64890038D02*
X131716190Y-64842419D01*
X131716190Y-64842419D02*
X131954285Y-64842419D01*
X131954285Y-64842419D02*
X132097142Y-64890038D01*
X132525714Y-65842419D02*
X132525714Y-64842419D01*
X132525714Y-64842419D02*
X132906666Y-64842419D01*
X132906666Y-64842419D02*
X133001904Y-64890038D01*
X133001904Y-64890038D02*
X133049523Y-64937657D01*
X133049523Y-64937657D02*
X133097142Y-65032895D01*
X133097142Y-65032895D02*
X133097142Y-65175752D01*
X133097142Y-65175752D02*
X133049523Y-65270990D01*
X133049523Y-65270990D02*
X133001904Y-65318609D01*
X133001904Y-65318609D02*
X132906666Y-65366228D01*
X132906666Y-65366228D02*
X132525714Y-65366228D01*
X134001904Y-65842419D02*
X133525714Y-65842419D01*
X133525714Y-65842419D02*
X133525714Y-64842419D01*
X134287619Y-65556704D02*
X134763809Y-65556704D01*
X134192381Y-65842419D02*
X134525714Y-64842419D01*
X134525714Y-64842419D02*
X134859047Y-65842419D01*
X135382857Y-65366228D02*
X135382857Y-65842419D01*
X135049524Y-64842419D02*
X135382857Y-65366228D01*
X135382857Y-65366228D02*
X135716190Y-64842419D01*
X136811429Y-65842419D02*
X136811429Y-64842419D01*
X136811429Y-64842419D02*
X137049524Y-64842419D01*
X137049524Y-64842419D02*
X137192381Y-64890038D01*
X137192381Y-64890038D02*
X137287619Y-64985276D01*
X137287619Y-64985276D02*
X137335238Y-65080514D01*
X137335238Y-65080514D02*
X137382857Y-65270990D01*
X137382857Y-65270990D02*
X137382857Y-65413847D01*
X137382857Y-65413847D02*
X137335238Y-65604323D01*
X137335238Y-65604323D02*
X137287619Y-65699561D01*
X137287619Y-65699561D02*
X137192381Y-65794800D01*
X137192381Y-65794800D02*
X137049524Y-65842419D01*
X137049524Y-65842419D02*
X136811429Y-65842419D01*
X137811429Y-65318609D02*
X138144762Y-65318609D01*
X138287619Y-65842419D02*
X137811429Y-65842419D01*
X137811429Y-65842419D02*
X137811429Y-64842419D01*
X137811429Y-64842419D02*
X138287619Y-64842419D01*
X138573334Y-64842419D02*
X138906667Y-65842419D01*
X138906667Y-65842419D02*
X139240000Y-64842419D01*
X139573334Y-65842419D02*
X139573334Y-64842419D01*
X140620952Y-65747180D02*
X140573333Y-65794800D01*
X140573333Y-65794800D02*
X140430476Y-65842419D01*
X140430476Y-65842419D02*
X140335238Y-65842419D01*
X140335238Y-65842419D02*
X140192381Y-65794800D01*
X140192381Y-65794800D02*
X140097143Y-65699561D01*
X140097143Y-65699561D02*
X140049524Y-65604323D01*
X140049524Y-65604323D02*
X140001905Y-65413847D01*
X140001905Y-65413847D02*
X140001905Y-65270990D01*
X140001905Y-65270990D02*
X140049524Y-65080514D01*
X140049524Y-65080514D02*
X140097143Y-64985276D01*
X140097143Y-64985276D02*
X140192381Y-64890038D01*
X140192381Y-64890038D02*
X140335238Y-64842419D01*
X140335238Y-64842419D02*
X140430476Y-64842419D01*
X140430476Y-64842419D02*
X140573333Y-64890038D01*
X140573333Y-64890038D02*
X140620952Y-64937657D01*
X141049524Y-65318609D02*
X141382857Y-65318609D01*
X141525714Y-65842419D02*
X141049524Y-65842419D01*
X141049524Y-65842419D02*
X141049524Y-64842419D01*
X141049524Y-64842419D02*
X141525714Y-64842419D01*
X142620953Y-65175752D02*
X142859048Y-65842419D01*
X142859048Y-65842419D02*
X143097143Y-65175752D01*
X143382858Y-64842419D02*
X144001905Y-64842419D01*
X144001905Y-64842419D02*
X143668572Y-65223371D01*
X143668572Y-65223371D02*
X143811429Y-65223371D01*
X143811429Y-65223371D02*
X143906667Y-65270990D01*
X143906667Y-65270990D02*
X143954286Y-65318609D01*
X143954286Y-65318609D02*
X144001905Y-65413847D01*
X144001905Y-65413847D02*
X144001905Y-65651942D01*
X144001905Y-65651942D02*
X143954286Y-65747180D01*
X143954286Y-65747180D02*
X143906667Y-65794800D01*
X143906667Y-65794800D02*
X143811429Y-65842419D01*
X143811429Y-65842419D02*
X143525715Y-65842419D01*
X143525715Y-65842419D02*
X143430477Y-65794800D01*
X143430477Y-65794800D02*
X143382858Y-65747180D01*
X144430477Y-65747180D02*
X144478096Y-65794800D01*
X144478096Y-65794800D02*
X144430477Y-65842419D01*
X144430477Y-65842419D02*
X144382858Y-65794800D01*
X144382858Y-65794800D02*
X144430477Y-65747180D01*
X144430477Y-65747180D02*
X144430477Y-65842419D01*
X145097143Y-64842419D02*
X145192381Y-64842419D01*
X145192381Y-64842419D02*
X145287619Y-64890038D01*
X145287619Y-64890038D02*
X145335238Y-64937657D01*
X145335238Y-64937657D02*
X145382857Y-65032895D01*
X145382857Y-65032895D02*
X145430476Y-65223371D01*
X145430476Y-65223371D02*
X145430476Y-65461466D01*
X145430476Y-65461466D02*
X145382857Y-65651942D01*
X145382857Y-65651942D02*
X145335238Y-65747180D01*
X145335238Y-65747180D02*
X145287619Y-65794800D01*
X145287619Y-65794800D02*
X145192381Y-65842419D01*
X145192381Y-65842419D02*
X145097143Y-65842419D01*
X145097143Y-65842419D02*
X145001905Y-65794800D01*
X145001905Y-65794800D02*
X144954286Y-65747180D01*
X144954286Y-65747180D02*
X144906667Y-65651942D01*
X144906667Y-65651942D02*
X144859048Y-65461466D01*
X144859048Y-65461466D02*
X144859048Y-65223371D01*
X144859048Y-65223371D02*
X144906667Y-65032895D01*
X144906667Y-65032895D02*
X144954286Y-64937657D01*
X144954286Y-64937657D02*
X145001905Y-64890038D01*
X145001905Y-64890038D02*
X145097143Y-64842419D01*
X127335238Y-67404744D02*
X127478095Y-67452363D01*
X127478095Y-67452363D02*
X127716190Y-67452363D01*
X127716190Y-67452363D02*
X127811428Y-67404744D01*
X127811428Y-67404744D02*
X127859047Y-67357124D01*
X127859047Y-67357124D02*
X127906666Y-67261886D01*
X127906666Y-67261886D02*
X127906666Y-67166648D01*
X127906666Y-67166648D02*
X127859047Y-67071410D01*
X127859047Y-67071410D02*
X127811428Y-67023791D01*
X127811428Y-67023791D02*
X127716190Y-66976172D01*
X127716190Y-66976172D02*
X127525714Y-66928553D01*
X127525714Y-66928553D02*
X127430476Y-66880934D01*
X127430476Y-66880934D02*
X127382857Y-66833315D01*
X127382857Y-66833315D02*
X127335238Y-66738077D01*
X127335238Y-66738077D02*
X127335238Y-66642839D01*
X127335238Y-66642839D02*
X127382857Y-66547601D01*
X127382857Y-66547601D02*
X127430476Y-66499982D01*
X127430476Y-66499982D02*
X127525714Y-66452363D01*
X127525714Y-66452363D02*
X127763809Y-66452363D01*
X127763809Y-66452363D02*
X127906666Y-66499982D01*
X128335238Y-67452363D02*
X128335238Y-66785696D01*
X128335238Y-66452363D02*
X128287619Y-66499982D01*
X128287619Y-66499982D02*
X128335238Y-66547601D01*
X128335238Y-66547601D02*
X128382857Y-66499982D01*
X128382857Y-66499982D02*
X128335238Y-66452363D01*
X128335238Y-66452363D02*
X128335238Y-66547601D01*
X129192380Y-67404744D02*
X129097142Y-67452363D01*
X129097142Y-67452363D02*
X128906666Y-67452363D01*
X128906666Y-67452363D02*
X128811428Y-67404744D01*
X128811428Y-67404744D02*
X128763809Y-67309505D01*
X128763809Y-67309505D02*
X128763809Y-66928553D01*
X128763809Y-66928553D02*
X128811428Y-66833315D01*
X128811428Y-66833315D02*
X128906666Y-66785696D01*
X128906666Y-66785696D02*
X129097142Y-66785696D01*
X129097142Y-66785696D02*
X129192380Y-66833315D01*
X129192380Y-66833315D02*
X129239999Y-66928553D01*
X129239999Y-66928553D02*
X129239999Y-67023791D01*
X129239999Y-67023791D02*
X128763809Y-67119029D01*
X129668571Y-66785696D02*
X129668571Y-67452363D01*
X129668571Y-66880934D02*
X129716190Y-66833315D01*
X129716190Y-66833315D02*
X129811428Y-66785696D01*
X129811428Y-66785696D02*
X129954285Y-66785696D01*
X129954285Y-66785696D02*
X130049523Y-66833315D01*
X130049523Y-66833315D02*
X130097142Y-66928553D01*
X130097142Y-66928553D02*
X130097142Y-67452363D01*
X130573333Y-66785696D02*
X130573333Y-67452363D01*
X130573333Y-66880934D02*
X130620952Y-66833315D01*
X130620952Y-66833315D02*
X130716190Y-66785696D01*
X130716190Y-66785696D02*
X130859047Y-66785696D01*
X130859047Y-66785696D02*
X130954285Y-66833315D01*
X130954285Y-66833315D02*
X131001904Y-66928553D01*
X131001904Y-66928553D02*
X131001904Y-67452363D01*
X131906666Y-67452363D02*
X131906666Y-66928553D01*
X131906666Y-66928553D02*
X131859047Y-66833315D01*
X131859047Y-66833315D02*
X131763809Y-66785696D01*
X131763809Y-66785696D02*
X131573333Y-66785696D01*
X131573333Y-66785696D02*
X131478095Y-66833315D01*
X131906666Y-67404744D02*
X131811428Y-67452363D01*
X131811428Y-67452363D02*
X131573333Y-67452363D01*
X131573333Y-67452363D02*
X131478095Y-67404744D01*
X131478095Y-67404744D02*
X131430476Y-67309505D01*
X131430476Y-67309505D02*
X131430476Y-67214267D01*
X131430476Y-67214267D02*
X131478095Y-67119029D01*
X131478095Y-67119029D02*
X131573333Y-67071410D01*
X131573333Y-67071410D02*
X131811428Y-67071410D01*
X131811428Y-67071410D02*
X131906666Y-67023791D01*
X133049524Y-66452363D02*
X133716190Y-66452363D01*
X133716190Y-66452363D02*
X133049524Y-67452363D01*
X133049524Y-67452363D02*
X133716190Y-67452363D01*
X134097143Y-67452363D02*
X134097143Y-66452363D01*
X134525714Y-67452363D02*
X134525714Y-66928553D01*
X134525714Y-66928553D02*
X134478095Y-66833315D01*
X134478095Y-66833315D02*
X134382857Y-66785696D01*
X134382857Y-66785696D02*
X134240000Y-66785696D01*
X134240000Y-66785696D02*
X134144762Y-66833315D01*
X134144762Y-66833315D02*
X134097143Y-66880934D01*
X135430476Y-67452363D02*
X135430476Y-66928553D01*
X135430476Y-66928553D02*
X135382857Y-66833315D01*
X135382857Y-66833315D02*
X135287619Y-66785696D01*
X135287619Y-66785696D02*
X135097143Y-66785696D01*
X135097143Y-66785696D02*
X135001905Y-66833315D01*
X135430476Y-67404744D02*
X135335238Y-67452363D01*
X135335238Y-67452363D02*
X135097143Y-67452363D01*
X135097143Y-67452363D02*
X135001905Y-67404744D01*
X135001905Y-67404744D02*
X134954286Y-67309505D01*
X134954286Y-67309505D02*
X134954286Y-67214267D01*
X134954286Y-67214267D02*
X135001905Y-67119029D01*
X135001905Y-67119029D02*
X135097143Y-67071410D01*
X135097143Y-67071410D02*
X135335238Y-67071410D01*
X135335238Y-67071410D02*
X135430476Y-67023791D01*
X135906667Y-66785696D02*
X135906667Y-67452363D01*
X135906667Y-66880934D02*
X135954286Y-66833315D01*
X135954286Y-66833315D02*
X136049524Y-66785696D01*
X136049524Y-66785696D02*
X136192381Y-66785696D01*
X136192381Y-66785696D02*
X136287619Y-66833315D01*
X136287619Y-66833315D02*
X136335238Y-66928553D01*
X136335238Y-66928553D02*
X136335238Y-67452363D01*
X137240000Y-66785696D02*
X137240000Y-67595220D01*
X137240000Y-67595220D02*
X137192381Y-67690458D01*
X137192381Y-67690458D02*
X137144762Y-67738077D01*
X137144762Y-67738077D02*
X137049524Y-67785696D01*
X137049524Y-67785696D02*
X136906667Y-67785696D01*
X136906667Y-67785696D02*
X136811429Y-67738077D01*
X137240000Y-67404744D02*
X137144762Y-67452363D01*
X137144762Y-67452363D02*
X136954286Y-67452363D01*
X136954286Y-67452363D02*
X136859048Y-67404744D01*
X136859048Y-67404744D02*
X136811429Y-67357124D01*
X136811429Y-67357124D02*
X136763810Y-67261886D01*
X136763810Y-67261886D02*
X136763810Y-66976172D01*
X136763810Y-66976172D02*
X136811429Y-66880934D01*
X136811429Y-66880934D02*
X136859048Y-66833315D01*
X136859048Y-66833315D02*
X136954286Y-66785696D01*
X136954286Y-66785696D02*
X137144762Y-66785696D01*
X137144762Y-66785696D02*
X137240000Y-66833315D01*
X138478096Y-67071410D02*
X139240001Y-67071410D01*
X140335239Y-66452363D02*
X140906667Y-66452363D01*
X140620953Y-67452363D02*
X140620953Y-66452363D01*
X141240001Y-66928553D02*
X141573334Y-66928553D01*
X141716191Y-67452363D02*
X141240001Y-67452363D01*
X141240001Y-67452363D02*
X141240001Y-66452363D01*
X141240001Y-66452363D02*
X141716191Y-66452363D01*
X142716191Y-67357124D02*
X142668572Y-67404744D01*
X142668572Y-67404744D02*
X142525715Y-67452363D01*
X142525715Y-67452363D02*
X142430477Y-67452363D01*
X142430477Y-67452363D02*
X142287620Y-67404744D01*
X142287620Y-67404744D02*
X142192382Y-67309505D01*
X142192382Y-67309505D02*
X142144763Y-67214267D01*
X142144763Y-67214267D02*
X142097144Y-67023791D01*
X142097144Y-67023791D02*
X142097144Y-66880934D01*
X142097144Y-66880934D02*
X142144763Y-66690458D01*
X142144763Y-66690458D02*
X142192382Y-66595220D01*
X142192382Y-66595220D02*
X142287620Y-66499982D01*
X142287620Y-66499982D02*
X142430477Y-66452363D01*
X142430477Y-66452363D02*
X142525715Y-66452363D01*
X142525715Y-66452363D02*
X142668572Y-66499982D01*
X142668572Y-66499982D02*
X142716191Y-66547601D01*
X143144763Y-67452363D02*
X143144763Y-66452363D01*
X143144763Y-66928553D02*
X143716191Y-66928553D01*
X143716191Y-67452363D02*
X143716191Y-66452363D01*
X144192382Y-67452363D02*
X144192382Y-66452363D01*
X144668572Y-67452363D02*
X144668572Y-66452363D01*
X144668572Y-66452363D02*
X145240000Y-67452363D01*
X145240000Y-67452363D02*
X145240000Y-66452363D01*
X146192381Y-66452363D02*
X145716191Y-66452363D01*
X145716191Y-66452363D02*
X145668572Y-66928553D01*
X145668572Y-66928553D02*
X145716191Y-66880934D01*
X145716191Y-66880934D02*
X145811429Y-66833315D01*
X145811429Y-66833315D02*
X146049524Y-66833315D01*
X146049524Y-66833315D02*
X146144762Y-66880934D01*
X146144762Y-66880934D02*
X146192381Y-66928553D01*
X146192381Y-66928553D02*
X146240000Y-67023791D01*
X146240000Y-67023791D02*
X146240000Y-67261886D01*
X146240000Y-67261886D02*
X146192381Y-67357124D01*
X146192381Y-67357124D02*
X146144762Y-67404744D01*
X146144762Y-67404744D02*
X146049524Y-67452363D01*
X146049524Y-67452363D02*
X145811429Y-67452363D01*
X145811429Y-67452363D02*
X145716191Y-67404744D01*
X145716191Y-67404744D02*
X145668572Y-67357124D01*
X147192381Y-67452363D02*
X146620953Y-67452363D01*
X146906667Y-67452363D02*
X146906667Y-66452363D01*
X146906667Y-66452363D02*
X146811429Y-66595220D01*
X146811429Y-66595220D02*
X146716191Y-66690458D01*
X146716191Y-66690458D02*
X146620953Y-66738077D01*
X148049524Y-66785696D02*
X148049524Y-67452363D01*
X147811429Y-66404744D02*
X147573334Y-67119029D01*
X147573334Y-67119029D02*
X148192381Y-67119029D01*
D11*
X141714285Y-139851009D02*
X141857142Y-139898628D01*
X141857142Y-139898628D02*
X141904761Y-139946247D01*
X141904761Y-139946247D02*
X141952380Y-140041485D01*
X141952380Y-140041485D02*
X141952380Y-140184342D01*
X141952380Y-140184342D02*
X141904761Y-140279580D01*
X141904761Y-140279580D02*
X141857142Y-140327200D01*
X141857142Y-140327200D02*
X141761904Y-140374819D01*
X141761904Y-140374819D02*
X141380952Y-140374819D01*
X141380952Y-140374819D02*
X141380952Y-139374819D01*
X141380952Y-139374819D02*
X141714285Y-139374819D01*
X141714285Y-139374819D02*
X141809523Y-139422438D01*
X141809523Y-139422438D02*
X141857142Y-139470057D01*
X141857142Y-139470057D02*
X141904761Y-139565295D01*
X141904761Y-139565295D02*
X141904761Y-139660533D01*
X141904761Y-139660533D02*
X141857142Y-139755771D01*
X141857142Y-139755771D02*
X141809523Y-139803390D01*
X141809523Y-139803390D02*
X141714285Y-139851009D01*
X141714285Y-139851009D02*
X141380952Y-139851009D01*
X142238095Y-139374819D02*
X142809523Y-139374819D01*
X142523809Y-140374819D02*
X142523809Y-139374819D01*
X143666666Y-140374819D02*
X143095238Y-140374819D01*
X143380952Y-140374819D02*
X143380952Y-139374819D01*
X143380952Y-139374819D02*
X143285714Y-139517676D01*
X143285714Y-139517676D02*
X143190476Y-139612914D01*
X143190476Y-139612914D02*
X143095238Y-139660533D01*
X151166666Y-94804819D02*
X150833333Y-94328628D01*
X150595238Y-94804819D02*
X150595238Y-93804819D01*
X150595238Y-93804819D02*
X150976190Y-93804819D01*
X150976190Y-93804819D02*
X151071428Y-93852438D01*
X151071428Y-93852438D02*
X151119047Y-93900057D01*
X151119047Y-93900057D02*
X151166666Y-93995295D01*
X151166666Y-93995295D02*
X151166666Y-94138152D01*
X151166666Y-94138152D02*
X151119047Y-94233390D01*
X151119047Y-94233390D02*
X151071428Y-94281009D01*
X151071428Y-94281009D02*
X150976190Y-94328628D01*
X150976190Y-94328628D02*
X150595238Y-94328628D01*
X151595238Y-94281009D02*
X151928571Y-94281009D01*
X152071428Y-94804819D02*
X151595238Y-94804819D01*
X151595238Y-94804819D02*
X151595238Y-93804819D01*
X151595238Y-93804819D02*
X152071428Y-93804819D01*
X152833333Y-94281009D02*
X152500000Y-94281009D01*
X152500000Y-94804819D02*
X152500000Y-93804819D01*
X152500000Y-93804819D02*
X152976190Y-93804819D01*
X153500000Y-93804819D02*
X153500000Y-94042914D01*
X153261905Y-93947676D02*
X153500000Y-94042914D01*
X153500000Y-94042914D02*
X153738095Y-93947676D01*
X153357143Y-94233390D02*
X153500000Y-94042914D01*
X153500000Y-94042914D02*
X153642857Y-94233390D01*
X154261905Y-93804819D02*
X154261905Y-94042914D01*
X154023810Y-93947676D02*
X154261905Y-94042914D01*
X154261905Y-94042914D02*
X154500000Y-93947676D01*
X154119048Y-94233390D02*
X154261905Y-94042914D01*
X154261905Y-94042914D02*
X154404762Y-94233390D01*
X151166666Y-154804819D02*
X150833333Y-154328628D01*
X150595238Y-154804819D02*
X150595238Y-153804819D01*
X150595238Y-153804819D02*
X150976190Y-153804819D01*
X150976190Y-153804819D02*
X151071428Y-153852438D01*
X151071428Y-153852438D02*
X151119047Y-153900057D01*
X151119047Y-153900057D02*
X151166666Y-153995295D01*
X151166666Y-153995295D02*
X151166666Y-154138152D01*
X151166666Y-154138152D02*
X151119047Y-154233390D01*
X151119047Y-154233390D02*
X151071428Y-154281009D01*
X151071428Y-154281009D02*
X150976190Y-154328628D01*
X150976190Y-154328628D02*
X150595238Y-154328628D01*
X151595238Y-154281009D02*
X151928571Y-154281009D01*
X152071428Y-154804819D02*
X151595238Y-154804819D01*
X151595238Y-154804819D02*
X151595238Y-153804819D01*
X151595238Y-153804819D02*
X152071428Y-153804819D01*
X152833333Y-154281009D02*
X152500000Y-154281009D01*
X152500000Y-154804819D02*
X152500000Y-153804819D01*
X152500000Y-153804819D02*
X152976190Y-153804819D01*
X153500000Y-153804819D02*
X153500000Y-154042914D01*
X153261905Y-153947676D02*
X153500000Y-154042914D01*
X153500000Y-154042914D02*
X153738095Y-153947676D01*
X153357143Y-154233390D02*
X153500000Y-154042914D01*
X153500000Y-154042914D02*
X153642857Y-154233390D01*
X154261905Y-153804819D02*
X154261905Y-154042914D01*
X154023810Y-153947676D02*
X154261905Y-154042914D01*
X154261905Y-154042914D02*
X154500000Y-153947676D01*
X154119048Y-154233390D02*
X154261905Y-154042914D01*
X154261905Y-154042914D02*
X154404762Y-154233390D01*
X96166666Y-154804819D02*
X95833333Y-154328628D01*
X95595238Y-154804819D02*
X95595238Y-153804819D01*
X95595238Y-153804819D02*
X95976190Y-153804819D01*
X95976190Y-153804819D02*
X96071428Y-153852438D01*
X96071428Y-153852438D02*
X96119047Y-153900057D01*
X96119047Y-153900057D02*
X96166666Y-153995295D01*
X96166666Y-153995295D02*
X96166666Y-154138152D01*
X96166666Y-154138152D02*
X96119047Y-154233390D01*
X96119047Y-154233390D02*
X96071428Y-154281009D01*
X96071428Y-154281009D02*
X95976190Y-154328628D01*
X95976190Y-154328628D02*
X95595238Y-154328628D01*
X96595238Y-154281009D02*
X96928571Y-154281009D01*
X97071428Y-154804819D02*
X96595238Y-154804819D01*
X96595238Y-154804819D02*
X96595238Y-153804819D01*
X96595238Y-153804819D02*
X97071428Y-153804819D01*
X97833333Y-154281009D02*
X97500000Y-154281009D01*
X97500000Y-154804819D02*
X97500000Y-153804819D01*
X97500000Y-153804819D02*
X97976190Y-153804819D01*
X98500000Y-153804819D02*
X98500000Y-154042914D01*
X98261905Y-153947676D02*
X98500000Y-154042914D01*
X98500000Y-154042914D02*
X98738095Y-153947676D01*
X98357143Y-154233390D02*
X98500000Y-154042914D01*
X98500000Y-154042914D02*
X98642857Y-154233390D01*
X99261905Y-153804819D02*
X99261905Y-154042914D01*
X99023810Y-153947676D02*
X99261905Y-154042914D01*
X99261905Y-154042914D02*
X99500000Y-153947676D01*
X99119048Y-154233390D02*
X99261905Y-154042914D01*
X99261905Y-154042914D02*
X99404762Y-154233390D01*
X111274819Y-136116666D02*
X110798628Y-136449999D01*
X111274819Y-136688094D02*
X110274819Y-136688094D01*
X110274819Y-136688094D02*
X110274819Y-136307142D01*
X110274819Y-136307142D02*
X110322438Y-136211904D01*
X110322438Y-136211904D02*
X110370057Y-136164285D01*
X110370057Y-136164285D02*
X110465295Y-136116666D01*
X110465295Y-136116666D02*
X110608152Y-136116666D01*
X110608152Y-136116666D02*
X110703390Y-136164285D01*
X110703390Y-136164285D02*
X110751009Y-136211904D01*
X110751009Y-136211904D02*
X110798628Y-136307142D01*
X110798628Y-136307142D02*
X110798628Y-136688094D01*
X110608152Y-135259523D02*
X111274819Y-135259523D01*
X110227200Y-135497618D02*
X110941485Y-135735713D01*
X110941485Y-135735713D02*
X110941485Y-135116666D01*
X96166666Y-94804819D02*
X95833333Y-94328628D01*
X95595238Y-94804819D02*
X95595238Y-93804819D01*
X95595238Y-93804819D02*
X95976190Y-93804819D01*
X95976190Y-93804819D02*
X96071428Y-93852438D01*
X96071428Y-93852438D02*
X96119047Y-93900057D01*
X96119047Y-93900057D02*
X96166666Y-93995295D01*
X96166666Y-93995295D02*
X96166666Y-94138152D01*
X96166666Y-94138152D02*
X96119047Y-94233390D01*
X96119047Y-94233390D02*
X96071428Y-94281009D01*
X96071428Y-94281009D02*
X95976190Y-94328628D01*
X95976190Y-94328628D02*
X95595238Y-94328628D01*
X96595238Y-94281009D02*
X96928571Y-94281009D01*
X97071428Y-94804819D02*
X96595238Y-94804819D01*
X96595238Y-94804819D02*
X96595238Y-93804819D01*
X96595238Y-93804819D02*
X97071428Y-93804819D01*
X97833333Y-94281009D02*
X97500000Y-94281009D01*
X97500000Y-94804819D02*
X97500000Y-93804819D01*
X97500000Y-93804819D02*
X97976190Y-93804819D01*
X98500000Y-93804819D02*
X98500000Y-94042914D01*
X98261905Y-93947676D02*
X98500000Y-94042914D01*
X98500000Y-94042914D02*
X98738095Y-93947676D01*
X98357143Y-94233390D02*
X98500000Y-94042914D01*
X98500000Y-94042914D02*
X98642857Y-94233390D01*
X99261905Y-93804819D02*
X99261905Y-94042914D01*
X99023810Y-93947676D02*
X99261905Y-94042914D01*
X99261905Y-94042914D02*
X99500000Y-93947676D01*
X99119048Y-94233390D02*
X99261905Y-94042914D01*
X99261905Y-94042914D02*
X99404762Y-94233390D01*
X106179580Y-136116666D02*
X106227200Y-136164285D01*
X106227200Y-136164285D02*
X106274819Y-136307142D01*
X106274819Y-136307142D02*
X106274819Y-136402380D01*
X106274819Y-136402380D02*
X106227200Y-136545237D01*
X106227200Y-136545237D02*
X106131961Y-136640475D01*
X106131961Y-136640475D02*
X106036723Y-136688094D01*
X106036723Y-136688094D02*
X105846247Y-136735713D01*
X105846247Y-136735713D02*
X105703390Y-136735713D01*
X105703390Y-136735713D02*
X105512914Y-136688094D01*
X105512914Y-136688094D02*
X105417676Y-136640475D01*
X105417676Y-136640475D02*
X105322438Y-136545237D01*
X105322438Y-136545237D02*
X105274819Y-136402380D01*
X105274819Y-136402380D02*
X105274819Y-136307142D01*
X105274819Y-136307142D02*
X105322438Y-136164285D01*
X105322438Y-136164285D02*
X105370057Y-136116666D01*
X105370057Y-135735713D02*
X105322438Y-135688094D01*
X105322438Y-135688094D02*
X105274819Y-135592856D01*
X105274819Y-135592856D02*
X105274819Y-135354761D01*
X105274819Y-135354761D02*
X105322438Y-135259523D01*
X105322438Y-135259523D02*
X105370057Y-135211904D01*
X105370057Y-135211904D02*
X105465295Y-135164285D01*
X105465295Y-135164285D02*
X105560533Y-135164285D01*
X105560533Y-135164285D02*
X105703390Y-135211904D01*
X105703390Y-135211904D02*
X106274819Y-135783332D01*
X106274819Y-135783332D02*
X106274819Y-135164285D01*
X101179580Y-136116666D02*
X101227200Y-136164285D01*
X101227200Y-136164285D02*
X101274819Y-136307142D01*
X101274819Y-136307142D02*
X101274819Y-136402380D01*
X101274819Y-136402380D02*
X101227200Y-136545237D01*
X101227200Y-136545237D02*
X101131961Y-136640475D01*
X101131961Y-136640475D02*
X101036723Y-136688094D01*
X101036723Y-136688094D02*
X100846247Y-136735713D01*
X100846247Y-136735713D02*
X100703390Y-136735713D01*
X100703390Y-136735713D02*
X100512914Y-136688094D01*
X100512914Y-136688094D02*
X100417676Y-136640475D01*
X100417676Y-136640475D02*
X100322438Y-136545237D01*
X100322438Y-136545237D02*
X100274819Y-136402380D01*
X100274819Y-136402380D02*
X100274819Y-136307142D01*
X100274819Y-136307142D02*
X100322438Y-136164285D01*
X100322438Y-136164285D02*
X100370057Y-136116666D01*
X100608152Y-135259523D02*
X101274819Y-135259523D01*
X100227200Y-135497618D02*
X100941485Y-135735713D01*
X100941485Y-135735713D02*
X100941485Y-135116666D01*
D12*
%TO.C,BT1*%
X141120000Y-136270000D02*
X141120000Y-133620000D01*
X143880000Y-133620000D02*
X141120000Y-133620000D01*
X143880000Y-136270000D02*
X141120000Y-136270000D01*
X143880000Y-136270000D02*
X143880000Y-133620000D01*
X143880000Y-137540000D02*
X143880000Y-138920000D01*
X143880000Y-138920000D02*
X142500000Y-138920000D01*
%TO.C,R4*%
X111765000Y-136211252D02*
X111765000Y-135688748D01*
X113235000Y-136211252D02*
X113235000Y-135688748D01*
%TO.C,C2*%
X106765000Y-136211252D02*
X106765000Y-135688748D01*
X108235000Y-136211252D02*
X108235000Y-135688748D01*
%TO.C,C4*%
X101765000Y-136211252D02*
X101765000Y-135688748D01*
X103235000Y-136211252D02*
X103235000Y-135688748D01*
%TD*%
M02*
