%TF.GenerationSoftware,KiCad,Pcbnew,9.0.6*%
%TF.CreationDate,2026-03-07T12:05:52-08:00*%
%TF.ProjectId,schematic,73636865-6d61-4746-9963-2e6b69636164,rev?*%
%TF.SameCoordinates,Original*%
%TF.FileFunction,Legend,Bot*%
%TF.FilePolarity,Positive*%
%FSLAX46Y46*%
G04 Gerber Fmt 4.6, Leading zero omitted, Abs format (unit mm)*
G04 Created by KiCad (PCBNEW 9.0.6) date 2026-03-07 12:05:52*
%MOMM*%
%LPD*%
G01*
G04 APERTURE LIST*
%ADD10C,0.150000*%
%ADD11C,0.100000*%
%ADD12C,0.120000*%
G04 APERTURE END LIST*
D10*
X121494819Y-153626905D02*
X120494819Y-153626905D01*
X120494819Y-153626905D02*
X120494819Y-153865000D01*
X120494819Y-153865000D02*
X120542438Y-154007857D01*
X120542438Y-154007857D02*
X120637676Y-154103095D01*
X120637676Y-154103095D02*
X120732914Y-154150714D01*
X120732914Y-154150714D02*
X120923390Y-154198333D01*
X120923390Y-154198333D02*
X121066247Y-154198333D01*
X121066247Y-154198333D02*
X121256723Y-154150714D01*
X121256723Y-154150714D02*
X121351961Y-154103095D01*
X121351961Y-154103095D02*
X121447200Y-154007857D01*
X121447200Y-154007857D02*
X121494819Y-153865000D01*
X121494819Y-153865000D02*
X121494819Y-153626905D01*
X120590057Y-154579286D02*
X120542438Y-154626905D01*
X120542438Y-154626905D02*
X120494819Y-154722143D01*
X120494819Y-154722143D02*
X120494819Y-154960238D01*
X120494819Y-154960238D02*
X120542438Y-155055476D01*
X120542438Y-155055476D02*
X120590057Y-155103095D01*
X120590057Y-155103095D02*
X120685295Y-155150714D01*
X120685295Y-155150714D02*
X120780533Y-155150714D01*
X120780533Y-155150714D02*
X120923390Y-155103095D01*
X120923390Y-155103095D02*
X121494819Y-154531667D01*
X121494819Y-154531667D02*
X121494819Y-155150714D01*
D11*
X99257419Y-134358095D02*
X100066942Y-134358095D01*
X100066942Y-134358095D02*
X100162180Y-134405714D01*
X100162180Y-134405714D02*
X100209800Y-134453333D01*
X100209800Y-134453333D02*
X100257419Y-134548571D01*
X100257419Y-134548571D02*
X100257419Y-134739047D01*
X100257419Y-134739047D02*
X100209800Y-134834285D01*
X100209800Y-134834285D02*
X100162180Y-134881904D01*
X100162180Y-134881904D02*
X100066942Y-134929523D01*
X100066942Y-134929523D02*
X99257419Y-134929523D01*
X99352657Y-135358095D02*
X99305038Y-135405714D01*
X99305038Y-135405714D02*
X99257419Y-135500952D01*
X99257419Y-135500952D02*
X99257419Y-135739047D01*
X99257419Y-135739047D02*
X99305038Y-135834285D01*
X99305038Y-135834285D02*
X99352657Y-135881904D01*
X99352657Y-135881904D02*
X99447895Y-135929523D01*
X99447895Y-135929523D02*
X99543133Y-135929523D01*
X99543133Y-135929523D02*
X99685990Y-135881904D01*
X99685990Y-135881904D02*
X100257419Y-135310476D01*
X100257419Y-135310476D02*
X100257419Y-135929523D01*
D10*
X143833332Y-148907200D02*
X143690475Y-148954819D01*
X143690475Y-148954819D02*
X143452380Y-148954819D01*
X143452380Y-148954819D02*
X143357142Y-148907200D01*
X143357142Y-148907200D02*
X143309523Y-148859580D01*
X143309523Y-148859580D02*
X143261904Y-148764342D01*
X143261904Y-148764342D02*
X143261904Y-148669104D01*
X143261904Y-148669104D02*
X143309523Y-148573866D01*
X143309523Y-148573866D02*
X143357142Y-148526247D01*
X143357142Y-148526247D02*
X143452380Y-148478628D01*
X143452380Y-148478628D02*
X143642856Y-148431009D01*
X143642856Y-148431009D02*
X143738094Y-148383390D01*
X143738094Y-148383390D02*
X143785713Y-148335771D01*
X143785713Y-148335771D02*
X143833332Y-148240533D01*
X143833332Y-148240533D02*
X143833332Y-148145295D01*
X143833332Y-148145295D02*
X143785713Y-148050057D01*
X143785713Y-148050057D02*
X143738094Y-148002438D01*
X143738094Y-148002438D02*
X143642856Y-147954819D01*
X143642856Y-147954819D02*
X143404761Y-147954819D01*
X143404761Y-147954819D02*
X143261904Y-148002438D01*
X142928570Y-147954819D02*
X142690475Y-148954819D01*
X142690475Y-148954819D02*
X142499999Y-148240533D01*
X142499999Y-148240533D02*
X142309523Y-148954819D01*
X142309523Y-148954819D02*
X142071428Y-147954819D01*
X141738094Y-148050057D02*
X141690475Y-148002438D01*
X141690475Y-148002438D02*
X141595237Y-147954819D01*
X141595237Y-147954819D02*
X141357142Y-147954819D01*
X141357142Y-147954819D02*
X141261904Y-148002438D01*
X141261904Y-148002438D02*
X141214285Y-148050057D01*
X141214285Y-148050057D02*
X141166666Y-148145295D01*
X141166666Y-148145295D02*
X141166666Y-148240533D01*
X141166666Y-148240533D02*
X141214285Y-148383390D01*
X141214285Y-148383390D02*
X141785713Y-148954819D01*
X141785713Y-148954819D02*
X141166666Y-148954819D01*
X106333332Y-147987200D02*
X106190475Y-148034819D01*
X106190475Y-148034819D02*
X105952380Y-148034819D01*
X105952380Y-148034819D02*
X105857142Y-147987200D01*
X105857142Y-147987200D02*
X105809523Y-147939580D01*
X105809523Y-147939580D02*
X105761904Y-147844342D01*
X105761904Y-147844342D02*
X105761904Y-147749104D01*
X105761904Y-147749104D02*
X105809523Y-147653866D01*
X105809523Y-147653866D02*
X105857142Y-147606247D01*
X105857142Y-147606247D02*
X105952380Y-147558628D01*
X105952380Y-147558628D02*
X106142856Y-147511009D01*
X106142856Y-147511009D02*
X106238094Y-147463390D01*
X106238094Y-147463390D02*
X106285713Y-147415771D01*
X106285713Y-147415771D02*
X106333332Y-147320533D01*
X106333332Y-147320533D02*
X106333332Y-147225295D01*
X106333332Y-147225295D02*
X106285713Y-147130057D01*
X106285713Y-147130057D02*
X106238094Y-147082438D01*
X106238094Y-147082438D02*
X106142856Y-147034819D01*
X106142856Y-147034819D02*
X105904761Y-147034819D01*
X105904761Y-147034819D02*
X105761904Y-147082438D01*
X105428570Y-147034819D02*
X105190475Y-148034819D01*
X105190475Y-148034819D02*
X104999999Y-147320533D01*
X104999999Y-147320533D02*
X104809523Y-148034819D01*
X104809523Y-148034819D02*
X104571428Y-147034819D01*
X104285713Y-147034819D02*
X103666666Y-147034819D01*
X103666666Y-147034819D02*
X103999999Y-147415771D01*
X103999999Y-147415771D02*
X103857142Y-147415771D01*
X103857142Y-147415771D02*
X103761904Y-147463390D01*
X103761904Y-147463390D02*
X103714285Y-147511009D01*
X103714285Y-147511009D02*
X103666666Y-147606247D01*
X103666666Y-147606247D02*
X103666666Y-147844342D01*
X103666666Y-147844342D02*
X103714285Y-147939580D01*
X103714285Y-147939580D02*
X103761904Y-147987200D01*
X103761904Y-147987200D02*
X103857142Y-148034819D01*
X103857142Y-148034819D02*
X104142856Y-148034819D01*
X104142856Y-148034819D02*
X104238094Y-147987200D01*
X104238094Y-147987200D02*
X104285713Y-147939580D01*
D11*
X115580476Y-128392580D02*
X115580476Y-129392580D01*
X115580476Y-129392580D02*
X115913809Y-128678295D01*
X115913809Y-128678295D02*
X116247142Y-129392580D01*
X116247142Y-129392580D02*
X116247142Y-128392580D01*
X117247142Y-128392580D02*
X116675714Y-128392580D01*
X116961428Y-128392580D02*
X116961428Y-129392580D01*
X116961428Y-129392580D02*
X116866190Y-129249723D01*
X116866190Y-129249723D02*
X116770952Y-129154485D01*
X116770952Y-129154485D02*
X116675714Y-129106866D01*
D12*
%TO.C,D2*%
X123455000Y-151805000D02*
X123920000Y-151805000D01*
X126080000Y-151805000D02*
X126545000Y-151805000D01*
X123920000Y-157153136D02*
G75*
G02*
X123455170Y-151805000I1080000J2788136D01*
G01*
X123920000Y-156619684D02*
G75*
G02*
X123920000Y-152110316I1080000J2254684D01*
G01*
X126080000Y-152110316D02*
G75*
G02*
X126080000Y-156619684I-1080000J-2254684D01*
G01*
X126544830Y-151805000D02*
G75*
G02*
X126080000Y-157153136I-1544830J-2560000D01*
G01*
D11*
%TO.C,U2*%
X94760000Y-131190000D02*
X98570000Y-131190000D01*
X98570000Y-131190000D02*
X98570000Y-138810000D01*
X98570000Y-138810000D02*
X94760000Y-138810000D01*
X121176000Y-136016000D02*
X121176000Y-139064000D01*
X121176000Y-139064000D02*
X124224000Y-139064000D01*
X124224000Y-136016000D02*
X121176000Y-136016000D01*
X124224000Y-139064000D02*
X124224000Y-136016000D01*
X124732000Y-136524000D02*
X124732000Y-138556000D01*
X125240000Y-137032000D02*
X125240000Y-138048000D01*
D12*
%TO.C,SW2*%
X139000000Y-153500000D02*
X139000000Y-152000000D01*
X140250000Y-149500000D02*
X144750000Y-149500000D01*
X144750000Y-156000000D02*
X140250000Y-156000000D01*
X146000000Y-152000000D02*
X146000000Y-153500000D01*
%TO.C,SW3*%
X103620000Y-151230000D02*
X103620000Y-156420000D01*
X106380000Y-148580000D02*
X105000000Y-148580000D01*
X106380000Y-149960000D02*
X106380000Y-148580000D01*
X106380000Y-151230000D02*
X103620000Y-151230000D01*
X106380000Y-151230000D02*
X106380000Y-156420000D01*
X106380000Y-156420000D02*
X103620000Y-156420000D01*
%TD*%
M02*
