%TF.GenerationSoftware,KiCad,Pcbnew,9.0.6*%
%TF.CreationDate,2026-03-07T12:07:25-08:00*%
%TF.ProjectId,schematic,73636865-6d61-4746-9963-2e6b69636164,rev?*%
%TF.SameCoordinates,Original*%
%TF.FileFunction,Copper,L1,Top*%
%TF.FilePolarity,Positive*%
%FSLAX46Y46*%
G04 Gerber Fmt 4.6, Leading zero omitted, Abs format (unit mm)*
G04 Created by KiCad (PCBNEW 9.0.6) date 2026-03-07 12:07:25*
%MOMM*%
%LPD*%
G01*
G04 APERTURE LIST*
G04 Aperture macros list*
%AMRoundRect*
0 Rectangle with rounded corners*
0 $1 Rounding radius*
0 $2 $3 $4 $5 $6 $7 $8 $9 X,Y pos of 4 corners*
0 Add a 4 corners polygon primitive as box body*
4,1,4,$2,$3,$4,$5,$6,$7,$8,$9,$2,$3,0*
0 Add four circle primitives for the rounded corners*
1,1,$1+$1,$2,$3*
1,1,$1+$1,$4,$5*
1,1,$1+$1,$6,$7*
1,1,$1+$1,$8,$9*
0 Add four rect primitives between the rounded corners*
20,1,$1+$1,$2,$3,$4,$5,0*
20,1,$1+$1,$4,$5,$6,$7,0*
20,1,$1+$1,$6,$7,$8,$9,0*
20,1,$1+$1,$8,$9,$2,$3,0*%
G04 Aperture macros list end*
%TA.AperFunction,SMDPad,CuDef*%
%ADD10RoundRect,0.250000X0.475000X-0.250000X0.475000X0.250000X-0.475000X0.250000X-0.475000X-0.250000X0*%
%TD*%
%TA.AperFunction,ComponentPad*%
%ADD11R,2.000000X2.000000*%
%TD*%
%TA.AperFunction,ComponentPad*%
%ADD12C,2.000000*%
%TD*%
%TA.AperFunction,SMDPad,CuDef*%
%ADD13RoundRect,0.250000X-0.475000X0.250000X-0.475000X-0.250000X0.475000X-0.250000X0.475000X0.250000X0*%
%TD*%
%TA.AperFunction,ComponentPad*%
%ADD14C,1.700000*%
%TD*%
%TA.AperFunction,ComponentPad*%
%ADD15O,1.778000X3.556000*%
%TD*%
%TA.AperFunction,ComponentPad*%
%ADD16C,2.500000*%
%TD*%
%TA.AperFunction,ComponentPad*%
%ADD17R,1.070000X1.800000*%
%TD*%
%TA.AperFunction,ComponentPad*%
%ADD18O,1.070000X1.800000*%
%TD*%
%TA.AperFunction,Conductor*%
%ADD19C,0.500000*%
%TD*%
G04 APERTURE END LIST*
D10*
%TO.P,C1,1*%
%TO.N,sensor_3V3*%
X90040000Y-82740000D03*
%TO.P,C1,2*%
%TO.N,sensor_GND*%
X90040000Y-80840000D03*
%TD*%
%TO.P,C3,1*%
%TO.N,sensor_3V3*%
X85040000Y-82740000D03*
%TO.P,C3,2*%
%TO.N,sensor_GND*%
X85040000Y-80840000D03*
%TD*%
D11*
%TO.P,BT2,1,+*%
%TO.N,Net-(BT2-+)*%
X107540000Y-87500000D03*
D12*
%TO.P,BT2,2,-*%
%TO.N,sensor_GND*%
X105000000Y-87500000D03*
%TD*%
D11*
%TO.P,DFRobot_SEN0193,1*%
%TO.N,N/C*%
X89920000Y-122500000D03*
D12*
%TO.P,DFRobot_SEN0193,2*%
X92460000Y-122500000D03*
%TO.P,DFRobot_SEN0193,3*%
X95000000Y-122500000D03*
%TD*%
D10*
%TO.P,R2,1*%
%TO.N,sensor_3V3*%
X90000000Y-98450000D03*
%TO.P,R2,2*%
%TO.N,/SCL*%
X90000000Y-96550000D03*
%TD*%
D13*
%TO.P,R3,1*%
%TO.N,Net-(D1-K)*%
X107500000Y-106550000D03*
%TO.P,R3,2*%
%TO.N,sensor_GND*%
X107500000Y-108450000D03*
%TD*%
D10*
%TO.P,R1,1*%
%TO.N,sensor_3V3*%
X85000000Y-98450000D03*
%TO.P,R1,2*%
%TO.N,SDA*%
X85000000Y-96550000D03*
%TD*%
D11*
%TO.P,J1,1*%
%TO.N,N/C*%
X100040000Y-67660000D03*
D12*
%TO.P,J1,2*%
X100040000Y-70200000D03*
%TO.P,J1,3*%
X100040000Y-72740000D03*
%TO.P,J1,4*%
X100040000Y-75280000D03*
D14*
%TO.P,J1,5*%
X100040000Y-77820000D03*
%TD*%
D15*
%TO.P,U1,1,GPIO1_A0_D0*%
%TO.N,unconnected-(U1-GPIO1_A0_D0-Pad1)*%
X77300000Y-89118000D03*
%TO.P,U1,2,GPIO2_A1_D1*%
%TO.N,unconnected-(U1-GPIO2_A1_D1-Pad2)*%
X79840000Y-89118000D03*
%TO.P,U1,3,GPIO3_A2_D2*%
%TO.N,unconnected-(U1-GPIO3_A2_D2-Pad3)*%
X82380000Y-89118000D03*
%TO.P,U1,4,GPIO4_A3_D3*%
%TO.N,unconnected-(U1-GPIO4_A3_D3-Pad4)*%
X84920000Y-89118000D03*
%TO.P,U1,5,GPIO4_A3_D3_SDA*%
%TO.N,SDA*%
X87460000Y-89118000D03*
%TO.P,U1,6,GPIO6_A5_D5_SCL*%
%TO.N,/SCL*%
X90000000Y-89118000D03*
%TO.P,U1,7,GPIO43_TX_D6*%
%TO.N,unconnected-(U1-GPIO43_TX_D6-Pad7)*%
X92540000Y-89118000D03*
%TO.P,U1,8,GPIO44_D7_RX*%
%TO.N,/U8*%
X92540000Y-105882000D03*
%TO.P,U1,9,GPIO7_A8_D8_SCK*%
%TO.N,/U9*%
X90000000Y-105882000D03*
%TO.P,U1,10,GPIO8_A9_D9_CIPO*%
%TO.N,/U10*%
X87460000Y-105882000D03*
%TO.P,U1,11,GPIO9_A10_D10_COPI*%
%TO.N,/U11*%
X84920000Y-105882000D03*
%TO.P,U1,12,3V3*%
%TO.N,sensor_3V3*%
X82380000Y-105882000D03*
%TO.P,U1,13,GND*%
%TO.N,sensor_GND*%
X79840000Y-105882000D03*
%TO.P,U1,14,5V*%
%TO.N,unconnected-(U1-5V-Pad14)*%
X77300000Y-105882000D03*
D16*
%TO.P,U1,15,+BATT*%
%TO.N,sensor_BAT*%
X102700000Y-94960000D03*
%TO.P,U1,16,-BATT*%
%TO.N,sensor_GND*%
X102700000Y-100040000D03*
%TD*%
%TO.P,SW1,1,A*%
%TO.N,Net-(BT2-+)*%
X99250000Y-117000000D03*
X105750000Y-117000000D03*
%TO.P,SW1,2,B*%
%TO.N,sensor_BAT*%
X99250000Y-112500000D03*
X105750000Y-112500000D03*
%TD*%
D17*
%TO.P,D1,1,K*%
%TO.N,/U8*%
X103770000Y-105000000D03*
D18*
%TO.P,D1,2,A*%
%TO.N,sensor_GND*%
X102500000Y-105000000D03*
%TO.P,D1,3*%
%TO.N,/U10*%
X101230000Y-105000000D03*
%TO.P,D1,4*%
%TO.N,/U9*%
X99960000Y-105000000D03*
%TD*%
D19*
%TO.N,/U10*%
X89828000Y-102752000D02*
X87460000Y-105120000D01*
X101230000Y-104330000D02*
X99652000Y-102752000D01*
X101230000Y-105000000D02*
X101230000Y-104330000D01*
X99652000Y-102752000D02*
X89828000Y-102752000D01*
%TO.N,/U9*%
X91567000Y-103553000D02*
X90000000Y-105120000D01*
X98513000Y-103553000D02*
X91567000Y-103553000D01*
X99960000Y-105000000D02*
X98513000Y-103553000D01*
%TO.N,/U8*%
X93871000Y-106451000D02*
X92540000Y-105120000D01*
X102949836Y-106451000D02*
X93871000Y-106451000D01*
X103770000Y-105630836D02*
X102949836Y-106451000D01*
X103770000Y-105000000D02*
X103770000Y-105630836D01*
%TO.N,sensor_GND*%
X102500000Y-102500000D02*
X102700000Y-102300000D01*
X102700000Y-102300000D02*
X102700000Y-100040000D01*
X102500000Y-105000000D02*
X102500000Y-102500000D01*
%TO.N,Net-(BT2-+)*%
X110978000Y-111772000D02*
X110978000Y-90938000D01*
X110978000Y-90938000D02*
X107540000Y-87500000D01*
X99250000Y-117000000D02*
X105750000Y-117000000D01*
X105750000Y-117000000D02*
X110978000Y-111772000D01*
%TO.N,sensor_GND*%
X98421158Y-110499000D02*
X96751000Y-112169158D01*
X96751000Y-123225288D02*
X95725288Y-124251000D01*
X92517000Y-77723000D02*
X92517000Y-82410556D01*
X91671000Y-124251000D02*
X89920000Y-122500000D01*
X105000000Y-75160000D02*
X100040000Y-70200000D01*
X89143444Y-83991000D02*
X88564000Y-83411556D01*
X107500000Y-108450000D02*
X105451000Y-110499000D01*
X104467766Y-100040000D02*
X102700000Y-100040000D01*
X100040000Y-70200000D02*
X92517000Y-77723000D01*
X107747556Y-108450000D02*
X108976000Y-107221556D01*
X105000000Y-87500000D02*
X100699000Y-91801000D01*
X105000000Y-87500000D02*
X105000000Y-75160000D01*
X88564000Y-83411556D02*
X88564000Y-81591000D01*
X95725288Y-124251000D02*
X91671000Y-124251000D01*
X107500000Y-108450000D02*
X107747556Y-108450000D01*
X90040000Y-80840000D02*
X85040000Y-80840000D01*
X108976000Y-107221556D02*
X108976000Y-104548234D01*
X96751000Y-112169158D02*
X96751000Y-123225288D01*
X105451000Y-110499000D02*
X98421158Y-110499000D01*
X100699000Y-91801000D02*
X100699000Y-98039000D01*
X89920000Y-122500000D02*
X79840000Y-112420000D01*
X79840000Y-112420000D02*
X79840000Y-105120000D01*
X100699000Y-98039000D02*
X102700000Y-100040000D01*
X90936556Y-83991000D02*
X89143444Y-83991000D01*
X88564000Y-81591000D02*
X89315000Y-80840000D01*
X92517000Y-82410556D02*
X90936556Y-83991000D01*
X89315000Y-80840000D02*
X90040000Y-80840000D01*
X108976000Y-104548234D02*
X104467766Y-100040000D01*
X90000000Y-122740000D02*
X90000000Y-122500000D01*
%TO.N,sensor_3V3*%
X91516000Y-81989000D02*
X90765000Y-82740000D01*
X82380000Y-109880000D02*
X82380000Y-105120000D01*
X84315000Y-82740000D02*
X83564000Y-81989000D01*
X85040000Y-82740000D02*
X84315000Y-82740000D01*
X75660000Y-87549690D02*
X75660000Y-90686310D01*
X91516000Y-76184000D02*
X91516000Y-81989000D01*
X85000000Y-98450000D02*
X82380000Y-101070000D01*
X83564000Y-80168444D02*
X87548444Y-76184000D01*
X83423690Y-98450000D02*
X85000000Y-98450000D01*
X87548444Y-76184000D02*
X91516000Y-76184000D01*
X80469690Y-82740000D02*
X75660000Y-87549690D01*
X83564000Y-81989000D02*
X83564000Y-80168444D01*
X90765000Y-82740000D02*
X90040000Y-82740000D01*
X92460000Y-119960000D02*
X82380000Y-109880000D01*
X75660000Y-90686310D02*
X83423690Y-98450000D01*
X85040000Y-82740000D02*
X80469690Y-82740000D01*
X92460000Y-122500000D02*
X92460000Y-119960000D01*
X85000000Y-98450000D02*
X90000000Y-98450000D01*
X82380000Y-101070000D02*
X82380000Y-105120000D01*
X100040000Y-67660000D02*
X91516000Y-76184000D01*
%TO.N,SDA*%
X87460000Y-94090000D02*
X87460000Y-89880000D01*
X100040000Y-75280000D02*
X98439000Y-76881000D01*
X98439000Y-76881000D02*
X98439000Y-86427310D01*
X85000000Y-96550000D02*
X87460000Y-94090000D01*
X98439000Y-86427310D02*
X93219310Y-91647000D01*
X93219310Y-91647000D02*
X89227000Y-91647000D01*
X89227000Y-91647000D02*
X87460000Y-89880000D01*
%TO.N,/SCL*%
X94180000Y-78600000D02*
X94180000Y-84269690D01*
X90000000Y-88449690D02*
X90000000Y-89880000D01*
X94180000Y-84269690D02*
X90000000Y-88449690D01*
X101641000Y-84909000D02*
X101641000Y-74341000D01*
X100040000Y-72740000D02*
X94180000Y-78600000D01*
X90000000Y-96550000D02*
X101641000Y-84909000D01*
X101641000Y-74341000D02*
X100040000Y-72740000D01*
%TO.N,sensor_BAT*%
X99250000Y-112500000D02*
X105750000Y-112500000D01*
X105750000Y-112500000D02*
X109977000Y-108273000D01*
X109977000Y-108273000D02*
X109977000Y-102237000D01*
X109977000Y-102237000D02*
X102700000Y-94960000D01*
%TO.N,/U11*%
X95000000Y-116630310D02*
X84920000Y-106550310D01*
X95000000Y-122500000D02*
X95000000Y-116630310D01*
X84920000Y-106550310D02*
X84920000Y-105120000D01*
%TD*%
%TA.AperFunction,Conductor*%
%TO.N,sensor_GND*%
G36*
X98385038Y-70491107D02*
G01*
X98394865Y-70489944D01*
X98432380Y-70500524D01*
X98470618Y-70508130D01*
X98478847Y-70513628D01*
X98488373Y-70516315D01*
X98518982Y-70540445D01*
X98551400Y-70562106D01*
X98556900Y-70570337D01*
X98564670Y-70576463D01*
X98583715Y-70610470D01*
X98605376Y-70642888D01*
X98612143Y-70661230D01*
X98649430Y-70775988D01*
X98756659Y-70986437D01*
X98895478Y-71177504D01*
X98895480Y-71177506D01*
X98895483Y-71177510D01*
X99011906Y-71293933D01*
X99065880Y-71374712D01*
X99084834Y-71470000D01*
X99065880Y-71565288D01*
X99011906Y-71646066D01*
X98895483Y-71762490D01*
X98895478Y-71762495D01*
X98756659Y-71953562D01*
X98649430Y-72164012D01*
X98576446Y-72388635D01*
X98539501Y-72621896D01*
X98539500Y-72621912D01*
X98539500Y-72858092D01*
X98563548Y-73009927D01*
X98559733Y-73107007D01*
X98519058Y-73195237D01*
X98493683Y-73224948D01*
X93597049Y-78121582D01*
X93547812Y-78195272D01*
X93514917Y-78244502D01*
X93514915Y-78244507D01*
X93458341Y-78381088D01*
X93429500Y-78526079D01*
X93429500Y-83855681D01*
X93410546Y-83950969D01*
X93356570Y-84031751D01*
X90576096Y-86812224D01*
X90495314Y-86866200D01*
X90400026Y-86885154D01*
X90335160Y-86874884D01*
X90334893Y-86875999D01*
X90325367Y-86873712D01*
X90109366Y-86839501D01*
X90109359Y-86839500D01*
X90109356Y-86839500D01*
X89890644Y-86839500D01*
X89890641Y-86839500D01*
X89890633Y-86839501D01*
X89674637Y-86873711D01*
X89674626Y-86873713D01*
X89674625Y-86873714D01*
X89674622Y-86873714D01*
X89674618Y-86873716D01*
X89466627Y-86941295D01*
X89466619Y-86941298D01*
X89466617Y-86941299D01*
X89466613Y-86941300D01*
X89466606Y-86941304D01*
X89271751Y-87040588D01*
X89271744Y-87040592D01*
X89094799Y-87169149D01*
X88940146Y-87323802D01*
X88931442Y-87335783D01*
X88860098Y-87401730D01*
X88768947Y-87435355D01*
X88671867Y-87431539D01*
X88583637Y-87390862D01*
X88528558Y-87335783D01*
X88519853Y-87323802D01*
X88365200Y-87169149D01*
X88335012Y-87147216D01*
X88188257Y-87040593D01*
X88188254Y-87040591D01*
X88188248Y-87040588D01*
X87993393Y-86941304D01*
X87993391Y-86941303D01*
X87993383Y-86941299D01*
X87993376Y-86941296D01*
X87993372Y-86941295D01*
X87807430Y-86880880D01*
X87785375Y-86873714D01*
X87785370Y-86873713D01*
X87785362Y-86873711D01*
X87569366Y-86839501D01*
X87569359Y-86839500D01*
X87569356Y-86839500D01*
X87350644Y-86839500D01*
X87350641Y-86839500D01*
X87350633Y-86839501D01*
X87134637Y-86873711D01*
X87134626Y-86873713D01*
X87134625Y-86873714D01*
X87134622Y-86873714D01*
X87134618Y-86873716D01*
X86926627Y-86941295D01*
X86926619Y-86941298D01*
X86926617Y-86941299D01*
X86926613Y-86941300D01*
X86926606Y-86941304D01*
X86731751Y-87040588D01*
X86731744Y-87040592D01*
X86554799Y-87169149D01*
X86400146Y-87323802D01*
X86391442Y-87335783D01*
X86320098Y-87401730D01*
X86228947Y-87435355D01*
X86131867Y-87431539D01*
X86043637Y-87390862D01*
X85988558Y-87335783D01*
X85979853Y-87323802D01*
X85825200Y-87169149D01*
X85795012Y-87147216D01*
X85648257Y-87040593D01*
X85648254Y-87040591D01*
X85648248Y-87040588D01*
X85453393Y-86941304D01*
X85453391Y-86941303D01*
X85453383Y-86941299D01*
X85453376Y-86941296D01*
X85453372Y-86941295D01*
X85267430Y-86880880D01*
X85245375Y-86873714D01*
X85245370Y-86873713D01*
X85245362Y-86873711D01*
X85029366Y-86839501D01*
X85029359Y-86839500D01*
X85029356Y-86839500D01*
X84810644Y-86839500D01*
X84810641Y-86839500D01*
X84810633Y-86839501D01*
X84594637Y-86873711D01*
X84594626Y-86873713D01*
X84594625Y-86873714D01*
X84594622Y-86873714D01*
X84594618Y-86873716D01*
X84386627Y-86941295D01*
X84386619Y-86941298D01*
X84386617Y-86941299D01*
X84386613Y-86941300D01*
X84386606Y-86941304D01*
X84191751Y-87040588D01*
X84191744Y-87040592D01*
X84014799Y-87169149D01*
X83860146Y-87323802D01*
X83851442Y-87335783D01*
X83780098Y-87401730D01*
X83688947Y-87435355D01*
X83591867Y-87431539D01*
X83503637Y-87390862D01*
X83448558Y-87335783D01*
X83439853Y-87323802D01*
X83285200Y-87169149D01*
X83255012Y-87147216D01*
X83108257Y-87040593D01*
X83108254Y-87040591D01*
X83108248Y-87040588D01*
X82913393Y-86941304D01*
X82913391Y-86941303D01*
X82913383Y-86941299D01*
X82913376Y-86941296D01*
X82913372Y-86941295D01*
X82727430Y-86880880D01*
X82705375Y-86873714D01*
X82705370Y-86873713D01*
X82705362Y-86873711D01*
X82489366Y-86839501D01*
X82489359Y-86839500D01*
X82489356Y-86839500D01*
X82270644Y-86839500D01*
X82270641Y-86839500D01*
X82270633Y-86839501D01*
X82054637Y-86873711D01*
X82054626Y-86873713D01*
X82054625Y-86873714D01*
X82054622Y-86873714D01*
X82054618Y-86873716D01*
X81846627Y-86941295D01*
X81846619Y-86941298D01*
X81846617Y-86941299D01*
X81846613Y-86941300D01*
X81846606Y-86941304D01*
X81651751Y-87040588D01*
X81651744Y-87040592D01*
X81474799Y-87169149D01*
X81320146Y-87323802D01*
X81311442Y-87335783D01*
X81240098Y-87401730D01*
X81148947Y-87435355D01*
X81051867Y-87431539D01*
X80963637Y-87390862D01*
X80908558Y-87335783D01*
X80899853Y-87323802D01*
X80745200Y-87169149D01*
X80715012Y-87147216D01*
X80568257Y-87040593D01*
X80568254Y-87040591D01*
X80568248Y-87040588D01*
X80373393Y-86941304D01*
X80373391Y-86941303D01*
X80373383Y-86941299D01*
X80373376Y-86941296D01*
X80373372Y-86941295D01*
X80187430Y-86880880D01*
X80165375Y-86873714D01*
X80165370Y-86873713D01*
X80165362Y-86873711D01*
X79949366Y-86839501D01*
X79949359Y-86839500D01*
X79949356Y-86839500D01*
X79730644Y-86839500D01*
X79730641Y-86839500D01*
X79730633Y-86839501D01*
X79514637Y-86873711D01*
X79514626Y-86873713D01*
X79514625Y-86873714D01*
X79514622Y-86873714D01*
X79514618Y-86873716D01*
X79306627Y-86941295D01*
X79306619Y-86941298D01*
X79306617Y-86941299D01*
X79306613Y-86941300D01*
X79306606Y-86941304D01*
X79111751Y-87040588D01*
X79111744Y-87040592D01*
X78934799Y-87169149D01*
X78780146Y-87323802D01*
X78771442Y-87335783D01*
X78700098Y-87401730D01*
X78608947Y-87435355D01*
X78511867Y-87431539D01*
X78423637Y-87390862D01*
X78368558Y-87335783D01*
X78359853Y-87323802D01*
X78205200Y-87169149D01*
X78175012Y-87147216D01*
X78028257Y-87040593D01*
X78028254Y-87040591D01*
X78028248Y-87040588D01*
X77833393Y-86941304D01*
X77833392Y-86941303D01*
X77833383Y-86941299D01*
X77833373Y-86941295D01*
X77824345Y-86937556D01*
X77825285Y-86935284D01*
X77754901Y-86895847D01*
X77694770Y-86819537D01*
X77668418Y-86726023D01*
X77679859Y-86629544D01*
X77727349Y-86544787D01*
X77740571Y-86530485D01*
X80707628Y-83563430D01*
X80788410Y-83509454D01*
X80883698Y-83490500D01*
X83900993Y-83490500D01*
X83996281Y-83509454D01*
X84077059Y-83563427D01*
X84096344Y-83582712D01*
X84245666Y-83674814D01*
X84245669Y-83674815D01*
X84245667Y-83674815D01*
X84409310Y-83729040D01*
X84412203Y-83729999D01*
X84514991Y-83740500D01*
X85565008Y-83740499D01*
X85667797Y-83729999D01*
X85834334Y-83674814D01*
X85983656Y-83582712D01*
X86107712Y-83458656D01*
X86199814Y-83309334D01*
X86254999Y-83142797D01*
X86265500Y-83040009D01*
X86265499Y-82439992D01*
X86254999Y-82337203D01*
X86199814Y-82170666D01*
X86107712Y-82021344D01*
X86052081Y-81965713D01*
X85998108Y-81884935D01*
X85979154Y-81789647D01*
X85998108Y-81694359D01*
X86052084Y-81613577D01*
X86107315Y-81558345D01*
X86107318Y-81558341D01*
X86199358Y-81409121D01*
X86199359Y-81409120D01*
X86254504Y-81242701D01*
X86254505Y-81242694D01*
X86264999Y-81139981D01*
X86265000Y-81139971D01*
X86265000Y-81090001D01*
X86264999Y-81090000D01*
X85289000Y-81090000D01*
X85193712Y-81071046D01*
X85112930Y-81017070D01*
X85058954Y-80936288D01*
X85040000Y-80841000D01*
X85040000Y-80839000D01*
X85058954Y-80743712D01*
X85112930Y-80662930D01*
X85193712Y-80608954D01*
X85289000Y-80590000D01*
X86264998Y-80590000D01*
X86264999Y-80589999D01*
X86264999Y-80540032D01*
X86264998Y-80540018D01*
X88815000Y-80540018D01*
X88815000Y-80589999D01*
X88815001Y-80590000D01*
X89790000Y-80590000D01*
X89790000Y-79840001D01*
X89789999Y-79840000D01*
X89515024Y-79840000D01*
X89412300Y-79850494D01*
X89412297Y-79850495D01*
X89245880Y-79905640D01*
X89245878Y-79905641D01*
X89096658Y-79997681D01*
X89096654Y-79997684D01*
X88972684Y-80121654D01*
X88972681Y-80121658D01*
X88880641Y-80270878D01*
X88880640Y-80270879D01*
X88825495Y-80437298D01*
X88825494Y-80437305D01*
X88815000Y-80540018D01*
X86264998Y-80540018D01*
X86264998Y-80540015D01*
X86254505Y-80437300D01*
X86254504Y-80437297D01*
X86199359Y-80270880D01*
X86199358Y-80270878D01*
X86107318Y-80121658D01*
X86107315Y-80121654D01*
X85983345Y-79997684D01*
X85983341Y-79997681D01*
X85834121Y-79905641D01*
X85834120Y-79905640D01*
X85667701Y-79850495D01*
X85667694Y-79850494D01*
X85564981Y-79840000D01*
X85554951Y-79840000D01*
X85459663Y-79821046D01*
X85378881Y-79767070D01*
X85324905Y-79686288D01*
X85305951Y-79591000D01*
X85324905Y-79495712D01*
X85378878Y-79414933D01*
X87786382Y-77007430D01*
X87867164Y-76953454D01*
X87962452Y-76934500D01*
X90516500Y-76934500D01*
X90611788Y-76953454D01*
X90692570Y-77007430D01*
X90746546Y-77088212D01*
X90765500Y-77183500D01*
X90765500Y-79591000D01*
X90746546Y-79686288D01*
X90692570Y-79767070D01*
X90611788Y-79821046D01*
X90516500Y-79840000D01*
X90290001Y-79840000D01*
X90290000Y-79840001D01*
X90290000Y-80591000D01*
X90271046Y-80686288D01*
X90217070Y-80767070D01*
X90136288Y-80821046D01*
X90041000Y-80840000D01*
X90040000Y-80840000D01*
X90040000Y-80841000D01*
X90021046Y-80936288D01*
X89967070Y-81017070D01*
X89886288Y-81071046D01*
X89791000Y-81090000D01*
X88815002Y-81090000D01*
X88815001Y-81090001D01*
X88815001Y-81139984D01*
X88825494Y-81242699D01*
X88825495Y-81242702D01*
X88880640Y-81409119D01*
X88880641Y-81409121D01*
X88972681Y-81558341D01*
X88972684Y-81558345D01*
X89027916Y-81613577D01*
X89081892Y-81694359D01*
X89100846Y-81789647D01*
X89081892Y-81884935D01*
X89027918Y-81965713D01*
X88975291Y-82018341D01*
X88972286Y-82021346D01*
X88880184Y-82170668D01*
X88825002Y-82337197D01*
X88825001Y-82337204D01*
X88814500Y-82439988D01*
X88814500Y-83040006D01*
X88825001Y-83142800D01*
X88880185Y-83309331D01*
X88880186Y-83309334D01*
X88972288Y-83458656D01*
X89096344Y-83582712D01*
X89245666Y-83674814D01*
X89245669Y-83674815D01*
X89245667Y-83674815D01*
X89409310Y-83729040D01*
X89412203Y-83729999D01*
X89514991Y-83740500D01*
X90565008Y-83740499D01*
X90667797Y-83729999D01*
X90834334Y-83674814D01*
X90983656Y-83582712D01*
X91107712Y-83458656D01*
X91110304Y-83454453D01*
X91126476Y-83428235D01*
X91192630Y-83357083D01*
X91200048Y-83351927D01*
X91243416Y-83322952D01*
X92098951Y-82467416D01*
X92181084Y-82344495D01*
X92237658Y-82207913D01*
X92266500Y-82062918D01*
X92266500Y-81915083D01*
X92266500Y-76598007D01*
X92285454Y-76502719D01*
X92339430Y-76421937D01*
X94898787Y-73862580D01*
X98199263Y-70562103D01*
X98207491Y-70556605D01*
X98213617Y-70548836D01*
X98247624Y-70529790D01*
X98280042Y-70508130D01*
X98289748Y-70506199D01*
X98298384Y-70501363D01*
X98337095Y-70496781D01*
X98375330Y-70489176D01*
X98385038Y-70491107D01*
G37*
%TD.AperFunction*%
%TA.AperFunction,Conductor*%
G36*
X108506106Y-63000800D02*
G01*
X108521022Y-63001532D01*
X108830804Y-63016751D01*
X108855095Y-63019143D01*
X109170633Y-63065949D01*
X109194568Y-63070710D01*
X109504002Y-63148219D01*
X109527360Y-63155305D01*
X109827684Y-63262763D01*
X109850259Y-63272114D01*
X110138589Y-63408484D01*
X110160138Y-63420001D01*
X110433735Y-63583989D01*
X110454037Y-63597554D01*
X110669913Y-63757659D01*
X110710235Y-63787564D01*
X110729121Y-63803063D01*
X110965465Y-64017273D01*
X110982726Y-64034534D01*
X111196934Y-64270876D01*
X111212435Y-64289764D01*
X111402440Y-64545955D01*
X111416017Y-64566274D01*
X111579997Y-64839860D01*
X111591515Y-64861410D01*
X111727885Y-65149740D01*
X111737236Y-65172315D01*
X111844690Y-65472626D01*
X111851784Y-65496010D01*
X111929286Y-65805416D01*
X111934053Y-65829382D01*
X111980854Y-66144889D01*
X111983249Y-66169207D01*
X111999200Y-66493893D01*
X111999500Y-66506111D01*
X111999500Y-90298049D01*
X111980546Y-90393337D01*
X111926570Y-90474119D01*
X111845788Y-90528095D01*
X111750500Y-90547049D01*
X111655212Y-90528095D01*
X111574430Y-90474119D01*
X111564209Y-90462842D01*
X111456416Y-90355048D01*
X111456416Y-90355049D01*
X109113429Y-88012061D01*
X109059453Y-87931279D01*
X109040499Y-87835991D01*
X109040499Y-86452134D01*
X109040499Y-86452128D01*
X109034091Y-86392517D01*
X108983796Y-86257669D01*
X108897546Y-86142454D01*
X108782331Y-86056204D01*
X108667305Y-86013302D01*
X108647481Y-86005908D01*
X108587873Y-85999500D01*
X106492134Y-85999500D01*
X106492130Y-85999500D01*
X106492128Y-85999501D01*
X106479314Y-86000878D01*
X106432519Y-86005908D01*
X106432515Y-86005909D01*
X106297670Y-86056203D01*
X106182455Y-86142453D01*
X106182452Y-86142456D01*
X106153766Y-86180776D01*
X106081487Y-86245698D01*
X105989866Y-86278019D01*
X105892850Y-86272818D01*
X105808075Y-86232998D01*
X105786181Y-86217091D01*
X105786180Y-86217090D01*
X105575795Y-86109893D01*
X105351247Y-86036934D01*
X105118063Y-86000001D01*
X105118049Y-86000000D01*
X104881951Y-86000000D01*
X104881936Y-86000001D01*
X104648752Y-86036934D01*
X104424204Y-86109894D01*
X104424199Y-86109896D01*
X104213833Y-86217082D01*
X104130894Y-86277340D01*
X104870591Y-87017037D01*
X104807007Y-87034075D01*
X104692993Y-87099901D01*
X104599901Y-87192993D01*
X104534075Y-87307007D01*
X104517037Y-87370591D01*
X103777340Y-86630893D01*
X103717082Y-86713833D01*
X103609896Y-86924199D01*
X103609894Y-86924204D01*
X103536934Y-87148752D01*
X103500001Y-87381936D01*
X103500000Y-87381951D01*
X103500000Y-87618048D01*
X103500001Y-87618063D01*
X103536934Y-87851247D01*
X103609893Y-88075795D01*
X103717088Y-88286176D01*
X103777339Y-88369105D01*
X104517036Y-87629407D01*
X104534075Y-87692993D01*
X104599901Y-87807007D01*
X104692993Y-87900099D01*
X104807007Y-87965925D01*
X104870590Y-87982962D01*
X104130893Y-88722659D01*
X104213823Y-88782911D01*
X104424204Y-88890106D01*
X104648752Y-88963065D01*
X104881936Y-88999998D01*
X104881951Y-89000000D01*
X105118049Y-89000000D01*
X105118063Y-88999998D01*
X105351247Y-88963065D01*
X105575795Y-88890106D01*
X105786176Y-88782911D01*
X105808070Y-88767004D01*
X105896300Y-88726327D01*
X105993380Y-88722511D01*
X106084531Y-88756136D01*
X106153766Y-88819224D01*
X106182454Y-88857546D01*
X106297669Y-88943796D01*
X106432517Y-88994091D01*
X106492127Y-89000500D01*
X107875991Y-89000499D01*
X107971279Y-89019453D01*
X108052060Y-89073429D01*
X108052061Y-89073429D01*
X110154570Y-91175937D01*
X110208546Y-91256719D01*
X110227500Y-91352007D01*
X110227500Y-100824992D01*
X110208546Y-100920280D01*
X110154570Y-101001062D01*
X110073788Y-101055038D01*
X109978500Y-101073992D01*
X109883212Y-101055038D01*
X109802430Y-101001062D01*
X104455224Y-95653856D01*
X104401248Y-95573074D01*
X104382294Y-95477786D01*
X104390778Y-95413341D01*
X104420548Y-95302238D01*
X104450500Y-95074734D01*
X104450500Y-94845266D01*
X104420548Y-94617762D01*
X104361158Y-94396113D01*
X104273344Y-94184112D01*
X104261686Y-94163920D01*
X104158616Y-93985397D01*
X104158611Y-93985388D01*
X104018919Y-93803339D01*
X103856661Y-93641081D01*
X103856656Y-93641077D01*
X103856655Y-93641076D01*
X103674621Y-93501396D01*
X103674622Y-93501396D01*
X103674612Y-93501389D01*
X103674602Y-93501383D01*
X103475893Y-93386658D01*
X103475882Y-93386653D01*
X103263885Y-93298841D01*
X103135911Y-93264551D01*
X103042238Y-93239452D01*
X103042235Y-93239451D01*
X103042236Y-93239451D01*
X102814734Y-93209500D01*
X102585266Y-93209500D01*
X102357765Y-93239451D01*
X102136114Y-93298841D01*
X101924117Y-93386653D01*
X101924106Y-93386658D01*
X101725397Y-93501383D01*
X101725378Y-93501396D01*
X101543344Y-93641076D01*
X101381076Y-93803344D01*
X101241396Y-93985378D01*
X101241383Y-93985397D01*
X101126658Y-94184106D01*
X101126653Y-94184117D01*
X101038841Y-94396114D01*
X100979451Y-94617765D01*
X100949500Y-94845266D01*
X100949500Y-95074733D01*
X100979451Y-95302234D01*
X101038841Y-95523885D01*
X101126653Y-95735882D01*
X101126658Y-95735893D01*
X101241383Y-95934602D01*
X101241389Y-95934612D01*
X101381081Y-96116661D01*
X101543339Y-96278919D01*
X101725388Y-96418611D01*
X101725397Y-96418616D01*
X101924106Y-96533341D01*
X101924109Y-96533342D01*
X101924112Y-96533344D01*
X102136113Y-96621158D01*
X102357762Y-96680548D01*
X102585266Y-96710500D01*
X102814734Y-96710500D01*
X103042238Y-96680548D01*
X103153342Y-96650777D01*
X103250288Y-96644424D01*
X103342287Y-96675654D01*
X103393856Y-96715224D01*
X109153570Y-102474937D01*
X109207546Y-102555719D01*
X109226500Y-102651007D01*
X109226500Y-107858992D01*
X109207546Y-107954280D01*
X109153570Y-108035062D01*
X109153568Y-108035063D01*
X109106188Y-108082442D01*
X109025406Y-108136418D01*
X108930117Y-108155371D01*
X108834829Y-108136416D01*
X108754049Y-108082439D01*
X108716223Y-108033843D01*
X108474257Y-107627825D01*
X108468187Y-107610726D01*
X108458108Y-107595641D01*
X108452084Y-107565360D01*
X108441758Y-107536267D01*
X108442693Y-107518149D01*
X108439154Y-107500353D01*
X108445177Y-107470071D01*
X108446770Y-107439241D01*
X108454568Y-107422860D01*
X108458108Y-107405065D01*
X108475261Y-107379392D01*
X108488531Y-107351519D01*
X108502003Y-107339370D01*
X108512081Y-107324286D01*
X108567712Y-107268656D01*
X108659814Y-107119334D01*
X108714999Y-106952797D01*
X108725500Y-106850009D01*
X108725499Y-106249992D01*
X108714999Y-106147203D01*
X108713384Y-106142330D01*
X108668700Y-106007483D01*
X108659814Y-105980666D01*
X108567712Y-105831344D01*
X108443656Y-105707288D01*
X108294334Y-105615186D01*
X108294332Y-105615185D01*
X108294330Y-105615184D01*
X108294332Y-105615184D01*
X108127802Y-105560002D01*
X108127798Y-105560001D01*
X108127797Y-105560001D01*
X108025009Y-105549500D01*
X108025005Y-105549500D01*
X106975002Y-105549500D01*
X106974985Y-105549501D01*
X106872199Y-105560001D01*
X106705667Y-105615185D01*
X106556346Y-105707286D01*
X106432286Y-105831346D01*
X106340184Y-105980668D01*
X106285002Y-106147197D01*
X106285001Y-106147204D01*
X106274500Y-106249988D01*
X106274500Y-106850006D01*
X106285001Y-106952800D01*
X106340185Y-107119331D01*
X106340186Y-107119334D01*
X106432288Y-107268656D01*
X106487918Y-107324286D01*
X106541892Y-107405065D01*
X106560846Y-107500353D01*
X106541892Y-107595641D01*
X106487916Y-107676423D01*
X106432684Y-107731654D01*
X106432681Y-107731658D01*
X106340641Y-107880878D01*
X106340640Y-107880879D01*
X106285495Y-108047298D01*
X106285494Y-108047305D01*
X106275000Y-108150018D01*
X106275000Y-108199999D01*
X106275001Y-108200000D01*
X107251000Y-108200000D01*
X107346288Y-108218954D01*
X107427070Y-108272930D01*
X107481046Y-108353712D01*
X107500000Y-108449000D01*
X107500000Y-108451000D01*
X107481046Y-108546288D01*
X107427070Y-108627070D01*
X107346288Y-108681046D01*
X107251000Y-108700000D01*
X106275002Y-108700000D01*
X106275001Y-108700001D01*
X106275001Y-108749984D01*
X106285494Y-108852699D01*
X106285495Y-108852702D01*
X106340640Y-109019119D01*
X106340641Y-109019121D01*
X106432681Y-109168341D01*
X106432684Y-109168345D01*
X106556654Y-109292315D01*
X106556658Y-109292318D01*
X106705878Y-109384358D01*
X106705879Y-109384359D01*
X106872298Y-109439504D01*
X106872305Y-109439505D01*
X106975023Y-109449999D01*
X107137490Y-109449999D01*
X107232778Y-109468952D01*
X107313560Y-109522928D01*
X107367536Y-109603709D01*
X107386491Y-109698998D01*
X107367538Y-109794286D01*
X107313562Y-109875068D01*
X106443855Y-110744775D01*
X106363073Y-110798751D01*
X106267785Y-110817705D01*
X106203341Y-110809221D01*
X106125650Y-110788404D01*
X106092238Y-110779452D01*
X106092236Y-110779451D01*
X105864734Y-110749500D01*
X105635266Y-110749500D01*
X105407765Y-110779451D01*
X105186114Y-110838841D01*
X104974117Y-110926653D01*
X104974106Y-110926658D01*
X104775397Y-111041383D01*
X104775378Y-111041396D01*
X104593344Y-111181076D01*
X104431076Y-111343344D01*
X104291396Y-111525378D01*
X104291386Y-111525392D01*
X104233879Y-111624999D01*
X104169820Y-111698044D01*
X104082685Y-111741015D01*
X104018238Y-111749500D01*
X100981762Y-111749500D01*
X100886474Y-111730546D01*
X100805692Y-111676570D01*
X100766121Y-111624999D01*
X100708613Y-111525392D01*
X100708611Y-111525388D01*
X100568919Y-111343339D01*
X100406661Y-111181081D01*
X100406656Y-111181077D01*
X100406655Y-111181076D01*
X100224621Y-111041396D01*
X100224622Y-111041396D01*
X100224612Y-111041389D01*
X100224602Y-111041383D01*
X100025893Y-110926658D01*
X100025882Y-110926653D01*
X99813885Y-110838841D01*
X99685911Y-110804551D01*
X99592238Y-110779452D01*
X99592235Y-110779451D01*
X99592236Y-110779451D01*
X99364734Y-110749500D01*
X99135266Y-110749500D01*
X98907765Y-110779451D01*
X98686114Y-110838841D01*
X98474117Y-110926653D01*
X98474106Y-110926658D01*
X98275397Y-111041383D01*
X98275378Y-111041396D01*
X98093344Y-111181076D01*
X97931076Y-111343344D01*
X97791396Y-111525378D01*
X97791383Y-111525397D01*
X97676658Y-111724106D01*
X97676653Y-111724117D01*
X97588841Y-111936114D01*
X97529451Y-112157765D01*
X97499500Y-112385266D01*
X97499500Y-112614733D01*
X97529451Y-112842234D01*
X97588841Y-113063885D01*
X97676653Y-113275882D01*
X97676658Y-113275893D01*
X97791383Y-113474602D01*
X97791389Y-113474612D01*
X97931081Y-113656661D01*
X98093339Y-113818919D01*
X98275388Y-113958611D01*
X98275397Y-113958616D01*
X98474106Y-114073341D01*
X98474109Y-114073342D01*
X98474112Y-114073344D01*
X98686113Y-114161158D01*
X98907762Y-114220548D01*
X99135266Y-114250500D01*
X99364734Y-114250500D01*
X99592238Y-114220548D01*
X99813887Y-114161158D01*
X100025888Y-114073344D01*
X100224612Y-113958611D01*
X100406661Y-113818919D01*
X100568919Y-113656661D01*
X100708611Y-113474612D01*
X100766121Y-113375000D01*
X100830180Y-113301956D01*
X100917315Y-113258985D01*
X100981762Y-113250500D01*
X104018238Y-113250500D01*
X104113526Y-113269454D01*
X104194308Y-113323430D01*
X104233877Y-113374999D01*
X104291389Y-113474612D01*
X104431081Y-113656661D01*
X104593339Y-113818919D01*
X104775388Y-113958611D01*
X104775397Y-113958616D01*
X104974106Y-114073341D01*
X104974109Y-114073342D01*
X104974112Y-114073344D01*
X105186113Y-114161158D01*
X105407762Y-114220548D01*
X105635266Y-114250500D01*
X105864734Y-114250500D01*
X106092238Y-114220548D01*
X106313887Y-114161158D01*
X106525888Y-114073344D01*
X106724612Y-113958611D01*
X106906661Y-113818919D01*
X107068919Y-113656661D01*
X107208611Y-113474612D01*
X107323344Y-113275888D01*
X107411158Y-113063887D01*
X107470548Y-112842238D01*
X107500500Y-112614734D01*
X107500500Y-112385266D01*
X107470548Y-112157762D01*
X107440777Y-112046657D01*
X107434423Y-111949712D01*
X107465652Y-111857713D01*
X107505219Y-111806147D01*
X109802432Y-109508935D01*
X109883212Y-109454961D01*
X109978500Y-109436007D01*
X110073788Y-109454961D01*
X110154570Y-109508937D01*
X110208546Y-109589719D01*
X110227500Y-109685007D01*
X110227500Y-111357991D01*
X110208546Y-111453279D01*
X110154570Y-111534061D01*
X106443855Y-115244775D01*
X106363073Y-115298751D01*
X106267785Y-115317705D01*
X106203341Y-115309221D01*
X106125650Y-115288404D01*
X106092238Y-115279452D01*
X106092236Y-115279451D01*
X105864734Y-115249500D01*
X105635266Y-115249500D01*
X105407765Y-115279451D01*
X105186114Y-115338841D01*
X104974117Y-115426653D01*
X104974106Y-115426658D01*
X104775397Y-115541383D01*
X104775378Y-115541396D01*
X104593344Y-115681076D01*
X104431076Y-115843344D01*
X104291396Y-116025378D01*
X104291386Y-116025392D01*
X104233879Y-116124999D01*
X104169820Y-116198044D01*
X104082685Y-116241015D01*
X104018238Y-116249500D01*
X100981762Y-116249500D01*
X100886474Y-116230546D01*
X100805692Y-116176570D01*
X100766121Y-116124999D01*
X100708613Y-116025392D01*
X100708611Y-116025388D01*
X100568919Y-115843339D01*
X100406661Y-115681081D01*
X100406656Y-115681077D01*
X100406655Y-115681076D01*
X100224621Y-115541396D01*
X100224622Y-115541396D01*
X100224612Y-115541389D01*
X100224602Y-115541383D01*
X100025893Y-115426658D01*
X100025882Y-115426653D01*
X99813885Y-115338841D01*
X99685911Y-115304551D01*
X99592238Y-115279452D01*
X99592235Y-115279451D01*
X99592236Y-115279451D01*
X99364734Y-115249500D01*
X99135266Y-115249500D01*
X98907765Y-115279451D01*
X98686114Y-115338841D01*
X98474117Y-115426653D01*
X98474106Y-115426658D01*
X98275397Y-115541383D01*
X98275378Y-115541396D01*
X98093344Y-115681076D01*
X97931076Y-115843344D01*
X97791396Y-116025378D01*
X97791383Y-116025397D01*
X97676658Y-116224106D01*
X97676653Y-116224117D01*
X97588841Y-116436114D01*
X97529451Y-116657765D01*
X97499500Y-116885266D01*
X97499500Y-117114733D01*
X97529451Y-117342234D01*
X97588841Y-117563885D01*
X97676653Y-117775882D01*
X97676658Y-117775893D01*
X97791383Y-117974602D01*
X97791389Y-117974612D01*
X97931081Y-118156661D01*
X98093339Y-118318919D01*
X98275388Y-118458611D01*
X98275397Y-118458616D01*
X98474106Y-118573341D01*
X98474109Y-118573342D01*
X98474112Y-118573344D01*
X98686113Y-118661158D01*
X98907762Y-118720548D01*
X99135266Y-118750500D01*
X99364734Y-118750500D01*
X99592238Y-118720548D01*
X99813887Y-118661158D01*
X100025888Y-118573344D01*
X100224612Y-118458611D01*
X100406661Y-118318919D01*
X100568919Y-118156661D01*
X100708611Y-117974612D01*
X100766121Y-117875000D01*
X100830180Y-117801956D01*
X100917315Y-117758985D01*
X100981762Y-117750500D01*
X104018238Y-117750500D01*
X104113526Y-117769454D01*
X104194308Y-117823430D01*
X104233877Y-117874999D01*
X104291389Y-117974612D01*
X104431081Y-118156661D01*
X104593339Y-118318919D01*
X104775388Y-118458611D01*
X104775397Y-118458616D01*
X104974106Y-118573341D01*
X104974109Y-118573342D01*
X104974112Y-118573344D01*
X105186113Y-118661158D01*
X105407762Y-118720548D01*
X105635266Y-118750500D01*
X105864734Y-118750500D01*
X106092238Y-118720548D01*
X106313887Y-118661158D01*
X106525888Y-118573344D01*
X106724612Y-118458611D01*
X106906661Y-118318919D01*
X107068919Y-118156661D01*
X107208611Y-117974612D01*
X107323344Y-117775888D01*
X107411158Y-117563887D01*
X107470548Y-117342238D01*
X107500500Y-117114734D01*
X107500500Y-116885266D01*
X107470548Y-116657762D01*
X107440777Y-116546657D01*
X107434423Y-116449712D01*
X107465652Y-116357713D01*
X107505219Y-116306147D01*
X111560952Y-112250415D01*
X111560954Y-112250411D01*
X111569602Y-112241764D01*
X111571096Y-112243258D01*
X111633103Y-112192362D01*
X111726072Y-112164151D01*
X111822760Y-112173665D01*
X111908447Y-112219456D01*
X111970088Y-112294553D01*
X111998299Y-112387522D01*
X111999500Y-112411950D01*
X111999500Y-123493888D01*
X111999200Y-123506105D01*
X111999200Y-123506106D01*
X111983249Y-123830792D01*
X111980854Y-123855110D01*
X111934053Y-124170617D01*
X111929286Y-124194583D01*
X111851784Y-124503989D01*
X111844690Y-124527373D01*
X111737236Y-124827684D01*
X111727885Y-124850259D01*
X111591515Y-125138589D01*
X111579997Y-125160139D01*
X111416017Y-125433725D01*
X111402440Y-125454044D01*
X111212435Y-125710235D01*
X111196934Y-125729123D01*
X110982735Y-125965456D01*
X110965456Y-125982735D01*
X110729123Y-126196934D01*
X110710235Y-126212435D01*
X110454044Y-126402440D01*
X110433725Y-126416017D01*
X110160139Y-126579997D01*
X110138589Y-126591515D01*
X109850259Y-126727885D01*
X109827684Y-126737236D01*
X109527373Y-126844690D01*
X109503989Y-126851784D01*
X109194583Y-126929286D01*
X109170617Y-126934053D01*
X108855110Y-126980854D01*
X108830792Y-126983249D01*
X108506107Y-126999200D01*
X108493889Y-126999500D01*
X76386111Y-126999500D01*
X76373893Y-126999200D01*
X76049207Y-126983249D01*
X76024889Y-126980854D01*
X75709382Y-126934053D01*
X75685416Y-126929286D01*
X75376010Y-126851784D01*
X75352626Y-126844690D01*
X75052315Y-126737236D01*
X75029740Y-126727885D01*
X74741410Y-126591515D01*
X74719860Y-126579997D01*
X74583673Y-126498370D01*
X74446268Y-126416013D01*
X74425955Y-126402440D01*
X74169764Y-126212435D01*
X74150876Y-126196934D01*
X73914534Y-125982726D01*
X73897273Y-125965465D01*
X73683063Y-125729121D01*
X73667564Y-125710235D01*
X73477559Y-125454044D01*
X73463989Y-125433735D01*
X73300001Y-125160138D01*
X73288484Y-125138589D01*
X73152114Y-124850259D01*
X73142763Y-124827684D01*
X73035305Y-124527360D01*
X73028219Y-124504002D01*
X72950710Y-124194568D01*
X72945949Y-124170633D01*
X72899143Y-123855095D01*
X72896751Y-123830804D01*
X72880800Y-123506105D01*
X72880500Y-123493888D01*
X72880500Y-122393703D01*
X76149500Y-122393703D01*
X76149500Y-122606296D01*
X76182753Y-122816240D01*
X76194165Y-122851364D01*
X76248443Y-123018412D01*
X76344949Y-123207816D01*
X76469896Y-123379792D01*
X76620208Y-123530104D01*
X76792184Y-123655051D01*
X76981588Y-123751557D01*
X77183757Y-123817246D01*
X77257601Y-123828941D01*
X77393703Y-123850499D01*
X77393710Y-123850499D01*
X77393713Y-123850500D01*
X77393716Y-123850500D01*
X77606284Y-123850500D01*
X77606287Y-123850500D01*
X77606290Y-123850499D01*
X77606296Y-123850499D01*
X77705476Y-123834789D01*
X77816243Y-123817246D01*
X78018412Y-123751557D01*
X78207816Y-123655051D01*
X78379792Y-123530104D01*
X78530104Y-123379792D01*
X78655051Y-123207816D01*
X78751557Y-123018412D01*
X78817246Y-122816243D01*
X78848629Y-122618103D01*
X78850499Y-122606296D01*
X78850500Y-122606284D01*
X78850500Y-122393715D01*
X78850499Y-122393703D01*
X78817246Y-122183759D01*
X78817246Y-122183757D01*
X78751557Y-121981588D01*
X78655051Y-121792184D01*
X78530104Y-121620208D01*
X78379792Y-121469896D01*
X78207816Y-121344949D01*
X78018412Y-121248443D01*
X78018409Y-121248442D01*
X78018407Y-121248441D01*
X77816240Y-121182753D01*
X77606296Y-121149500D01*
X77606287Y-121149500D01*
X77393713Y-121149500D01*
X77393703Y-121149500D01*
X77183759Y-121182753D01*
X76981592Y-121248441D01*
X76792182Y-121344950D01*
X76620206Y-121469897D01*
X76469897Y-121620206D01*
X76344950Y-121792182D01*
X76248441Y-121981592D01*
X76182753Y-122183759D01*
X76149500Y-122393703D01*
X72880500Y-122393703D01*
X72880500Y-87475772D01*
X74909500Y-87475772D01*
X74909500Y-87505980D01*
X74909500Y-90760230D01*
X74938341Y-90905221D01*
X74938342Y-90905224D01*
X74994912Y-91041797D01*
X74994916Y-91041805D01*
X75009779Y-91064049D01*
X75009780Y-91064051D01*
X75077044Y-91164721D01*
X75077045Y-91164722D01*
X75077048Y-91164726D01*
X82945274Y-99032952D01*
X82945277Y-99032954D01*
X82945278Y-99032955D01*
X82954729Y-99040711D01*
X82953026Y-99042785D01*
X83007696Y-99097437D01*
X83044891Y-99187191D01*
X83044906Y-99284346D01*
X83007741Y-99374111D01*
X82976753Y-99411878D01*
X81797049Y-100591582D01*
X81747812Y-100665272D01*
X81714917Y-100714502D01*
X81714915Y-100714507D01*
X81658341Y-100851088D01*
X81629500Y-100996079D01*
X81629500Y-103693881D01*
X81628995Y-103696419D01*
X81629448Y-103698968D01*
X81619537Y-103743965D01*
X81610546Y-103789169D01*
X81609107Y-103791321D01*
X81608551Y-103793849D01*
X81601892Y-103802120D01*
X81556570Y-103869951D01*
X81552936Y-103873511D01*
X81540645Y-103885309D01*
X81474801Y-103933148D01*
X81320148Y-104087801D01*
X81298114Y-104118127D01*
X81282126Y-104133476D01*
X81259501Y-104147933D01*
X81239785Y-104166158D01*
X81218962Y-104173838D01*
X81200259Y-104185791D01*
X81173822Y-104190490D01*
X81148633Y-104199782D01*
X81126454Y-104198909D01*
X81104603Y-104202794D01*
X81078382Y-104197019D01*
X81051553Y-104195964D01*
X81031395Y-104186670D01*
X81009722Y-104181897D01*
X80987708Y-104166528D01*
X80963324Y-104155286D01*
X80944175Y-104136136D01*
X80930060Y-104126282D01*
X80922514Y-104114474D01*
X80908245Y-104100204D01*
X80899475Y-104088133D01*
X80744869Y-103933527D01*
X80567994Y-103805020D01*
X80373201Y-103705768D01*
X80373184Y-103705760D01*
X80165261Y-103638203D01*
X80165247Y-103638199D01*
X80090000Y-103626281D01*
X80090000Y-104677748D01*
X80036081Y-104646619D01*
X79906880Y-104612000D01*
X79773120Y-104612000D01*
X79643919Y-104646619D01*
X79590000Y-104677748D01*
X79590000Y-103626282D01*
X79589999Y-103626281D01*
X79514752Y-103638199D01*
X79514738Y-103638203D01*
X79306815Y-103705760D01*
X79306798Y-103705768D01*
X79112005Y-103805020D01*
X78935130Y-103933527D01*
X78780527Y-104088130D01*
X78771750Y-104100211D01*
X78700404Y-104166157D01*
X78609253Y-104199782D01*
X78512173Y-104195964D01*
X78423944Y-104155287D01*
X78368864Y-104100205D01*
X78360091Y-104088130D01*
X78359852Y-104087801D01*
X78205199Y-103933148D01*
X78028257Y-103804593D01*
X78028254Y-103804591D01*
X78028248Y-103804588D01*
X77833393Y-103705304D01*
X77833391Y-103705303D01*
X77833383Y-103705299D01*
X77833376Y-103705296D01*
X77833372Y-103705295D01*
X77625381Y-103637716D01*
X77625375Y-103637714D01*
X77625370Y-103637713D01*
X77625362Y-103637711D01*
X77409366Y-103603501D01*
X77409359Y-103603500D01*
X77409356Y-103603500D01*
X77190644Y-103603500D01*
X77190641Y-103603500D01*
X77190633Y-103603501D01*
X76974637Y-103637711D01*
X76974626Y-103637713D01*
X76974625Y-103637714D01*
X76974622Y-103637714D01*
X76974618Y-103637716D01*
X76766627Y-103705295D01*
X76766619Y-103705298D01*
X76766617Y-103705299D01*
X76766613Y-103705300D01*
X76766606Y-103705304D01*
X76571751Y-103804588D01*
X76571744Y-103804592D01*
X76394799Y-103933149D01*
X76240149Y-104087799D01*
X76111592Y-104264744D01*
X76111588Y-104264751D01*
X76012304Y-104459606D01*
X76012295Y-104459627D01*
X75944716Y-104667618D01*
X75944711Y-104667637D01*
X75910501Y-104883633D01*
X75910500Y-104883648D01*
X75910500Y-106880351D01*
X75910501Y-106880366D01*
X75944711Y-107096362D01*
X75944716Y-107096381D01*
X76000690Y-107268656D01*
X76012299Y-107304383D01*
X76012303Y-107304391D01*
X76012304Y-107304393D01*
X76104233Y-107484814D01*
X76111593Y-107499257D01*
X76240148Y-107676199D01*
X76394801Y-107830852D01*
X76571743Y-107959407D01*
X76766617Y-108058701D01*
X76974625Y-108126286D01*
X76974636Y-108126287D01*
X76974637Y-108126288D01*
X77034743Y-108135807D01*
X77190644Y-108160500D01*
X77190648Y-108160500D01*
X77409352Y-108160500D01*
X77409356Y-108160500D01*
X77625375Y-108126286D01*
X77833383Y-108058701D01*
X78028257Y-107959407D01*
X78205199Y-107830852D01*
X78359852Y-107676199D01*
X78368863Y-107663795D01*
X78440203Y-107597848D01*
X78531352Y-107564219D01*
X78628432Y-107568032D01*
X78716664Y-107608705D01*
X78771753Y-107663793D01*
X78780526Y-107675868D01*
X78935130Y-107830472D01*
X79112005Y-107958979D01*
X79306798Y-108058231D01*
X79306816Y-108058239D01*
X79514733Y-108125795D01*
X79590000Y-108137716D01*
X79590000Y-105562251D01*
X79643919Y-105593381D01*
X79773120Y-105628000D01*
X79906880Y-105628000D01*
X80036081Y-105593381D01*
X80090000Y-105562251D01*
X80090000Y-108137716D01*
X80165266Y-108125795D01*
X80373183Y-108058239D01*
X80373201Y-108058231D01*
X80567994Y-107958979D01*
X80744869Y-107830472D01*
X80899472Y-107675869D01*
X80908241Y-107663800D01*
X80979583Y-107597849D01*
X81070732Y-107564220D01*
X81167812Y-107568031D01*
X81256043Y-107608704D01*
X81282126Y-107630523D01*
X81298111Y-107645868D01*
X81320148Y-107676199D01*
X81474801Y-107830852D01*
X81540647Y-107878691D01*
X81552936Y-107890488D01*
X81571177Y-107916616D01*
X81592807Y-107940015D01*
X81598739Y-107956096D01*
X81608551Y-107970150D01*
X81615404Y-108001268D01*
X81626434Y-108031165D01*
X81628905Y-108062569D01*
X81629448Y-108065031D01*
X81629206Y-108066389D01*
X81629500Y-108070118D01*
X81629500Y-109953920D01*
X81658341Y-110098911D01*
X81658342Y-110098913D01*
X81714916Y-110235495D01*
X81747813Y-110284729D01*
X81797048Y-110358416D01*
X91636572Y-120197940D01*
X91690546Y-120278719D01*
X91709500Y-120374007D01*
X91709500Y-120973269D01*
X91690546Y-121068557D01*
X91636570Y-121149339D01*
X91555788Y-121203315D01*
X91460500Y-121222269D01*
X91365212Y-121203315D01*
X91284430Y-121149339D01*
X91277548Y-121142457D01*
X91277546Y-121142454D01*
X91162331Y-121056204D01*
X91082117Y-121026286D01*
X91027481Y-121005908D01*
X90967873Y-120999500D01*
X88872134Y-120999500D01*
X88872130Y-120999500D01*
X88872128Y-120999501D01*
X88859314Y-121000878D01*
X88812519Y-121005908D01*
X88812515Y-121005909D01*
X88677670Y-121056203D01*
X88562455Y-121142453D01*
X88562453Y-121142455D01*
X88476204Y-121257669D01*
X88425908Y-121392518D01*
X88419500Y-121452123D01*
X88419500Y-123547865D01*
X88419501Y-123547869D01*
X88425908Y-123607480D01*
X88425909Y-123607484D01*
X88476203Y-123742329D01*
X88476204Y-123742331D01*
X88562454Y-123857546D01*
X88677669Y-123943796D01*
X88812517Y-123994091D01*
X88872127Y-124000500D01*
X90967872Y-124000499D01*
X91027483Y-123994091D01*
X91162331Y-123943796D01*
X91277546Y-123857546D01*
X91305934Y-123819624D01*
X91378208Y-123754704D01*
X91469828Y-123722382D01*
X91566844Y-123727581D01*
X91651623Y-123767401D01*
X91673560Y-123783339D01*
X91673565Y-123783341D01*
X91673567Y-123783343D01*
X91884008Y-123890568D01*
X92108632Y-123963553D01*
X92341908Y-124000500D01*
X92341912Y-124000500D01*
X92578088Y-124000500D01*
X92578092Y-124000500D01*
X92811368Y-123963553D01*
X93035992Y-123890568D01*
X93246433Y-123783343D01*
X93437510Y-123644517D01*
X93553933Y-123528093D01*
X93634712Y-123474120D01*
X93730000Y-123455166D01*
X93825288Y-123474120D01*
X93906066Y-123528093D01*
X94022490Y-123644517D01*
X94022493Y-123644519D01*
X94022495Y-123644521D01*
X94213562Y-123783340D01*
X94213564Y-123783341D01*
X94213567Y-123783343D01*
X94424008Y-123890568D01*
X94648632Y-123963553D01*
X94881908Y-124000500D01*
X94881912Y-124000500D01*
X95118088Y-124000500D01*
X95118092Y-124000500D01*
X95351368Y-123963553D01*
X95575992Y-123890568D01*
X95786433Y-123783343D01*
X95977510Y-123644517D01*
X96144517Y-123477510D01*
X96283343Y-123286433D01*
X96390568Y-123075992D01*
X96463553Y-122851368D01*
X96500500Y-122618092D01*
X96500500Y-122393703D01*
X106149500Y-122393703D01*
X106149500Y-122606296D01*
X106182753Y-122816240D01*
X106194165Y-122851364D01*
X106248443Y-123018412D01*
X106344949Y-123207816D01*
X106469896Y-123379792D01*
X106620208Y-123530104D01*
X106792184Y-123655051D01*
X106981588Y-123751557D01*
X107183757Y-123817246D01*
X107257601Y-123828941D01*
X107393703Y-123850499D01*
X107393710Y-123850499D01*
X107393713Y-123850500D01*
X107393716Y-123850500D01*
X107606284Y-123850500D01*
X107606287Y-123850500D01*
X107606290Y-123850499D01*
X107606296Y-123850499D01*
X107705476Y-123834789D01*
X107816243Y-123817246D01*
X108018412Y-123751557D01*
X108207816Y-123655051D01*
X108379792Y-123530104D01*
X108530104Y-123379792D01*
X108655051Y-123207816D01*
X108751557Y-123018412D01*
X108817246Y-122816243D01*
X108848629Y-122618103D01*
X108850499Y-122606296D01*
X108850500Y-122606284D01*
X108850500Y-122393715D01*
X108850499Y-122393703D01*
X108817246Y-122183759D01*
X108817246Y-122183757D01*
X108751557Y-121981588D01*
X108655051Y-121792184D01*
X108530104Y-121620208D01*
X108379792Y-121469896D01*
X108207816Y-121344949D01*
X108018412Y-121248443D01*
X108018409Y-121248442D01*
X108018407Y-121248441D01*
X107816240Y-121182753D01*
X107606296Y-121149500D01*
X107606287Y-121149500D01*
X107393713Y-121149500D01*
X107393703Y-121149500D01*
X107183759Y-121182753D01*
X106981592Y-121248441D01*
X106792182Y-121344950D01*
X106620206Y-121469897D01*
X106469897Y-121620206D01*
X106344950Y-121792182D01*
X106248441Y-121981592D01*
X106182753Y-122183759D01*
X106149500Y-122393703D01*
X96500500Y-122393703D01*
X96500500Y-122381908D01*
X96463553Y-122148632D01*
X96390568Y-121924008D01*
X96283343Y-121713567D01*
X96283341Y-121713564D01*
X96283340Y-121713562D01*
X96144521Y-121522495D01*
X96144519Y-121522493D01*
X96144517Y-121522490D01*
X95977510Y-121355483D01*
X95977506Y-121355480D01*
X95977504Y-121355478D01*
X95853141Y-121265123D01*
X95787193Y-121193780D01*
X95753566Y-121102630D01*
X95750500Y-121063678D01*
X95750500Y-116556391D01*
X95750499Y-116556389D01*
X95746152Y-116534535D01*
X95743576Y-116521584D01*
X95721659Y-116411398D01*
X95665450Y-116275701D01*
X95665253Y-116275067D01*
X95604419Y-116184022D01*
X95604417Y-116184020D01*
X95582953Y-116151896D01*
X95582952Y-116151894D01*
X87900585Y-108469527D01*
X87846609Y-108388745D01*
X87827655Y-108293457D01*
X87846609Y-108198169D01*
X87900585Y-108117387D01*
X87981367Y-108063411D01*
X87987223Y-108061251D01*
X87993362Y-108058707D01*
X87993383Y-108058701D01*
X88188257Y-107959407D01*
X88365199Y-107830852D01*
X88519852Y-107676199D01*
X88528555Y-107664219D01*
X88599897Y-107598272D01*
X88691047Y-107564645D01*
X88788127Y-107568459D01*
X88876358Y-107609133D01*
X88931444Y-107664219D01*
X88940148Y-107676199D01*
X89094801Y-107830852D01*
X89271743Y-107959407D01*
X89466617Y-108058701D01*
X89674625Y-108126286D01*
X89674636Y-108126287D01*
X89674637Y-108126288D01*
X89734743Y-108135807D01*
X89890644Y-108160500D01*
X89890648Y-108160500D01*
X90109352Y-108160500D01*
X90109356Y-108160500D01*
X90325375Y-108126286D01*
X90533383Y-108058701D01*
X90728257Y-107959407D01*
X90905199Y-107830852D01*
X91059852Y-107676199D01*
X91068555Y-107664219D01*
X91139897Y-107598272D01*
X91231047Y-107564645D01*
X91328127Y-107568459D01*
X91416358Y-107609133D01*
X91471444Y-107664219D01*
X91480148Y-107676199D01*
X91634801Y-107830852D01*
X91811743Y-107959407D01*
X92006617Y-108058701D01*
X92214625Y-108126286D01*
X92214636Y-108126287D01*
X92214637Y-108126288D01*
X92274743Y-108135807D01*
X92430644Y-108160500D01*
X92430648Y-108160500D01*
X92649352Y-108160500D01*
X92649356Y-108160500D01*
X92865375Y-108126286D01*
X93073383Y-108058701D01*
X93268257Y-107959407D01*
X93445199Y-107830852D01*
X93599852Y-107676199D01*
X93728407Y-107499257D01*
X93728412Y-107499248D01*
X93810850Y-107337456D01*
X93870998Y-107261158D01*
X93955766Y-107213687D01*
X94032710Y-107201500D01*
X103023755Y-107201500D01*
X103023755Y-107201499D01*
X103168749Y-107172658D01*
X103297490Y-107119332D01*
X103305327Y-107116086D01*
X103305328Y-107116085D01*
X103305331Y-107116084D01*
X103354565Y-107083186D01*
X103428252Y-107033952D01*
X103988773Y-106473429D01*
X104069555Y-106419453D01*
X104164843Y-106400499D01*
X104352866Y-106400499D01*
X104352872Y-106400499D01*
X104412483Y-106394091D01*
X104547331Y-106343796D01*
X104662546Y-106257546D01*
X104748796Y-106142331D01*
X104799091Y-106007483D01*
X104805500Y-105947873D01*
X104805499Y-104052128D01*
X104799091Y-103992517D01*
X104748796Y-103857669D01*
X104662546Y-103742454D01*
X104547331Y-103656204D01*
X104467103Y-103626281D01*
X104412481Y-103605908D01*
X104352873Y-103599500D01*
X103187134Y-103599500D01*
X103187130Y-103599500D01*
X103187128Y-103599501D01*
X103174314Y-103600878D01*
X103127519Y-103605908D01*
X103127511Y-103605910D01*
X103004949Y-103651623D01*
X102909045Y-103667163D01*
X102822648Y-103648368D01*
X102801905Y-103639776D01*
X102801902Y-103639775D01*
X102750000Y-103629450D01*
X102750000Y-103925023D01*
X102743328Y-103982277D01*
X102741328Y-103990742D01*
X102700972Y-104079119D01*
X102629867Y-104145325D01*
X102538839Y-104179280D01*
X102441746Y-104175816D01*
X102353369Y-104135460D01*
X102287163Y-104064355D01*
X102253208Y-103973327D01*
X102250000Y-103933488D01*
X102250000Y-103629450D01*
X102249999Y-103629450D01*
X102198100Y-103639774D01*
X102009742Y-103717795D01*
X102009740Y-103717796D01*
X102003780Y-103721779D01*
X101972575Y-103734703D01*
X101943167Y-103751299D01*
X101928071Y-103753135D01*
X101914019Y-103758956D01*
X101880247Y-103758954D01*
X101846724Y-103763034D01*
X101834894Y-103758953D01*
X101816864Y-103758953D01*
X101753131Y-103736968D01*
X101739663Y-103730161D01*
X101720493Y-103717352D01*
X101686281Y-103703181D01*
X101677912Y-103698951D01*
X101646908Y-103674673D01*
X101614160Y-103652792D01*
X101463868Y-103502500D01*
X100130416Y-102169048D01*
X100130412Y-102169045D01*
X100130410Y-102169043D01*
X100130411Y-102169043D01*
X100056732Y-102119815D01*
X100056729Y-102119812D01*
X100056729Y-102119813D01*
X100007495Y-102086916D01*
X99870913Y-102030342D01*
X99870911Y-102030341D01*
X99725920Y-102001500D01*
X99725918Y-102001500D01*
X89754082Y-102001500D01*
X89754074Y-102001500D01*
X89725244Y-102007234D01*
X89725245Y-102007235D01*
X89609090Y-102030340D01*
X89529076Y-102063482D01*
X89472507Y-102086914D01*
X89472503Y-102086916D01*
X89433171Y-102113197D01*
X89423270Y-102119813D01*
X89386671Y-102144267D01*
X89349579Y-102169051D01*
X89349578Y-102169052D01*
X87957564Y-103561065D01*
X87876783Y-103615041D01*
X87781495Y-103633995D01*
X87742544Y-103630930D01*
X87569356Y-103603500D01*
X87350644Y-103603500D01*
X87350641Y-103603500D01*
X87350633Y-103603501D01*
X87134637Y-103637711D01*
X87134626Y-103637713D01*
X87134625Y-103637714D01*
X87134622Y-103637714D01*
X87134618Y-103637716D01*
X86926627Y-103705295D01*
X86926619Y-103705298D01*
X86926617Y-103705299D01*
X86926613Y-103705300D01*
X86926606Y-103705304D01*
X86731751Y-103804588D01*
X86731744Y-103804592D01*
X86554799Y-103933149D01*
X86400146Y-104087802D01*
X86391442Y-104099783D01*
X86320098Y-104165730D01*
X86228947Y-104199355D01*
X86131867Y-104195539D01*
X86043637Y-104154862D01*
X85988558Y-104099783D01*
X85979853Y-104087802D01*
X85825200Y-103933149D01*
X85825199Y-103933148D01*
X85648257Y-103804593D01*
X85648254Y-103804591D01*
X85648248Y-103804588D01*
X85453393Y-103705304D01*
X85453391Y-103705303D01*
X85453383Y-103705299D01*
X85453376Y-103705296D01*
X85453372Y-103705295D01*
X85245381Y-103637716D01*
X85245375Y-103637714D01*
X85245370Y-103637713D01*
X85245362Y-103637711D01*
X85029366Y-103603501D01*
X85029359Y-103603500D01*
X85029356Y-103603500D01*
X84810644Y-103603500D01*
X84810641Y-103603500D01*
X84810633Y-103603501D01*
X84594637Y-103637711D01*
X84594626Y-103637713D01*
X84594625Y-103637714D01*
X84594622Y-103637714D01*
X84594618Y-103637716D01*
X84386627Y-103705295D01*
X84386619Y-103705298D01*
X84386617Y-103705299D01*
X84386613Y-103705300D01*
X84386606Y-103705304D01*
X84191751Y-103804588D01*
X84191744Y-103804592D01*
X84014799Y-103933149D01*
X83860146Y-104087802D01*
X83851442Y-104099783D01*
X83780098Y-104165730D01*
X83688947Y-104199355D01*
X83591867Y-104195539D01*
X83503637Y-104154862D01*
X83477608Y-104133092D01*
X83461594Y-104117727D01*
X83439852Y-104087801D01*
X83285199Y-103933148D01*
X83219380Y-103885328D01*
X83207108Y-103873553D01*
X83188843Y-103847405D01*
X83167193Y-103823984D01*
X83161271Y-103807932D01*
X83151473Y-103793905D01*
X83144604Y-103762755D01*
X83133566Y-103732834D01*
X83131100Y-103701512D01*
X83130553Y-103699029D01*
X83130797Y-103697654D01*
X83130500Y-103693881D01*
X83130500Y-101484006D01*
X83149454Y-101388718D01*
X83203428Y-101307938D01*
X84586066Y-99925299D01*
X100950000Y-99925299D01*
X100950000Y-100154700D01*
X100979942Y-100382136D01*
X101039316Y-100603722D01*
X101039319Y-100603731D01*
X101127100Y-100815655D01*
X101127107Y-100815671D01*
X101241800Y-101014324D01*
X101241806Y-101014334D01*
X101298380Y-101088062D01*
X102210504Y-100175938D01*
X102226619Y-100236081D01*
X102293498Y-100351920D01*
X102388080Y-100446502D01*
X102503919Y-100513381D01*
X102564057Y-100529495D01*
X101651935Y-101441617D01*
X101725665Y-101498193D01*
X101725675Y-101498199D01*
X101924328Y-101612892D01*
X101924344Y-101612899D01*
X102136268Y-101700680D01*
X102136277Y-101700683D01*
X102357863Y-101760057D01*
X102585299Y-101790000D01*
X102814701Y-101790000D01*
X103042136Y-101760057D01*
X103263722Y-101700683D01*
X103263731Y-101700680D01*
X103475655Y-101612899D01*
X103475671Y-101612892D01*
X103674325Y-101498199D01*
X103674337Y-101498191D01*
X103748063Y-101441618D01*
X102835940Y-100529495D01*
X102896081Y-100513381D01*
X103011920Y-100446502D01*
X103106502Y-100351920D01*
X103173381Y-100236081D01*
X103189495Y-100175940D01*
X104101618Y-101088063D01*
X104158191Y-101014337D01*
X104158199Y-101014325D01*
X104272892Y-100815671D01*
X104272899Y-100815655D01*
X104360680Y-100603731D01*
X104360683Y-100603722D01*
X104420057Y-100382136D01*
X104450000Y-100154700D01*
X104450000Y-99925299D01*
X104420057Y-99697863D01*
X104360683Y-99476277D01*
X104360680Y-99476268D01*
X104272899Y-99264344D01*
X104272892Y-99264328D01*
X104158199Y-99065675D01*
X104158193Y-99065665D01*
X104101617Y-98991935D01*
X103189495Y-99904057D01*
X103173381Y-99843919D01*
X103106502Y-99728080D01*
X103011920Y-99633498D01*
X102896081Y-99566619D01*
X102835938Y-99550504D01*
X103748063Y-98638380D01*
X103674334Y-98581806D01*
X103674324Y-98581800D01*
X103475671Y-98467107D01*
X103475655Y-98467100D01*
X103263731Y-98379319D01*
X103263722Y-98379316D01*
X103042136Y-98319942D01*
X102814701Y-98290000D01*
X102585299Y-98290000D01*
X102357863Y-98319942D01*
X102136277Y-98379316D01*
X102136268Y-98379319D01*
X101924344Y-98467100D01*
X101924328Y-98467107D01*
X101725666Y-98581805D01*
X101725665Y-98581805D01*
X101651935Y-98638380D01*
X102564059Y-99550504D01*
X102503919Y-99566619D01*
X102388080Y-99633498D01*
X102293498Y-99728080D01*
X102226619Y-99843919D01*
X102210504Y-99904059D01*
X101298380Y-98991935D01*
X101241805Y-99065665D01*
X101241805Y-99065666D01*
X101127107Y-99264328D01*
X101127100Y-99264344D01*
X101039319Y-99476268D01*
X101039316Y-99476277D01*
X100979942Y-99697863D01*
X100950000Y-99925299D01*
X84586066Y-99925299D01*
X84987937Y-99523428D01*
X85068719Y-99469453D01*
X85164007Y-99450499D01*
X85525006Y-99450499D01*
X85525008Y-99450499D01*
X85627797Y-99439999D01*
X85794334Y-99384814D01*
X85943656Y-99292712D01*
X85962940Y-99273427D01*
X86043719Y-99219454D01*
X86139007Y-99200500D01*
X88860993Y-99200500D01*
X88956281Y-99219454D01*
X89037059Y-99273427D01*
X89056344Y-99292712D01*
X89205666Y-99384814D01*
X89205669Y-99384815D01*
X89205667Y-99384815D01*
X89369310Y-99439040D01*
X89372203Y-99439999D01*
X89474991Y-99450500D01*
X90525008Y-99450499D01*
X90627797Y-99439999D01*
X90794334Y-99384814D01*
X90943656Y-99292712D01*
X91067712Y-99168656D01*
X91159814Y-99019334D01*
X91214999Y-98852797D01*
X91225500Y-98750009D01*
X91225499Y-98149992D01*
X91214999Y-98047203D01*
X91159814Y-97880666D01*
X91067712Y-97731344D01*
X91012434Y-97676066D01*
X90958461Y-97595288D01*
X90939507Y-97500000D01*
X90958461Y-97404712D01*
X91012434Y-97323933D01*
X91067712Y-97268656D01*
X91159814Y-97119334D01*
X91214999Y-96952797D01*
X91225500Y-96850009D01*
X91225499Y-96489006D01*
X91244453Y-96393719D01*
X91298429Y-96312938D01*
X102223952Y-85387416D01*
X102273186Y-85313729D01*
X102306084Y-85264495D01*
X102362658Y-85127913D01*
X102391500Y-84982918D01*
X102391500Y-74267082D01*
X102362658Y-74122087D01*
X102306084Y-73985505D01*
X102273186Y-73936270D01*
X102223952Y-73862584D01*
X102223948Y-73862580D01*
X101586316Y-73224947D01*
X101532340Y-73144166D01*
X101513386Y-73048878D01*
X101516452Y-73009925D01*
X101540500Y-72858092D01*
X101540500Y-72621908D01*
X101503553Y-72388632D01*
X101430568Y-72164008D01*
X101323343Y-71953567D01*
X101323341Y-71953564D01*
X101323340Y-71953562D01*
X101184521Y-71762495D01*
X101184519Y-71762493D01*
X101184517Y-71762490D01*
X101068093Y-71646066D01*
X101014120Y-71565288D01*
X100995166Y-71470000D01*
X101014120Y-71374712D01*
X101068093Y-71293933D01*
X101184517Y-71177510D01*
X101323343Y-70986433D01*
X101430568Y-70775992D01*
X101503553Y-70551368D01*
X101540500Y-70318092D01*
X101540500Y-70081908D01*
X101503553Y-69848632D01*
X101430568Y-69624008D01*
X101323343Y-69413567D01*
X101323341Y-69413565D01*
X101323339Y-69413560D01*
X101307401Y-69391623D01*
X101266726Y-69303392D01*
X101262913Y-69206312D01*
X101296541Y-69115162D01*
X101359623Y-69045934D01*
X101397546Y-69017546D01*
X101483796Y-68902331D01*
X101534091Y-68767483D01*
X101540500Y-68707873D01*
X101540499Y-67393703D01*
X106149500Y-67393703D01*
X106149500Y-67606296D01*
X106182753Y-67816240D01*
X106182754Y-67816243D01*
X106248443Y-68018412D01*
X106344949Y-68207816D01*
X106469896Y-68379792D01*
X106620208Y-68530104D01*
X106792184Y-68655051D01*
X106981588Y-68751557D01*
X107183757Y-68817246D01*
X107257601Y-68828941D01*
X107393703Y-68850499D01*
X107393710Y-68850499D01*
X107393713Y-68850500D01*
X107393716Y-68850500D01*
X107606284Y-68850500D01*
X107606287Y-68850500D01*
X107606290Y-68850499D01*
X107606296Y-68850499D01*
X107705476Y-68834789D01*
X107816243Y-68817246D01*
X108018412Y-68751557D01*
X108207816Y-68655051D01*
X108379792Y-68530104D01*
X108530104Y-68379792D01*
X108655051Y-68207816D01*
X108751557Y-68018412D01*
X108817246Y-67816243D01*
X108850500Y-67606287D01*
X108850500Y-67393713D01*
X108850499Y-67393710D01*
X108850499Y-67393703D01*
X108817246Y-67183759D01*
X108817246Y-67183757D01*
X108751557Y-66981588D01*
X108655051Y-66792184D01*
X108530104Y-66620208D01*
X108379792Y-66469896D01*
X108207816Y-66344949D01*
X108018412Y-66248443D01*
X108018409Y-66248442D01*
X108018407Y-66248441D01*
X107816240Y-66182753D01*
X107606296Y-66149500D01*
X107606287Y-66149500D01*
X107393713Y-66149500D01*
X107393703Y-66149500D01*
X107183759Y-66182753D01*
X106981592Y-66248441D01*
X106792182Y-66344950D01*
X106620206Y-66469897D01*
X106469897Y-66620206D01*
X106344950Y-66792182D01*
X106248441Y-66981592D01*
X106182753Y-67183759D01*
X106149500Y-67393703D01*
X101540499Y-67393703D01*
X101540499Y-66612128D01*
X101534091Y-66552517D01*
X101483796Y-66417669D01*
X101397546Y-66302454D01*
X101282331Y-66216204D01*
X101192644Y-66182753D01*
X101147481Y-66165908D01*
X101087873Y-66159500D01*
X98992134Y-66159500D01*
X98992130Y-66159500D01*
X98992128Y-66159501D01*
X98979314Y-66160878D01*
X98932519Y-66165908D01*
X98932515Y-66165909D01*
X98797670Y-66216203D01*
X98682455Y-66302453D01*
X98682453Y-66302455D01*
X98596204Y-66417669D01*
X98545908Y-66552518D01*
X98539500Y-66612123D01*
X98539500Y-67995992D01*
X98520546Y-68091280D01*
X98466570Y-68172062D01*
X91278062Y-75360570D01*
X91197280Y-75414546D01*
X91101992Y-75433500D01*
X87474518Y-75433500D01*
X87445688Y-75439234D01*
X87445689Y-75439235D01*
X87329534Y-75462340D01*
X87249520Y-75495482D01*
X87192951Y-75518914D01*
X87192947Y-75518916D01*
X87153615Y-75545197D01*
X87143714Y-75551813D01*
X87106871Y-75576430D01*
X87070026Y-75601049D01*
X82981049Y-79690026D01*
X82931812Y-79763716D01*
X82898917Y-79812946D01*
X82898915Y-79812951D01*
X82842341Y-79949532D01*
X82813500Y-80094523D01*
X82813500Y-81740500D01*
X82794546Y-81835788D01*
X82740570Y-81916570D01*
X82659788Y-81970546D01*
X82564500Y-81989500D01*
X80395769Y-81989500D01*
X80250778Y-82018341D01*
X80114197Y-82074915D01*
X80114192Y-82074917D01*
X80064961Y-82107811D01*
X80064960Y-82107813D01*
X80028117Y-82132430D01*
X79991272Y-82157049D01*
X77523137Y-84625185D01*
X75077048Y-87071274D01*
X75028117Y-87144506D01*
X74994916Y-87194195D01*
X74938342Y-87330777D01*
X74909500Y-87475772D01*
X72880500Y-87475772D01*
X72880500Y-67393703D01*
X76149500Y-67393703D01*
X76149500Y-67606296D01*
X76182753Y-67816240D01*
X76182754Y-67816243D01*
X76248443Y-68018412D01*
X76344949Y-68207816D01*
X76469896Y-68379792D01*
X76620208Y-68530104D01*
X76792184Y-68655051D01*
X76981588Y-68751557D01*
X77183757Y-68817246D01*
X77257601Y-68828941D01*
X77393703Y-68850499D01*
X77393710Y-68850499D01*
X77393713Y-68850500D01*
X77393716Y-68850500D01*
X77606284Y-68850500D01*
X77606287Y-68850500D01*
X77606290Y-68850499D01*
X77606296Y-68850499D01*
X77705476Y-68834789D01*
X77816243Y-68817246D01*
X78018412Y-68751557D01*
X78207816Y-68655051D01*
X78379792Y-68530104D01*
X78530104Y-68379792D01*
X78655051Y-68207816D01*
X78751557Y-68018412D01*
X78817246Y-67816243D01*
X78850500Y-67606287D01*
X78850500Y-67393713D01*
X78850499Y-67393710D01*
X78850499Y-67393703D01*
X78817246Y-67183759D01*
X78817246Y-67183757D01*
X78751557Y-66981588D01*
X78655051Y-66792184D01*
X78530104Y-66620208D01*
X78379792Y-66469896D01*
X78207816Y-66344949D01*
X78018412Y-66248443D01*
X78018409Y-66248442D01*
X78018407Y-66248441D01*
X77816240Y-66182753D01*
X77606296Y-66149500D01*
X77606287Y-66149500D01*
X77393713Y-66149500D01*
X77393703Y-66149500D01*
X77183759Y-66182753D01*
X76981592Y-66248441D01*
X76792182Y-66344950D01*
X76620206Y-66469897D01*
X76469897Y-66620206D01*
X76344950Y-66792182D01*
X76248441Y-66981592D01*
X76182753Y-67183759D01*
X76149500Y-67393703D01*
X72880500Y-67393703D01*
X72880500Y-66506111D01*
X72880800Y-66493894D01*
X72883737Y-66434108D01*
X72896751Y-66169191D01*
X72899143Y-66144906D01*
X72945949Y-65829362D01*
X72950709Y-65805435D01*
X73028220Y-65495991D01*
X73035303Y-65472644D01*
X73142766Y-65172306D01*
X73152110Y-65149748D01*
X73288489Y-64861400D01*
X73299996Y-64839870D01*
X73463995Y-64566254D01*
X73477547Y-64545971D01*
X73667571Y-64289754D01*
X73683055Y-64270888D01*
X73897282Y-64034524D01*
X73914524Y-64017282D01*
X74150888Y-63803055D01*
X74169754Y-63787571D01*
X74425971Y-63597547D01*
X74446254Y-63583995D01*
X74719870Y-63419996D01*
X74741400Y-63408489D01*
X75029748Y-63272110D01*
X75052306Y-63262766D01*
X75352644Y-63155303D01*
X75375991Y-63148220D01*
X75685435Y-63070709D01*
X75709362Y-63065949D01*
X76024906Y-63019143D01*
X76049193Y-63016751D01*
X76359950Y-63001484D01*
X76373894Y-63000800D01*
X76386111Y-63000500D01*
X76445892Y-63000500D01*
X108434108Y-63000500D01*
X108493889Y-63000500D01*
X108506106Y-63000800D01*
G37*
%TD.AperFunction*%
%TD*%
M02*
