%TF.GenerationSoftware,KiCad,Pcbnew,9.0.6*%
%TF.CreationDate,2026-03-05T16:52:31-08:00*%
%TF.ProjectId,schematic,73636865-6d61-4746-9963-2e6b69636164,rev?*%
%TF.SameCoordinates,Original*%
%TF.FileFunction,Soldermask,Top*%
%TF.FilePolarity,Negative*%
%FSLAX46Y46*%
G04 Gerber Fmt 4.6, Leading zero omitted, Abs format (unit mm)*
G04 Created by KiCad (PCBNEW 9.0.6) date 2026-03-05 16:52:31*
%MOMM*%
%LPD*%
G01*
G04 APERTURE LIST*
G04 Aperture macros list*
%AMRoundRect*
0 Rectangle with rounded corners*
0 $1 Rounding radius*
0 $2 $3 $4 $5 $6 $7 $8 $9 X,Y pos of 4 corners*
0 Add a 4 corners polygon primitive as box body*
4,1,4,$2,$3,$4,$5,$6,$7,$8,$9,$2,$3,0*
0 Add four circle primitives for the rounded corners*
1,1,$1+$1,$2,$3*
1,1,$1+$1,$4,$5*
1,1,$1+$1,$6,$7*
1,1,$1+$1,$8,$9*
0 Add four rect primitives between the rounded corners*
20,1,$1+$1,$2,$3,$4,$5,0*
20,1,$1+$1,$4,$5,$6,$7,0*
20,1,$1+$1,$6,$7,$8,$9,0*
20,1,$1+$1,$8,$9,$2,$3,0*%
G04 Aperture macros list end*
%ADD10RoundRect,0.250000X-0.250000X-0.475000X0.250000X-0.475000X0.250000X0.475000X-0.250000X0.475000X0*%
%ADD11RoundRect,0.250000X0.250000X0.475000X-0.250000X0.475000X-0.250000X-0.475000X0.250000X-0.475000X0*%
%ADD12R,1.700000X1.700000*%
%ADD13C,1.700000*%
%ADD14O,1.778000X3.556000*%
%ADD15C,1.905000*%
%ADD16C,2.700000*%
%ADD17C,2.000000*%
%ADD18RoundRect,0.250000X0.475000X-0.250000X0.475000X0.250000X-0.475000X0.250000X-0.475000X-0.250000X0*%
%ADD19RoundRect,0.243750X0.456250X-0.243750X0.456250X0.243750X-0.456250X0.243750X-0.456250X-0.243750X0*%
G04 APERTURE END LIST*
D10*
%TO.C,C1*%
X146550000Y-72500000D03*
X148450000Y-72500000D03*
%TD*%
D11*
%TO.C,C3*%
X142500000Y-72500000D03*
X140600000Y-72500000D03*
%TD*%
D12*
%TO.C,J1*%
X160000000Y-57420000D03*
D13*
X160000000Y-59960000D03*
X160000000Y-62500000D03*
X160000000Y-65040000D03*
X160000000Y-67580000D03*
%TD*%
D14*
%TO.C,U1*%
X135000000Y-93382000D03*
X137540000Y-93382000D03*
X140080000Y-93382000D03*
X142620000Y-93382000D03*
X145160000Y-93382000D03*
X147700000Y-93382000D03*
X150240000Y-93382000D03*
X150240000Y-76618000D03*
X147700000Y-76618000D03*
X145160000Y-76618000D03*
X142620000Y-76618000D03*
X140080000Y-76618000D03*
X137540000Y-76618000D03*
X135000000Y-76618000D03*
D15*
X160400000Y-87540000D03*
X160400000Y-82460000D03*
%TD*%
D16*
%TO.C,REF\u002A\u002A*%
X136500000Y-59000000D03*
%TD*%
D12*
%TO.C,BT2*%
X165000000Y-97500000D03*
D13*
X165000000Y-94960000D03*
%TD*%
D17*
%TO.C,SW1*%
X153250000Y-112250000D03*
X146750000Y-112250000D03*
X153250000Y-107750000D03*
X146750000Y-107750000D03*
%TD*%
D16*
%TO.C,REF\u002A\u002A*%
X163500000Y-116000000D03*
%TD*%
D12*
%TO.C,DFRobot_SEN0193*%
X147500000Y-117250000D03*
D13*
X150040000Y-117250000D03*
X152580000Y-117250000D03*
%TD*%
D18*
%TO.C,R2*%
X160000000Y-100950000D03*
X160000000Y-99050000D03*
%TD*%
%TO.C,R3*%
X135000000Y-100950000D03*
X135000000Y-99050000D03*
%TD*%
%TO.C,R1*%
X155000000Y-100950000D03*
X155000000Y-99050000D03*
%TD*%
D19*
%TO.C,D1*%
X150000000Y-100937500D03*
X150000000Y-99062500D03*
%TD*%
M02*
