%TF.GenerationSoftware,KiCad,Pcbnew,9.0.6*%
%TF.CreationDate,2026-03-05T16:52:31-08:00*%
%TF.ProjectId,schematic,73636865-6d61-4746-9963-2e6b69636164,rev?*%
%TF.SameCoordinates,Original*%
%TF.FileFunction,Copper,L2,Bot*%
%TF.FilePolarity,Positive*%
%FSLAX46Y46*%
G04 Gerber Fmt 4.6, Leading zero omitted, Abs format (unit mm)*
G04 Created by KiCad (PCBNEW 9.0.6) date 2026-03-05 16:52:31*
%MOMM*%
%LPD*%
G01*
G04 APERTURE LIST*
%TA.AperFunction,ComponentPad*%
%ADD10R,1.700000X1.700000*%
%TD*%
%TA.AperFunction,ComponentPad*%
%ADD11C,1.700000*%
%TD*%
%TA.AperFunction,ComponentPad*%
%ADD12O,1.778000X3.556000*%
%TD*%
%TA.AperFunction,ComponentPad*%
%ADD13C,1.905000*%
%TD*%
%TA.AperFunction,ComponentPad*%
%ADD14C,2.000000*%
%TD*%
%TA.AperFunction,ViaPad*%
%ADD15C,0.600000*%
%TD*%
%TA.AperFunction,Conductor*%
%ADD16C,0.500000*%
%TD*%
G04 APERTURE END LIST*
D10*
%TO.P,J1,1*%
%TO.N,sensor_3V3*%
X160000000Y-57420000D03*
D11*
%TO.P,J1,2*%
%TO.N,sensor_GND*%
X160000000Y-59960000D03*
%TO.P,J1,3*%
%TO.N,/SCL*%
X160000000Y-62500000D03*
%TO.P,J1,4*%
%TO.N,SDA*%
X160000000Y-65040000D03*
%TO.P,J1,5*%
%TO.N,N/C*%
X160000000Y-67580000D03*
%TD*%
D12*
%TO.P,U1,1,GPIO1_A0_D0*%
%TO.N,/U1-A0*%
X135000000Y-93382000D03*
%TO.P,U1,2,GPIO2_A1_D1*%
%TO.N,Net-(D1-A)*%
X137540000Y-93382000D03*
%TO.P,U1,3,GPIO3_A2_D2*%
%TO.N,unconnected-(U1-GPIO3_A2_D2-Pad3)*%
X140080000Y-93382000D03*
%TO.P,U1,4,GPIO4_A3_D3*%
%TO.N,unconnected-(U1-GPIO4_A3_D3-Pad4)*%
X142620000Y-93382000D03*
%TO.P,U1,5,GPIO4_A3_D3_SDA*%
%TO.N,SDA*%
X145160000Y-93382000D03*
%TO.P,U1,6,GPIO6_A5_D5_SCL*%
%TO.N,/SCL*%
X147700000Y-93382000D03*
%TO.P,U1,7,GPIO43_TX_D6*%
%TO.N,unconnected-(U1-GPIO43_TX_D6-Pad7)*%
X150240000Y-93382000D03*
%TO.P,U1,8,GPIO44_D7_RX*%
%TO.N,unconnected-(U1-GPIO44_D7_RX-Pad8)*%
X150240000Y-76618000D03*
%TO.P,U1,9,GPIO7_A8_D8_SCK*%
%TO.N,unconnected-(U1-GPIO7_A8_D8_SCK-Pad9)*%
X147700000Y-76618000D03*
%TO.P,U1,10,GPIO8_A9_D9_CIPO*%
%TO.N,unconnected-(U1-GPIO8_A9_D9_CIPO-Pad10)*%
X145160000Y-76618000D03*
%TO.P,U1,11,GPIO9_A10_D10_COPI*%
%TO.N,unconnected-(U1-GPIO9_A10_D10_COPI-Pad11)*%
X142620000Y-76618000D03*
%TO.P,U1,12,3V3*%
%TO.N,sensor_3V3*%
X140080000Y-76618000D03*
%TO.P,U1,13,GND*%
%TO.N,sensor_GND*%
X137540000Y-76618000D03*
%TO.P,U1,14,5V*%
%TO.N,unconnected-(U1-5V-Pad14)*%
X135000000Y-76618000D03*
D13*
%TO.P,U1,15,+BATT*%
%TO.N,sensor_BAT*%
X160400000Y-87540000D03*
%TO.P,U1,16,-BATT*%
%TO.N,sensor_GND*%
X160400000Y-82460000D03*
%TD*%
D10*
%TO.P,BT2,1,+*%
%TO.N,Net-(BT2-+)*%
X165000000Y-97500000D03*
D11*
%TO.P,BT2,2,-*%
%TO.N,sensor_GND*%
X165000000Y-94960000D03*
%TD*%
D14*
%TO.P,SW1,1,A*%
%TO.N,Net-(BT2-+)*%
X153250000Y-112250000D03*
X146750000Y-112250000D03*
%TO.P,SW1,2,B*%
%TO.N,sensor_BAT*%
X153250000Y-107750000D03*
X146750000Y-107750000D03*
%TD*%
D10*
%TO.P,DFRobot_SEN0193,1*%
%TO.N,sensor_GND*%
X147500000Y-117250000D03*
D11*
%TO.P,DFRobot_SEN0193,2*%
%TO.N,sensor_3V3*%
X150040000Y-117250000D03*
%TO.P,DFRobot_SEN0193,3*%
%TO.N,/U1-A0*%
X152580000Y-117250000D03*
%TD*%
D15*
%TO.N,/U1-A0*%
X157500000Y-117500000D03*
%TD*%
D16*
%TO.N,/U1-A0*%
X135000000Y-95000000D02*
X135000000Y-92620000D01*
X146299000Y-106299000D02*
X135000000Y-95000000D01*
X149746976Y-106299000D02*
X146299000Y-106299000D01*
X157500000Y-114052024D02*
X149746976Y-106299000D01*
X157500000Y-117500000D02*
X157500000Y-114052024D01*
%TD*%
M02*
