M48
; DRILL file {KiCad 9.0.6} date 2026-03-05T16:29:17-0800
; FORMAT={-:-/ absolute / metric / decimal}
; #@! TF.CreationDate,2026-03-05T16:29:17-08:00
; #@! TF.GenerationSoftware,Kicad,Pcbnew,9.0.6
; #@! TF.FileFunction,Plated,1,2,PTH
FMAT,2
METRIC
; #@! TA.AperFunction,Plated,PTH,ComponentDrill
T1C0.850
; #@! TA.AperFunction,Plated,PTH,ComponentDrill
T2C1.000
; #@! TA.AperFunction,Plated,PTH,ComponentDrill
T3C1.016
; #@! TA.AperFunction,Plated,PTH,ComponentDrill
T4C1.100
%
G90
G05
T1
X114.8Y-75.096
X114.8Y-82.716
X137.66Y-75.096
X137.66Y-82.716
T2
X155.16Y-94.066
X155.16Y-96.606
X162.62Y-96.566
X165.16Y-96.566
X167.7Y-96.566
T3
X144.92Y-59.066
X144.92Y-61.606
X144.92Y-64.146
X144.92Y-66.686
X144.92Y-69.226
X144.92Y-71.766
X144.92Y-74.306
X150.0Y-84.466
X155.08Y-84.466
X160.16Y-59.066
X160.16Y-61.606
X160.16Y-64.146
X160.16Y-66.686
X160.16Y-69.226
X160.16Y-71.766
X160.16Y-74.306
T4
X161.16Y-87.066
X161.16Y-91.566
X167.66Y-87.066
X167.66Y-91.566
M30
