%TF.GenerationSoftware,KiCad,Pcbnew,9.0.6*%
%TF.CreationDate,2026-03-05T16:29:19-08:00*%
%TF.ProjectId,schematic,73636865-6d61-4746-9963-2e6b69636164,rev?*%
%TF.SameCoordinates,Original*%
%TF.FileFunction,Copper,L1,Top*%
%TF.FilePolarity,Positive*%
%FSLAX46Y46*%
G04 Gerber Fmt 4.6, Leading zero omitted, Abs format (unit mm)*
G04 Created by KiCad (PCBNEW 9.0.6) date 2026-03-05 16:29:19*
%MOMM*%
%LPD*%
G01*
G04 APERTURE LIST*
G04 Aperture macros list*
%AMRoundRect*
0 Rectangle with rounded corners*
0 $1 Rounding radius*
0 $2 $3 $4 $5 $6 $7 $8 $9 X,Y pos of 4 corners*
0 Add a 4 corners polygon primitive as box body*
4,1,4,$2,$3,$4,$5,$6,$7,$8,$9,$2,$3,0*
0 Add four circle primitives for the rounded corners*
1,1,$1+$1,$2,$3*
1,1,$1+$1,$4,$5*
1,1,$1+$1,$6,$7*
1,1,$1+$1,$8,$9*
0 Add four rect primitives between the rounded corners*
20,1,$1+$1,$2,$3,$4,$5,0*
20,1,$1+$1,$4,$5,$6,$7,0*
20,1,$1+$1,$6,$7,$8,$9,0*
20,1,$1+$1,$8,$9,$2,$3,0*%
G04 Aperture macros list end*
%TA.AperFunction,ComponentPad*%
%ADD10R,1.700000X1.700000*%
%TD*%
%TA.AperFunction,ComponentPad*%
%ADD11C,1.700000*%
%TD*%
%TA.AperFunction,SMDPad,CuDef*%
%ADD12RoundRect,0.243750X-0.243750X-0.456250X0.243750X-0.456250X0.243750X0.456250X-0.243750X0.456250X0*%
%TD*%
%TA.AperFunction,ComponentPad*%
%ADD13O,3.556000X1.778000*%
%TD*%
%TA.AperFunction,ComponentPad*%
%ADD14C,1.905000*%
%TD*%
%TA.AperFunction,SMDPad,CuDef*%
%ADD15RoundRect,0.250000X-0.250000X-0.475000X0.250000X-0.475000X0.250000X0.475000X-0.250000X0.475000X0*%
%TD*%
%TA.AperFunction,ComponentPad*%
%ADD16C,2.000000*%
%TD*%
%TA.AperFunction,Conductor*%
%ADD17C,0.500000*%
%TD*%
G04 APERTURE END LIST*
D10*
%TO.P,BT1,1,+*%
%TO.N,Net-(BT1-+)*%
X155160000Y-96606120D03*
D11*
%TO.P,BT1,2,-*%
%TO.N,display_GND*%
X155160000Y-94066120D03*
%TD*%
D12*
%TO.P,D2,1,K*%
%TO.N,Net-(D2-K)*%
X164222500Y-76566120D03*
%TO.P,D2,2,A*%
%TO.N,Net-(D2-A)*%
X166097500Y-76566120D03*
%TD*%
D13*
%TO.P,U2,1,GPIO1_A0_D0*%
%TO.N,Net-(U2-GPIO1_A0_D0)*%
X144158000Y-59066120D03*
%TO.P,U2,2,GPIO2_A1_D1*%
%TO.N,Net-(U2-GPIO2_A1_D1)*%
X144158000Y-61606120D03*
%TO.P,U2,3,GPIO3_A2_D2*%
%TO.N,Net-(U2-GPIO3_A2_D2)*%
X144158000Y-64146120D03*
%TO.P,U2,4,GPIO4_A3_D3*%
%TO.N,Net-(M1--)*%
X144158000Y-66686120D03*
%TO.P,U2,5,GPIO4_A3_D3_SDA*%
%TO.N,Net-(SW2-B)*%
X144158000Y-69226120D03*
%TO.P,U2,6,GPIO6_A5_D5_SCL*%
%TO.N,unconnected-(U2-GPIO6_A5_D5_SCL-Pad6)*%
X144158000Y-71766120D03*
%TO.P,U2,7,GPIO43_TX_D6*%
%TO.N,unconnected-(U2-GPIO43_TX_D6-Pad7)*%
X144158000Y-74306120D03*
%TO.P,U2,8,GPIO44_D7_RX*%
%TO.N,unconnected-(U2-GPIO44_D7_RX-Pad8)*%
X160922000Y-74306120D03*
%TO.P,U2,9,GPIO7_A8_D8_SCK*%
%TO.N,unconnected-(U2-GPIO7_A8_D8_SCK-Pad9)*%
X160922000Y-71766120D03*
%TO.P,U2,10,GPIO8_A9_D9_CIPO*%
%TO.N,unconnected-(U2-GPIO8_A9_D9_CIPO-Pad10)*%
X160922000Y-69226120D03*
%TO.P,U2,11,GPIO9_A10_D10_COPI*%
%TO.N,Net-(D2-A)*%
X160922000Y-66686120D03*
%TO.P,U2,12,3V3*%
%TO.N,display_3V3*%
X160922000Y-64146120D03*
%TO.P,U2,13,GND*%
%TO.N,display_GND*%
X160922000Y-61606120D03*
%TO.P,U2,14,5V*%
%TO.N,unconnected-(U2-5V-Pad14)*%
X160922000Y-59066120D03*
D14*
%TO.P,U2,15,+BATT*%
%TO.N,display_BAT*%
X150000000Y-84466120D03*
%TO.P,U2,16,-BATT*%
%TO.N,display_GND*%
X155080000Y-84466120D03*
%TD*%
D15*
%TO.P,R4,1*%
%TO.N,Net-(D2-K)*%
X164210000Y-81566120D03*
%TO.P,R4,2*%
%TO.N,display_GND*%
X166110000Y-81566120D03*
%TD*%
D16*
%TO.P,SW2,1,A*%
%TO.N,display_GND*%
X161160000Y-87066120D03*
X167660000Y-87066120D03*
%TO.P,SW2,2,B*%
%TO.N,Net-(SW2-B)*%
X161160000Y-91566120D03*
X167660000Y-91566120D03*
%TD*%
D15*
%TO.P,C2,1*%
%TO.N,display_3V3*%
X164210000Y-66566120D03*
%TO.P,C2,2*%
%TO.N,display_GND*%
X166110000Y-66566120D03*
%TD*%
D10*
%TO.P,SW3,1,A*%
%TO.N,display_BAT*%
X162620000Y-96566120D03*
D11*
%TO.P,SW3,2,B*%
%TO.N,Net-(BT1-+)*%
X165160000Y-96566120D03*
%TO.P,SW3,3,C*%
%TO.N,unconnected-(SW3-C-Pad3)*%
X167700000Y-96566120D03*
%TD*%
D15*
%TO.P,C4,1*%
%TO.N,display_3V3*%
X164210000Y-71566120D03*
%TO.P,C4,2*%
%TO.N,display_GND*%
X166110000Y-71566120D03*
%TD*%
D11*
%TO.P,M1,1*%
%TO.N,Net-(U2-GPIO1_A0_D0)*%
X137660000Y-75096120D03*
%TO.P,M1,2,-*%
%TO.N,Net-(M1--)*%
X137660000Y-82716120D03*
%TO.P,M1,3*%
%TO.N,Net-(U2-GPIO3_A2_D2)*%
X114800000Y-82716120D03*
%TO.P,M1,4*%
%TO.N,Net-(U2-GPIO2_A1_D1)*%
X114800000Y-75096120D03*
%TD*%
D17*
%TO.N,Net-(U2-GPIO1_A0_D0)*%
X128990108Y-59066120D02*
X144920000Y-59066120D01*
X113499000Y-75635012D02*
X113499000Y-74557228D01*
X115338892Y-77474904D02*
X113499000Y-75635012D01*
X113499000Y-74557228D02*
X128990108Y-59066120D01*
X115338892Y-80337336D02*
X115338892Y-77474904D01*
X113499000Y-82177228D02*
X115338892Y-80337336D01*
X113499000Y-83255012D02*
X113499000Y-82177228D01*
X114261108Y-84017120D02*
X113499000Y-83255012D01*
X128739000Y-84017120D02*
X114261108Y-84017120D01*
X137660000Y-75096120D02*
X128739000Y-84017120D01*
%TO.N,display_BAT*%
X150000000Y-94048120D02*
X150000000Y-84466120D01*
X154520000Y-98568120D02*
X150000000Y-94048120D01*
X169001000Y-97105012D02*
X167537892Y-98568120D01*
X169001000Y-96027228D02*
X169001000Y-97105012D01*
X168238892Y-95265120D02*
X169001000Y-96027228D01*
X167537892Y-98568120D02*
X154520000Y-98568120D01*
X163921000Y-95265120D02*
X168238892Y-95265120D01*
X162620000Y-96566120D02*
X163921000Y-95265120D01*
%TO.N,Net-(SW2-B)*%
X165388024Y-82742120D02*
X158436000Y-82742120D01*
X169111000Y-86465096D02*
X165388024Y-82742120D01*
X158436000Y-82742120D02*
X144920000Y-69226120D01*
X169111000Y-90115120D02*
X169111000Y-86465096D01*
X167660000Y-91566120D02*
X169111000Y-90115120D01*
%TO.N,Net-(BT1-+)*%
X163859000Y-97867120D02*
X156421000Y-97867120D01*
X165160000Y-96566120D02*
X163859000Y-97867120D01*
X156421000Y-97867120D02*
X155160000Y-96606120D01*
%TO.N,Net-(SW2-B)*%
X167660000Y-91566120D02*
X161160000Y-91566120D01*
%TO.N,Net-(D2-K)*%
X164222500Y-81553620D02*
X164210000Y-81566120D01*
X164222500Y-76566120D02*
X164222500Y-81553620D01*
%TO.N,Net-(D2-A)*%
X161166046Y-66686120D02*
X160160000Y-66686120D01*
X163151000Y-68671074D02*
X161166046Y-66686120D01*
X163151000Y-73619620D02*
X163151000Y-68671074D01*
X166097500Y-76566120D02*
X163151000Y-73619620D01*
%TO.N,display_GND*%
X161682120Y-61606120D02*
X160160000Y-61606120D01*
X166110000Y-66034000D02*
X161682120Y-61606120D01*
X166110000Y-66566120D02*
X166110000Y-66034000D01*
%TO.N,display_3V3*%
X161790000Y-64146120D02*
X160160000Y-64146120D01*
X164210000Y-66566120D02*
X161790000Y-64146120D01*
X164210000Y-66566120D02*
X164210000Y-71566120D01*
%TO.N,display_GND*%
X166110000Y-71566120D02*
X166110000Y-66566120D01*
X167036000Y-72492120D02*
X166110000Y-71566120D01*
X167036000Y-80640120D02*
X167036000Y-72492120D01*
X166110000Y-81566120D02*
X167036000Y-80640120D01*
X167660000Y-87066120D02*
X161160000Y-87066120D01*
X158560000Y-84466120D02*
X161160000Y-87066120D01*
X155080000Y-84466120D02*
X158560000Y-84466120D01*
X161160000Y-88066120D02*
X161160000Y-87066120D01*
X155160000Y-94066120D02*
X161160000Y-88066120D01*
%TO.N,Net-(M1--)*%
X141929000Y-68671074D02*
X143913954Y-66686120D01*
X137660000Y-76936012D02*
X141929000Y-72667012D01*
X141929000Y-72667012D02*
X141929000Y-68671074D01*
X137660000Y-82716120D02*
X137660000Y-76936012D01*
X143913954Y-66686120D02*
X144920000Y-66686120D01*
%TO.N,Net-(U2-GPIO3_A2_D2)*%
X134809791Y-64146120D02*
X144920000Y-64146120D01*
X116239791Y-82716120D02*
X134809791Y-64146120D01*
X114800000Y-82716120D02*
X116239791Y-82716120D01*
%TO.N,Net-(U2-GPIO2_A1_D1)*%
X128290000Y-61606120D02*
X144920000Y-61606120D01*
X114800000Y-75096120D02*
X128290000Y-61606120D01*
%TD*%
%TA.AperFunction,NonConductor*%
G36*
X167662702Y-57066737D02*
G01*
X168046771Y-57083506D01*
X168057504Y-57084446D01*
X168435972Y-57134272D01*
X168446595Y-57136145D01*
X168819282Y-57218768D01*
X168829702Y-57221560D01*
X169193761Y-57336347D01*
X169203915Y-57340043D01*
X169556574Y-57486120D01*
X169566365Y-57490686D01*
X169904949Y-57666942D01*
X169914310Y-57672347D01*
X170141863Y-57817315D01*
X170236230Y-57877434D01*
X170245091Y-57883638D01*
X170547916Y-58116004D01*
X170556203Y-58122958D01*
X170837626Y-58380836D01*
X170845275Y-58388485D01*
X171103153Y-58669910D01*
X171110103Y-58678193D01*
X171163731Y-58748081D01*
X171342466Y-58981014D01*
X171348671Y-58989875D01*
X171553761Y-59311804D01*
X171559169Y-59321172D01*
X171735421Y-59659751D01*
X171739988Y-59669544D01*
X171886063Y-60022204D01*
X171889760Y-60032360D01*
X172004539Y-60396397D01*
X172007339Y-60406846D01*
X172089955Y-60779507D01*
X172091833Y-60790160D01*
X172141653Y-61168590D01*
X172142596Y-61179367D01*
X172159382Y-61563880D01*
X172159500Y-61569288D01*
X172159500Y-96563411D01*
X172159382Y-96568820D01*
X172142613Y-96952866D01*
X172141670Y-96963643D01*
X172091847Y-97342073D01*
X172089969Y-97352726D01*
X172007350Y-97725387D01*
X172004550Y-97735836D01*
X171889769Y-98099871D01*
X171886069Y-98110036D01*
X171739996Y-98462683D01*
X171735424Y-98472487D01*
X171559173Y-98811060D01*
X171553764Y-98820428D01*
X171348679Y-99142345D01*
X171342475Y-99151206D01*
X171110109Y-99454031D01*
X171103155Y-99462318D01*
X170845278Y-99743740D01*
X170837629Y-99751390D01*
X170556204Y-100009267D01*
X170547917Y-100016220D01*
X170245099Y-100248580D01*
X170236238Y-100254785D01*
X169914305Y-100459878D01*
X169904937Y-100465286D01*
X169566371Y-100641532D01*
X169556567Y-100646104D01*
X169203917Y-100792176D01*
X169193751Y-100795876D01*
X168829720Y-100910654D01*
X168819272Y-100913454D01*
X168446607Y-100996072D01*
X168435953Y-100997950D01*
X168057525Y-101047771D01*
X168046749Y-101048714D01*
X167980971Y-101051585D01*
X167662236Y-101065502D01*
X167656844Y-101065620D01*
X115162706Y-101065620D01*
X115157297Y-101065502D01*
X114773247Y-101048734D01*
X114762473Y-101047791D01*
X114700006Y-101039567D01*
X114384043Y-100997970D01*
X114373389Y-100996092D01*
X114000721Y-100913473D01*
X113990273Y-100910673D01*
X113626241Y-100795895D01*
X113616075Y-100792195D01*
X113263423Y-100646122D01*
X113253619Y-100641550D01*
X112915052Y-100465304D01*
X112905684Y-100459896D01*
X112583749Y-100254801D01*
X112574888Y-100248596D01*
X112272069Y-100016235D01*
X112263782Y-100009282D01*
X112091365Y-99851292D01*
X111982341Y-99751390D01*
X111974701Y-99743749D01*
X111716838Y-99462342D01*
X111709884Y-99454056D01*
X111656238Y-99384144D01*
X111477498Y-99151206D01*
X111471299Y-99142351D01*
X111266217Y-98820438D01*
X111260808Y-98811070D01*
X111084556Y-98472495D01*
X111079984Y-98462691D01*
X110957346Y-98166620D01*
X110933908Y-98110036D01*
X110930211Y-98099878D01*
X110914283Y-98049361D01*
X110815425Y-97735829D01*
X110812632Y-97725404D01*
X110730008Y-97352716D01*
X110728135Y-97342089D01*
X110678308Y-96963627D01*
X110677368Y-96952885D01*
X110660618Y-96569278D01*
X110660500Y-96563869D01*
X110660500Y-96440158D01*
X113559500Y-96440158D01*
X113559500Y-96692081D01*
X113598910Y-96940905D01*
X113676760Y-97180503D01*
X113749835Y-97323919D01*
X113764514Y-97352729D01*
X113791132Y-97404968D01*
X113939201Y-97608769D01*
X113939205Y-97608774D01*
X114117345Y-97786914D01*
X114117350Y-97786918D01*
X114295117Y-97916072D01*
X114321155Y-97934990D01*
X114464184Y-98007867D01*
X114545616Y-98049359D01*
X114545618Y-98049359D01*
X114545621Y-98049361D01*
X114785215Y-98127210D01*
X115034038Y-98166620D01*
X115034039Y-98166620D01*
X115285961Y-98166620D01*
X115285962Y-98166620D01*
X115534785Y-98127210D01*
X115774379Y-98049361D01*
X115998845Y-97934990D01*
X116202656Y-97786913D01*
X116380793Y-97608776D01*
X116528870Y-97404965D01*
X116643241Y-97180499D01*
X116721090Y-96940905D01*
X116760500Y-96692082D01*
X116760500Y-96440158D01*
X116721090Y-96191335D01*
X116643241Y-95951741D01*
X116643239Y-95951738D01*
X116643239Y-95951736D01*
X116570164Y-95808320D01*
X116528870Y-95727275D01*
X116488521Y-95671739D01*
X116380798Y-95523470D01*
X116380794Y-95523465D01*
X116202654Y-95345325D01*
X116202649Y-95345321D01*
X115998848Y-95197252D01*
X115998847Y-95197251D01*
X115998845Y-95197250D01*
X115917834Y-95155973D01*
X115774383Y-95082880D01*
X115534785Y-95005030D01*
X115285962Y-94965620D01*
X115034038Y-94965620D01*
X114909626Y-94985325D01*
X114785214Y-95005030D01*
X114545616Y-95082880D01*
X114321151Y-95197252D01*
X114117350Y-95345321D01*
X114117345Y-95345325D01*
X113939205Y-95523465D01*
X113939201Y-95523470D01*
X113791132Y-95727271D01*
X113676760Y-95951736D01*
X113598910Y-96191334D01*
X113559500Y-96440158D01*
X110660500Y-96440158D01*
X110660500Y-87788115D01*
X115429500Y-87788115D01*
X115429500Y-88024124D01*
X115429501Y-88024140D01*
X115460306Y-88258130D01*
X115521394Y-88486113D01*
X115611714Y-88704165D01*
X115611719Y-88704176D01*
X115682677Y-88827077D01*
X115729727Y-88908570D01*
X115729729Y-88908573D01*
X115729730Y-88908574D01*
X115873406Y-89095817D01*
X115873412Y-89095824D01*
X116040295Y-89262707D01*
X116040301Y-89262712D01*
X116227550Y-89406393D01*
X116358918Y-89482238D01*
X116431943Y-89524400D01*
X116431948Y-89524402D01*
X116431951Y-89524404D01*
X116650007Y-89614726D01*
X116877986Y-89675813D01*
X117111989Y-89706620D01*
X117111996Y-89706620D01*
X117348004Y-89706620D01*
X117348011Y-89706620D01*
X117582014Y-89675813D01*
X117809993Y-89614726D01*
X118028049Y-89524404D01*
X118232450Y-89406393D01*
X118419699Y-89262712D01*
X118586592Y-89095819D01*
X118730273Y-88908570D01*
X118848284Y-88704169D01*
X118938606Y-88486113D01*
X118999693Y-88258134D01*
X119030500Y-88024131D01*
X119030500Y-87788109D01*
X118999693Y-87554106D01*
X118938606Y-87326127D01*
X118848284Y-87108071D01*
X118848282Y-87108068D01*
X118848280Y-87108063D01*
X118806118Y-87035038D01*
X118730273Y-86903670D01*
X118586592Y-86716421D01*
X118586587Y-86716415D01*
X118419704Y-86549532D01*
X118419697Y-86549526D01*
X118232454Y-86405850D01*
X118232453Y-86405849D01*
X118232450Y-86405847D01*
X118150957Y-86358797D01*
X118028056Y-86287839D01*
X118028045Y-86287834D01*
X117809993Y-86197514D01*
X117582010Y-86136426D01*
X117348020Y-86105621D01*
X117348017Y-86105620D01*
X117348011Y-86105620D01*
X117111989Y-86105620D01*
X117111983Y-86105620D01*
X117111979Y-86105621D01*
X116877989Y-86136426D01*
X116650006Y-86197514D01*
X116431954Y-86287834D01*
X116431943Y-86287839D01*
X116227545Y-86405850D01*
X116040302Y-86549526D01*
X116040295Y-86549532D01*
X115873412Y-86716415D01*
X115873406Y-86716422D01*
X115729730Y-86903665D01*
X115611719Y-87108063D01*
X115611714Y-87108074D01*
X115521394Y-87326126D01*
X115460306Y-87554109D01*
X115429501Y-87788099D01*
X115429500Y-87788115D01*
X110660500Y-87788115D01*
X110660500Y-78791957D01*
X111279500Y-78791957D01*
X111279500Y-79020282D01*
X111315215Y-79245780D01*
X111385770Y-79462923D01*
X111489421Y-79666348D01*
X111623621Y-79851057D01*
X111785063Y-80012499D01*
X111969772Y-80146699D01*
X112065884Y-80195670D01*
X112173196Y-80250349D01*
X112173198Y-80250349D01*
X112173201Y-80250351D01*
X112275712Y-80283659D01*
X112390339Y-80320904D01*
X112615838Y-80356620D01*
X112615843Y-80356620D01*
X112844162Y-80356620D01*
X113069660Y-80320904D01*
X113286799Y-80250351D01*
X113490228Y-80146699D01*
X113674937Y-80012499D01*
X113836379Y-79851057D01*
X113970579Y-79666348D01*
X114074231Y-79462919D01*
X114144784Y-79245780D01*
X114155241Y-79179758D01*
X114180500Y-79020282D01*
X114180500Y-78791957D01*
X114144784Y-78566459D01*
X114074229Y-78349316D01*
X113970578Y-78145891D01*
X113836379Y-77961183D01*
X113674937Y-77799741D01*
X113490228Y-77665541D01*
X113286803Y-77561890D01*
X113069660Y-77491335D01*
X112844162Y-77455620D01*
X112844157Y-77455620D01*
X112615843Y-77455620D01*
X112615838Y-77455620D01*
X112390339Y-77491335D01*
X112173196Y-77561890D01*
X111969771Y-77665541D01*
X111785061Y-77799742D01*
X111623622Y-77961181D01*
X111489421Y-78145891D01*
X111385770Y-78349316D01*
X111315215Y-78566459D01*
X111279500Y-78791957D01*
X110660500Y-78791957D01*
X110660500Y-75708932D01*
X112748499Y-75708932D01*
X112777340Y-75853919D01*
X112777343Y-75853929D01*
X112833912Y-75990500D01*
X112833916Y-75990507D01*
X112854703Y-76021617D01*
X112854704Y-76021620D01*
X112916046Y-76113426D01*
X112916052Y-76113433D01*
X114552073Y-77749452D01*
X114585558Y-77810775D01*
X114588392Y-77837133D01*
X114588392Y-79975105D01*
X114568707Y-80042144D01*
X114552073Y-80062786D01*
X112916050Y-81698808D01*
X112916044Y-81698816D01*
X112866812Y-81772496D01*
X112866813Y-81772497D01*
X112833921Y-81821724D01*
X112833914Y-81821736D01*
X112777342Y-81958314D01*
X112777340Y-81958320D01*
X112748500Y-82103307D01*
X112748500Y-83328930D01*
X112777340Y-83473919D01*
X112777343Y-83473929D01*
X112833912Y-83610500D01*
X112833916Y-83610507D01*
X112854703Y-83641617D01*
X112854704Y-83641620D01*
X112916046Y-83733426D01*
X112916052Y-83733433D01*
X113534387Y-84351766D01*
X113678156Y-84495535D01*
X113678157Y-84495536D01*
X113763094Y-84580473D01*
X113782693Y-84600072D01*
X113905606Y-84682200D01*
X113905619Y-84682207D01*
X114042190Y-84738776D01*
X114042195Y-84738778D01*
X114042199Y-84738778D01*
X114042200Y-84738779D01*
X114187187Y-84767620D01*
X114187190Y-84767620D01*
X128812920Y-84767620D01*
X128910462Y-84748216D01*
X128957913Y-84738778D01*
X129094495Y-84682204D01*
X129143729Y-84649306D01*
X129217416Y-84600072D01*
X136697819Y-77119667D01*
X136759142Y-77086183D01*
X136828834Y-77091167D01*
X136884767Y-77133039D01*
X136909184Y-77198503D01*
X136909500Y-77207349D01*
X136909500Y-81528899D01*
X136889815Y-81595938D01*
X136858385Y-81629217D01*
X136780211Y-81686013D01*
X136780205Y-81686018D01*
X136629890Y-81836333D01*
X136504951Y-82008299D01*
X136408444Y-82197705D01*
X136342753Y-82399880D01*
X136325347Y-82509777D01*
X136309500Y-82609833D01*
X136309500Y-82822407D01*
X136342754Y-83032363D01*
X136407068Y-83230301D01*
X136408444Y-83234534D01*
X136504951Y-83423940D01*
X136629890Y-83595906D01*
X136780213Y-83746229D01*
X136952179Y-83871168D01*
X136952181Y-83871169D01*
X136952184Y-83871171D01*
X137141588Y-83967677D01*
X137343757Y-84033366D01*
X137553713Y-84066620D01*
X137553714Y-84066620D01*
X137766286Y-84066620D01*
X137766287Y-84066620D01*
X137976243Y-84033366D01*
X138178412Y-83967677D01*
X138367816Y-83871171D01*
X138433791Y-83823238D01*
X138539786Y-83746229D01*
X138539788Y-83746226D01*
X138539792Y-83746224D01*
X138690104Y-83595912D01*
X138690106Y-83595908D01*
X138690109Y-83595906D01*
X138815048Y-83423940D01*
X138815047Y-83423940D01*
X138815051Y-83423936D01*
X138911557Y-83234532D01*
X138977246Y-83032363D01*
X139010500Y-82822407D01*
X139010500Y-82609833D01*
X138977246Y-82399877D01*
X138911557Y-82197708D01*
X138815051Y-82008304D01*
X138815049Y-82008301D01*
X138815048Y-82008299D01*
X138690109Y-81836333D01*
X138539794Y-81686018D01*
X138539788Y-81686013D01*
X138461615Y-81629217D01*
X138418949Y-81573887D01*
X138410500Y-81528899D01*
X138410500Y-79937298D01*
X138430185Y-79870259D01*
X138482989Y-79824504D01*
X138552147Y-79814560D01*
X138615703Y-79843585D01*
X138622181Y-79849617D01*
X138623621Y-79851057D01*
X138785063Y-80012499D01*
X138969772Y-80146699D01*
X139065884Y-80195670D01*
X139173196Y-80250349D01*
X139173198Y-80250349D01*
X139173201Y-80250351D01*
X139275712Y-80283659D01*
X139390339Y-80320904D01*
X139615838Y-80356620D01*
X139615843Y-80356620D01*
X139844162Y-80356620D01*
X140069660Y-80320904D01*
X140286799Y-80250351D01*
X140490228Y-80146699D01*
X140674937Y-80012499D01*
X140836379Y-79851057D01*
X140970579Y-79666348D01*
X141074231Y-79462919D01*
X141144784Y-79245780D01*
X141155241Y-79179758D01*
X141180500Y-79020282D01*
X141180500Y-78791957D01*
X141144784Y-78566459D01*
X141074229Y-78349316D01*
X140970578Y-78145891D01*
X140836379Y-77961183D01*
X140674937Y-77799741D01*
X140490228Y-77665541D01*
X140286803Y-77561890D01*
X140069660Y-77491335D01*
X139844162Y-77455620D01*
X139844157Y-77455620D01*
X139615843Y-77455620D01*
X139615838Y-77455620D01*
X139390339Y-77491335D01*
X139173196Y-77561890D01*
X138969771Y-77665541D01*
X138785061Y-77799742D01*
X138785060Y-77799743D01*
X138622181Y-77962623D01*
X138560858Y-77996108D01*
X138491166Y-77991124D01*
X138435233Y-77949252D01*
X138410816Y-77883788D01*
X138410500Y-77874942D01*
X138410500Y-77298241D01*
X138430185Y-77231202D01*
X138446814Y-77210565D01*
X141688477Y-73968901D01*
X141749798Y-73935418D01*
X141819490Y-73940402D01*
X141875423Y-73982274D01*
X141899840Y-74047738D01*
X141898629Y-74075982D01*
X141879500Y-74196758D01*
X141879500Y-74415481D01*
X141913714Y-74631496D01*
X141981297Y-74839500D01*
X141981298Y-74839503D01*
X142080595Y-75034380D01*
X142209142Y-75211313D01*
X142363806Y-75365977D01*
X142529374Y-75486267D01*
X142540743Y-75494527D01*
X142668132Y-75559435D01*
X142735616Y-75593821D01*
X142735619Y-75593822D01*
X142839621Y-75627613D01*
X142943625Y-75661406D01*
X143043672Y-75677252D01*
X143159639Y-75695620D01*
X143159644Y-75695620D01*
X145156361Y-75695620D01*
X145261082Y-75679032D01*
X145372375Y-75661406D01*
X145580383Y-75593821D01*
X145775257Y-75494527D01*
X145874601Y-75422349D01*
X145952193Y-75365977D01*
X145952195Y-75365974D01*
X145952199Y-75365972D01*
X146106852Y-75211319D01*
X146106854Y-75211315D01*
X146106857Y-75211313D01*
X146163229Y-75133721D01*
X146235407Y-75034377D01*
X146334701Y-74839503D01*
X146402286Y-74631495D01*
X146427276Y-74473715D01*
X146436500Y-74415481D01*
X146436500Y-74196758D01*
X146415791Y-74066010D01*
X146402286Y-73980745D01*
X146334701Y-73772737D01*
X146334701Y-73772736D01*
X146300315Y-73705252D01*
X146235407Y-73577863D01*
X146227147Y-73566494D01*
X146106857Y-73400926D01*
X145952199Y-73246268D01*
X145952191Y-73246262D01*
X145801028Y-73136436D01*
X145758364Y-73081109D01*
X145752385Y-73011496D01*
X145784990Y-72949700D01*
X145801023Y-72935806D01*
X145952199Y-72825972D01*
X146106852Y-72671319D01*
X146106854Y-72671315D01*
X146106857Y-72671313D01*
X146163229Y-72593721D01*
X146235407Y-72494377D01*
X146334701Y-72299503D01*
X146402286Y-72091495D01*
X146408204Y-72054126D01*
X146438132Y-71990994D01*
X146497443Y-71954063D01*
X146567306Y-71955059D01*
X146618358Y-71985845D01*
X157957579Y-83325067D01*
X157957580Y-83325068D01*
X157957583Y-83325070D01*
X157957585Y-83325072D01*
X157963359Y-83328930D01*
X158080505Y-83407204D01*
X158120900Y-83423936D01*
X158217088Y-83463779D01*
X158248377Y-83470002D01*
X158310288Y-83502387D01*
X158344862Y-83563103D01*
X158341123Y-83632872D01*
X158300257Y-83689544D01*
X158235239Y-83715126D01*
X158224186Y-83715620D01*
X156393918Y-83715620D01*
X156326879Y-83695935D01*
X156293600Y-83664506D01*
X156276969Y-83641616D01*
X156188286Y-83519554D01*
X156026566Y-83357834D01*
X155841538Y-83223403D01*
X155637755Y-83119570D01*
X155420248Y-83048898D01*
X155250826Y-83022064D01*
X155194354Y-83013120D01*
X154965646Y-83013120D01*
X154890349Y-83025046D01*
X154739753Y-83048898D01*
X154739750Y-83048898D01*
X154522244Y-83119570D01*
X154318461Y-83223403D01*
X154258979Y-83266620D01*
X154133434Y-83357834D01*
X154133432Y-83357836D01*
X154133431Y-83357836D01*
X153971716Y-83519551D01*
X153971716Y-83519552D01*
X153971714Y-83519554D01*
X153916241Y-83595906D01*
X153837283Y-83704581D01*
X153733450Y-83908364D01*
X153662778Y-84125870D01*
X153662778Y-84125873D01*
X153627000Y-84351766D01*
X153627000Y-84580473D01*
X153662778Y-84806366D01*
X153662778Y-84806369D01*
X153733450Y-85023875D01*
X153733452Y-85023878D01*
X153837283Y-85227658D01*
X153971714Y-85412686D01*
X154133434Y-85574406D01*
X154318462Y-85708837D01*
X154458200Y-85780037D01*
X154522244Y-85812669D01*
X154739751Y-85883341D01*
X154739752Y-85883341D01*
X154739755Y-85883342D01*
X154965646Y-85919120D01*
X154965647Y-85919120D01*
X155194353Y-85919120D01*
X155194354Y-85919120D01*
X155420245Y-85883342D01*
X155420248Y-85883341D01*
X155420249Y-85883341D01*
X155637755Y-85812669D01*
X155637755Y-85812668D01*
X155637758Y-85812668D01*
X155841538Y-85708837D01*
X156026566Y-85574406D01*
X156188286Y-85412686D01*
X156293600Y-85267733D01*
X156348930Y-85225069D01*
X156393918Y-85216620D01*
X158197770Y-85216620D01*
X158264809Y-85236305D01*
X158285451Y-85252939D01*
X159658719Y-86626206D01*
X159692204Y-86687529D01*
X159693511Y-86733285D01*
X159659500Y-86948022D01*
X159659500Y-87184217D01*
X159696446Y-87417488D01*
X159769433Y-87642116D01*
X159876657Y-87852553D01*
X159997686Y-88019134D01*
X160021166Y-88084941D01*
X160005341Y-88152995D01*
X159985049Y-88179701D01*
X155468806Y-92695944D01*
X155407483Y-92729429D01*
X155361726Y-92730736D01*
X155266291Y-92715620D01*
X155266287Y-92715620D01*
X155053713Y-92715620D01*
X155005042Y-92723328D01*
X154843760Y-92748873D01*
X154641585Y-92814564D01*
X154452179Y-92911071D01*
X154280213Y-93036010D01*
X154129890Y-93186333D01*
X154004951Y-93358299D01*
X153908444Y-93547705D01*
X153842753Y-93749880D01*
X153841576Y-93757312D01*
X153809500Y-93959833D01*
X153809500Y-94172407D01*
X153842754Y-94382363D01*
X153895098Y-94543462D01*
X153908444Y-94584534D01*
X154004951Y-94773940D01*
X154129890Y-94945906D01*
X154243430Y-95059446D01*
X154276915Y-95120769D01*
X154271931Y-95190461D01*
X154230059Y-95246394D01*
X154199083Y-95263309D01*
X154067669Y-95312323D01*
X154067664Y-95312326D01*
X153952455Y-95398572D01*
X153952452Y-95398575D01*
X153866206Y-95513784D01*
X153866202Y-95513791D01*
X153815908Y-95648637D01*
X153809501Y-95708236D01*
X153809501Y-95708243D01*
X153809500Y-95708255D01*
X153809500Y-96496890D01*
X153789815Y-96563929D01*
X153737011Y-96609684D01*
X153667853Y-96619628D01*
X153604297Y-96590603D01*
X153597819Y-96584571D01*
X150786819Y-93773571D01*
X150753334Y-93712248D01*
X150750500Y-93685890D01*
X150750500Y-85780037D01*
X150770185Y-85712998D01*
X150801615Y-85679719D01*
X150807349Y-85675553D01*
X150946566Y-85574406D01*
X151108286Y-85412686D01*
X151242717Y-85227658D01*
X151346548Y-85023878D01*
X151417222Y-84806365D01*
X151453000Y-84580474D01*
X151453000Y-84351766D01*
X151417222Y-84125875D01*
X151417221Y-84125871D01*
X151417221Y-84125870D01*
X151346549Y-83908364D01*
X151333713Y-83883172D01*
X151242717Y-83704582D01*
X151108286Y-83519554D01*
X150946566Y-83357834D01*
X150761538Y-83223403D01*
X150557755Y-83119570D01*
X150340248Y-83048898D01*
X150170826Y-83022064D01*
X150114354Y-83013120D01*
X149885646Y-83013120D01*
X149810349Y-83025046D01*
X149659753Y-83048898D01*
X149659750Y-83048898D01*
X149442244Y-83119570D01*
X149238461Y-83223403D01*
X149178979Y-83266620D01*
X149053434Y-83357834D01*
X149053432Y-83357836D01*
X149053431Y-83357836D01*
X148891716Y-83519551D01*
X148891716Y-83519552D01*
X148891714Y-83519554D01*
X148836241Y-83595906D01*
X148757283Y-83704581D01*
X148653450Y-83908364D01*
X148582778Y-84125870D01*
X148582778Y-84125873D01*
X148547000Y-84351766D01*
X148547000Y-84580473D01*
X148582778Y-84806366D01*
X148582778Y-84806369D01*
X148653450Y-85023875D01*
X148653452Y-85023878D01*
X148757283Y-85227658D01*
X148891714Y-85412686D01*
X149053434Y-85574406D01*
X149192649Y-85675552D01*
X149198385Y-85679719D01*
X149241051Y-85735049D01*
X149249500Y-85780037D01*
X149249500Y-94122038D01*
X149249500Y-94122040D01*
X149249499Y-94122040D01*
X149278340Y-94267027D01*
X149278343Y-94267037D01*
X149334913Y-94403610D01*
X149334918Y-94403619D01*
X149346943Y-94421615D01*
X149346945Y-94421617D01*
X149417051Y-94526540D01*
X149417052Y-94526541D01*
X153937049Y-99046536D01*
X154032858Y-99142345D01*
X154041585Y-99151072D01*
X154164498Y-99233200D01*
X154164511Y-99233207D01*
X154301082Y-99289776D01*
X154301087Y-99289778D01*
X154301091Y-99289778D01*
X154301092Y-99289779D01*
X154446079Y-99318620D01*
X154446082Y-99318620D01*
X167611812Y-99318620D01*
X167709354Y-99299216D01*
X167756805Y-99289778D01*
X167893387Y-99233204D01*
X167942621Y-99200306D01*
X168016308Y-99151072D01*
X169583951Y-97583428D01*
X169666084Y-97460507D01*
X169722658Y-97323925D01*
X169751500Y-97178930D01*
X169751500Y-97031095D01*
X169751500Y-95953310D01*
X169751500Y-95953307D01*
X169722659Y-95808320D01*
X169722658Y-95808319D01*
X169722658Y-95808315D01*
X169722656Y-95808310D01*
X169666087Y-95671739D01*
X169666080Y-95671726D01*
X169583952Y-95548813D01*
X169548923Y-95513784D01*
X169479416Y-95444277D01*
X169290759Y-95255620D01*
X168717313Y-94682172D01*
X168717312Y-94682171D01*
X168717306Y-94682167D01*
X168640834Y-94631071D01*
X168640833Y-94631070D01*
X168594392Y-94600039D01*
X168594380Y-94600032D01*
X168457809Y-94543463D01*
X168457799Y-94543460D01*
X168312812Y-94514620D01*
X168312810Y-94514620D01*
X163847082Y-94514620D01*
X163847080Y-94514620D01*
X163702092Y-94543460D01*
X163702082Y-94543463D01*
X163565511Y-94600032D01*
X163565499Y-94600039D01*
X163519059Y-94631070D01*
X163519057Y-94631071D01*
X163442589Y-94682163D01*
X163442584Y-94682167D01*
X162945450Y-95179301D01*
X162884127Y-95212786D01*
X162857769Y-95215620D01*
X161722129Y-95215620D01*
X161722123Y-95215621D01*
X161662516Y-95222028D01*
X161527671Y-95272322D01*
X161527664Y-95272326D01*
X161412455Y-95358572D01*
X161412452Y-95358575D01*
X161326206Y-95473784D01*
X161326202Y-95473791D01*
X161275908Y-95608637D01*
X161269501Y-95668236D01*
X161269500Y-95668255D01*
X161269501Y-96992620D01*
X161249816Y-97059659D01*
X161197013Y-97105414D01*
X161145501Y-97116620D01*
X156783229Y-97116620D01*
X156753788Y-97107975D01*
X156723802Y-97101452D01*
X156718786Y-97097697D01*
X156716190Y-97096935D01*
X156695548Y-97080301D01*
X156546818Y-96931571D01*
X156513333Y-96870248D01*
X156510499Y-96843890D01*
X156510499Y-95708249D01*
X156510498Y-95708243D01*
X156510497Y-95708236D01*
X156504091Y-95648637D01*
X156453796Y-95513789D01*
X156453795Y-95513788D01*
X156453793Y-95513784D01*
X156367547Y-95398575D01*
X156367544Y-95398572D01*
X156252335Y-95312326D01*
X156252328Y-95312322D01*
X156120917Y-95263309D01*
X156064983Y-95221438D01*
X156040566Y-95155973D01*
X156055418Y-95087700D01*
X156076563Y-95059452D01*
X156190104Y-94945912D01*
X156315051Y-94773936D01*
X156411557Y-94584532D01*
X156477246Y-94382363D01*
X156510500Y-94172407D01*
X156510500Y-93959833D01*
X156495382Y-93864388D01*
X156504336Y-93795099D01*
X156530171Y-93757315D01*
X159742570Y-90544916D01*
X159803891Y-90511433D01*
X159873583Y-90516417D01*
X159929516Y-90558289D01*
X159953933Y-90623753D01*
X159939081Y-90692026D01*
X159930568Y-90705484D01*
X159876656Y-90779687D01*
X159769433Y-90990123D01*
X159696446Y-91214751D01*
X159659500Y-91448022D01*
X159659500Y-91684217D01*
X159696446Y-91917488D01*
X159769433Y-92142116D01*
X159858348Y-92316620D01*
X159876657Y-92352553D01*
X160015483Y-92543630D01*
X160182490Y-92710637D01*
X160373567Y-92849463D01*
X160472991Y-92900122D01*
X160584003Y-92956686D01*
X160584005Y-92956686D01*
X160584008Y-92956688D01*
X160704412Y-92995809D01*
X160808631Y-93029673D01*
X161041903Y-93066620D01*
X161041908Y-93066620D01*
X161278097Y-93066620D01*
X161511368Y-93029673D01*
X161735992Y-92956688D01*
X161946433Y-92849463D01*
X162137510Y-92710637D01*
X162304517Y-92543630D01*
X162432313Y-92367733D01*
X162487643Y-92325069D01*
X162532631Y-92316620D01*
X166287369Y-92316620D01*
X166354408Y-92336305D01*
X166387685Y-92367733D01*
X166515483Y-92543630D01*
X166682490Y-92710637D01*
X166873567Y-92849463D01*
X166972991Y-92900122D01*
X167084003Y-92956686D01*
X167084005Y-92956686D01*
X167084008Y-92956688D01*
X167204412Y-92995809D01*
X167308631Y-93029673D01*
X167541903Y-93066620D01*
X167541908Y-93066620D01*
X167778097Y-93066620D01*
X168011368Y-93029673D01*
X168235992Y-92956688D01*
X168446433Y-92849463D01*
X168637510Y-92710637D01*
X168804517Y-92543630D01*
X168943343Y-92352553D01*
X169050568Y-92142112D01*
X169123553Y-91917488D01*
X169160500Y-91684217D01*
X169160500Y-91448022D01*
X169126488Y-91233285D01*
X169135442Y-91163992D01*
X169161277Y-91126209D01*
X169693952Y-90593536D01*
X169728659Y-90541592D01*
X169746014Y-90515619D01*
X169750992Y-90508168D01*
X169776084Y-90470615D01*
X169832658Y-90334033D01*
X169861500Y-90189038D01*
X169861500Y-86391178D01*
X169861500Y-86391175D01*
X169832659Y-86246188D01*
X169832658Y-86246187D01*
X169832658Y-86246183D01*
X169787196Y-86136427D01*
X169776087Y-86109607D01*
X169776080Y-86109594D01*
X169693952Y-85986681D01*
X169693951Y-85986680D01*
X169589416Y-85882145D01*
X166636616Y-82929345D01*
X166603131Y-82868022D01*
X166608115Y-82798330D01*
X166649987Y-82742397D01*
X166673359Y-82730204D01*
X166672791Y-82728984D01*
X166679326Y-82725936D01*
X166679334Y-82725934D01*
X166828656Y-82633832D01*
X166952712Y-82509776D01*
X167044814Y-82360454D01*
X167099999Y-82193917D01*
X167110500Y-82091129D01*
X167110499Y-81678349D01*
X167130183Y-81611311D01*
X167146818Y-81590669D01*
X167618947Y-81118541D01*
X167618950Y-81118538D01*
X167618950Y-81118537D01*
X167618952Y-81118536D01*
X167670685Y-81041111D01*
X167670691Y-81041103D01*
X167676732Y-81032059D01*
X167701084Y-80995615D01*
X167732286Y-80920287D01*
X167757659Y-80859032D01*
X167786500Y-80714037D01*
X167786500Y-80566202D01*
X167786500Y-72418202D01*
X167762889Y-72299503D01*
X167757659Y-72273208D01*
X167702472Y-72139978D01*
X167701627Y-72137684D01*
X167701608Y-72137410D01*
X167701084Y-72136625D01*
X167650078Y-72060289D01*
X167645963Y-72054130D01*
X167618954Y-72013706D01*
X167146818Y-71541570D01*
X167113333Y-71480247D01*
X167110499Y-71453889D01*
X167110499Y-71041118D01*
X167110498Y-71041101D01*
X167099999Y-70938323D01*
X167099998Y-70938320D01*
X167074350Y-70860921D01*
X167044814Y-70771786D01*
X166952712Y-70622464D01*
X166896819Y-70566571D01*
X166863334Y-70505248D01*
X166860500Y-70478890D01*
X166860500Y-67653350D01*
X166880185Y-67586311D01*
X166896819Y-67565669D01*
X166952712Y-67509776D01*
X167044814Y-67360454D01*
X167099999Y-67193917D01*
X167110500Y-67091129D01*
X167110499Y-66041112D01*
X167099999Y-65938323D01*
X167044814Y-65771786D01*
X166952712Y-65622464D01*
X166828656Y-65498408D01*
X166679334Y-65406306D01*
X166512797Y-65351121D01*
X166512795Y-65351120D01*
X166506371Y-65348992D01*
X166507198Y-65346494D01*
X166456223Y-65318854D01*
X166455964Y-65318596D01*
X163196125Y-62058757D01*
X163162640Y-61997434D01*
X163165696Y-61936361D01*
X163165149Y-61936230D01*
X163165848Y-61933315D01*
X163165877Y-61932753D01*
X163166286Y-61931495D01*
X163181492Y-61835486D01*
X163200500Y-61715481D01*
X163200500Y-61496758D01*
X163193836Y-61454684D01*
X163191535Y-61440158D01*
X166059500Y-61440158D01*
X166059500Y-61692081D01*
X166098910Y-61940905D01*
X166176760Y-62180503D01*
X166255164Y-62334377D01*
X166285002Y-62392939D01*
X166291132Y-62404968D01*
X166439201Y-62608769D01*
X166439205Y-62608774D01*
X166617345Y-62786914D01*
X166617350Y-62786918D01*
X166706235Y-62851496D01*
X166821155Y-62934990D01*
X166964184Y-63007867D01*
X167045616Y-63049359D01*
X167045618Y-63049359D01*
X167045621Y-63049361D01*
X167285215Y-63127210D01*
X167534038Y-63166620D01*
X167534039Y-63166620D01*
X167785961Y-63166620D01*
X167785962Y-63166620D01*
X168034785Y-63127210D01*
X168274379Y-63049361D01*
X168498845Y-62934990D01*
X168702656Y-62786913D01*
X168880793Y-62608776D01*
X169028870Y-62404965D01*
X169143241Y-62180499D01*
X169221090Y-61940905D01*
X169260500Y-61692082D01*
X169260500Y-61440158D01*
X169221090Y-61191335D01*
X169143241Y-60951741D01*
X169143239Y-60951738D01*
X169143239Y-60951736D01*
X169084235Y-60835935D01*
X169028870Y-60727275D01*
X168968323Y-60643939D01*
X168880798Y-60523470D01*
X168880794Y-60523465D01*
X168702654Y-60345325D01*
X168702649Y-60345321D01*
X168498848Y-60197252D01*
X168498847Y-60197251D01*
X168498845Y-60197250D01*
X168428747Y-60161533D01*
X168274383Y-60082880D01*
X168034785Y-60005030D01*
X167973245Y-59995283D01*
X167785962Y-59965620D01*
X167534038Y-59965620D01*
X167409626Y-59985325D01*
X167285214Y-60005030D01*
X167045616Y-60082880D01*
X166821151Y-60197252D01*
X166617350Y-60345321D01*
X166617345Y-60345325D01*
X166439205Y-60523465D01*
X166439201Y-60523470D01*
X166291132Y-60727271D01*
X166176760Y-60951736D01*
X166098910Y-61191334D01*
X166059500Y-61440158D01*
X163191535Y-61440158D01*
X163175452Y-61338619D01*
X163166286Y-61280745D01*
X163098701Y-61072737D01*
X163098701Y-61072736D01*
X163037047Y-60951736D01*
X162999407Y-60877863D01*
X162946110Y-60804505D01*
X162870857Y-60700926D01*
X162716199Y-60546268D01*
X162684813Y-60523465D01*
X162565028Y-60436436D01*
X162522364Y-60381109D01*
X162516385Y-60311496D01*
X162548990Y-60249700D01*
X162565023Y-60235806D01*
X162716199Y-60125972D01*
X162870852Y-59971319D01*
X162870854Y-59971315D01*
X162870857Y-59971313D01*
X162927229Y-59893721D01*
X162999407Y-59794377D01*
X163098701Y-59599503D01*
X163166286Y-59391495D01*
X163183912Y-59280202D01*
X163200500Y-59175481D01*
X163200500Y-58956758D01*
X163180595Y-58831091D01*
X163166286Y-58740745D01*
X163098701Y-58532737D01*
X163098701Y-58532736D01*
X163064315Y-58465252D01*
X162999407Y-58337863D01*
X162946110Y-58264505D01*
X162870857Y-58160926D01*
X162716193Y-58006262D01*
X162539260Y-57877715D01*
X162539259Y-57877714D01*
X162539257Y-57877713D01*
X162476825Y-57845902D01*
X162344383Y-57778418D01*
X162344380Y-57778417D01*
X162136376Y-57710834D01*
X161920361Y-57676620D01*
X161920356Y-57676620D01*
X159923644Y-57676620D01*
X159923639Y-57676620D01*
X159707623Y-57710834D01*
X159499619Y-57778417D01*
X159499616Y-57778418D01*
X159304739Y-57877715D01*
X159127806Y-58006262D01*
X158973142Y-58160926D01*
X158844595Y-58337859D01*
X158745298Y-58532736D01*
X158745297Y-58532739D01*
X158677714Y-58740743D01*
X158643500Y-58956758D01*
X158643500Y-59175481D01*
X158677714Y-59391496D01*
X158745297Y-59599500D01*
X158745298Y-59599503D01*
X158844595Y-59794380D01*
X158973142Y-59971313D01*
X159127806Y-60125977D01*
X159278969Y-60235802D01*
X159321635Y-60291131D01*
X159327614Y-60360745D01*
X159295009Y-60422540D01*
X159278969Y-60436438D01*
X159127806Y-60546262D01*
X158973142Y-60700926D01*
X158844595Y-60877859D01*
X158745298Y-61072736D01*
X158745297Y-61072739D01*
X158677714Y-61280743D01*
X158643500Y-61496758D01*
X158643500Y-61715481D01*
X158677714Y-61931496D01*
X158745297Y-62139500D01*
X158745298Y-62139503D01*
X158844595Y-62334380D01*
X158973142Y-62511313D01*
X159127806Y-62665977D01*
X159278969Y-62775802D01*
X159321635Y-62831131D01*
X159327614Y-62900745D01*
X159295009Y-62962540D01*
X159278969Y-62976438D01*
X159127806Y-63086262D01*
X158973142Y-63240926D01*
X158844595Y-63417859D01*
X158745298Y-63612736D01*
X158745297Y-63612739D01*
X158677714Y-63820743D01*
X158643500Y-64036758D01*
X158643500Y-64255481D01*
X158677714Y-64471496D01*
X158745297Y-64679500D01*
X158745298Y-64679503D01*
X158844595Y-64874380D01*
X158973142Y-65051313D01*
X159127806Y-65205977D01*
X159278969Y-65315802D01*
X159321635Y-65371131D01*
X159327614Y-65440745D01*
X159295009Y-65502540D01*
X159278969Y-65516438D01*
X159127806Y-65626262D01*
X158973142Y-65780926D01*
X158844595Y-65957859D01*
X158745298Y-66152736D01*
X158745297Y-66152739D01*
X158677714Y-66360743D01*
X158643500Y-66576758D01*
X158643500Y-66795481D01*
X158677714Y-67011496D01*
X158745297Y-67219500D01*
X158745298Y-67219503D01*
X158844595Y-67414380D01*
X158973142Y-67591313D01*
X159127806Y-67745977D01*
X159278969Y-67855802D01*
X159321635Y-67911131D01*
X159327614Y-67980745D01*
X159295009Y-68042540D01*
X159278969Y-68056438D01*
X159127806Y-68166262D01*
X158973142Y-68320926D01*
X158844595Y-68497859D01*
X158745298Y-68692736D01*
X158745297Y-68692739D01*
X158677714Y-68900743D01*
X158643500Y-69116758D01*
X158643500Y-69335481D01*
X158677714Y-69551496D01*
X158745297Y-69759500D01*
X158745298Y-69759503D01*
X158844595Y-69954380D01*
X158973142Y-70131313D01*
X159127806Y-70285977D01*
X159278969Y-70395802D01*
X159321635Y-70451131D01*
X159327614Y-70520745D01*
X159295009Y-70582540D01*
X159278969Y-70596438D01*
X159127806Y-70706262D01*
X158973142Y-70860926D01*
X158844595Y-71037859D01*
X158745298Y-71232736D01*
X158745297Y-71232739D01*
X158677714Y-71440743D01*
X158643500Y-71656758D01*
X158643500Y-71875481D01*
X158677714Y-72091496D01*
X158745297Y-72299500D01*
X158745298Y-72299503D01*
X158805780Y-72418202D01*
X158826991Y-72459832D01*
X158844595Y-72494380D01*
X158973142Y-72671313D01*
X159127806Y-72825977D01*
X159278969Y-72935802D01*
X159321635Y-72991131D01*
X159327614Y-73060745D01*
X159295009Y-73122540D01*
X159278969Y-73136438D01*
X159127806Y-73246262D01*
X158973142Y-73400926D01*
X158844595Y-73577859D01*
X158745298Y-73772736D01*
X158745297Y-73772739D01*
X158677714Y-73980743D01*
X158643500Y-74196758D01*
X158643500Y-74415481D01*
X158677714Y-74631496D01*
X158745297Y-74839500D01*
X158745298Y-74839503D01*
X158844595Y-75034380D01*
X158973142Y-75211313D01*
X159127806Y-75365977D01*
X159293374Y-75486267D01*
X159304743Y-75494527D01*
X159432132Y-75559435D01*
X159499616Y-75593821D01*
X159499619Y-75593822D01*
X159603621Y-75627613D01*
X159707625Y-75661406D01*
X159807672Y-75677252D01*
X159923639Y-75695620D01*
X159923644Y-75695620D01*
X161920361Y-75695620D01*
X162025082Y-75679032D01*
X162136375Y-75661406D01*
X162344383Y-75593821D01*
X162539257Y-75494527D01*
X162638601Y-75422349D01*
X162716193Y-75365977D01*
X162716195Y-75365974D01*
X162716199Y-75365972D01*
X162870852Y-75211319D01*
X162870854Y-75211315D01*
X162870857Y-75211313D01*
X162927229Y-75133721D01*
X162999407Y-75034377D01*
X163092376Y-74851915D01*
X163140351Y-74801120D01*
X163208172Y-74784325D01*
X163274307Y-74806863D01*
X163290542Y-74820530D01*
X163699639Y-75229627D01*
X163733124Y-75290950D01*
X163728140Y-75360642D01*
X163686268Y-75416575D01*
X163664374Y-75429685D01*
X163662076Y-75430756D01*
X163514000Y-75522091D01*
X163513996Y-75522094D01*
X163390974Y-75645116D01*
X163390971Y-75645120D01*
X163299642Y-75793186D01*
X163299637Y-75793197D01*
X163244913Y-75958343D01*
X163234500Y-76060264D01*
X163234500Y-77071975D01*
X163244913Y-77173896D01*
X163299637Y-77339042D01*
X163299642Y-77339053D01*
X163390971Y-77487119D01*
X163390974Y-77487123D01*
X163435681Y-77531830D01*
X163469166Y-77593153D01*
X163472000Y-77619511D01*
X163472000Y-80466390D01*
X163452315Y-80533429D01*
X163435681Y-80554071D01*
X163367289Y-80622462D01*
X163275187Y-80771783D01*
X163275186Y-80771786D01*
X163220001Y-80938323D01*
X163220001Y-80938324D01*
X163220000Y-80938324D01*
X163209500Y-81041103D01*
X163209500Y-81041110D01*
X163209500Y-81041111D01*
X163209500Y-81478753D01*
X163209501Y-81867620D01*
X163189817Y-81934659D01*
X163137013Y-81980414D01*
X163085501Y-81991620D01*
X158798229Y-81991620D01*
X158731190Y-81971935D01*
X158710548Y-81955301D01*
X146432586Y-69677338D01*
X146399101Y-69616015D01*
X146402082Y-69556454D01*
X146401149Y-69556230D01*
X146402282Y-69551506D01*
X146402286Y-69551495D01*
X146417492Y-69455486D01*
X146436500Y-69335481D01*
X146436500Y-69116758D01*
X146404493Y-68914680D01*
X146402286Y-68900745D01*
X146334701Y-68692737D01*
X146334701Y-68692736D01*
X146300315Y-68625252D01*
X146235407Y-68497863D01*
X146227147Y-68486494D01*
X146106857Y-68320926D01*
X145952199Y-68166268D01*
X145928098Y-68148758D01*
X145801028Y-68056436D01*
X145758364Y-68001109D01*
X145752385Y-67931496D01*
X145784990Y-67869700D01*
X145801023Y-67855806D01*
X145952199Y-67745972D01*
X146106852Y-67591319D01*
X146106854Y-67591315D01*
X146106857Y-67591313D01*
X146191385Y-67474968D01*
X146235407Y-67414377D01*
X146334701Y-67219503D01*
X146402286Y-67011495D01*
X146419912Y-66900202D01*
X146436500Y-66795481D01*
X146436500Y-66576758D01*
X146416595Y-66451091D01*
X146402286Y-66360745D01*
X146334701Y-66152737D01*
X146334701Y-66152736D01*
X146277828Y-66041118D01*
X146235407Y-65957863D01*
X146227147Y-65946494D01*
X146106857Y-65780926D01*
X145952199Y-65626268D01*
X145946960Y-65622462D01*
X145801028Y-65516436D01*
X145758364Y-65461109D01*
X145752385Y-65391496D01*
X145784990Y-65329700D01*
X145801023Y-65315806D01*
X145952199Y-65205972D01*
X146106852Y-65051319D01*
X146106854Y-65051315D01*
X146106857Y-65051313D01*
X146163229Y-64973721D01*
X146235407Y-64874377D01*
X146334701Y-64679503D01*
X146402286Y-64471495D01*
X146419912Y-64360202D01*
X146436500Y-64255481D01*
X146436500Y-64036758D01*
X146416595Y-63911091D01*
X146402286Y-63820745D01*
X146334701Y-63612737D01*
X146334701Y-63612736D01*
X146300315Y-63545252D01*
X146235407Y-63417863D01*
X146182110Y-63344505D01*
X146106857Y-63240926D01*
X145952199Y-63086268D01*
X145952191Y-63086262D01*
X145801028Y-62976436D01*
X145758364Y-62921109D01*
X145752385Y-62851496D01*
X145784990Y-62789700D01*
X145801023Y-62775806D01*
X145952199Y-62665972D01*
X146106852Y-62511319D01*
X146106854Y-62511315D01*
X146106857Y-62511313D01*
X146163229Y-62433721D01*
X146235407Y-62334377D01*
X146334701Y-62139503D01*
X146402286Y-61931495D01*
X146419912Y-61820202D01*
X146436500Y-61715481D01*
X146436500Y-61496758D01*
X146411452Y-61338619D01*
X146402286Y-61280745D01*
X146334701Y-61072737D01*
X146334701Y-61072736D01*
X146273047Y-60951736D01*
X146235407Y-60877863D01*
X146182110Y-60804505D01*
X146106857Y-60700926D01*
X145952199Y-60546268D01*
X145920813Y-60523465D01*
X145801028Y-60436436D01*
X145758364Y-60381109D01*
X145752385Y-60311496D01*
X145784990Y-60249700D01*
X145801023Y-60235806D01*
X145952199Y-60125972D01*
X146106852Y-59971319D01*
X146106854Y-59971315D01*
X146106857Y-59971313D01*
X146163229Y-59893721D01*
X146235407Y-59794377D01*
X146334701Y-59599503D01*
X146402286Y-59391495D01*
X146419912Y-59280202D01*
X146436500Y-59175481D01*
X146436500Y-58956758D01*
X146416595Y-58831091D01*
X146402286Y-58740745D01*
X146334701Y-58532737D01*
X146334701Y-58532736D01*
X146300315Y-58465252D01*
X146235407Y-58337863D01*
X146182110Y-58264505D01*
X146106857Y-58160926D01*
X145952193Y-58006262D01*
X145775260Y-57877715D01*
X145775259Y-57877714D01*
X145775257Y-57877713D01*
X145712825Y-57845902D01*
X145580383Y-57778418D01*
X145580380Y-57778417D01*
X145372376Y-57710834D01*
X145156361Y-57676620D01*
X145156356Y-57676620D01*
X143159644Y-57676620D01*
X143159639Y-57676620D01*
X142943623Y-57710834D01*
X142735619Y-57778417D01*
X142735616Y-57778418D01*
X142540739Y-57877715D01*
X142363806Y-58006262D01*
X142209148Y-58160920D01*
X142209144Y-58160926D01*
X142133888Y-58264506D01*
X142078561Y-58307171D01*
X142033572Y-58315620D01*
X128916188Y-58315620D01*
X128771200Y-58344460D01*
X128771190Y-58344463D01*
X128634619Y-58401032D01*
X128634612Y-58401036D01*
X128612511Y-58415803D01*
X128601384Y-58423239D01*
X128511687Y-58483171D01*
X112916050Y-74078808D01*
X112916044Y-74078816D01*
X112866812Y-74152496D01*
X112866813Y-74152497D01*
X112833921Y-74201724D01*
X112833914Y-74201736D01*
X112777342Y-74338314D01*
X112777340Y-74338320D01*
X112748500Y-74483307D01*
X112748500Y-74483310D01*
X112748500Y-75708930D01*
X112748500Y-75708932D01*
X112748499Y-75708932D01*
X110660500Y-75708932D01*
X110660500Y-61568823D01*
X110660618Y-61563415D01*
X110663528Y-61496758D01*
X110677384Y-61179345D01*
X110678324Y-61168611D01*
X110728150Y-60790136D01*
X110730021Y-60779525D01*
X110812645Y-60406823D01*
X110815440Y-60396397D01*
X110930225Y-60032341D01*
X110933919Y-60022193D01*
X111079996Y-59669530D01*
X111084556Y-59659751D01*
X111260815Y-59321157D01*
X111266215Y-59311804D01*
X111471319Y-58989852D01*
X111477509Y-58981013D01*
X111709881Y-58678180D01*
X111716831Y-58669897D01*
X111974731Y-58388446D01*
X111982347Y-58380831D01*
X112263788Y-58122937D01*
X112272040Y-58116012D01*
X112574906Y-57883613D01*
X112583741Y-57877427D01*
X112905695Y-57672320D01*
X112915041Y-57666925D01*
X113253626Y-57490668D01*
X113263417Y-57486102D01*
X113616085Y-57340021D01*
X113626231Y-57336328D01*
X113990282Y-57221544D01*
X114000711Y-57218749D01*
X114373400Y-57136125D01*
X114384030Y-57134251D01*
X114762494Y-57084426D01*
X114773227Y-57083486D01*
X115145543Y-57067231D01*
X115156840Y-57066738D01*
X115162248Y-57066620D01*
X115225892Y-57066620D01*
X167594108Y-57066620D01*
X167657294Y-57066620D01*
X167662702Y-57066737D01*
G37*
%TD.AperFunction*%
%TA.AperFunction,NonConductor*%
G36*
X142100611Y-59836305D02*
G01*
X142133888Y-59867732D01*
X142205007Y-59965620D01*
X142209148Y-59971319D01*
X142363806Y-60125977D01*
X142514969Y-60235802D01*
X142557635Y-60291131D01*
X142563614Y-60360745D01*
X142531009Y-60422540D01*
X142514969Y-60436438D01*
X142363806Y-60546262D01*
X142209148Y-60700920D01*
X142175772Y-60746859D01*
X142133888Y-60804506D01*
X142078561Y-60847171D01*
X142033572Y-60855620D01*
X128561338Y-60855620D01*
X128494299Y-60835935D01*
X128448544Y-60783131D01*
X128438600Y-60713973D01*
X128467625Y-60650417D01*
X128473657Y-60643939D01*
X129264657Y-59852939D01*
X129325980Y-59819454D01*
X129352338Y-59816620D01*
X142033572Y-59816620D01*
X142100611Y-59836305D01*
G37*
%TD.AperFunction*%
%TA.AperFunction,NonConductor*%
G36*
X165165463Y-67450604D02*
G01*
X165175368Y-67448992D01*
X165198737Y-67459144D01*
X165223418Y-67465480D01*
X165235160Y-67474968D01*
X165239451Y-67476833D01*
X165244085Y-67482181D01*
X165250870Y-67487664D01*
X165259149Y-67496580D01*
X165267288Y-67509776D01*
X165324811Y-67567299D01*
X165326370Y-67568978D01*
X165340987Y-67598278D01*
X165356666Y-67626992D01*
X165356496Y-67629366D01*
X165357560Y-67631499D01*
X165359500Y-67653350D01*
X165359500Y-70478890D01*
X165339815Y-70545929D01*
X165323181Y-70566571D01*
X165267288Y-70622463D01*
X165267285Y-70622466D01*
X165265537Y-70625302D01*
X165263829Y-70626837D01*
X165262807Y-70628131D01*
X165262585Y-70627956D01*
X165213589Y-70672025D01*
X165144626Y-70683246D01*
X165080544Y-70655402D01*
X165054463Y-70625302D01*
X165052714Y-70622466D01*
X164996819Y-70566571D01*
X164963334Y-70505248D01*
X164960500Y-70478890D01*
X164960500Y-67653350D01*
X164980185Y-67586311D01*
X164996819Y-67565669D01*
X165052712Y-67509776D01*
X165054461Y-67506939D01*
X165056169Y-67505403D01*
X165057193Y-67504109D01*
X165057414Y-67504283D01*
X165073405Y-67489900D01*
X165089418Y-67470084D01*
X165098944Y-67466927D01*
X165106406Y-67460216D01*
X165131556Y-67456122D01*
X165155743Y-67448109D01*
X165165463Y-67450604D01*
G37*
%TD.AperFunction*%
%TA.AperFunction,NonConductor*%
G36*
X165177553Y-72449941D02*
G01*
X165179920Y-72449646D01*
X165209436Y-72463793D01*
X165239451Y-72476833D01*
X165241445Y-72479135D01*
X165242927Y-72479845D01*
X165265537Y-72506937D01*
X165267288Y-72509776D01*
X165391344Y-72633832D01*
X165540666Y-72725934D01*
X165707203Y-72781119D01*
X165809991Y-72791620D01*
X166161500Y-72791619D01*
X166228539Y-72811303D01*
X166274294Y-72864107D01*
X166285500Y-72915619D01*
X166285500Y-75241620D01*
X166282949Y-75250305D01*
X166284238Y-75259267D01*
X166273259Y-75283307D01*
X166265815Y-75308659D01*
X166258974Y-75314586D01*
X166255213Y-75322823D01*
X166232978Y-75337112D01*
X166213011Y-75354414D01*
X166202496Y-75356701D01*
X166196435Y-75360597D01*
X166161500Y-75365620D01*
X166009729Y-75365620D01*
X165942690Y-75345935D01*
X165922048Y-75329301D01*
X163937819Y-73345071D01*
X163904334Y-73283748D01*
X163901500Y-73257390D01*
X163901500Y-72915619D01*
X163921185Y-72848580D01*
X163973989Y-72802825D01*
X164025496Y-72791619D01*
X164510008Y-72791619D01*
X164510016Y-72791618D01*
X164510019Y-72791618D01*
X164566302Y-72785868D01*
X164612797Y-72781119D01*
X164779334Y-72725934D01*
X164928656Y-72633832D01*
X165052712Y-72509776D01*
X165054461Y-72506939D01*
X165056169Y-72505403D01*
X165056244Y-72505308D01*
X165056946Y-72503074D01*
X165082061Y-72482114D01*
X165106406Y-72460216D01*
X165108759Y-72459832D01*
X165110589Y-72458306D01*
X165143065Y-72454249D01*
X165175368Y-72448992D01*
X165177553Y-72449941D01*
G37*
%TD.AperFunction*%
%TA.AperFunction,NonConductor*%
G36*
X165239448Y-77456308D02*
G01*
X165261342Y-77481575D01*
X165261493Y-77481456D01*
X165264143Y-77484807D01*
X165265540Y-77486419D01*
X165265972Y-77487119D01*
X165265975Y-77487124D01*
X165388996Y-77610145D01*
X165389000Y-77610148D01*
X165537066Y-77701477D01*
X165537069Y-77701478D01*
X165537075Y-77701482D01*
X165702225Y-77756207D01*
X165804152Y-77766620D01*
X166161500Y-77766620D01*
X166228539Y-77786305D01*
X166274294Y-77839109D01*
X166285500Y-77890620D01*
X166285500Y-80216620D01*
X166265815Y-80283659D01*
X166213011Y-80329414D01*
X166161500Y-80340620D01*
X165809998Y-80340620D01*
X165809980Y-80340621D01*
X165707203Y-80351120D01*
X165707200Y-80351121D01*
X165540668Y-80406305D01*
X165540663Y-80406307D01*
X165391342Y-80498409D01*
X165267285Y-80622466D01*
X165265537Y-80625302D01*
X165263829Y-80626837D01*
X165262807Y-80628131D01*
X165262585Y-80627956D01*
X165213589Y-80672025D01*
X165144626Y-80683246D01*
X165080544Y-80655402D01*
X165068541Y-80643936D01*
X165060618Y-80635282D01*
X165052712Y-80622464D01*
X165007383Y-80577135D01*
X165005541Y-80575123D01*
X164991317Y-80546103D01*
X164975834Y-80517748D01*
X164975388Y-80513605D01*
X164974790Y-80512384D01*
X164975032Y-80510293D01*
X164973000Y-80491390D01*
X164973000Y-77619511D01*
X164992685Y-77552472D01*
X165009319Y-77531830D01*
X165054026Y-77487123D01*
X165054458Y-77486421D01*
X165054881Y-77486041D01*
X165058507Y-77481456D01*
X165059290Y-77482075D01*
X165106402Y-77439695D01*
X165175364Y-77428469D01*
X165239448Y-77456308D01*
G37*
%TD.AperFunction*%
%TA.AperFunction,NonConductor*%
G36*
X142038821Y-62358161D02*
G01*
X142044184Y-62357075D01*
X142071986Y-62367899D01*
X142100611Y-62376305D01*
X142105546Y-62380966D01*
X142109293Y-62382425D01*
X142133887Y-62407731D01*
X142209144Y-62511313D01*
X142209148Y-62511319D01*
X142363806Y-62665977D01*
X142514969Y-62775802D01*
X142557635Y-62831131D01*
X142563614Y-62900745D01*
X142531009Y-62962540D01*
X142514969Y-62976438D01*
X142363806Y-63086262D01*
X142209148Y-63240920D01*
X142209144Y-63240926D01*
X142133888Y-63344506D01*
X142078561Y-63387171D01*
X142033572Y-63395620D01*
X134735871Y-63395620D01*
X134590883Y-63424460D01*
X134590873Y-63424463D01*
X134454302Y-63481032D01*
X134454295Y-63481036D01*
X134432194Y-63495803D01*
X134421067Y-63503239D01*
X134331370Y-63563171D01*
X134331369Y-63563172D01*
X128892181Y-69002361D01*
X128830858Y-69035846D01*
X128761166Y-69030862D01*
X128705233Y-68988990D01*
X128680816Y-68923526D01*
X128680500Y-68914680D01*
X128680500Y-68768499D01*
X128680499Y-68768498D01*
X128661193Y-68597156D01*
X128649683Y-68494999D01*
X128588438Y-68226666D01*
X128497534Y-67966877D01*
X128378114Y-67718899D01*
X128231681Y-67485852D01*
X128060075Y-67270665D01*
X127865455Y-67076045D01*
X127650268Y-66904439D01*
X127417221Y-66758006D01*
X127417218Y-66758004D01*
X127169246Y-66638587D01*
X126909465Y-66547685D01*
X126909453Y-66547681D01*
X126641124Y-66486437D01*
X126641108Y-66486435D01*
X126367621Y-66455620D01*
X126367617Y-66455620D01*
X126092383Y-66455620D01*
X126092379Y-66455620D01*
X125818891Y-66486435D01*
X125818875Y-66486437D01*
X125550546Y-66547681D01*
X125550534Y-66547685D01*
X125290753Y-66638587D01*
X125042781Y-66758004D01*
X124809733Y-66904438D01*
X124594545Y-67076044D01*
X124399924Y-67270665D01*
X124228318Y-67485853D01*
X124081884Y-67718901D01*
X123962467Y-67966873D01*
X123871565Y-68226654D01*
X123871561Y-68226666D01*
X123810317Y-68494995D01*
X123810315Y-68495011D01*
X123779500Y-68768498D01*
X123779500Y-69043741D01*
X123810315Y-69317228D01*
X123810317Y-69317244D01*
X123871561Y-69585573D01*
X123871565Y-69585585D01*
X123962467Y-69845366D01*
X124081884Y-70093338D01*
X124081886Y-70093341D01*
X124228319Y-70326388D01*
X124248068Y-70351152D01*
X124383313Y-70520745D01*
X124399925Y-70541575D01*
X124594545Y-70736195D01*
X124809732Y-70907801D01*
X125042779Y-71054234D01*
X125290757Y-71173654D01*
X125485865Y-71241925D01*
X125550534Y-71264554D01*
X125550546Y-71264558D01*
X125818879Y-71325803D01*
X126092378Y-71356619D01*
X126092379Y-71356620D01*
X126238560Y-71356620D01*
X126305599Y-71376305D01*
X126351354Y-71429109D01*
X126361298Y-71498267D01*
X126332273Y-71561823D01*
X126326241Y-71568301D01*
X116028756Y-81865786D01*
X115967433Y-81899271D01*
X115897741Y-81894287D01*
X115841808Y-81852415D01*
X115840757Y-81850991D01*
X115830104Y-81836328D01*
X115679792Y-81686016D01*
X115679786Y-81686010D01*
X115507819Y-81561071D01*
X115507818Y-81561070D01*
X115507816Y-81561069D01*
X115440418Y-81526728D01*
X115389622Y-81478753D01*
X115372827Y-81410932D01*
X115395364Y-81344797D01*
X115409026Y-81328568D01*
X115921843Y-80815752D01*
X116003976Y-80692831D01*
X116060550Y-80556249D01*
X116089392Y-80411254D01*
X116089392Y-80263419D01*
X116089392Y-77400986D01*
X116089392Y-77400983D01*
X116060551Y-77255996D01*
X116060550Y-77255995D01*
X116060550Y-77255991D01*
X116036738Y-77198503D01*
X116003979Y-77119415D01*
X116003972Y-77119402D01*
X115921844Y-76996489D01*
X115921843Y-76996488D01*
X115817308Y-76891953D01*
X115409031Y-76483675D01*
X115375547Y-76422354D01*
X115380531Y-76352662D01*
X115422403Y-76296729D01*
X115440415Y-76285513D01*
X115507816Y-76251171D01*
X115559255Y-76213798D01*
X115679786Y-76126229D01*
X115679788Y-76126226D01*
X115679792Y-76126224D01*
X115830104Y-75975912D01*
X115830106Y-75975908D01*
X115830109Y-75975906D01*
X115955048Y-75803940D01*
X115955047Y-75803940D01*
X115955051Y-75803936D01*
X116051557Y-75614532D01*
X116117246Y-75412363D01*
X116150500Y-75202407D01*
X116150500Y-74989833D01*
X116135382Y-74894388D01*
X116144336Y-74825099D01*
X116170171Y-74787315D01*
X128564549Y-62392939D01*
X128625872Y-62359454D01*
X128652230Y-62356620D01*
X142033572Y-62356620D01*
X142038821Y-62358161D01*
G37*
%TD.AperFunction*%
%TA.AperFunction,NonConductor*%
G36*
X142100611Y-64916305D02*
G01*
X142133888Y-64947732D01*
X142209144Y-65051313D01*
X142209148Y-65051319D01*
X142363806Y-65205977D01*
X142514969Y-65315802D01*
X142557635Y-65371131D01*
X142563614Y-65440745D01*
X142531009Y-65502540D01*
X142514969Y-65516438D01*
X142363806Y-65626262D01*
X142209142Y-65780926D01*
X142080595Y-65957859D01*
X141981298Y-66152736D01*
X141981297Y-66152739D01*
X141913714Y-66360743D01*
X141879500Y-66576758D01*
X141879500Y-66795481D01*
X141913714Y-67011496D01*
X141981297Y-67219500D01*
X141981298Y-67219503D01*
X142054454Y-67363078D01*
X142067350Y-67431747D01*
X142041074Y-67496488D01*
X142031650Y-67507054D01*
X141346050Y-68192655D01*
X141346044Y-68192663D01*
X141303473Y-68256375D01*
X141303474Y-68256376D01*
X141263913Y-68315582D01*
X141207343Y-68452156D01*
X141207340Y-68452166D01*
X141178500Y-68597153D01*
X141178500Y-72304781D01*
X141158815Y-72371820D01*
X141142181Y-72392462D01*
X139047556Y-74487086D01*
X138986233Y-74520571D01*
X138916541Y-74515587D01*
X138860608Y-74473715D01*
X138849390Y-74455699D01*
X138815050Y-74388302D01*
X138690109Y-74216333D01*
X138539786Y-74066010D01*
X138367820Y-73941071D01*
X138178414Y-73844564D01*
X138178413Y-73844563D01*
X138178412Y-73844563D01*
X137976243Y-73778874D01*
X137976241Y-73778873D01*
X137976240Y-73778873D01*
X137814957Y-73753328D01*
X137766287Y-73745620D01*
X137553713Y-73745620D01*
X137505042Y-73753328D01*
X137343760Y-73778873D01*
X137141585Y-73844564D01*
X136952179Y-73941071D01*
X136780213Y-74066010D01*
X136629890Y-74216333D01*
X136504951Y-74388299D01*
X136408444Y-74577705D01*
X136342753Y-74779880D01*
X136309500Y-74989833D01*
X136309500Y-75202412D01*
X136324616Y-75297848D01*
X136315662Y-75367141D01*
X136289824Y-75404927D01*
X128464451Y-83230301D01*
X128403128Y-83263786D01*
X128376770Y-83266620D01*
X117050021Y-83266620D01*
X116982982Y-83246935D01*
X116937227Y-83194131D01*
X116927283Y-83124973D01*
X116956308Y-83061417D01*
X116962340Y-83054939D01*
X135084340Y-64932939D01*
X135145663Y-64899454D01*
X135172021Y-64896620D01*
X142033572Y-64896620D01*
X142100611Y-64916305D01*
G37*
%TD.AperFunction*%
%TA.AperFunction,NonConductor*%
G36*
X165092833Y-83512305D02*
G01*
X165113475Y-83528939D01*
X167079970Y-85495434D01*
X167113455Y-85556757D01*
X167108471Y-85626449D01*
X167066599Y-85682382D01*
X167048585Y-85693599D01*
X166873568Y-85782775D01*
X166739896Y-85879894D01*
X166682490Y-85921603D01*
X166682488Y-85921605D01*
X166682487Y-85921605D01*
X166515485Y-86088607D01*
X166515485Y-86088608D01*
X166515483Y-86088610D01*
X166400996Y-86246188D01*
X166387687Y-86264506D01*
X166332357Y-86307171D01*
X166287369Y-86315620D01*
X162532631Y-86315620D01*
X162465592Y-86295935D01*
X162432313Y-86264506D01*
X162419004Y-86246188D01*
X162304517Y-86088610D01*
X162137510Y-85921603D01*
X161946433Y-85782777D01*
X161941055Y-85780037D01*
X161735996Y-85675553D01*
X161511368Y-85602566D01*
X161278097Y-85565620D01*
X161278092Y-85565620D01*
X161041908Y-85565620D01*
X161041903Y-85565620D01*
X160827165Y-85599631D01*
X160757871Y-85590676D01*
X160720086Y-85564839D01*
X159038421Y-83883172D01*
X159038420Y-83883171D01*
X159020460Y-83871171D01*
X158948724Y-83823239D01*
X158915495Y-83801036D01*
X158915488Y-83801032D01*
X158778917Y-83744463D01*
X158778907Y-83744460D01*
X158747620Y-83738237D01*
X158685709Y-83705852D01*
X158651135Y-83645136D01*
X158654875Y-83575367D01*
X158695742Y-83518695D01*
X158760760Y-83493113D01*
X158771812Y-83492620D01*
X165025794Y-83492620D01*
X165092833Y-83512305D01*
G37*
%TD.AperFunction*%
%TA.AperFunction,NonConductor*%
G36*
X166354408Y-87836305D02*
G01*
X166387685Y-87867733D01*
X166515483Y-88043630D01*
X166682490Y-88210637D01*
X166873567Y-88349463D01*
X166955628Y-88391275D01*
X167084003Y-88456686D01*
X167084005Y-88456686D01*
X167084008Y-88456688D01*
X167174569Y-88486113D01*
X167308631Y-88529673D01*
X167541903Y-88566620D01*
X167541908Y-88566620D01*
X167778097Y-88566620D01*
X168011368Y-88529673D01*
X168198182Y-88468972D01*
X168268022Y-88466978D01*
X168327855Y-88503058D01*
X168358684Y-88565759D01*
X168360500Y-88586904D01*
X168360500Y-89752889D01*
X168340815Y-89819928D01*
X168324181Y-89840570D01*
X168099912Y-90064839D01*
X168038589Y-90098324D01*
X167992833Y-90099631D01*
X167778097Y-90065620D01*
X167778092Y-90065620D01*
X167541908Y-90065620D01*
X167541903Y-90065620D01*
X167308631Y-90102566D01*
X167084003Y-90175553D01*
X166873566Y-90282777D01*
X166767049Y-90360167D01*
X166682490Y-90421603D01*
X166682488Y-90421605D01*
X166682487Y-90421605D01*
X166515485Y-90588607D01*
X166515485Y-90588608D01*
X166515483Y-90588610D01*
X166440347Y-90692026D01*
X166387687Y-90764506D01*
X166332357Y-90807171D01*
X166287369Y-90815620D01*
X162532631Y-90815620D01*
X162465592Y-90795935D01*
X162432313Y-90764506D01*
X162304517Y-90588610D01*
X162137510Y-90421603D01*
X161946433Y-90282777D01*
X161735996Y-90175553D01*
X161511368Y-90102566D01*
X161278097Y-90065620D01*
X161278092Y-90065620D01*
X161041908Y-90065620D01*
X161041903Y-90065620D01*
X160808631Y-90102566D01*
X160584003Y-90175553D01*
X160373563Y-90282779D01*
X160299365Y-90336687D01*
X160233559Y-90360167D01*
X160165505Y-90344341D01*
X160116810Y-90294236D01*
X160102935Y-90225757D01*
X160128284Y-90160648D01*
X160138799Y-90148688D01*
X161742949Y-88544538D01*
X161742951Y-88544536D01*
X161817564Y-88432868D01*
X161864372Y-88391275D01*
X161946431Y-88349464D01*
X161946430Y-88349464D01*
X161946433Y-88349463D01*
X162137510Y-88210637D01*
X162304517Y-88043630D01*
X162432313Y-87867733D01*
X162487643Y-87825069D01*
X162532631Y-87816620D01*
X166287369Y-87816620D01*
X166354408Y-87836305D01*
G37*
%TD.AperFunction*%
%TA.AperFunction,NonConductor*%
G36*
X166501444Y-97220119D02*
G01*
X166540486Y-97265176D01*
X166544951Y-97273940D01*
X166669890Y-97445906D01*
X166820208Y-97596224D01*
X166823851Y-97599336D01*
X166862040Y-97657846D01*
X166862533Y-97727714D01*
X166825174Y-97786758D01*
X166761825Y-97816230D01*
X166743312Y-97817620D01*
X166116688Y-97817620D01*
X166049649Y-97797935D01*
X166003894Y-97745131D01*
X165993950Y-97675973D01*
X166022975Y-97612417D01*
X166036149Y-97599336D01*
X166039785Y-97596228D01*
X166039792Y-97596224D01*
X166190104Y-97445912D01*
X166190106Y-97445908D01*
X166190109Y-97445906D01*
X166315048Y-97273940D01*
X166315047Y-97273940D01*
X166315051Y-97273936D01*
X166319514Y-97265174D01*
X166367488Y-97214379D01*
X166435308Y-97197583D01*
X166501444Y-97220119D01*
G37*
%TD.AperFunction*%
M02*
