M48
; DRILL file {KiCad 9.0.6} date 2026-03-05T14:23:20-0800
; FORMAT={-:-/ absolute / metric / decimal}
; #@! TF.CreationDate,2026-03-05T14:23:20-08:00
; #@! TF.GenerationSoftware,Kicad,Pcbnew,9.0.6
; #@! TF.FileFunction,Plated,1,2,PTH
FMAT,2
METRIC
; #@! TA.AperFunction,Plated,PTH,ComponentDrill
T1C0.850
; #@! TA.AperFunction,Plated,PTH,ComponentDrill
T2C1.000
; #@! TA.AperFunction,Plated,PTH,ComponentDrill
T3C1.016
; #@! TA.AperFunction,Plated,PTH,ComponentDrill
T4C1.100
%
G90
G05
T1
X114.8Y-75.096
X114.8Y-82.716
X137.66Y-75.096
X137.66Y-82.716
T2
X112.62Y-121.126
X112.62Y-123.666
X112.62Y-126.206
X127.62Y-138.666
X130.16Y-138.666
X155.16Y-94.066
X155.16Y-96.606
X160.12Y-131.166
X162.62Y-96.566
X162.66Y-131.166
X165.16Y-96.566
X165.2Y-131.166
X167.7Y-96.566
X167.74Y-131.166
X170.28Y-131.166
T3
X135.0Y-108.666
X135.0Y-111.206
X135.0Y-113.746
X135.0Y-116.286
X135.0Y-118.826
X135.0Y-121.366
X135.0Y-123.906
X140.08Y-134.066
X144.92Y-59.066
X144.92Y-61.606
X144.92Y-64.146
X144.92Y-66.686
X144.92Y-69.226
X144.92Y-71.766
X144.92Y-74.306
X145.16Y-134.066
X150.0Y-84.466
X150.24Y-108.666
X150.24Y-111.206
X150.24Y-113.746
X150.24Y-116.286
X150.24Y-118.826
X150.24Y-121.366
X150.24Y-123.906
X155.08Y-84.466
X160.16Y-59.066
X160.16Y-61.606
X160.16Y-64.146
X160.16Y-66.686
X160.16Y-69.226
X160.16Y-71.766
X160.16Y-74.306
T4
X118.12Y-120.416
X118.12Y-126.916
X122.62Y-120.416
X122.62Y-126.916
X161.16Y-87.066
X161.16Y-91.566
X167.66Y-87.066
X167.66Y-91.566
M30
