%TF.GenerationSoftware,KiCad,Pcbnew,9.0.6*%
%TF.CreationDate,2026-03-05T14:23:29-08:00*%
%TF.ProjectId,schematic,73636865-6d61-4746-9963-2e6b69636164,rev?*%
%TF.SameCoordinates,Original*%
%TF.FileFunction,Soldermask,Bot*%
%TF.FilePolarity,Negative*%
%FSLAX46Y46*%
G04 Gerber Fmt 4.6, Leading zero omitted, Abs format (unit mm)*
G04 Created by KiCad (PCBNEW 9.0.6) date 2026-03-05 14:23:29*
%MOMM*%
%LPD*%
G01*
G04 APERTURE LIST*
%ADD10C,2.700000*%
%ADD11R,1.700000X1.700000*%
%ADD12C,1.700000*%
%ADD13O,3.556000X1.778000*%
%ADD14C,1.905000*%
%ADD15C,2.000000*%
G04 APERTURE END LIST*
D10*
%TO.C,REF\u002A\u002A*%
X115160000Y-96566120D03*
%TD*%
%TO.C,REF\u002A\u002A*%
X167660000Y-61566120D03*
%TD*%
%TO.C,REF\u002A\u002A*%
X115370000Y-136166120D03*
%TD*%
%TO.C,REF\u002A\u002A*%
X167870000Y-111166120D03*
%TD*%
D11*
%TO.C,BT1*%
X155160000Y-96606120D03*
D12*
X155160000Y-94066120D03*
%TD*%
D11*
%TO.C,BT2*%
X127620000Y-138666120D03*
D12*
X130160000Y-138666120D03*
%TD*%
D13*
%TO.C,U2*%
X144158000Y-59066120D03*
X144158000Y-61606120D03*
X144158000Y-64146120D03*
X144158000Y-66686120D03*
X144158000Y-69226120D03*
X144158000Y-71766120D03*
X144158000Y-74306120D03*
X160922000Y-74306120D03*
X160922000Y-71766120D03*
X160922000Y-69226120D03*
X160922000Y-66686120D03*
X160922000Y-64146120D03*
X160922000Y-61606120D03*
X160922000Y-59066120D03*
D14*
X150000000Y-84466120D03*
X155080000Y-84466120D03*
%TD*%
D15*
%TO.C,SW2*%
X161160000Y-87066120D03*
X167660000Y-87066120D03*
X161160000Y-91566120D03*
X167660000Y-91566120D03*
%TD*%
D11*
%TO.C,SW3*%
X162620000Y-96566120D03*
D12*
X165160000Y-96566120D03*
X167700000Y-96566120D03*
%TD*%
D11*
%TO.C,J1*%
X170280000Y-131166120D03*
D12*
X167740000Y-131166120D03*
X165200000Y-131166120D03*
X162660000Y-131166120D03*
X160120000Y-131166120D03*
%TD*%
D15*
%TO.C,SW1*%
X122620000Y-120416120D03*
X122620000Y-126916120D03*
X118120000Y-120416120D03*
X118120000Y-126916120D03*
%TD*%
D12*
%TO.C,M1*%
X137660000Y-75096120D03*
X137660000Y-82716120D03*
X114800000Y-82716120D03*
X114800000Y-75096120D03*
%TD*%
D13*
%TO.C,U1*%
X134238000Y-108666120D03*
X134238000Y-111206120D03*
X134238000Y-113746120D03*
X134238000Y-116286120D03*
X134238000Y-118826120D03*
X134238000Y-121366120D03*
X134238000Y-123906120D03*
X151002000Y-123906120D03*
X151002000Y-121366120D03*
X151002000Y-118826120D03*
X151002000Y-116286120D03*
X151002000Y-113746120D03*
X151002000Y-111206120D03*
X151002000Y-108666120D03*
D14*
X140080000Y-134066120D03*
X145160000Y-134066120D03*
%TD*%
D11*
%TO.C,DFRobot_SEN0193*%
X112620000Y-121126120D03*
D12*
X112620000Y-123666120D03*
X112620000Y-126206120D03*
%TD*%
M02*
