%TF.GenerationSoftware,KiCad,Pcbnew,9.0.6*%
%TF.CreationDate,2026-03-07T11:24:43-08:00*%
%TF.ProjectId,schematic,73636865-6d61-4746-9963-2e6b69636164,rev?*%
%TF.SameCoordinates,Original*%
%TF.FileFunction,Copper,L1,Top*%
%TF.FilePolarity,Positive*%
%FSLAX46Y46*%
G04 Gerber Fmt 4.6, Leading zero omitted, Abs format (unit mm)*
G04 Created by KiCad (PCBNEW 9.0.6) date 2026-03-07 11:24:43*
%MOMM*%
%LPD*%
G01*
G04 APERTURE LIST*
G04 Aperture macros list*
%AMRoundRect*
0 Rectangle with rounded corners*
0 $1 Rounding radius*
0 $2 $3 $4 $5 $6 $7 $8 $9 X,Y pos of 4 corners*
0 Add a 4 corners polygon primitive as box body*
4,1,4,$2,$3,$4,$5,$6,$7,$8,$9,$2,$3,0*
0 Add four circle primitives for the rounded corners*
1,1,$1+$1,$2,$3*
1,1,$1+$1,$4,$5*
1,1,$1+$1,$6,$7*
1,1,$1+$1,$8,$9*
0 Add four rect primitives between the rounded corners*
20,1,$1+$1,$2,$3,$4,$5,0*
20,1,$1+$1,$4,$5,$6,$7,0*
20,1,$1+$1,$6,$7,$8,$9,0*
20,1,$1+$1,$8,$9,$2,$3,0*%
G04 Aperture macros list end*
%TA.AperFunction,ComponentPad*%
%ADD10R,2.000000X2.000000*%
%TD*%
%TA.AperFunction,ComponentPad*%
%ADD11C,2.000000*%
%TD*%
%TA.AperFunction,SMDPad,CuDef*%
%ADD12RoundRect,0.250000X0.475000X-0.250000X0.475000X0.250000X-0.475000X0.250000X-0.475000X-0.250000X0*%
%TD*%
%TA.AperFunction,ComponentPad*%
%ADD13O,1.778000X3.556000*%
%TD*%
%TA.AperFunction,ComponentPad*%
%ADD14C,2.500000*%
%TD*%
%TA.AperFunction,Conductor*%
%ADD15C,0.500000*%
%TD*%
G04 APERTURE END LIST*
D10*
%TO.P,BT1,1,+*%
%TO.N,Net-(BT1-+)*%
X142500000Y-137540000D03*
D11*
%TO.P,BT1,2,-*%
%TO.N,display_GND*%
X142500000Y-135000000D03*
%TD*%
D12*
%TO.P,R4,1*%
%TO.N,Net-(D2-K)*%
X112500000Y-136900000D03*
%TO.P,R4,2*%
%TO.N,display_GND*%
X112500000Y-135000000D03*
%TD*%
%TO.P,C2,1*%
%TO.N,display_3V3*%
X107500000Y-136900000D03*
%TO.P,C2,2*%
%TO.N,display_GND*%
X107500000Y-135000000D03*
%TD*%
%TO.P,C4,1*%
%TO.N,display_3V3*%
X102500000Y-136900000D03*
%TO.P,C4,2*%
%TO.N,display_GND*%
X102500000Y-135000000D03*
%TD*%
D10*
%TO.P,D2,1,K*%
%TO.N,Net-(D2-K)*%
X125000000Y-152460000D03*
D11*
%TO.P,D2,2,A*%
%TO.N,Net-(D2-A)*%
X125000000Y-155000000D03*
%TD*%
D13*
%TO.P,U2,1,GPIO1_A0_D0*%
%TO.N,Net-(U2-GPIO1_A0_D0)*%
X97300000Y-126618000D03*
%TO.P,U2,2,GPIO2_A1_D1*%
%TO.N,Net-(U2-GPIO2_A1_D1)*%
X99840000Y-126618000D03*
%TO.P,U2,3,GPIO3_A2_D2*%
%TO.N,Net-(U2-GPIO3_A2_D2)*%
X102380000Y-126618000D03*
%TO.P,U2,4,GPIO4_A3_D3*%
%TO.N,Net-(M1--)*%
X104920000Y-126618000D03*
%TO.P,U2,5,GPIO4_A3_D3_SDA*%
%TO.N,unconnected-(U2-GPIO4_A3_D3_SDA-Pad5)*%
X107460000Y-126618000D03*
%TO.P,U2,6,GPIO6_A5_D5_SCL*%
%TO.N,unconnected-(U2-GPIO6_A5_D5_SCL-Pad6)*%
X110000000Y-126618000D03*
%TO.P,U2,7,GPIO43_TX_D6*%
%TO.N,Net-(SW2-B)*%
X112540000Y-126618000D03*
%TO.P,U2,8,GPIO44_D7_RX*%
%TO.N,unconnected-(U2-GPIO44_D7_RX-Pad8)*%
X112540000Y-143382000D03*
%TO.P,U2,9,GPIO7_A8_D8_SCK*%
%TO.N,unconnected-(U2-GPIO7_A8_D8_SCK-Pad9)*%
X110000000Y-143382000D03*
%TO.P,U2,10,GPIO8_A9_D9_CIPO*%
%TO.N,unconnected-(U2-GPIO8_A9_D9_CIPO-Pad10)*%
X107460000Y-143382000D03*
%TO.P,U2,11,GPIO9_A10_D10_COPI*%
%TO.N,Net-(D2-A)*%
X104920000Y-143382000D03*
%TO.P,U2,12,3V3*%
%TO.N,display_3V3*%
X102380000Y-143382000D03*
%TO.P,U2,13,GND*%
%TO.N,display_GND*%
X99840000Y-143382000D03*
%TO.P,U2,14,5V*%
%TO.N,unconnected-(U2-5V-Pad14)*%
X97300000Y-143382000D03*
D14*
%TO.P,U2,15,+BATT*%
%TO.N,display_BAT*%
X122700000Y-132460000D03*
%TO.P,U2,16,-BATT*%
%TO.N,display_GND*%
X122700000Y-137540000D03*
%TD*%
%TO.P,SW2,1,A*%
%TO.N,display_GND*%
X145750000Y-150500000D03*
X139250000Y-150500000D03*
%TO.P,SW2,2,B*%
%TO.N,Net-(SW2-B)*%
X145750000Y-155000000D03*
X139250000Y-155000000D03*
%TD*%
D10*
%TO.P,SW3,1,A*%
%TO.N,display_BAT*%
X105000000Y-149960000D03*
D11*
%TO.P,SW3,2,B*%
%TO.N,Net-(BT1-+)*%
X105000000Y-152500000D03*
%TO.P,SW3,3,C*%
%TO.N,unconnected-(SW3-C-Pad3)*%
X105000000Y-155040000D03*
%TD*%
D14*
%TO.P,M1,1*%
%TO.N,Net-(U2-GPIO1_A0_D0)*%
X136390000Y-116470000D03*
%TO.P,M1,2,-*%
%TO.N,Net-(M1--)*%
X136390000Y-108850000D03*
%TO.P,M1,3*%
%TO.N,Net-(U2-GPIO3_A2_D2)*%
X113530000Y-108850000D03*
%TO.P,M1,4*%
%TO.N,Net-(U2-GPIO2_A1_D1)*%
X113530000Y-116470000D03*
%TD*%
D15*
%TO.N,display_GND*%
X145750000Y-136835787D02*
X143914213Y-135000000D01*
X145750000Y-150500000D02*
X145750000Y-136835787D01*
%TO.N,Net-(SW2-B)*%
X147751000Y-152999000D02*
X147751000Y-117381158D01*
X145750000Y-155000000D02*
X147751000Y-152999000D01*
X147751000Y-117381158D02*
X137218842Y-106849000D01*
X139250000Y-155000000D02*
X145750000Y-155000000D01*
%TO.N,display_GND*%
X139250000Y-150500000D02*
X145750000Y-150500000D01*
%TO.N,Net-(BT1-+)*%
X142500000Y-139834867D02*
X142500000Y-137540000D01*
X124834867Y-157500000D02*
X142500000Y-139834867D01*
X105000000Y-152500000D02*
X110000000Y-157500000D01*
X110000000Y-157500000D02*
X124834867Y-157500000D01*
%TO.N,display_BAT*%
X102892444Y-132460000D02*
X122700000Y-132460000D01*
X95660000Y-144950310D02*
X95660000Y-139692444D01*
X100669690Y-149960000D02*
X95660000Y-144950310D01*
X105000000Y-149960000D02*
X100669690Y-149960000D01*
X95660000Y-139692444D02*
X102892444Y-132460000D01*
%TO.N,display_3V3*%
X102500000Y-142500000D02*
X102380000Y-142620000D01*
X102500000Y-136900000D02*
X102500000Y-142500000D01*
X102500000Y-136900000D02*
X107500000Y-136900000D01*
%TO.N,display_GND*%
X107500000Y-135000000D02*
X102500000Y-135000000D01*
X112500000Y-135000000D02*
X120160000Y-135000000D01*
X101775000Y-135000000D02*
X99840000Y-136935000D01*
X120160000Y-135000000D02*
X122700000Y-137540000D01*
X102500000Y-135000000D02*
X101775000Y-135000000D01*
X125240000Y-135000000D02*
X122700000Y-137540000D01*
X99840000Y-136935000D02*
X99840000Y-142620000D01*
X143914213Y-135000000D02*
X142500000Y-135000000D01*
X112500000Y-135000000D02*
X107500000Y-135000000D01*
X142500000Y-135000000D02*
X125240000Y-135000000D01*
%TO.N,Net-(M1--)*%
X113353000Y-129147000D02*
X106687000Y-129147000D01*
X136390000Y-108850000D02*
X133650000Y-108850000D01*
X133650000Y-108850000D02*
X113353000Y-129147000D01*
X106687000Y-129147000D02*
X104920000Y-127380000D01*
%TO.N,Net-(U2-GPIO3_A2_D2)*%
X115531000Y-110851000D02*
X115531000Y-117298842D01*
X102380000Y-125120000D02*
X102380000Y-127380000D01*
X115531000Y-117298842D02*
X108740842Y-124089000D01*
X103411000Y-124089000D02*
X102380000Y-125120000D01*
X113530000Y-108850000D02*
X115531000Y-110851000D01*
X108740842Y-124089000D02*
X103411000Y-124089000D01*
%TO.N,Net-(U2-GPIO1_A0_D0)*%
X122712000Y-130148000D02*
X100068000Y-130148000D01*
X136390000Y-116470000D02*
X122712000Y-130148000D01*
X100068000Y-130148000D02*
X97300000Y-127380000D01*
%TO.N,Net-(SW2-B)*%
X137218842Y-106849000D02*
X133071000Y-106849000D01*
X133071000Y-106849000D02*
X112540000Y-127380000D01*
%TO.N,Net-(D2-A)*%
X104920000Y-144050310D02*
X104920000Y-142620000D01*
X115869690Y-155000000D02*
X104920000Y-144050310D01*
X125000000Y-155000000D02*
X115869690Y-155000000D01*
%TO.N,Net-(D2-K)*%
X125000000Y-149400000D02*
X125000000Y-152460000D01*
X112500000Y-136900000D02*
X125000000Y-149400000D01*
%TO.N,Net-(U2-GPIO2_A1_D1)*%
X113530000Y-116470000D02*
X109319690Y-116470000D01*
X99840000Y-125949690D02*
X99840000Y-127380000D01*
X109319690Y-116470000D02*
X99840000Y-125949690D01*
%TD*%
%TA.AperFunction,Conductor*%
%TO.N,display_GND*%
G36*
X100090000Y-145637716D02*
G01*
X100165266Y-145625795D01*
X100373183Y-145558239D01*
X100373201Y-145558231D01*
X100567994Y-145458979D01*
X100744869Y-145330472D01*
X100899472Y-145175869D01*
X100908241Y-145163800D01*
X100979583Y-145097849D01*
X101070732Y-145064220D01*
X101167812Y-145068031D01*
X101256043Y-145108704D01*
X101311133Y-145163792D01*
X101320144Y-145176195D01*
X101320148Y-145176199D01*
X101474801Y-145330852D01*
X101651743Y-145459407D01*
X101846617Y-145558701D01*
X102054625Y-145626286D01*
X102054636Y-145626287D01*
X102054637Y-145626288D01*
X102114743Y-145635807D01*
X102270644Y-145660500D01*
X102270648Y-145660500D01*
X102489352Y-145660500D01*
X102489356Y-145660500D01*
X102705375Y-145626286D01*
X102913383Y-145558701D01*
X103108257Y-145459407D01*
X103285199Y-145330852D01*
X103439852Y-145176199D01*
X103448555Y-145164219D01*
X103519897Y-145098272D01*
X103611047Y-145064645D01*
X103708127Y-145068459D01*
X103796358Y-145109133D01*
X103851444Y-145164219D01*
X103860148Y-145176199D01*
X104014801Y-145330852D01*
X104191743Y-145459407D01*
X104386617Y-145558701D01*
X104594625Y-145626286D01*
X104594636Y-145626287D01*
X104594637Y-145626288D01*
X104654743Y-145635807D01*
X104810644Y-145660500D01*
X104810648Y-145660500D01*
X105029352Y-145660500D01*
X105029356Y-145660500D01*
X105245375Y-145626286D01*
X105245383Y-145626283D01*
X105254885Y-145624003D01*
X105255266Y-145625590D01*
X105339552Y-145615611D01*
X105433061Y-145641979D01*
X105496096Y-145687774D01*
X115286739Y-155478416D01*
X115286738Y-155478416D01*
X115372208Y-155563885D01*
X115391274Y-155582951D01*
X115514195Y-155665084D01*
X115650777Y-155721658D01*
X115795770Y-155750499D01*
X115795771Y-155750500D01*
X115795772Y-155750500D01*
X115795773Y-155750500D01*
X115943607Y-155750500D01*
X123563679Y-155750500D01*
X123658967Y-155769454D01*
X123739749Y-155823430D01*
X123765118Y-155853134D01*
X123855483Y-155977510D01*
X124022490Y-156144517D01*
X124022493Y-156144519D01*
X124022495Y-156144521D01*
X124213568Y-156283344D01*
X124221479Y-156288192D01*
X124292823Y-156354141D01*
X124333498Y-156442371D01*
X124337313Y-156539451D01*
X124303686Y-156630601D01*
X124237737Y-156701945D01*
X124149507Y-156742620D01*
X124091378Y-156749500D01*
X110414008Y-156749500D01*
X110318720Y-156730546D01*
X110237938Y-156676570D01*
X106546316Y-152984948D01*
X106492340Y-152904166D01*
X106473386Y-152808878D01*
X106476452Y-152769925D01*
X106477856Y-152761062D01*
X106500500Y-152618092D01*
X106500500Y-152381908D01*
X106463553Y-152148632D01*
X106390568Y-151924008D01*
X106283343Y-151713567D01*
X106283341Y-151713565D01*
X106283339Y-151713560D01*
X106267401Y-151691623D01*
X106226726Y-151603392D01*
X106222913Y-151506312D01*
X106256541Y-151415162D01*
X106319623Y-151345934D01*
X106357546Y-151317546D01*
X106443796Y-151202331D01*
X106494091Y-151067483D01*
X106500500Y-151007873D01*
X106500499Y-148912128D01*
X106494091Y-148852517D01*
X106443796Y-148717669D01*
X106357546Y-148602454D01*
X106242331Y-148516204D01*
X106162117Y-148486286D01*
X106107481Y-148465908D01*
X106047873Y-148459500D01*
X103952134Y-148459500D01*
X103952130Y-148459500D01*
X103952128Y-148459501D01*
X103939314Y-148460878D01*
X103892519Y-148465908D01*
X103892515Y-148465909D01*
X103757670Y-148516203D01*
X103642455Y-148602453D01*
X103642453Y-148602455D01*
X103556204Y-148717669D01*
X103505908Y-148852518D01*
X103499500Y-148912123D01*
X103499500Y-148960500D01*
X103480546Y-149055788D01*
X103426570Y-149136570D01*
X103345788Y-149190546D01*
X103250500Y-149209500D01*
X101083697Y-149209500D01*
X100988409Y-149190546D01*
X100907627Y-149136570D01*
X97740585Y-145969527D01*
X97686609Y-145888745D01*
X97667655Y-145793457D01*
X97686609Y-145698169D01*
X97740585Y-145617387D01*
X97821367Y-145563411D01*
X97827223Y-145561251D01*
X97833362Y-145558707D01*
X97833383Y-145558701D01*
X98028257Y-145459407D01*
X98205199Y-145330852D01*
X98359852Y-145176199D01*
X98368863Y-145163795D01*
X98440203Y-145097848D01*
X98531352Y-145064219D01*
X98628432Y-145068032D01*
X98716664Y-145108705D01*
X98771753Y-145163793D01*
X98780526Y-145175868D01*
X98935130Y-145330472D01*
X99112005Y-145458979D01*
X99306798Y-145558231D01*
X99306816Y-145558239D01*
X99514733Y-145625795D01*
X99590000Y-145637716D01*
X99590000Y-143062251D01*
X99643919Y-143093381D01*
X99773120Y-143128000D01*
X99906880Y-143128000D01*
X100036081Y-143093381D01*
X100090000Y-143062251D01*
X100090000Y-145637716D01*
G37*
%TD.AperFunction*%
%TA.AperFunction,Conductor*%
G36*
X101129261Y-135413393D02*
G01*
X101151115Y-135412922D01*
X101176446Y-135422779D01*
X101203109Y-135428083D01*
X101221285Y-135440228D01*
X101241656Y-135448155D01*
X101261285Y-135466954D01*
X101283891Y-135482059D01*
X101296037Y-135500237D01*
X101311822Y-135515355D01*
X101515847Y-135806873D01*
X101554956Y-135895808D01*
X101557053Y-135992941D01*
X101521820Y-136083482D01*
X101487920Y-136125711D01*
X101459866Y-136153766D01*
X101432286Y-136181346D01*
X101340184Y-136330668D01*
X101285002Y-136497197D01*
X101285001Y-136497204D01*
X101274500Y-136599988D01*
X101274500Y-137200006D01*
X101285001Y-137302800D01*
X101340185Y-137469332D01*
X101425024Y-137606880D01*
X101432288Y-137618656D01*
X101556344Y-137742712D01*
X101631219Y-137788895D01*
X101702369Y-137855050D01*
X101742788Y-137943398D01*
X101749500Y-138000823D01*
X101749500Y-141106695D01*
X101730546Y-141201983D01*
X101676570Y-141282765D01*
X101646859Y-141308140D01*
X101474800Y-141433148D01*
X101320146Y-141587802D01*
X101311130Y-141600212D01*
X101239785Y-141666158D01*
X101148633Y-141699782D01*
X101051553Y-141695964D01*
X100963324Y-141655286D01*
X100908245Y-141600204D01*
X100899475Y-141588133D01*
X100744869Y-141433527D01*
X100567994Y-141305020D01*
X100373201Y-141205768D01*
X100373184Y-141205760D01*
X100165261Y-141138203D01*
X100165247Y-141138199D01*
X100090000Y-141126281D01*
X100090000Y-142177748D01*
X100036081Y-142146619D01*
X99906880Y-142112000D01*
X99773120Y-142112000D01*
X99643919Y-142146619D01*
X99590000Y-142177748D01*
X99590000Y-141126282D01*
X99589999Y-141126281D01*
X99514752Y-141138199D01*
X99514738Y-141138203D01*
X99306815Y-141205760D01*
X99306798Y-141205768D01*
X99112005Y-141305020D01*
X98935130Y-141433527D01*
X98780527Y-141588130D01*
X98771750Y-141600211D01*
X98700404Y-141666157D01*
X98609253Y-141699782D01*
X98512173Y-141695964D01*
X98423944Y-141655287D01*
X98368864Y-141600205D01*
X98360091Y-141588130D01*
X98359852Y-141587801D01*
X98205199Y-141433148D01*
X98028257Y-141304593D01*
X98028254Y-141304591D01*
X98028248Y-141304588D01*
X97833393Y-141205304D01*
X97833391Y-141205303D01*
X97833383Y-141205299D01*
X97833376Y-141205296D01*
X97833372Y-141205295D01*
X97625381Y-141137716D01*
X97625375Y-141137714D01*
X97625370Y-141137713D01*
X97625362Y-141137711D01*
X97409366Y-141103501D01*
X97409359Y-141103500D01*
X97409356Y-141103500D01*
X97190644Y-141103500D01*
X97190641Y-141103500D01*
X97190633Y-141103501D01*
X96974637Y-141137711D01*
X96974626Y-141137713D01*
X96974625Y-141137714D01*
X96974622Y-141137714D01*
X96974618Y-141137716D01*
X96766627Y-141205295D01*
X96757577Y-141209044D01*
X96756635Y-141206770D01*
X96678996Y-141228654D01*
X96582516Y-141217218D01*
X96497756Y-141169733D01*
X96437621Y-141093425D01*
X96411264Y-140999914D01*
X96410500Y-140980418D01*
X96410500Y-140106450D01*
X96429454Y-140011162D01*
X96483427Y-139930383D01*
X100931754Y-135482056D01*
X100949929Y-135469912D01*
X100965047Y-135454128D01*
X100989929Y-135443185D01*
X101012533Y-135428083D01*
X101033971Y-135423818D01*
X101053982Y-135415019D01*
X101081159Y-135414432D01*
X101107821Y-135409129D01*
X101129261Y-135413393D01*
G37*
%TD.AperFunction*%
%TA.AperFunction,Conductor*%
G36*
X153506106Y-93000800D02*
G01*
X153521022Y-93001532D01*
X153830804Y-93016751D01*
X153855095Y-93019143D01*
X154170633Y-93065949D01*
X154194568Y-93070710D01*
X154504002Y-93148219D01*
X154527360Y-93155305D01*
X154827684Y-93262763D01*
X154850259Y-93272114D01*
X155138589Y-93408484D01*
X155160138Y-93420001D01*
X155433735Y-93583989D01*
X155454037Y-93597554D01*
X155669913Y-93757659D01*
X155710235Y-93787564D01*
X155729121Y-93803063D01*
X155965465Y-94017273D01*
X155982726Y-94034534D01*
X156196934Y-94270876D01*
X156212435Y-94289764D01*
X156402440Y-94545955D01*
X156416017Y-94566274D01*
X156579997Y-94839860D01*
X156591515Y-94861410D01*
X156727885Y-95149740D01*
X156737236Y-95172315D01*
X156844690Y-95472626D01*
X156851784Y-95496010D01*
X156929286Y-95805416D01*
X156934053Y-95829382D01*
X156980854Y-96144889D01*
X156983249Y-96169207D01*
X156999200Y-96493893D01*
X156999500Y-96506111D01*
X156999500Y-158493888D01*
X156999200Y-158506105D01*
X156999200Y-158506106D01*
X156983249Y-158830792D01*
X156980854Y-158855110D01*
X156934053Y-159170617D01*
X156929286Y-159194583D01*
X156851784Y-159503989D01*
X156844690Y-159527373D01*
X156737236Y-159827684D01*
X156727885Y-159850259D01*
X156591515Y-160138589D01*
X156579997Y-160160139D01*
X156416017Y-160433725D01*
X156402440Y-160454044D01*
X156212435Y-160710235D01*
X156196934Y-160729123D01*
X155982735Y-160965456D01*
X155965456Y-160982735D01*
X155729123Y-161196934D01*
X155710235Y-161212435D01*
X155454044Y-161402440D01*
X155433725Y-161416017D01*
X155160139Y-161579997D01*
X155138589Y-161591515D01*
X154850259Y-161727885D01*
X154827684Y-161737236D01*
X154527373Y-161844690D01*
X154503989Y-161851784D01*
X154194583Y-161929286D01*
X154170617Y-161934053D01*
X153855110Y-161980854D01*
X153830792Y-161983249D01*
X153506107Y-161999200D01*
X153493889Y-161999500D01*
X96506111Y-161999500D01*
X96493893Y-161999200D01*
X96169207Y-161983249D01*
X96144889Y-161980854D01*
X95829382Y-161934053D01*
X95805416Y-161929286D01*
X95496010Y-161851784D01*
X95472626Y-161844690D01*
X95172315Y-161737236D01*
X95149740Y-161727885D01*
X94861410Y-161591515D01*
X94839860Y-161579997D01*
X94703673Y-161498370D01*
X94566268Y-161416013D01*
X94545955Y-161402440D01*
X94289764Y-161212435D01*
X94270876Y-161196934D01*
X94034534Y-160982726D01*
X94017273Y-160965465D01*
X93803063Y-160729121D01*
X93787564Y-160710235D01*
X93597559Y-160454044D01*
X93583989Y-160433735D01*
X93420001Y-160160138D01*
X93408484Y-160138589D01*
X93272114Y-159850259D01*
X93262763Y-159827684D01*
X93155305Y-159527360D01*
X93148219Y-159504002D01*
X93070710Y-159194568D01*
X93065949Y-159170633D01*
X93019143Y-158855095D01*
X93016751Y-158830804D01*
X93000800Y-158506105D01*
X93000500Y-158493888D01*
X93000500Y-157393703D01*
X96149500Y-157393703D01*
X96149500Y-157606296D01*
X96182753Y-157816240D01*
X96182754Y-157816243D01*
X96248443Y-158018412D01*
X96344949Y-158207816D01*
X96469896Y-158379792D01*
X96620208Y-158530104D01*
X96792184Y-158655051D01*
X96981588Y-158751557D01*
X97183757Y-158817246D01*
X97257601Y-158828941D01*
X97393703Y-158850499D01*
X97393710Y-158850499D01*
X97393713Y-158850500D01*
X97393716Y-158850500D01*
X97606284Y-158850500D01*
X97606287Y-158850500D01*
X97606290Y-158850499D01*
X97606296Y-158850499D01*
X97705476Y-158834789D01*
X97816243Y-158817246D01*
X98018412Y-158751557D01*
X98207816Y-158655051D01*
X98379792Y-158530104D01*
X98530104Y-158379792D01*
X98655051Y-158207816D01*
X98751557Y-158018412D01*
X98817246Y-157816243D01*
X98850500Y-157606287D01*
X98850500Y-157393713D01*
X98850499Y-157393710D01*
X98850499Y-157393703D01*
X98828941Y-157257601D01*
X98817246Y-157183757D01*
X98751557Y-156981588D01*
X98655051Y-156792184D01*
X98530104Y-156620208D01*
X98379792Y-156469896D01*
X98207816Y-156344949D01*
X98018412Y-156248443D01*
X98018409Y-156248442D01*
X98018407Y-156248441D01*
X97816240Y-156182753D01*
X97606296Y-156149500D01*
X97606287Y-156149500D01*
X97393713Y-156149500D01*
X97393703Y-156149500D01*
X97183759Y-156182753D01*
X96981592Y-156248441D01*
X96792182Y-156344950D01*
X96620206Y-156469897D01*
X96469897Y-156620206D01*
X96344950Y-156792182D01*
X96248441Y-156981592D01*
X96182753Y-157183759D01*
X96149500Y-157393703D01*
X93000500Y-157393703D01*
X93000500Y-139618523D01*
X94909500Y-139618523D01*
X94909500Y-145024230D01*
X94938341Y-145169221D01*
X94938342Y-145169224D01*
X94994913Y-145305800D01*
X94994916Y-145305805D01*
X95011652Y-145330852D01*
X95077048Y-145428726D01*
X100086739Y-150438416D01*
X100086738Y-150438416D01*
X100147616Y-150499293D01*
X100191274Y-150542951D01*
X100314195Y-150625084D01*
X100370770Y-150648518D01*
X100450778Y-150681659D01*
X100566931Y-150704763D01*
X100595770Y-150710499D01*
X100595771Y-150710500D01*
X100595772Y-150710500D01*
X100595773Y-150710500D01*
X100743608Y-150710500D01*
X103250501Y-150710500D01*
X103345789Y-150729454D01*
X103426571Y-150783430D01*
X103480547Y-150864212D01*
X103499501Y-150959500D01*
X103499501Y-151007872D01*
X103500397Y-151016203D01*
X103505908Y-151067480D01*
X103505909Y-151067484D01*
X103556203Y-151202329D01*
X103556204Y-151202331D01*
X103642454Y-151317546D01*
X103642457Y-151317548D01*
X103680373Y-151345932D01*
X103745296Y-151418210D01*
X103777618Y-151509830D01*
X103772417Y-151606846D01*
X103732602Y-151691618D01*
X103716660Y-151713560D01*
X103609430Y-151924012D01*
X103536446Y-152148635D01*
X103499501Y-152381896D01*
X103499500Y-152381912D01*
X103499500Y-152618087D01*
X103499501Y-152618103D01*
X103536446Y-152851364D01*
X103608433Y-153072920D01*
X103609432Y-153075992D01*
X103681743Y-153217911D01*
X103716659Y-153286437D01*
X103855478Y-153477504D01*
X103855480Y-153477506D01*
X103855483Y-153477510D01*
X103971906Y-153593933D01*
X104025880Y-153674712D01*
X104044834Y-153770000D01*
X104025880Y-153865288D01*
X103971906Y-153946066D01*
X103911661Y-154006312D01*
X103855478Y-154062495D01*
X103716659Y-154253562D01*
X103609430Y-154464012D01*
X103536446Y-154688635D01*
X103499501Y-154921896D01*
X103499500Y-154921912D01*
X103499500Y-155158087D01*
X103499501Y-155158103D01*
X103536446Y-155391364D01*
X103598695Y-155582949D01*
X103609432Y-155615992D01*
X103677967Y-155750499D01*
X103716659Y-155826437D01*
X103855478Y-156017504D01*
X103855480Y-156017506D01*
X103855483Y-156017510D01*
X104022490Y-156184517D01*
X104022493Y-156184519D01*
X104022495Y-156184521D01*
X104213562Y-156323340D01*
X104213564Y-156323341D01*
X104213567Y-156323343D01*
X104424008Y-156430568D01*
X104648632Y-156503553D01*
X104881908Y-156540500D01*
X104881912Y-156540500D01*
X105118088Y-156540500D01*
X105118092Y-156540500D01*
X105351368Y-156503553D01*
X105575992Y-156430568D01*
X105786433Y-156323343D01*
X105977510Y-156184517D01*
X106144517Y-156017510D01*
X106283343Y-155826433D01*
X106390568Y-155615992D01*
X106401305Y-155582949D01*
X106427856Y-155501232D01*
X106475327Y-155416464D01*
X106551625Y-155356316D01*
X106645132Y-155329944D01*
X106741613Y-155341363D01*
X106826381Y-155388834D01*
X106840725Y-155402093D01*
X109521584Y-158082952D01*
X109595270Y-158132186D01*
X109644505Y-158165084D01*
X109781087Y-158221658D01*
X109926080Y-158250499D01*
X109926081Y-158250500D01*
X109926082Y-158250500D01*
X124908786Y-158250500D01*
X124908786Y-158250499D01*
X125053780Y-158221658D01*
X125139906Y-158185983D01*
X125190358Y-158165086D01*
X125190359Y-158165085D01*
X125190362Y-158165084D01*
X125239596Y-158132186D01*
X125313283Y-158082952D01*
X126002532Y-157393703D01*
X151149500Y-157393703D01*
X151149500Y-157606296D01*
X151182753Y-157816240D01*
X151182754Y-157816243D01*
X151248443Y-158018412D01*
X151344949Y-158207816D01*
X151469896Y-158379792D01*
X151620208Y-158530104D01*
X151792184Y-158655051D01*
X151981588Y-158751557D01*
X152183757Y-158817246D01*
X152257601Y-158828941D01*
X152393703Y-158850499D01*
X152393710Y-158850499D01*
X152393713Y-158850500D01*
X152393716Y-158850500D01*
X152606284Y-158850500D01*
X152606287Y-158850500D01*
X152606290Y-158850499D01*
X152606296Y-158850499D01*
X152705476Y-158834789D01*
X152816243Y-158817246D01*
X153018412Y-158751557D01*
X153207816Y-158655051D01*
X153379792Y-158530104D01*
X153530104Y-158379792D01*
X153655051Y-158207816D01*
X153751557Y-158018412D01*
X153817246Y-157816243D01*
X153850500Y-157606287D01*
X153850500Y-157393713D01*
X153850499Y-157393710D01*
X153850499Y-157393703D01*
X153828941Y-157257601D01*
X153817246Y-157183757D01*
X153751557Y-156981588D01*
X153655051Y-156792184D01*
X153530104Y-156620208D01*
X153379792Y-156469896D01*
X153207816Y-156344949D01*
X153018412Y-156248443D01*
X153018409Y-156248442D01*
X153018407Y-156248441D01*
X152816240Y-156182753D01*
X152606296Y-156149500D01*
X152606287Y-156149500D01*
X152393713Y-156149500D01*
X152393703Y-156149500D01*
X152183759Y-156182753D01*
X151981592Y-156248441D01*
X151792182Y-156344950D01*
X151620206Y-156469897D01*
X151469897Y-156620206D01*
X151344950Y-156792182D01*
X151248441Y-156981592D01*
X151182753Y-157183759D01*
X151149500Y-157393703D01*
X126002532Y-157393703D01*
X133010936Y-150385299D01*
X137500000Y-150385299D01*
X137500000Y-150614700D01*
X137529942Y-150842136D01*
X137589316Y-151063722D01*
X137589319Y-151063731D01*
X137677100Y-151275655D01*
X137677107Y-151275671D01*
X137791800Y-151474324D01*
X137791806Y-151474334D01*
X137848380Y-151548062D01*
X138726211Y-150670231D01*
X138737482Y-150712292D01*
X138809890Y-150837708D01*
X138912292Y-150940110D01*
X139037708Y-151012518D01*
X139079765Y-151023787D01*
X138201935Y-151901617D01*
X138275665Y-151958193D01*
X138275675Y-151958199D01*
X138474328Y-152072892D01*
X138474344Y-152072899D01*
X138686268Y-152160680D01*
X138686277Y-152160683D01*
X138907863Y-152220057D01*
X139135299Y-152250000D01*
X139364701Y-152250000D01*
X139592136Y-152220057D01*
X139813722Y-152160683D01*
X139813731Y-152160680D01*
X140025655Y-152072899D01*
X140025671Y-152072892D01*
X140224325Y-151958199D01*
X140224337Y-151958191D01*
X140298063Y-151901618D01*
X139420232Y-151023787D01*
X139462292Y-151012518D01*
X139587708Y-150940110D01*
X139690110Y-150837708D01*
X139762518Y-150712292D01*
X139773787Y-150670232D01*
X140651618Y-151548063D01*
X140708191Y-151474337D01*
X140708199Y-151474325D01*
X140822892Y-151275671D01*
X140822899Y-151275655D01*
X140910680Y-151063731D01*
X140910683Y-151063722D01*
X140970057Y-150842136D01*
X141000000Y-150614700D01*
X141000000Y-150385299D01*
X140970057Y-150157863D01*
X140910683Y-149936277D01*
X140910680Y-149936268D01*
X140822899Y-149724344D01*
X140822892Y-149724328D01*
X140708199Y-149525675D01*
X140708193Y-149525665D01*
X140651617Y-149451935D01*
X139773787Y-150329765D01*
X139762518Y-150287708D01*
X139690110Y-150162292D01*
X139587708Y-150059890D01*
X139462292Y-149987482D01*
X139420231Y-149976211D01*
X140298063Y-149098380D01*
X140224334Y-149041806D01*
X140224324Y-149041800D01*
X140025671Y-148927107D01*
X140025655Y-148927100D01*
X139813731Y-148839319D01*
X139813722Y-148839316D01*
X139592136Y-148779942D01*
X139364701Y-148750000D01*
X139135299Y-148750000D01*
X138907863Y-148779942D01*
X138686277Y-148839316D01*
X138686268Y-148839319D01*
X138474344Y-148927100D01*
X138474328Y-148927107D01*
X138275666Y-149041805D01*
X138275665Y-149041805D01*
X138201935Y-149098380D01*
X139079767Y-149976212D01*
X139037708Y-149987482D01*
X138912292Y-150059890D01*
X138809890Y-150162292D01*
X138737482Y-150287708D01*
X138726212Y-150329767D01*
X137848380Y-149451935D01*
X137791805Y-149525665D01*
X137791805Y-149525666D01*
X137677107Y-149724328D01*
X137677100Y-149724344D01*
X137589319Y-149936268D01*
X137589316Y-149936277D01*
X137529942Y-150157863D01*
X137500000Y-150385299D01*
X133010936Y-150385299D01*
X143082952Y-140313282D01*
X143110205Y-140272494D01*
X143165084Y-140190362D01*
X143188518Y-140133787D01*
X143221659Y-140053779D01*
X143244763Y-139937626D01*
X143250500Y-139908785D01*
X143250500Y-139289499D01*
X143269454Y-139194211D01*
X143323430Y-139113429D01*
X143404212Y-139059453D01*
X143499500Y-139040499D01*
X143547866Y-139040499D01*
X143547872Y-139040499D01*
X143607483Y-139034091D01*
X143742331Y-138983796D01*
X143857546Y-138897546D01*
X143943796Y-138782331D01*
X143994091Y-138647483D01*
X144000500Y-138587873D01*
X144000499Y-136492128D01*
X143994091Y-136432517D01*
X143943796Y-136297669D01*
X143857546Y-136182454D01*
X143819224Y-136153766D01*
X143754302Y-136081489D01*
X143721980Y-135989868D01*
X143727181Y-135892853D01*
X143767004Y-135808070D01*
X143782911Y-135786176D01*
X143890106Y-135575795D01*
X143963065Y-135351247D01*
X143999998Y-135118063D01*
X144000000Y-135118048D01*
X144000000Y-134881951D01*
X143999998Y-134881936D01*
X143963065Y-134648752D01*
X143890106Y-134424204D01*
X143782911Y-134213823D01*
X143722659Y-134130893D01*
X142982962Y-134870590D01*
X142965925Y-134807007D01*
X142900099Y-134692993D01*
X142807007Y-134599901D01*
X142692993Y-134534075D01*
X142629407Y-134517036D01*
X143369106Y-133777339D01*
X143286176Y-133717088D01*
X143075795Y-133609893D01*
X142851247Y-133536934D01*
X142618063Y-133500001D01*
X142618049Y-133500000D01*
X142381951Y-133500000D01*
X142381936Y-133500001D01*
X142148752Y-133536934D01*
X141924204Y-133609894D01*
X141924199Y-133609896D01*
X141713833Y-133717082D01*
X141630893Y-133777340D01*
X142370591Y-134517037D01*
X142307007Y-134534075D01*
X142192993Y-134599901D01*
X142099901Y-134692993D01*
X142034075Y-134807007D01*
X142017037Y-134870591D01*
X141277340Y-134130894D01*
X141217082Y-134213833D01*
X141109896Y-134424199D01*
X141109894Y-134424204D01*
X141036934Y-134648752D01*
X141000001Y-134881936D01*
X141000000Y-134881951D01*
X141000000Y-135118048D01*
X141000001Y-135118063D01*
X141036934Y-135351247D01*
X141109893Y-135575795D01*
X141217090Y-135786180D01*
X141217091Y-135786181D01*
X141232998Y-135808075D01*
X141273673Y-135896305D01*
X141277487Y-135993385D01*
X141243860Y-136084535D01*
X141180776Y-136153766D01*
X141142456Y-136182452D01*
X141142453Y-136182455D01*
X141056204Y-136297669D01*
X141005908Y-136432518D01*
X140999500Y-136492123D01*
X140999500Y-138587865D01*
X140999500Y-138587868D01*
X140999501Y-138587872D01*
X140999522Y-138588063D01*
X141005908Y-138647480D01*
X141005909Y-138647483D01*
X141056204Y-138782331D01*
X141142454Y-138897546D01*
X141257669Y-138983796D01*
X141392517Y-139034091D01*
X141452127Y-139040500D01*
X141500504Y-139040499D01*
X141543594Y-139049070D01*
X141595784Y-139059451D01*
X141595788Y-139059453D01*
X141676570Y-139113429D01*
X141716935Y-139173841D01*
X141730544Y-139194207D01*
X141730544Y-139194208D01*
X141730546Y-139194211D01*
X141736208Y-139222678D01*
X141749500Y-139289494D01*
X141749500Y-139420858D01*
X141730546Y-139516146D01*
X141676570Y-139596928D01*
X126787811Y-154485686D01*
X126707029Y-154539662D01*
X126611741Y-154558616D01*
X126516453Y-154539662D01*
X126435671Y-154485686D01*
X126389882Y-154422661D01*
X126283343Y-154213567D01*
X126283341Y-154213564D01*
X126283340Y-154213562D01*
X126267401Y-154191623D01*
X126226726Y-154103392D01*
X126222913Y-154006312D01*
X126256541Y-153915162D01*
X126319623Y-153845934D01*
X126357546Y-153817546D01*
X126443796Y-153702331D01*
X126494091Y-153567483D01*
X126500500Y-153507873D01*
X126500499Y-151412128D01*
X126494091Y-151352517D01*
X126443796Y-151217669D01*
X126357546Y-151102454D01*
X126242331Y-151016204D01*
X126162117Y-150986286D01*
X126107481Y-150965908D01*
X126047876Y-150959500D01*
X126047873Y-150959500D01*
X125999500Y-150959500D01*
X125904212Y-150940546D01*
X125823430Y-150886570D01*
X125769454Y-150805788D01*
X125750500Y-150710500D01*
X125750500Y-149326081D01*
X125750499Y-149326079D01*
X125730894Y-149227520D01*
X125727310Y-149209500D01*
X125721659Y-149181088D01*
X125667427Y-149050163D01*
X125665769Y-149045529D01*
X125582955Y-148921589D01*
X125582949Y-148921582D01*
X125478416Y-148817048D01*
X125478416Y-148817049D01*
X115682762Y-139021394D01*
X114086667Y-137425299D01*
X120950000Y-137425299D01*
X120950000Y-137654700D01*
X120979942Y-137882136D01*
X121039316Y-138103722D01*
X121039319Y-138103731D01*
X121127100Y-138315655D01*
X121127107Y-138315671D01*
X121241800Y-138514324D01*
X121241806Y-138514334D01*
X121298380Y-138588062D01*
X122210504Y-137675938D01*
X122226619Y-137736081D01*
X122293498Y-137851920D01*
X122388080Y-137946502D01*
X122503919Y-138013381D01*
X122564057Y-138029495D01*
X121651935Y-138941617D01*
X121725665Y-138998193D01*
X121725675Y-138998199D01*
X121924328Y-139112892D01*
X121924344Y-139112899D01*
X122136268Y-139200680D01*
X122136277Y-139200683D01*
X122357863Y-139260057D01*
X122585299Y-139290000D01*
X122814701Y-139290000D01*
X123042136Y-139260057D01*
X123263722Y-139200683D01*
X123263731Y-139200680D01*
X123475655Y-139112899D01*
X123475671Y-139112892D01*
X123674325Y-138998199D01*
X123674337Y-138998191D01*
X123748063Y-138941618D01*
X122835940Y-138029495D01*
X122896081Y-138013381D01*
X123011920Y-137946502D01*
X123106502Y-137851920D01*
X123173381Y-137736081D01*
X123189495Y-137675940D01*
X124101618Y-138588063D01*
X124158191Y-138514337D01*
X124158199Y-138514325D01*
X124272892Y-138315671D01*
X124272899Y-138315655D01*
X124360680Y-138103731D01*
X124360683Y-138103722D01*
X124420057Y-137882136D01*
X124450000Y-137654700D01*
X124450000Y-137425299D01*
X124420057Y-137197863D01*
X124360683Y-136976277D01*
X124360680Y-136976268D01*
X124272899Y-136764344D01*
X124272892Y-136764328D01*
X124158199Y-136565675D01*
X124158193Y-136565665D01*
X124101617Y-136491935D01*
X123189495Y-137404057D01*
X123173381Y-137343919D01*
X123106502Y-137228080D01*
X123011920Y-137133498D01*
X122896081Y-137066619D01*
X122835938Y-137050504D01*
X123748063Y-136138380D01*
X123674334Y-136081806D01*
X123674324Y-136081800D01*
X123475671Y-135967107D01*
X123475655Y-135967100D01*
X123263731Y-135879319D01*
X123263722Y-135879316D01*
X123042136Y-135819942D01*
X122814701Y-135790000D01*
X122585299Y-135790000D01*
X122357863Y-135819942D01*
X122136277Y-135879316D01*
X122136268Y-135879319D01*
X121924344Y-135967100D01*
X121924328Y-135967107D01*
X121725666Y-136081805D01*
X121725665Y-136081805D01*
X121651935Y-136138380D01*
X122564059Y-137050504D01*
X122503919Y-137066619D01*
X122388080Y-137133498D01*
X122293498Y-137228080D01*
X122226619Y-137343919D01*
X122210504Y-137404059D01*
X121298380Y-136491935D01*
X121241805Y-136565665D01*
X121241805Y-136565666D01*
X121127107Y-136764328D01*
X121127100Y-136764344D01*
X121039319Y-136976268D01*
X121039316Y-136976277D01*
X120979942Y-137197863D01*
X120950000Y-137425299D01*
X114086667Y-137425299D01*
X113798429Y-137137061D01*
X113744453Y-137056279D01*
X113725499Y-136960991D01*
X113725499Y-136599993D01*
X113725499Y-136599991D01*
X113714999Y-136497203D01*
X113713319Y-136492134D01*
X113666089Y-136349603D01*
X113659814Y-136330666D01*
X113567712Y-136181344D01*
X113497106Y-136110738D01*
X113484878Y-136093453D01*
X113473555Y-136068054D01*
X113458108Y-136044935D01*
X113453965Y-136024110D01*
X113445320Y-136004716D01*
X113444579Y-135976920D01*
X113439154Y-135949647D01*
X113443296Y-135928819D01*
X113442731Y-135907595D01*
X113452682Y-135881632D01*
X113458108Y-135854359D01*
X113469905Y-135836702D01*
X113477505Y-135816877D01*
X113496634Y-135796699D01*
X113512084Y-135773577D01*
X113567315Y-135718345D01*
X113567318Y-135718341D01*
X113659358Y-135569121D01*
X113659359Y-135569120D01*
X113714504Y-135402701D01*
X113714505Y-135402694D01*
X113724999Y-135299981D01*
X113725000Y-135299971D01*
X113725000Y-135250001D01*
X113724999Y-135250000D01*
X111275002Y-135250000D01*
X111275001Y-135250001D01*
X111275001Y-135299984D01*
X111285494Y-135402699D01*
X111285495Y-135402702D01*
X111340640Y-135569119D01*
X111340641Y-135569121D01*
X111432681Y-135718341D01*
X111432684Y-135718345D01*
X111487916Y-135773577D01*
X111541892Y-135854359D01*
X111560846Y-135949647D01*
X111541892Y-136044935D01*
X111487918Y-136125713D01*
X111459866Y-136153766D01*
X111432286Y-136181346D01*
X111340184Y-136330668D01*
X111285002Y-136497197D01*
X111285001Y-136497204D01*
X111274500Y-136599988D01*
X111274500Y-137200006D01*
X111285001Y-137302800D01*
X111340185Y-137469332D01*
X111425024Y-137606880D01*
X111432288Y-137618656D01*
X111556344Y-137742712D01*
X111705666Y-137834814D01*
X111705669Y-137834815D01*
X111705667Y-137834815D01*
X111848474Y-137882136D01*
X111872203Y-137889999D01*
X111974991Y-137900500D01*
X112335991Y-137900499D01*
X112431279Y-137919453D01*
X112512060Y-137973429D01*
X112512061Y-137973429D01*
X124176570Y-149637937D01*
X124230546Y-149718719D01*
X124249500Y-149814007D01*
X124249500Y-150710500D01*
X124230546Y-150805788D01*
X124176570Y-150886570D01*
X124095788Y-150940546D01*
X124000505Y-150959500D01*
X123952136Y-150959500D01*
X123952130Y-150959500D01*
X123952128Y-150959501D01*
X123939314Y-150960878D01*
X123892519Y-150965908D01*
X123892515Y-150965909D01*
X123757670Y-151016203D01*
X123642455Y-151102453D01*
X123642453Y-151102455D01*
X123556204Y-151217669D01*
X123505908Y-151352518D01*
X123499500Y-151412123D01*
X123499500Y-153507865D01*
X123499500Y-153507868D01*
X123499501Y-153507872D01*
X123501567Y-153527093D01*
X123505908Y-153567480D01*
X123505909Y-153567484D01*
X123545903Y-153674712D01*
X123556204Y-153702331D01*
X123642454Y-153817546D01*
X123642457Y-153817548D01*
X123649339Y-153824430D01*
X123703315Y-153905212D01*
X123722269Y-154000500D01*
X123703315Y-154095788D01*
X123649339Y-154176570D01*
X123568557Y-154230546D01*
X123473269Y-154249500D01*
X116283697Y-154249500D01*
X116188409Y-154230546D01*
X116107627Y-154176570D01*
X107900585Y-145969527D01*
X107846609Y-145888745D01*
X107827655Y-145793457D01*
X107846609Y-145698169D01*
X107900585Y-145617387D01*
X107981367Y-145563411D01*
X107987223Y-145561251D01*
X107993362Y-145558707D01*
X107993383Y-145558701D01*
X108188257Y-145459407D01*
X108365199Y-145330852D01*
X108519852Y-145176199D01*
X108528555Y-145164219D01*
X108599897Y-145098272D01*
X108691047Y-145064645D01*
X108788127Y-145068459D01*
X108876358Y-145109133D01*
X108931444Y-145164219D01*
X108940148Y-145176199D01*
X109094801Y-145330852D01*
X109271743Y-145459407D01*
X109466617Y-145558701D01*
X109674625Y-145626286D01*
X109674636Y-145626287D01*
X109674637Y-145626288D01*
X109734743Y-145635807D01*
X109890644Y-145660500D01*
X109890648Y-145660500D01*
X110109352Y-145660500D01*
X110109356Y-145660500D01*
X110325375Y-145626286D01*
X110533383Y-145558701D01*
X110728257Y-145459407D01*
X110905199Y-145330852D01*
X111059852Y-145176199D01*
X111068555Y-145164219D01*
X111139897Y-145098272D01*
X111231047Y-145064645D01*
X111328127Y-145068459D01*
X111416358Y-145109133D01*
X111471444Y-145164219D01*
X111480148Y-145176199D01*
X111634801Y-145330852D01*
X111811743Y-145459407D01*
X112006617Y-145558701D01*
X112214625Y-145626286D01*
X112214636Y-145626287D01*
X112214637Y-145626288D01*
X112274743Y-145635807D01*
X112430644Y-145660500D01*
X112430648Y-145660500D01*
X112649352Y-145660500D01*
X112649356Y-145660500D01*
X112865375Y-145626286D01*
X113073383Y-145558701D01*
X113268257Y-145459407D01*
X113445199Y-145330852D01*
X113599852Y-145176199D01*
X113728407Y-144999257D01*
X113827701Y-144804383D01*
X113895286Y-144596375D01*
X113929500Y-144380356D01*
X113929500Y-142383644D01*
X113895286Y-142167625D01*
X113827701Y-141959617D01*
X113728407Y-141764743D01*
X113599852Y-141587801D01*
X113445199Y-141433148D01*
X113268257Y-141304593D01*
X113268254Y-141304591D01*
X113268248Y-141304588D01*
X113073393Y-141205304D01*
X113073391Y-141205303D01*
X113073383Y-141205299D01*
X113073376Y-141205296D01*
X113073372Y-141205295D01*
X112865381Y-141137716D01*
X112865375Y-141137714D01*
X112865370Y-141137713D01*
X112865362Y-141137711D01*
X112649366Y-141103501D01*
X112649359Y-141103500D01*
X112649356Y-141103500D01*
X112430644Y-141103500D01*
X112430641Y-141103500D01*
X112430633Y-141103501D01*
X112214637Y-141137711D01*
X112214626Y-141137713D01*
X112214625Y-141137714D01*
X112214622Y-141137714D01*
X112214618Y-141137716D01*
X112006627Y-141205295D01*
X112006619Y-141205298D01*
X112006617Y-141205299D01*
X112006613Y-141205300D01*
X112006606Y-141205304D01*
X111811751Y-141304588D01*
X111811744Y-141304592D01*
X111634799Y-141433149D01*
X111480146Y-141587802D01*
X111471442Y-141599783D01*
X111400098Y-141665730D01*
X111308947Y-141699355D01*
X111211867Y-141695539D01*
X111123637Y-141654862D01*
X111068558Y-141599783D01*
X111059853Y-141587802D01*
X110905200Y-141433149D01*
X110898792Y-141428493D01*
X110728257Y-141304593D01*
X110728254Y-141304591D01*
X110728248Y-141304588D01*
X110533393Y-141205304D01*
X110533391Y-141205303D01*
X110533383Y-141205299D01*
X110533376Y-141205296D01*
X110533372Y-141205295D01*
X110325381Y-141137716D01*
X110325375Y-141137714D01*
X110325370Y-141137713D01*
X110325362Y-141137711D01*
X110109366Y-141103501D01*
X110109359Y-141103500D01*
X110109356Y-141103500D01*
X109890644Y-141103500D01*
X109890641Y-141103500D01*
X109890633Y-141103501D01*
X109674637Y-141137711D01*
X109674626Y-141137713D01*
X109674625Y-141137714D01*
X109674622Y-141137714D01*
X109674618Y-141137716D01*
X109466627Y-141205295D01*
X109466619Y-141205298D01*
X109466617Y-141205299D01*
X109466613Y-141205300D01*
X109466606Y-141205304D01*
X109271751Y-141304588D01*
X109271744Y-141304592D01*
X109094799Y-141433149D01*
X108940146Y-141587802D01*
X108931442Y-141599783D01*
X108860098Y-141665730D01*
X108768947Y-141699355D01*
X108671867Y-141695539D01*
X108583637Y-141654862D01*
X108528558Y-141599783D01*
X108519853Y-141587802D01*
X108365200Y-141433149D01*
X108358792Y-141428493D01*
X108188257Y-141304593D01*
X108188254Y-141304591D01*
X108188248Y-141304588D01*
X107993393Y-141205304D01*
X107993391Y-141205303D01*
X107993383Y-141205299D01*
X107993376Y-141205296D01*
X107993372Y-141205295D01*
X107785381Y-141137716D01*
X107785375Y-141137714D01*
X107785370Y-141137713D01*
X107785362Y-141137711D01*
X107569366Y-141103501D01*
X107569359Y-141103500D01*
X107569356Y-141103500D01*
X107350644Y-141103500D01*
X107350641Y-141103500D01*
X107350633Y-141103501D01*
X107134637Y-141137711D01*
X107134626Y-141137713D01*
X107134625Y-141137714D01*
X107134622Y-141137714D01*
X107134618Y-141137716D01*
X106926627Y-141205295D01*
X106926619Y-141205298D01*
X106926617Y-141205299D01*
X106926613Y-141205300D01*
X106926606Y-141205304D01*
X106731751Y-141304588D01*
X106731744Y-141304592D01*
X106554799Y-141433149D01*
X106400146Y-141587802D01*
X106391442Y-141599783D01*
X106320098Y-141665730D01*
X106228947Y-141699355D01*
X106131867Y-141695539D01*
X106043637Y-141654862D01*
X105988558Y-141599783D01*
X105979853Y-141587802D01*
X105825200Y-141433149D01*
X105818792Y-141428493D01*
X105648257Y-141304593D01*
X105648254Y-141304591D01*
X105648248Y-141304588D01*
X105453393Y-141205304D01*
X105453391Y-141205303D01*
X105453383Y-141205299D01*
X105453376Y-141205296D01*
X105453372Y-141205295D01*
X105245381Y-141137716D01*
X105245375Y-141137714D01*
X105245370Y-141137713D01*
X105245362Y-141137711D01*
X105029366Y-141103501D01*
X105029359Y-141103500D01*
X105029356Y-141103500D01*
X104810644Y-141103500D01*
X104810641Y-141103500D01*
X104810633Y-141103501D01*
X104594637Y-141137711D01*
X104594626Y-141137713D01*
X104594625Y-141137714D01*
X104594622Y-141137714D01*
X104594618Y-141137716D01*
X104386627Y-141205295D01*
X104386619Y-141205298D01*
X104386617Y-141205299D01*
X104386613Y-141205300D01*
X104386606Y-141205304D01*
X104191751Y-141304588D01*
X104191744Y-141304592D01*
X104014799Y-141433149D01*
X103860146Y-141587802D01*
X103851442Y-141599783D01*
X103834758Y-141615204D01*
X103821675Y-141633777D01*
X103799431Y-141647858D01*
X103780098Y-141665730D01*
X103758782Y-141673592D01*
X103739588Y-141685745D01*
X103713647Y-141690242D01*
X103688947Y-141699355D01*
X103666244Y-141698462D01*
X103643861Y-141702344D01*
X103618175Y-141696573D01*
X103591867Y-141695539D01*
X103571235Y-141686027D01*
X103549069Y-141681047D01*
X103533990Y-141668856D01*
X103503637Y-141654862D01*
X103469643Y-141625095D01*
X103458256Y-141613132D01*
X103439852Y-141587801D01*
X103321278Y-141469227D01*
X103319143Y-141466984D01*
X103294775Y-141428493D01*
X103269454Y-141390597D01*
X103268844Y-141387534D01*
X103267175Y-141384897D01*
X103259391Y-141340010D01*
X103250500Y-141295309D01*
X103250500Y-138000823D01*
X103269454Y-137905535D01*
X103323430Y-137824753D01*
X103368779Y-137788895D01*
X103443656Y-137742712D01*
X103462940Y-137723427D01*
X103543719Y-137669454D01*
X103639007Y-137650500D01*
X106360993Y-137650500D01*
X106456281Y-137669454D01*
X106537059Y-137723427D01*
X106556344Y-137742712D01*
X106705666Y-137834814D01*
X106705669Y-137834815D01*
X106705667Y-137834815D01*
X106848474Y-137882136D01*
X106872203Y-137889999D01*
X106974991Y-137900500D01*
X108025008Y-137900499D01*
X108127797Y-137889999D01*
X108294334Y-137834814D01*
X108443656Y-137742712D01*
X108567712Y-137618656D01*
X108659814Y-137469334D01*
X108714999Y-137302797D01*
X108725500Y-137200009D01*
X108725499Y-136599992D01*
X108714999Y-136497203D01*
X108713319Y-136492134D01*
X108666089Y-136349603D01*
X108659814Y-136330666D01*
X108567712Y-136181344D01*
X108512081Y-136125713D01*
X108458108Y-136044935D01*
X108439154Y-135949647D01*
X108458108Y-135854359D01*
X108512084Y-135773577D01*
X108567315Y-135718345D01*
X108567318Y-135718341D01*
X108659358Y-135569121D01*
X108659359Y-135569120D01*
X108714504Y-135402701D01*
X108714505Y-135402694D01*
X108724999Y-135299981D01*
X108725000Y-135299971D01*
X108725000Y-135250001D01*
X108724999Y-135250000D01*
X106275002Y-135250000D01*
X106275001Y-135250001D01*
X106275001Y-135299984D01*
X106285494Y-135402699D01*
X106285495Y-135402702D01*
X106340640Y-135569119D01*
X106340641Y-135569121D01*
X106432681Y-135718341D01*
X106432684Y-135718345D01*
X106438769Y-135724430D01*
X106492745Y-135805212D01*
X106511699Y-135900500D01*
X106492745Y-135995788D01*
X106438769Y-136076570D01*
X106357987Y-136130546D01*
X106262699Y-136149500D01*
X103737301Y-136149500D01*
X103642013Y-136130546D01*
X103561231Y-136076570D01*
X103507255Y-135995788D01*
X103488301Y-135900500D01*
X103507255Y-135805212D01*
X103561231Y-135724430D01*
X103567315Y-135718345D01*
X103567318Y-135718341D01*
X103659358Y-135569121D01*
X103659359Y-135569120D01*
X103714504Y-135402701D01*
X103714505Y-135402694D01*
X103724999Y-135299981D01*
X103725000Y-135299971D01*
X103725000Y-135250001D01*
X103724999Y-135250000D01*
X102749000Y-135250000D01*
X102653712Y-135231046D01*
X102572930Y-135177070D01*
X102518954Y-135096288D01*
X102500000Y-135001000D01*
X102500000Y-134999000D01*
X102518954Y-134903712D01*
X102572930Y-134822930D01*
X102653712Y-134768954D01*
X102749000Y-134750000D01*
X103724998Y-134750000D01*
X103724999Y-134749999D01*
X103724999Y-134700023D01*
X103724998Y-134700018D01*
X106275000Y-134700018D01*
X106275000Y-134749999D01*
X106275001Y-134750000D01*
X107249999Y-134750000D01*
X107250000Y-134749999D01*
X107250000Y-134000001D01*
X107750000Y-134000001D01*
X107750000Y-134749999D01*
X107750001Y-134750000D01*
X108724998Y-134750000D01*
X108724999Y-134749999D01*
X108724999Y-134700023D01*
X108724998Y-134700018D01*
X111275000Y-134700018D01*
X111275000Y-134749999D01*
X111275001Y-134750000D01*
X112249999Y-134750000D01*
X112250000Y-134749999D01*
X112250000Y-134000001D01*
X112750000Y-134000001D01*
X112750000Y-134749999D01*
X112750001Y-134750000D01*
X113724998Y-134750000D01*
X113724999Y-134749999D01*
X113724999Y-134700032D01*
X113724998Y-134700015D01*
X113714505Y-134597300D01*
X113714504Y-134597297D01*
X113659359Y-134430880D01*
X113659358Y-134430878D01*
X113567318Y-134281658D01*
X113567315Y-134281654D01*
X113443345Y-134157684D01*
X113443341Y-134157681D01*
X113294121Y-134065641D01*
X113294120Y-134065640D01*
X113127701Y-134010495D01*
X113127694Y-134010494D01*
X113024981Y-134000000D01*
X112750001Y-134000000D01*
X112750000Y-134000001D01*
X112250000Y-134000001D01*
X112249999Y-134000000D01*
X111975024Y-134000000D01*
X111872300Y-134010494D01*
X111872297Y-134010495D01*
X111705880Y-134065640D01*
X111705878Y-134065641D01*
X111556658Y-134157681D01*
X111556654Y-134157684D01*
X111432684Y-134281654D01*
X111432681Y-134281658D01*
X111340641Y-134430878D01*
X111340640Y-134430879D01*
X111285495Y-134597298D01*
X111285494Y-134597305D01*
X111275000Y-134700018D01*
X108724998Y-134700018D01*
X108714505Y-134597300D01*
X108714504Y-134597297D01*
X108659359Y-134430880D01*
X108659358Y-134430878D01*
X108567318Y-134281658D01*
X108567315Y-134281654D01*
X108443345Y-134157684D01*
X108443341Y-134157681D01*
X108294121Y-134065641D01*
X108294120Y-134065640D01*
X108127701Y-134010495D01*
X108127694Y-134010494D01*
X108024981Y-134000000D01*
X107750001Y-134000000D01*
X107750000Y-134000001D01*
X107250000Y-134000001D01*
X107249999Y-134000000D01*
X106975024Y-134000000D01*
X106872300Y-134010494D01*
X106872297Y-134010495D01*
X106705880Y-134065640D01*
X106705878Y-134065641D01*
X106556658Y-134157681D01*
X106556654Y-134157684D01*
X106432684Y-134281654D01*
X106432681Y-134281658D01*
X106340641Y-134430878D01*
X106340640Y-134430879D01*
X106285495Y-134597298D01*
X106285494Y-134597305D01*
X106275000Y-134700018D01*
X103724998Y-134700018D01*
X103714505Y-134597300D01*
X103714504Y-134597297D01*
X103659359Y-134430880D01*
X103659358Y-134430878D01*
X103567318Y-134281658D01*
X103567315Y-134281654D01*
X103443345Y-134157684D01*
X103443341Y-134157681D01*
X103294121Y-134065641D01*
X103294120Y-134065640D01*
X103127701Y-134010495D01*
X103127694Y-134010494D01*
X103024981Y-134000000D01*
X103014950Y-134000000D01*
X102919662Y-133981046D01*
X102838880Y-133927070D01*
X102784904Y-133846288D01*
X102765950Y-133751000D01*
X102784904Y-133655712D01*
X102838877Y-133574933D01*
X103130383Y-133283427D01*
X103211162Y-133229454D01*
X103306450Y-133210500D01*
X120968238Y-133210500D01*
X121063526Y-133229454D01*
X121144308Y-133283430D01*
X121183877Y-133334999D01*
X121241389Y-133434612D01*
X121241396Y-133434621D01*
X121375887Y-133609893D01*
X121381081Y-133616661D01*
X121543339Y-133778919D01*
X121725388Y-133918611D01*
X121784428Y-133952697D01*
X121924106Y-134033341D01*
X121924109Y-134033342D01*
X121924112Y-134033344D01*
X122136113Y-134121158D01*
X122357762Y-134180548D01*
X122585266Y-134210500D01*
X122814734Y-134210500D01*
X123042238Y-134180548D01*
X123263887Y-134121158D01*
X123475888Y-134033344D01*
X123674612Y-133918611D01*
X123856661Y-133778919D01*
X124018919Y-133616661D01*
X124158611Y-133434612D01*
X124273344Y-133235888D01*
X124361158Y-133023887D01*
X124420548Y-132802238D01*
X124450500Y-132574734D01*
X124450500Y-132345266D01*
X124420548Y-132117762D01*
X124361158Y-131896113D01*
X124273344Y-131684112D01*
X124265388Y-131670332D01*
X124158616Y-131485397D01*
X124158611Y-131485388D01*
X124018919Y-131303339D01*
X123856661Y-131141081D01*
X123856656Y-131141077D01*
X123856655Y-131141076D01*
X123674621Y-131001396D01*
X123674622Y-131001396D01*
X123674612Y-131001389D01*
X123674602Y-131001383D01*
X123477221Y-130887425D01*
X123404176Y-130823367D01*
X123361206Y-130736231D01*
X123354851Y-130639284D01*
X123386081Y-130547285D01*
X123425644Y-130495723D01*
X135696145Y-118225220D01*
X135776924Y-118171247D01*
X135872212Y-118152293D01*
X135936649Y-118160775D01*
X136047762Y-118190548D01*
X136275266Y-118220500D01*
X136504734Y-118220500D01*
X136732238Y-118190548D01*
X136953887Y-118131158D01*
X137165888Y-118043344D01*
X137364612Y-117928611D01*
X137546661Y-117788919D01*
X137708919Y-117626661D01*
X137848611Y-117444612D01*
X137963344Y-117245888D01*
X138051158Y-117033887D01*
X138110548Y-116812238D01*
X138140500Y-116584734D01*
X138140500Y-116355266D01*
X138110548Y-116127762D01*
X138051158Y-115906113D01*
X137963344Y-115694112D01*
X137848611Y-115495388D01*
X137708919Y-115313339D01*
X137546661Y-115151081D01*
X137546656Y-115151077D01*
X137546655Y-115151076D01*
X137364621Y-115011396D01*
X137364622Y-115011396D01*
X137364612Y-115011389D01*
X137364602Y-115011383D01*
X137165893Y-114896658D01*
X137165882Y-114896653D01*
X136953885Y-114808841D01*
X136825911Y-114774551D01*
X136732238Y-114749452D01*
X136732235Y-114749451D01*
X136732236Y-114749451D01*
X136504734Y-114719500D01*
X136275266Y-114719500D01*
X136047765Y-114749451D01*
X135826114Y-114808841D01*
X135614117Y-114896653D01*
X135614106Y-114896658D01*
X135415397Y-115011383D01*
X135415378Y-115011396D01*
X135233344Y-115151076D01*
X135071076Y-115313344D01*
X134931396Y-115495378D01*
X134931383Y-115495397D01*
X134816658Y-115694106D01*
X134816653Y-115694117D01*
X134728841Y-115906114D01*
X134669451Y-116127765D01*
X134639500Y-116355266D01*
X134639500Y-116584733D01*
X134669451Y-116812236D01*
X134669452Y-116812241D01*
X134699221Y-116923343D01*
X134705574Y-117020290D01*
X134674344Y-117112289D01*
X134634775Y-117163856D01*
X122474062Y-129324570D01*
X122393280Y-129378546D01*
X122297992Y-129397500D01*
X114765008Y-129397500D01*
X114669720Y-129378546D01*
X114588938Y-129324570D01*
X114534962Y-129243788D01*
X114516008Y-129148500D01*
X114534962Y-129053212D01*
X114588938Y-128972430D01*
X116509501Y-127051867D01*
X122472066Y-121089300D01*
X122552844Y-121035328D01*
X122648132Y-121016374D01*
X122743420Y-121035328D01*
X122824202Y-121089304D01*
X122878178Y-121170086D01*
X122897132Y-121265374D01*
X122878178Y-121360662D01*
X122858968Y-121397848D01*
X122811893Y-121472769D01*
X122811887Y-121472778D01*
X122811879Y-121472793D01*
X122692463Y-121720762D01*
X122601562Y-121980544D01*
X122601556Y-121980565D01*
X122540317Y-122248874D01*
X122509500Y-122522370D01*
X122509500Y-122797629D01*
X122540317Y-123071125D01*
X122601556Y-123339434D01*
X122601562Y-123339455D01*
X122692463Y-123599237D01*
X122692466Y-123599243D01*
X122811886Y-123847221D01*
X122958319Y-124080268D01*
X123129925Y-124295455D01*
X123324545Y-124490075D01*
X123539732Y-124661681D01*
X123772779Y-124808114D01*
X124020757Y-124927534D01*
X124020760Y-124927535D01*
X124020762Y-124927536D01*
X124043108Y-124935355D01*
X124280546Y-125018438D01*
X124280553Y-125018439D01*
X124280565Y-125018443D01*
X124548875Y-125079682D01*
X124548879Y-125079683D01*
X124681352Y-125094609D01*
X124822370Y-125110499D01*
X124822383Y-125110500D01*
X125097617Y-125110500D01*
X125097629Y-125110499D01*
X125204459Y-125098461D01*
X125371121Y-125079683D01*
X125415843Y-125069475D01*
X125639434Y-125018443D01*
X125639441Y-125018440D01*
X125639454Y-125018438D01*
X125899243Y-124927534D01*
X126147221Y-124808114D01*
X126380268Y-124661681D01*
X126595455Y-124490075D01*
X126790075Y-124295455D01*
X126961681Y-124080268D01*
X127108114Y-123847221D01*
X127227534Y-123599243D01*
X127318438Y-123339454D01*
X127335302Y-123265570D01*
X127379682Y-123071125D01*
X127379681Y-123071125D01*
X127379683Y-123071121D01*
X127410500Y-122797617D01*
X127410500Y-122522383D01*
X127379683Y-122248879D01*
X127379682Y-122248874D01*
X127318443Y-121980565D01*
X127318437Y-121980544D01*
X127227536Y-121720762D01*
X127149054Y-121557792D01*
X127108114Y-121472779D01*
X126961681Y-121239732D01*
X126790075Y-121024545D01*
X126595455Y-120829925D01*
X126380268Y-120658319D01*
X126147221Y-120511886D01*
X125899243Y-120392466D01*
X125899237Y-120392463D01*
X125639455Y-120301562D01*
X125639434Y-120301556D01*
X125371124Y-120240317D01*
X125371125Y-120240317D01*
X125097629Y-120209500D01*
X125097617Y-120209500D01*
X124822383Y-120209500D01*
X124822370Y-120209500D01*
X124548874Y-120240317D01*
X124280565Y-120301556D01*
X124280544Y-120301562D01*
X124020762Y-120392463D01*
X123772793Y-120511879D01*
X123772788Y-120511881D01*
X123772779Y-120511886D01*
X123726048Y-120541248D01*
X123697848Y-120558968D01*
X123607080Y-120593614D01*
X123509964Y-120590888D01*
X123421283Y-120551205D01*
X123354538Y-120480606D01*
X123319892Y-120389838D01*
X123322618Y-120292722D01*
X123362301Y-120204041D01*
X123389295Y-120172071D01*
X131015519Y-112545847D01*
X137009500Y-112545847D01*
X137009500Y-112774152D01*
X137009501Y-112774168D01*
X137045215Y-112999656D01*
X137115767Y-113216794D01*
X137115769Y-113216799D01*
X137219418Y-113420224D01*
X137219419Y-113420224D01*
X137219421Y-113420228D01*
X137353621Y-113604937D01*
X137515063Y-113766379D01*
X137699772Y-113900579D01*
X137699774Y-113900580D01*
X137699775Y-113900581D01*
X137799473Y-113951379D01*
X137903201Y-114004231D01*
X138120340Y-114074784D01*
X138345843Y-114110500D01*
X138345847Y-114110500D01*
X138574153Y-114110500D01*
X138574157Y-114110500D01*
X138799660Y-114074784D01*
X139016799Y-114004231D01*
X139220228Y-113900579D01*
X139404937Y-113766379D01*
X139566379Y-113604937D01*
X139700579Y-113420228D01*
X139804231Y-113216799D01*
X139874784Y-112999660D01*
X139910500Y-112774157D01*
X139910500Y-112545843D01*
X139874784Y-112320340D01*
X139804231Y-112103201D01*
X139700579Y-111899772D01*
X139566379Y-111715063D01*
X139404937Y-111553621D01*
X139220228Y-111419421D01*
X139220224Y-111419419D01*
X139220224Y-111419418D01*
X139016799Y-111315769D01*
X139016794Y-111315767D01*
X138860567Y-111265006D01*
X138799660Y-111245216D01*
X138799658Y-111245215D01*
X138799656Y-111245215D01*
X138574168Y-111209501D01*
X138574159Y-111209500D01*
X138574157Y-111209500D01*
X138345843Y-111209500D01*
X138345840Y-111209500D01*
X138345831Y-111209501D01*
X138120343Y-111245215D01*
X137903205Y-111315767D01*
X137903200Y-111315769D01*
X137699775Y-111419418D01*
X137699774Y-111419419D01*
X137699772Y-111419421D01*
X137616083Y-111480225D01*
X137515065Y-111553619D01*
X137353619Y-111715065D01*
X137219420Y-111899774D01*
X137219418Y-111899775D01*
X137115769Y-112103200D01*
X137115767Y-112103205D01*
X137045215Y-112320343D01*
X137009501Y-112545831D01*
X137009500Y-112545847D01*
X131015519Y-112545847D01*
X133887937Y-109673429D01*
X133968719Y-109619454D01*
X134064007Y-109600500D01*
X134658238Y-109600500D01*
X134753526Y-109619454D01*
X134834308Y-109673430D01*
X134873877Y-109724999D01*
X134931389Y-109824612D01*
X135071081Y-110006661D01*
X135233339Y-110168919D01*
X135415388Y-110308611D01*
X135415397Y-110308616D01*
X135614106Y-110423341D01*
X135614109Y-110423342D01*
X135614112Y-110423344D01*
X135826113Y-110511158D01*
X136047762Y-110570548D01*
X136275266Y-110600500D01*
X136504734Y-110600500D01*
X136732238Y-110570548D01*
X136953887Y-110511158D01*
X137165888Y-110423344D01*
X137364612Y-110308611D01*
X137546661Y-110168919D01*
X137708919Y-110006661D01*
X137848611Y-109824612D01*
X137963344Y-109625888D01*
X138051158Y-109413887D01*
X138081376Y-109301109D01*
X138124345Y-109213976D01*
X138197389Y-109149917D01*
X138289388Y-109118686D01*
X138386335Y-109125040D01*
X138473471Y-109168010D01*
X138497961Y-109189486D01*
X146927570Y-117619095D01*
X146981546Y-117699877D01*
X147000500Y-117795165D01*
X147000500Y-148769969D01*
X146981546Y-148865257D01*
X146927570Y-148946039D01*
X146846788Y-149000015D01*
X146751500Y-149018969D01*
X146656212Y-149000015D01*
X146627001Y-148985610D01*
X146525667Y-148927105D01*
X146525655Y-148927100D01*
X146313731Y-148839319D01*
X146313722Y-148839316D01*
X146092136Y-148779942D01*
X145864701Y-148750000D01*
X145635299Y-148750000D01*
X145407863Y-148779942D01*
X145186277Y-148839316D01*
X145186268Y-148839319D01*
X144974344Y-148927100D01*
X144974328Y-148927107D01*
X144775666Y-149041805D01*
X144775665Y-149041805D01*
X144701935Y-149098380D01*
X145579766Y-149976212D01*
X145537708Y-149987482D01*
X145412292Y-150059890D01*
X145309890Y-150162292D01*
X145237482Y-150287708D01*
X145226212Y-150329767D01*
X144348380Y-149451935D01*
X144291805Y-149525665D01*
X144291805Y-149525666D01*
X144177107Y-149724328D01*
X144177100Y-149724344D01*
X144089319Y-149936268D01*
X144089316Y-149936277D01*
X144029942Y-150157863D01*
X144000000Y-150385299D01*
X144000000Y-150614700D01*
X144029942Y-150842136D01*
X144089316Y-151063722D01*
X144089319Y-151063731D01*
X144177100Y-151275655D01*
X144177107Y-151275671D01*
X144291800Y-151474324D01*
X144291806Y-151474334D01*
X144348380Y-151548062D01*
X145226211Y-150670231D01*
X145237482Y-150712292D01*
X145309890Y-150837708D01*
X145412292Y-150940110D01*
X145537708Y-151012518D01*
X145579765Y-151023787D01*
X144701935Y-151901617D01*
X144775665Y-151958193D01*
X144775675Y-151958199D01*
X144974328Y-152072892D01*
X144974344Y-152072899D01*
X145186268Y-152160680D01*
X145186277Y-152160683D01*
X145407863Y-152220057D01*
X145635299Y-152250000D01*
X145864701Y-152250000D01*
X146092136Y-152220057D01*
X146313722Y-152160683D01*
X146313731Y-152160680D01*
X146525655Y-152072899D01*
X146525671Y-152072892D01*
X146627000Y-152014390D01*
X146642553Y-152009110D01*
X146656212Y-151999984D01*
X146688156Y-151993629D01*
X146718999Y-151983160D01*
X146735390Y-151984234D01*
X146751500Y-151981030D01*
X146783442Y-151987383D01*
X146815945Y-151989514D01*
X146830677Y-151996779D01*
X146846788Y-151999984D01*
X146873871Y-152018080D01*
X146903081Y-152032485D01*
X146913909Y-152044832D01*
X146927570Y-152053960D01*
X146945667Y-152081045D01*
X146967140Y-152105530D01*
X146972419Y-152121083D01*
X146981546Y-152134742D01*
X146987900Y-152166686D01*
X146998370Y-152197529D01*
X147000500Y-152230030D01*
X147000500Y-152584992D01*
X146981546Y-152680280D01*
X146927570Y-152761061D01*
X146443853Y-153244777D01*
X146363074Y-153298752D01*
X146267786Y-153317706D01*
X146203343Y-153309222D01*
X146092238Y-153279452D01*
X146092235Y-153279451D01*
X146092236Y-153279451D01*
X145864734Y-153249500D01*
X145635266Y-153249500D01*
X145407765Y-153279451D01*
X145186114Y-153338841D01*
X144974117Y-153426653D01*
X144974106Y-153426658D01*
X144775397Y-153541383D01*
X144775378Y-153541396D01*
X144593344Y-153681076D01*
X144431076Y-153843344D01*
X144291396Y-154025378D01*
X144291386Y-154025392D01*
X144233879Y-154124999D01*
X144169820Y-154198044D01*
X144082685Y-154241015D01*
X144018238Y-154249500D01*
X140981762Y-154249500D01*
X140886474Y-154230546D01*
X140805692Y-154176570D01*
X140766121Y-154124999D01*
X140749256Y-154095788D01*
X140708611Y-154025388D01*
X140568919Y-153843339D01*
X140406661Y-153681081D01*
X140406656Y-153681077D01*
X140406655Y-153681076D01*
X140224621Y-153541396D01*
X140224622Y-153541396D01*
X140224612Y-153541389D01*
X140166566Y-153507876D01*
X140025893Y-153426658D01*
X140025882Y-153426653D01*
X139813885Y-153338841D01*
X139664267Y-153298752D01*
X139592238Y-153279452D01*
X139592235Y-153279451D01*
X139592236Y-153279451D01*
X139364734Y-153249500D01*
X139135266Y-153249500D01*
X138907765Y-153279451D01*
X138686114Y-153338841D01*
X138474117Y-153426653D01*
X138474106Y-153426658D01*
X138275397Y-153541383D01*
X138275378Y-153541396D01*
X138093344Y-153681076D01*
X137931076Y-153843344D01*
X137791396Y-154025378D01*
X137791383Y-154025397D01*
X137676658Y-154224106D01*
X137676653Y-154224117D01*
X137588841Y-154436114D01*
X137529451Y-154657765D01*
X137499500Y-154885266D01*
X137499500Y-155114733D01*
X137529451Y-155342234D01*
X137588841Y-155563885D01*
X137676653Y-155775882D01*
X137676658Y-155775893D01*
X137791383Y-155974602D01*
X137791389Y-155974612D01*
X137791396Y-155974621D01*
X137921765Y-156144521D01*
X137931081Y-156156661D01*
X138093339Y-156318919D01*
X138093343Y-156318922D01*
X138093344Y-156318923D01*
X138099104Y-156323343D01*
X138275388Y-156458611D01*
X138275397Y-156458616D01*
X138474106Y-156573341D01*
X138474109Y-156573342D01*
X138474112Y-156573344D01*
X138686113Y-156661158D01*
X138907762Y-156720548D01*
X139135266Y-156750500D01*
X139364734Y-156750500D01*
X139592238Y-156720548D01*
X139813887Y-156661158D01*
X140025888Y-156573344D01*
X140224612Y-156458611D01*
X140406661Y-156318919D01*
X140568919Y-156156661D01*
X140708611Y-155974612D01*
X140766121Y-155875000D01*
X140830180Y-155801956D01*
X140917315Y-155758985D01*
X140981762Y-155750500D01*
X144018238Y-155750500D01*
X144113526Y-155769454D01*
X144194308Y-155823430D01*
X144233877Y-155874999D01*
X144291389Y-155974612D01*
X144291396Y-155974621D01*
X144421765Y-156144521D01*
X144431081Y-156156661D01*
X144593339Y-156318919D01*
X144593343Y-156318922D01*
X144593344Y-156318923D01*
X144599104Y-156323343D01*
X144775388Y-156458611D01*
X144775397Y-156458616D01*
X144974106Y-156573341D01*
X144974109Y-156573342D01*
X144974112Y-156573344D01*
X145186113Y-156661158D01*
X145407762Y-156720548D01*
X145635266Y-156750500D01*
X145864734Y-156750500D01*
X146092238Y-156720548D01*
X146313887Y-156661158D01*
X146525888Y-156573344D01*
X146724612Y-156458611D01*
X146906661Y-156318919D01*
X147068919Y-156156661D01*
X147208611Y-155974612D01*
X147323344Y-155775888D01*
X147411158Y-155563887D01*
X147470548Y-155342238D01*
X147500500Y-155114734D01*
X147500500Y-154885266D01*
X147470548Y-154657762D01*
X147440777Y-154546657D01*
X147434423Y-154449712D01*
X147465652Y-154357713D01*
X147505219Y-154306147D01*
X148333951Y-153477416D01*
X148416084Y-153354495D01*
X148472658Y-153217913D01*
X148501500Y-153072918D01*
X148501500Y-152925083D01*
X148501500Y-117307240D01*
X148477957Y-117188883D01*
X148472659Y-117162246D01*
X148418483Y-117031456D01*
X148416772Y-117026693D01*
X148333955Y-116902747D01*
X148333949Y-116902740D01*
X148229416Y-116798206D01*
X148229416Y-116798207D01*
X137697258Y-106266048D01*
X137697254Y-106266045D01*
X137697252Y-106266043D01*
X137697253Y-106266043D01*
X137623574Y-106216815D01*
X137623571Y-106216812D01*
X137623571Y-106216813D01*
X137574337Y-106183916D01*
X137437755Y-106127342D01*
X137437753Y-106127341D01*
X137292762Y-106098500D01*
X137292760Y-106098500D01*
X132997082Y-106098500D01*
X132997074Y-106098500D01*
X132968244Y-106104234D01*
X132968245Y-106104235D01*
X132852090Y-106127340D01*
X132772076Y-106160482D01*
X132715511Y-106183912D01*
X132715505Y-106183915D01*
X132715505Y-106183916D01*
X132633373Y-106238794D01*
X132606181Y-106256963D01*
X132592586Y-106266047D01*
X113989045Y-124869585D01*
X113908263Y-124923561D01*
X113812975Y-124942515D01*
X113717687Y-124923561D01*
X113636905Y-124869585D01*
X113611531Y-124839876D01*
X113608557Y-124835783D01*
X113599852Y-124823801D01*
X113445199Y-124669148D01*
X113268257Y-124540593D01*
X113268254Y-124540591D01*
X113268248Y-124540588D01*
X113073393Y-124441304D01*
X113073391Y-124441303D01*
X113073383Y-124441299D01*
X113073376Y-124441296D01*
X113073372Y-124441295D01*
X112887430Y-124380880D01*
X112865375Y-124373714D01*
X112865370Y-124373713D01*
X112865362Y-124373711D01*
X112649366Y-124339501D01*
X112649359Y-124339500D01*
X112649356Y-124339500D01*
X112430644Y-124339500D01*
X112430641Y-124339500D01*
X112430633Y-124339501D01*
X112214637Y-124373711D01*
X112214626Y-124373713D01*
X112214625Y-124373714D01*
X112214622Y-124373714D01*
X112214618Y-124373716D01*
X112006627Y-124441295D01*
X112006619Y-124441298D01*
X112006617Y-124441299D01*
X112006613Y-124441300D01*
X112006606Y-124441304D01*
X111811751Y-124540588D01*
X111811744Y-124540592D01*
X111634799Y-124669149D01*
X111480146Y-124823802D01*
X111471442Y-124835783D01*
X111400098Y-124901730D01*
X111308947Y-124935355D01*
X111211867Y-124931539D01*
X111123637Y-124890862D01*
X111068558Y-124835783D01*
X111059853Y-124823802D01*
X110905200Y-124669149D01*
X110894913Y-124661675D01*
X110728257Y-124540593D01*
X110728254Y-124540591D01*
X110728248Y-124540588D01*
X110533393Y-124441304D01*
X110533391Y-124441303D01*
X110533383Y-124441299D01*
X110533376Y-124441296D01*
X110533372Y-124441295D01*
X110347430Y-124380880D01*
X110325375Y-124373714D01*
X110325370Y-124373713D01*
X110325362Y-124373711D01*
X110110629Y-124339701D01*
X110019479Y-124306074D01*
X109948136Y-124240125D01*
X109907461Y-124151895D01*
X109903647Y-124054815D01*
X109937274Y-123963665D01*
X109973507Y-123917701D01*
X116113952Y-117777257D01*
X116141205Y-117736469D01*
X116196084Y-117654337D01*
X116219518Y-117597762D01*
X116252659Y-117517754D01*
X116281500Y-117372759D01*
X116281500Y-117224924D01*
X116281500Y-110777082D01*
X116252658Y-110632087D01*
X116196084Y-110495505D01*
X116113951Y-110372584D01*
X116113949Y-110372582D01*
X116009421Y-110268053D01*
X116009418Y-110268051D01*
X116009416Y-110268049D01*
X115285219Y-109543851D01*
X115231247Y-109463075D01*
X115212293Y-109367787D01*
X115220778Y-109303341D01*
X115250548Y-109192238D01*
X115280500Y-108964734D01*
X115280500Y-108735266D01*
X115250548Y-108507762D01*
X115191158Y-108286113D01*
X115103344Y-108074112D01*
X115063935Y-108005854D01*
X115022697Y-107934428D01*
X114988611Y-107875388D01*
X114848919Y-107693339D01*
X114686661Y-107531081D01*
X114686656Y-107531077D01*
X114686655Y-107531076D01*
X114504621Y-107391396D01*
X114504622Y-107391396D01*
X114504612Y-107391389D01*
X114504602Y-107391383D01*
X114305893Y-107276658D01*
X114305882Y-107276653D01*
X114093885Y-107188841D01*
X113965911Y-107154551D01*
X113872238Y-107129452D01*
X113872235Y-107129451D01*
X113872236Y-107129451D01*
X113644734Y-107099500D01*
X113415266Y-107099500D01*
X113187765Y-107129451D01*
X112966114Y-107188841D01*
X112754117Y-107276653D01*
X112754106Y-107276658D01*
X112555397Y-107391383D01*
X112555378Y-107391396D01*
X112373344Y-107531076D01*
X112211076Y-107693344D01*
X112071396Y-107875378D01*
X112071383Y-107875397D01*
X111956658Y-108074106D01*
X111956653Y-108074117D01*
X111868841Y-108286114D01*
X111809451Y-108507765D01*
X111779500Y-108735266D01*
X111779500Y-108964733D01*
X111809451Y-109192234D01*
X111868841Y-109413885D01*
X111956653Y-109625882D01*
X111956658Y-109625893D01*
X112071383Y-109824602D01*
X112071389Y-109824612D01*
X112211081Y-110006661D01*
X112373339Y-110168919D01*
X112555388Y-110308611D01*
X112555397Y-110308616D01*
X112754106Y-110423341D01*
X112754109Y-110423342D01*
X112754112Y-110423344D01*
X112966113Y-110511158D01*
X113187762Y-110570548D01*
X113415266Y-110600500D01*
X113644734Y-110600500D01*
X113872238Y-110570548D01*
X113983342Y-110540777D01*
X114080288Y-110534423D01*
X114172287Y-110565652D01*
X114223849Y-110605216D01*
X114707572Y-111088939D01*
X114761546Y-111169718D01*
X114780500Y-111265006D01*
X114780500Y-114739392D01*
X114761546Y-114834680D01*
X114707570Y-114915462D01*
X114626788Y-114969438D01*
X114531500Y-114988392D01*
X114436212Y-114969438D01*
X114407001Y-114955033D01*
X114305888Y-114896656D01*
X114305882Y-114896653D01*
X114093885Y-114808841D01*
X113965911Y-114774551D01*
X113872238Y-114749452D01*
X113872235Y-114749451D01*
X113872236Y-114749451D01*
X113644734Y-114719500D01*
X113415266Y-114719500D01*
X113187765Y-114749451D01*
X112966114Y-114808841D01*
X112754117Y-114896653D01*
X112754106Y-114896658D01*
X112555397Y-115011383D01*
X112555378Y-115011396D01*
X112373344Y-115151076D01*
X112211076Y-115313344D01*
X112071396Y-115495378D01*
X112071386Y-115495392D01*
X112013879Y-115594999D01*
X111949820Y-115668044D01*
X111862685Y-115711015D01*
X111798238Y-115719500D01*
X109245769Y-115719500D01*
X109100778Y-115748341D01*
X108964197Y-115804915D01*
X108964193Y-115804917D01*
X108841277Y-115887046D01*
X100416096Y-124312224D01*
X100335314Y-124366200D01*
X100240026Y-124385154D01*
X100175160Y-124374884D01*
X100174893Y-124375999D01*
X100165367Y-124373712D01*
X99949366Y-124339501D01*
X99949359Y-124339500D01*
X99949356Y-124339500D01*
X99730644Y-124339500D01*
X99730641Y-124339500D01*
X99730633Y-124339501D01*
X99514637Y-124373711D01*
X99514626Y-124373713D01*
X99514625Y-124373714D01*
X99514622Y-124373714D01*
X99514618Y-124373716D01*
X99306627Y-124441295D01*
X99306619Y-124441298D01*
X99306617Y-124441299D01*
X99306613Y-124441300D01*
X99306606Y-124441304D01*
X99111751Y-124540588D01*
X99111744Y-124540592D01*
X98934799Y-124669149D01*
X98780146Y-124823802D01*
X98771442Y-124835783D01*
X98700098Y-124901730D01*
X98608947Y-124935355D01*
X98511867Y-124931539D01*
X98423637Y-124890862D01*
X98368558Y-124835783D01*
X98359853Y-124823802D01*
X98205200Y-124669149D01*
X98194913Y-124661675D01*
X98028257Y-124540593D01*
X98028254Y-124540591D01*
X98028248Y-124540588D01*
X97833393Y-124441304D01*
X97833391Y-124441303D01*
X97833383Y-124441299D01*
X97833376Y-124441296D01*
X97833372Y-124441295D01*
X97647430Y-124380880D01*
X97625375Y-124373714D01*
X97625370Y-124373713D01*
X97625362Y-124373711D01*
X97409366Y-124339501D01*
X97409359Y-124339500D01*
X97409356Y-124339500D01*
X97190644Y-124339500D01*
X97190641Y-124339500D01*
X97190633Y-124339501D01*
X96974637Y-124373711D01*
X96974626Y-124373713D01*
X96974625Y-124373714D01*
X96974622Y-124373714D01*
X96974618Y-124373716D01*
X96766627Y-124441295D01*
X96766619Y-124441298D01*
X96766617Y-124441299D01*
X96766613Y-124441300D01*
X96766606Y-124441304D01*
X96571751Y-124540588D01*
X96571744Y-124540592D01*
X96394799Y-124669149D01*
X96240149Y-124823799D01*
X96111592Y-125000744D01*
X96111588Y-125000751D01*
X96012304Y-125195606D01*
X96012295Y-125195627D01*
X95944716Y-125403618D01*
X95944711Y-125403637D01*
X95910501Y-125619633D01*
X95910500Y-125619648D01*
X95910500Y-127616351D01*
X95910501Y-127616366D01*
X95944711Y-127832362D01*
X95944713Y-127832370D01*
X95944714Y-127832375D01*
X96012299Y-128040383D01*
X96012303Y-128040391D01*
X96012304Y-128040393D01*
X96029999Y-128075122D01*
X96111593Y-128235257D01*
X96240148Y-128412199D01*
X96394801Y-128566852D01*
X96571743Y-128695407D01*
X96766617Y-128794701D01*
X96974625Y-128862286D01*
X96974636Y-128862287D01*
X96974637Y-128862288D01*
X97034743Y-128871807D01*
X97190644Y-128896500D01*
X97190648Y-128896500D01*
X97409352Y-128896500D01*
X97409356Y-128896500D01*
X97564119Y-128871987D01*
X97582543Y-128869070D01*
X97679624Y-128872884D01*
X97767854Y-128913559D01*
X97797566Y-128938934D01*
X99485049Y-130626416D01*
X99485048Y-130626416D01*
X99589582Y-130730949D01*
X99589584Y-130730951D01*
X99712505Y-130813084D01*
X99849087Y-130869658D01*
X99994080Y-130898499D01*
X99994081Y-130898500D01*
X99994082Y-130898500D01*
X100141917Y-130898500D01*
X121186803Y-130898500D01*
X121213336Y-130903777D01*
X121240383Y-130904333D01*
X121260523Y-130913163D01*
X121282091Y-130917454D01*
X121304583Y-130932483D01*
X121329361Y-130943347D01*
X121344588Y-130959212D01*
X121362873Y-130971430D01*
X121377903Y-130993924D01*
X121396635Y-131013442D01*
X121404631Y-131033926D01*
X121416849Y-131052212D01*
X121422126Y-131078745D01*
X121431964Y-131103946D01*
X121431512Y-131125931D01*
X121435803Y-131147500D01*
X121430525Y-131174033D01*
X121429970Y-131201080D01*
X121421545Y-131219176D01*
X121416849Y-131242788D01*
X121390956Y-131290058D01*
X121383072Y-131301347D01*
X121381081Y-131303339D01*
X121241389Y-131485388D01*
X121178519Y-131594281D01*
X121172391Y-131603058D01*
X121144917Y-131629425D01*
X121119820Y-131658044D01*
X121110109Y-131662832D01*
X121102296Y-131670332D01*
X121066827Y-131684177D01*
X121032685Y-131701015D01*
X121019118Y-131702801D01*
X121011792Y-131705661D01*
X120999338Y-131705405D01*
X120968238Y-131709500D01*
X102818523Y-131709500D01*
X102673532Y-131738341D01*
X102536951Y-131794915D01*
X102536947Y-131794917D01*
X102414031Y-131877046D01*
X102414028Y-131877049D01*
X95077048Y-139214028D01*
X95027813Y-139287714D01*
X95026286Y-139290000D01*
X94994917Y-139336946D01*
X94994915Y-139336951D01*
X94938341Y-139473532D01*
X94909500Y-139618523D01*
X93000500Y-139618523D01*
X93000500Y-112545847D01*
X110009500Y-112545847D01*
X110009500Y-112774152D01*
X110009501Y-112774168D01*
X110045215Y-112999656D01*
X110115767Y-113216794D01*
X110115769Y-113216799D01*
X110219418Y-113420224D01*
X110219419Y-113420224D01*
X110219421Y-113420228D01*
X110353621Y-113604937D01*
X110515063Y-113766379D01*
X110699772Y-113900579D01*
X110699774Y-113900580D01*
X110699775Y-113900581D01*
X110799473Y-113951379D01*
X110903201Y-114004231D01*
X111120340Y-114074784D01*
X111345843Y-114110500D01*
X111345847Y-114110500D01*
X111574153Y-114110500D01*
X111574157Y-114110500D01*
X111799660Y-114074784D01*
X112016799Y-114004231D01*
X112220228Y-113900579D01*
X112404937Y-113766379D01*
X112566379Y-113604937D01*
X112700579Y-113420228D01*
X112804231Y-113216799D01*
X112874784Y-112999660D01*
X112910500Y-112774157D01*
X112910500Y-112545843D01*
X112874784Y-112320340D01*
X112804231Y-112103201D01*
X112700579Y-111899772D01*
X112566379Y-111715063D01*
X112404937Y-111553621D01*
X112220228Y-111419421D01*
X112220224Y-111419419D01*
X112220224Y-111419418D01*
X112016799Y-111315769D01*
X112016794Y-111315767D01*
X111860567Y-111265006D01*
X111799660Y-111245216D01*
X111799658Y-111245215D01*
X111799656Y-111245215D01*
X111574168Y-111209501D01*
X111574159Y-111209500D01*
X111574157Y-111209500D01*
X111345843Y-111209500D01*
X111345840Y-111209500D01*
X111345831Y-111209501D01*
X111120343Y-111245215D01*
X110903205Y-111315767D01*
X110903200Y-111315769D01*
X110699775Y-111419418D01*
X110699774Y-111419419D01*
X110699772Y-111419421D01*
X110616083Y-111480225D01*
X110515065Y-111553619D01*
X110353619Y-111715065D01*
X110219420Y-111899774D01*
X110219418Y-111899775D01*
X110115769Y-112103200D01*
X110115767Y-112103205D01*
X110045215Y-112320343D01*
X110009501Y-112545831D01*
X110009500Y-112545847D01*
X93000500Y-112545847D01*
X93000500Y-103541989D01*
X114159500Y-103541989D01*
X114159500Y-103581635D01*
X114159500Y-103778011D01*
X114190307Y-104012014D01*
X114251393Y-104239989D01*
X114251394Y-104239992D01*
X114341713Y-104458043D01*
X114341718Y-104458054D01*
X114459721Y-104662440D01*
X114459727Y-104662450D01*
X114603408Y-104849699D01*
X114770301Y-105016592D01*
X114957550Y-105160273D01*
X114957559Y-105160278D01*
X115161945Y-105278281D01*
X115161948Y-105278282D01*
X115161951Y-105278284D01*
X115380007Y-105368606D01*
X115607986Y-105429693D01*
X115841989Y-105460500D01*
X116078011Y-105460500D01*
X116312014Y-105429693D01*
X116539993Y-105368606D01*
X116758049Y-105278284D01*
X116962450Y-105160273D01*
X117149699Y-105016592D01*
X117316592Y-104849699D01*
X117460273Y-104662450D01*
X117578284Y-104458049D01*
X117668606Y-104239993D01*
X117729693Y-104012014D01*
X117760500Y-103778011D01*
X117760500Y-103541989D01*
X117729693Y-103307986D01*
X117668606Y-103080007D01*
X117578284Y-102861951D01*
X117460273Y-102657550D01*
X117316592Y-102470301D01*
X117149699Y-102303408D01*
X116962450Y-102159727D01*
X116962440Y-102159721D01*
X116758054Y-102041718D01*
X116758043Y-102041713D01*
X116637222Y-101991667D01*
X116539993Y-101951394D01*
X116312014Y-101890307D01*
X116312007Y-101890306D01*
X116078011Y-101859500D01*
X115841989Y-101859500D01*
X115607992Y-101890306D01*
X115607990Y-101890306D01*
X115607986Y-101890307D01*
X115435640Y-101936487D01*
X115380010Y-101951393D01*
X115380007Y-101951394D01*
X115161956Y-102041713D01*
X115161945Y-102041718D01*
X114957559Y-102159721D01*
X114957549Y-102159727D01*
X114770301Y-102303408D01*
X114770297Y-102303411D01*
X114603411Y-102470297D01*
X114603408Y-102470301D01*
X114459727Y-102657549D01*
X114459721Y-102657559D01*
X114341718Y-102861945D01*
X114341713Y-102861956D01*
X114267146Y-103041978D01*
X114251394Y-103080007D01*
X114190307Y-103307986D01*
X114159500Y-103541989D01*
X93000500Y-103541989D01*
X93000500Y-97393703D01*
X96149500Y-97393703D01*
X96149500Y-97606296D01*
X96182753Y-97816240D01*
X96182754Y-97816243D01*
X96248443Y-98018412D01*
X96344949Y-98207816D01*
X96469896Y-98379792D01*
X96620208Y-98530104D01*
X96792184Y-98655051D01*
X96981588Y-98751557D01*
X97183757Y-98817246D01*
X97257601Y-98828941D01*
X97393703Y-98850499D01*
X97393710Y-98850499D01*
X97393713Y-98850500D01*
X97393716Y-98850500D01*
X97606284Y-98850500D01*
X97606287Y-98850500D01*
X97606290Y-98850499D01*
X97606296Y-98850499D01*
X97705476Y-98834789D01*
X97816243Y-98817246D01*
X98018412Y-98751557D01*
X98207816Y-98655051D01*
X98379792Y-98530104D01*
X98530104Y-98379792D01*
X98655051Y-98207816D01*
X98751557Y-98018412D01*
X98817246Y-97816243D01*
X98850500Y-97606287D01*
X98850500Y-97393713D01*
X98850499Y-97393710D01*
X98850499Y-97393703D01*
X151149500Y-97393703D01*
X151149500Y-97606296D01*
X151182753Y-97816240D01*
X151182754Y-97816243D01*
X151248443Y-98018412D01*
X151344949Y-98207816D01*
X151469896Y-98379792D01*
X151620208Y-98530104D01*
X151792184Y-98655051D01*
X151981588Y-98751557D01*
X152183757Y-98817246D01*
X152257601Y-98828941D01*
X152393703Y-98850499D01*
X152393710Y-98850499D01*
X152393713Y-98850500D01*
X152393716Y-98850500D01*
X152606284Y-98850500D01*
X152606287Y-98850500D01*
X152606290Y-98850499D01*
X152606296Y-98850499D01*
X152705476Y-98834789D01*
X152816243Y-98817246D01*
X153018412Y-98751557D01*
X153207816Y-98655051D01*
X153379792Y-98530104D01*
X153530104Y-98379792D01*
X153655051Y-98207816D01*
X153751557Y-98018412D01*
X153817246Y-97816243D01*
X153850500Y-97606287D01*
X153850500Y-97393713D01*
X153850499Y-97393710D01*
X153850499Y-97393703D01*
X153817246Y-97183759D01*
X153817246Y-97183757D01*
X153751557Y-96981588D01*
X153655051Y-96792184D01*
X153530104Y-96620208D01*
X153379792Y-96469896D01*
X153207816Y-96344949D01*
X153018412Y-96248443D01*
X153018409Y-96248442D01*
X153018407Y-96248441D01*
X152816240Y-96182753D01*
X152606296Y-96149500D01*
X152606287Y-96149500D01*
X152393713Y-96149500D01*
X152393703Y-96149500D01*
X152183759Y-96182753D01*
X151981592Y-96248441D01*
X151792182Y-96344950D01*
X151620206Y-96469897D01*
X151469897Y-96620206D01*
X151344950Y-96792182D01*
X151248441Y-96981592D01*
X151182753Y-97183759D01*
X151149500Y-97393703D01*
X98850499Y-97393703D01*
X98817246Y-97183759D01*
X98817246Y-97183757D01*
X98751557Y-96981588D01*
X98655051Y-96792184D01*
X98530104Y-96620208D01*
X98379792Y-96469896D01*
X98207816Y-96344949D01*
X98018412Y-96248443D01*
X98018409Y-96248442D01*
X98018407Y-96248441D01*
X97816240Y-96182753D01*
X97606296Y-96149500D01*
X97606287Y-96149500D01*
X97393713Y-96149500D01*
X97393703Y-96149500D01*
X97183759Y-96182753D01*
X96981592Y-96248441D01*
X96792182Y-96344950D01*
X96620206Y-96469897D01*
X96469897Y-96620206D01*
X96344950Y-96792182D01*
X96248441Y-96981592D01*
X96182753Y-97183759D01*
X96149500Y-97393703D01*
X93000500Y-97393703D01*
X93000500Y-96506111D01*
X93000800Y-96493894D01*
X93016085Y-96182753D01*
X93016751Y-96169191D01*
X93019143Y-96144906D01*
X93065949Y-95829362D01*
X93070709Y-95805435D01*
X93148220Y-95495991D01*
X93155303Y-95472644D01*
X93262766Y-95172306D01*
X93272110Y-95149748D01*
X93408489Y-94861400D01*
X93419996Y-94839870D01*
X93583995Y-94566254D01*
X93597547Y-94545971D01*
X93787571Y-94289754D01*
X93803055Y-94270888D01*
X94017282Y-94034524D01*
X94034524Y-94017282D01*
X94270888Y-93803055D01*
X94289754Y-93787571D01*
X94545971Y-93597547D01*
X94566254Y-93583995D01*
X94839870Y-93419996D01*
X94861400Y-93408489D01*
X95149748Y-93272110D01*
X95172306Y-93262766D01*
X95472644Y-93155303D01*
X95495991Y-93148220D01*
X95805435Y-93070709D01*
X95829362Y-93065949D01*
X96144906Y-93019143D01*
X96169193Y-93016751D01*
X96479950Y-93001484D01*
X96493894Y-93000800D01*
X96506111Y-93000500D01*
X96565892Y-93000500D01*
X153434108Y-93000500D01*
X153493889Y-93000500D01*
X153506106Y-93000800D01*
G37*
%TD.AperFunction*%
%TD*%
M02*
