%TF.GenerationSoftware,KiCad,Pcbnew,9.0.6*%
%TF.CreationDate,2026-02-22T14:20:45-08:00*%
%TF.ProjectId,schematic,73636865-6d61-4746-9963-2e6b69636164,rev?*%
%TF.SameCoordinates,Original*%
%TF.FileFunction,Legend,Top*%
%TF.FilePolarity,Positive*%
%FSLAX46Y46*%
G04 Gerber Fmt 4.6, Leading zero omitted, Abs format (unit mm)*
G04 Created by KiCad (PCBNEW 9.0.6) date 2026-02-22 14:20:45*
%MOMM*%
%LPD*%
G01*
G04 APERTURE LIST*
%ADD10C,0.100000*%
%ADD11C,0.150000*%
%ADD12C,0.120000*%
G04 APERTURE END LIST*
D10*
X179410401Y-81042419D02*
X179410401Y-80042419D01*
X179410401Y-80042419D02*
X179648496Y-80042419D01*
X179648496Y-80042419D02*
X179791353Y-80090038D01*
X179791353Y-80090038D02*
X179886591Y-80185276D01*
X179886591Y-80185276D02*
X179934210Y-80280514D01*
X179934210Y-80280514D02*
X179981829Y-80470990D01*
X179981829Y-80470990D02*
X179981829Y-80613847D01*
X179981829Y-80613847D02*
X179934210Y-80804323D01*
X179934210Y-80804323D02*
X179886591Y-80899561D01*
X179886591Y-80899561D02*
X179791353Y-80994800D01*
X179791353Y-80994800D02*
X179648496Y-81042419D01*
X179648496Y-81042419D02*
X179410401Y-81042419D01*
X180410401Y-81042419D02*
X180410401Y-80042419D01*
X180838972Y-80994800D02*
X180981829Y-81042419D01*
X180981829Y-81042419D02*
X181219924Y-81042419D01*
X181219924Y-81042419D02*
X181315162Y-80994800D01*
X181315162Y-80994800D02*
X181362781Y-80947180D01*
X181362781Y-80947180D02*
X181410400Y-80851942D01*
X181410400Y-80851942D02*
X181410400Y-80756704D01*
X181410400Y-80756704D02*
X181362781Y-80661466D01*
X181362781Y-80661466D02*
X181315162Y-80613847D01*
X181315162Y-80613847D02*
X181219924Y-80566228D01*
X181219924Y-80566228D02*
X181029448Y-80518609D01*
X181029448Y-80518609D02*
X180934210Y-80470990D01*
X180934210Y-80470990D02*
X180886591Y-80423371D01*
X180886591Y-80423371D02*
X180838972Y-80328133D01*
X180838972Y-80328133D02*
X180838972Y-80232895D01*
X180838972Y-80232895D02*
X180886591Y-80137657D01*
X180886591Y-80137657D02*
X180934210Y-80090038D01*
X180934210Y-80090038D02*
X181029448Y-80042419D01*
X181029448Y-80042419D02*
X181267543Y-80042419D01*
X181267543Y-80042419D02*
X181410400Y-80090038D01*
X181838972Y-81042419D02*
X181838972Y-80042419D01*
X181838972Y-80042419D02*
X182219924Y-80042419D01*
X182219924Y-80042419D02*
X182315162Y-80090038D01*
X182315162Y-80090038D02*
X182362781Y-80137657D01*
X182362781Y-80137657D02*
X182410400Y-80232895D01*
X182410400Y-80232895D02*
X182410400Y-80375752D01*
X182410400Y-80375752D02*
X182362781Y-80470990D01*
X182362781Y-80470990D02*
X182315162Y-80518609D01*
X182315162Y-80518609D02*
X182219924Y-80566228D01*
X182219924Y-80566228D02*
X181838972Y-80566228D01*
X183315162Y-81042419D02*
X182838972Y-81042419D01*
X182838972Y-81042419D02*
X182838972Y-80042419D01*
X183600877Y-80756704D02*
X184077067Y-80756704D01*
X183505639Y-81042419D02*
X183838972Y-80042419D01*
X183838972Y-80042419D02*
X184172305Y-81042419D01*
X184696115Y-80566228D02*
X184696115Y-81042419D01*
X184362782Y-80042419D02*
X184696115Y-80566228D01*
X184696115Y-80566228D02*
X185029448Y-80042419D01*
X186124687Y-81042419D02*
X186124687Y-80042419D01*
X186124687Y-80042419D02*
X186362782Y-80042419D01*
X186362782Y-80042419D02*
X186505639Y-80090038D01*
X186505639Y-80090038D02*
X186600877Y-80185276D01*
X186600877Y-80185276D02*
X186648496Y-80280514D01*
X186648496Y-80280514D02*
X186696115Y-80470990D01*
X186696115Y-80470990D02*
X186696115Y-80613847D01*
X186696115Y-80613847D02*
X186648496Y-80804323D01*
X186648496Y-80804323D02*
X186600877Y-80899561D01*
X186600877Y-80899561D02*
X186505639Y-80994800D01*
X186505639Y-80994800D02*
X186362782Y-81042419D01*
X186362782Y-81042419D02*
X186124687Y-81042419D01*
X187124687Y-80518609D02*
X187458020Y-80518609D01*
X187600877Y-81042419D02*
X187124687Y-81042419D01*
X187124687Y-81042419D02*
X187124687Y-80042419D01*
X187124687Y-80042419D02*
X187600877Y-80042419D01*
X187886592Y-80042419D02*
X188219925Y-81042419D01*
X188219925Y-81042419D02*
X188553258Y-80042419D01*
X188886592Y-81042419D02*
X188886592Y-80042419D01*
X189934210Y-80947180D02*
X189886591Y-80994800D01*
X189886591Y-80994800D02*
X189743734Y-81042419D01*
X189743734Y-81042419D02*
X189648496Y-81042419D01*
X189648496Y-81042419D02*
X189505639Y-80994800D01*
X189505639Y-80994800D02*
X189410401Y-80899561D01*
X189410401Y-80899561D02*
X189362782Y-80804323D01*
X189362782Y-80804323D02*
X189315163Y-80613847D01*
X189315163Y-80613847D02*
X189315163Y-80470990D01*
X189315163Y-80470990D02*
X189362782Y-80280514D01*
X189362782Y-80280514D02*
X189410401Y-80185276D01*
X189410401Y-80185276D02*
X189505639Y-80090038D01*
X189505639Y-80090038D02*
X189648496Y-80042419D01*
X189648496Y-80042419D02*
X189743734Y-80042419D01*
X189743734Y-80042419D02*
X189886591Y-80090038D01*
X189886591Y-80090038D02*
X189934210Y-80137657D01*
X190362782Y-80518609D02*
X190696115Y-80518609D01*
X190838972Y-81042419D02*
X190362782Y-81042419D01*
X190362782Y-81042419D02*
X190362782Y-80042419D01*
X190362782Y-80042419D02*
X190838972Y-80042419D01*
X191934211Y-80375752D02*
X192172306Y-81042419D01*
X192172306Y-81042419D02*
X192410401Y-80375752D01*
X192743735Y-80137657D02*
X192791354Y-80090038D01*
X192791354Y-80090038D02*
X192886592Y-80042419D01*
X192886592Y-80042419D02*
X193124687Y-80042419D01*
X193124687Y-80042419D02*
X193219925Y-80090038D01*
X193219925Y-80090038D02*
X193267544Y-80137657D01*
X193267544Y-80137657D02*
X193315163Y-80232895D01*
X193315163Y-80232895D02*
X193315163Y-80328133D01*
X193315163Y-80328133D02*
X193267544Y-80470990D01*
X193267544Y-80470990D02*
X192696116Y-81042419D01*
X192696116Y-81042419D02*
X193315163Y-81042419D01*
X193743735Y-80947180D02*
X193791354Y-80994800D01*
X193791354Y-80994800D02*
X193743735Y-81042419D01*
X193743735Y-81042419D02*
X193696116Y-80994800D01*
X193696116Y-80994800D02*
X193743735Y-80947180D01*
X193743735Y-80947180D02*
X193743735Y-81042419D01*
X194410401Y-80042419D02*
X194505639Y-80042419D01*
X194505639Y-80042419D02*
X194600877Y-80090038D01*
X194600877Y-80090038D02*
X194648496Y-80137657D01*
X194648496Y-80137657D02*
X194696115Y-80232895D01*
X194696115Y-80232895D02*
X194743734Y-80423371D01*
X194743734Y-80423371D02*
X194743734Y-80661466D01*
X194743734Y-80661466D02*
X194696115Y-80851942D01*
X194696115Y-80851942D02*
X194648496Y-80947180D01*
X194648496Y-80947180D02*
X194600877Y-80994800D01*
X194600877Y-80994800D02*
X194505639Y-81042419D01*
X194505639Y-81042419D02*
X194410401Y-81042419D01*
X194410401Y-81042419D02*
X194315163Y-80994800D01*
X194315163Y-80994800D02*
X194267544Y-80947180D01*
X194267544Y-80947180D02*
X194219925Y-80851942D01*
X194219925Y-80851942D02*
X194172306Y-80661466D01*
X194172306Y-80661466D02*
X194172306Y-80423371D01*
X194172306Y-80423371D02*
X194219925Y-80232895D01*
X194219925Y-80232895D02*
X194267544Y-80137657D01*
X194267544Y-80137657D02*
X194315163Y-80090038D01*
X194315163Y-80090038D02*
X194410401Y-80042419D01*
X184791353Y-82604744D02*
X184934210Y-82652363D01*
X184934210Y-82652363D02*
X185172305Y-82652363D01*
X185172305Y-82652363D02*
X185267543Y-82604744D01*
X185267543Y-82604744D02*
X185315162Y-82557124D01*
X185315162Y-82557124D02*
X185362781Y-82461886D01*
X185362781Y-82461886D02*
X185362781Y-82366648D01*
X185362781Y-82366648D02*
X185315162Y-82271410D01*
X185315162Y-82271410D02*
X185267543Y-82223791D01*
X185267543Y-82223791D02*
X185172305Y-82176172D01*
X185172305Y-82176172D02*
X184981829Y-82128553D01*
X184981829Y-82128553D02*
X184886591Y-82080934D01*
X184886591Y-82080934D02*
X184838972Y-82033315D01*
X184838972Y-82033315D02*
X184791353Y-81938077D01*
X184791353Y-81938077D02*
X184791353Y-81842839D01*
X184791353Y-81842839D02*
X184838972Y-81747601D01*
X184838972Y-81747601D02*
X184886591Y-81699982D01*
X184886591Y-81699982D02*
X184981829Y-81652363D01*
X184981829Y-81652363D02*
X185219924Y-81652363D01*
X185219924Y-81652363D02*
X185362781Y-81699982D01*
X185791353Y-82652363D02*
X185791353Y-81985696D01*
X185791353Y-81652363D02*
X185743734Y-81699982D01*
X185743734Y-81699982D02*
X185791353Y-81747601D01*
X185791353Y-81747601D02*
X185838972Y-81699982D01*
X185838972Y-81699982D02*
X185791353Y-81652363D01*
X185791353Y-81652363D02*
X185791353Y-81747601D01*
X186648495Y-82604744D02*
X186553257Y-82652363D01*
X186553257Y-82652363D02*
X186362781Y-82652363D01*
X186362781Y-82652363D02*
X186267543Y-82604744D01*
X186267543Y-82604744D02*
X186219924Y-82509505D01*
X186219924Y-82509505D02*
X186219924Y-82128553D01*
X186219924Y-82128553D02*
X186267543Y-82033315D01*
X186267543Y-82033315D02*
X186362781Y-81985696D01*
X186362781Y-81985696D02*
X186553257Y-81985696D01*
X186553257Y-81985696D02*
X186648495Y-82033315D01*
X186648495Y-82033315D02*
X186696114Y-82128553D01*
X186696114Y-82128553D02*
X186696114Y-82223791D01*
X186696114Y-82223791D02*
X186219924Y-82319029D01*
X187124686Y-81985696D02*
X187124686Y-82652363D01*
X187124686Y-82080934D02*
X187172305Y-82033315D01*
X187172305Y-82033315D02*
X187267543Y-81985696D01*
X187267543Y-81985696D02*
X187410400Y-81985696D01*
X187410400Y-81985696D02*
X187505638Y-82033315D01*
X187505638Y-82033315D02*
X187553257Y-82128553D01*
X187553257Y-82128553D02*
X187553257Y-82652363D01*
X188029448Y-81985696D02*
X188029448Y-82652363D01*
X188029448Y-82080934D02*
X188077067Y-82033315D01*
X188077067Y-82033315D02*
X188172305Y-81985696D01*
X188172305Y-81985696D02*
X188315162Y-81985696D01*
X188315162Y-81985696D02*
X188410400Y-82033315D01*
X188410400Y-82033315D02*
X188458019Y-82128553D01*
X188458019Y-82128553D02*
X188458019Y-82652363D01*
X189362781Y-82652363D02*
X189362781Y-82128553D01*
X189362781Y-82128553D02*
X189315162Y-82033315D01*
X189315162Y-82033315D02*
X189219924Y-81985696D01*
X189219924Y-81985696D02*
X189029448Y-81985696D01*
X189029448Y-81985696D02*
X188934210Y-82033315D01*
X189362781Y-82604744D02*
X189267543Y-82652363D01*
X189267543Y-82652363D02*
X189029448Y-82652363D01*
X189029448Y-82652363D02*
X188934210Y-82604744D01*
X188934210Y-82604744D02*
X188886591Y-82509505D01*
X188886591Y-82509505D02*
X188886591Y-82414267D01*
X188886591Y-82414267D02*
X188934210Y-82319029D01*
X188934210Y-82319029D02*
X189029448Y-82271410D01*
X189029448Y-82271410D02*
X189267543Y-82271410D01*
X189267543Y-82271410D02*
X189362781Y-82223791D01*
X190505639Y-81652363D02*
X191172305Y-81652363D01*
X191172305Y-81652363D02*
X190505639Y-82652363D01*
X190505639Y-82652363D02*
X191172305Y-82652363D01*
X191553258Y-82652363D02*
X191553258Y-81652363D01*
X191981829Y-82652363D02*
X191981829Y-82128553D01*
X191981829Y-82128553D02*
X191934210Y-82033315D01*
X191934210Y-82033315D02*
X191838972Y-81985696D01*
X191838972Y-81985696D02*
X191696115Y-81985696D01*
X191696115Y-81985696D02*
X191600877Y-82033315D01*
X191600877Y-82033315D02*
X191553258Y-82080934D01*
X192886591Y-82652363D02*
X192886591Y-82128553D01*
X192886591Y-82128553D02*
X192838972Y-82033315D01*
X192838972Y-82033315D02*
X192743734Y-81985696D01*
X192743734Y-81985696D02*
X192553258Y-81985696D01*
X192553258Y-81985696D02*
X192458020Y-82033315D01*
X192886591Y-82604744D02*
X192791353Y-82652363D01*
X192791353Y-82652363D02*
X192553258Y-82652363D01*
X192553258Y-82652363D02*
X192458020Y-82604744D01*
X192458020Y-82604744D02*
X192410401Y-82509505D01*
X192410401Y-82509505D02*
X192410401Y-82414267D01*
X192410401Y-82414267D02*
X192458020Y-82319029D01*
X192458020Y-82319029D02*
X192553258Y-82271410D01*
X192553258Y-82271410D02*
X192791353Y-82271410D01*
X192791353Y-82271410D02*
X192886591Y-82223791D01*
X193362782Y-81985696D02*
X193362782Y-82652363D01*
X193362782Y-82080934D02*
X193410401Y-82033315D01*
X193410401Y-82033315D02*
X193505639Y-81985696D01*
X193505639Y-81985696D02*
X193648496Y-81985696D01*
X193648496Y-81985696D02*
X193743734Y-82033315D01*
X193743734Y-82033315D02*
X193791353Y-82128553D01*
X193791353Y-82128553D02*
X193791353Y-82652363D01*
X194696115Y-81985696D02*
X194696115Y-82795220D01*
X194696115Y-82795220D02*
X194648496Y-82890458D01*
X194648496Y-82890458D02*
X194600877Y-82938077D01*
X194600877Y-82938077D02*
X194505639Y-82985696D01*
X194505639Y-82985696D02*
X194362782Y-82985696D01*
X194362782Y-82985696D02*
X194267544Y-82938077D01*
X194696115Y-82604744D02*
X194600877Y-82652363D01*
X194600877Y-82652363D02*
X194410401Y-82652363D01*
X194410401Y-82652363D02*
X194315163Y-82604744D01*
X194315163Y-82604744D02*
X194267544Y-82557124D01*
X194267544Y-82557124D02*
X194219925Y-82461886D01*
X194219925Y-82461886D02*
X194219925Y-82176172D01*
X194219925Y-82176172D02*
X194267544Y-82080934D01*
X194267544Y-82080934D02*
X194315163Y-82033315D01*
X194315163Y-82033315D02*
X194410401Y-81985696D01*
X194410401Y-81985696D02*
X194600877Y-81985696D01*
X194600877Y-81985696D02*
X194696115Y-82033315D01*
D11*
X207333333Y-88679580D02*
X207285714Y-88727200D01*
X207285714Y-88727200D02*
X207142857Y-88774819D01*
X207142857Y-88774819D02*
X207047619Y-88774819D01*
X207047619Y-88774819D02*
X206904762Y-88727200D01*
X206904762Y-88727200D02*
X206809524Y-88631961D01*
X206809524Y-88631961D02*
X206761905Y-88536723D01*
X206761905Y-88536723D02*
X206714286Y-88346247D01*
X206714286Y-88346247D02*
X206714286Y-88203390D01*
X206714286Y-88203390D02*
X206761905Y-88012914D01*
X206761905Y-88012914D02*
X206809524Y-87917676D01*
X206809524Y-87917676D02*
X206904762Y-87822438D01*
X206904762Y-87822438D02*
X207047619Y-87774819D01*
X207047619Y-87774819D02*
X207142857Y-87774819D01*
X207142857Y-87774819D02*
X207285714Y-87822438D01*
X207285714Y-87822438D02*
X207333333Y-87870057D01*
X207714286Y-87870057D02*
X207761905Y-87822438D01*
X207761905Y-87822438D02*
X207857143Y-87774819D01*
X207857143Y-87774819D02*
X208095238Y-87774819D01*
X208095238Y-87774819D02*
X208190476Y-87822438D01*
X208190476Y-87822438D02*
X208238095Y-87870057D01*
X208238095Y-87870057D02*
X208285714Y-87965295D01*
X208285714Y-87965295D02*
X208285714Y-88060533D01*
X208285714Y-88060533D02*
X208238095Y-88203390D01*
X208238095Y-88203390D02*
X207666667Y-88774819D01*
X207666667Y-88774819D02*
X208285714Y-88774819D01*
X207333333Y-93679580D02*
X207285714Y-93727200D01*
X207285714Y-93727200D02*
X207142857Y-93774819D01*
X207142857Y-93774819D02*
X207047619Y-93774819D01*
X207047619Y-93774819D02*
X206904762Y-93727200D01*
X206904762Y-93727200D02*
X206809524Y-93631961D01*
X206809524Y-93631961D02*
X206761905Y-93536723D01*
X206761905Y-93536723D02*
X206714286Y-93346247D01*
X206714286Y-93346247D02*
X206714286Y-93203390D01*
X206714286Y-93203390D02*
X206761905Y-93012914D01*
X206761905Y-93012914D02*
X206809524Y-92917676D01*
X206809524Y-92917676D02*
X206904762Y-92822438D01*
X206904762Y-92822438D02*
X207047619Y-92774819D01*
X207047619Y-92774819D02*
X207142857Y-92774819D01*
X207142857Y-92774819D02*
X207285714Y-92822438D01*
X207285714Y-92822438D02*
X207333333Y-92870057D01*
X208190476Y-93108152D02*
X208190476Y-93774819D01*
X207952381Y-92727200D02*
X207714286Y-93441485D01*
X207714286Y-93441485D02*
X208333333Y-93441485D01*
X206166666Y-79304819D02*
X205833333Y-78828628D01*
X205595238Y-79304819D02*
X205595238Y-78304819D01*
X205595238Y-78304819D02*
X205976190Y-78304819D01*
X205976190Y-78304819D02*
X206071428Y-78352438D01*
X206071428Y-78352438D02*
X206119047Y-78400057D01*
X206119047Y-78400057D02*
X206166666Y-78495295D01*
X206166666Y-78495295D02*
X206166666Y-78638152D01*
X206166666Y-78638152D02*
X206119047Y-78733390D01*
X206119047Y-78733390D02*
X206071428Y-78781009D01*
X206071428Y-78781009D02*
X205976190Y-78828628D01*
X205976190Y-78828628D02*
X205595238Y-78828628D01*
X206595238Y-78781009D02*
X206928571Y-78781009D01*
X207071428Y-79304819D02*
X206595238Y-79304819D01*
X206595238Y-79304819D02*
X206595238Y-78304819D01*
X206595238Y-78304819D02*
X207071428Y-78304819D01*
X207833333Y-78781009D02*
X207500000Y-78781009D01*
X207500000Y-79304819D02*
X207500000Y-78304819D01*
X207500000Y-78304819D02*
X207976190Y-78304819D01*
X208500000Y-78304819D02*
X208500000Y-78542914D01*
X208261905Y-78447676D02*
X208500000Y-78542914D01*
X208500000Y-78542914D02*
X208738095Y-78447676D01*
X208357143Y-78733390D02*
X208500000Y-78542914D01*
X208500000Y-78542914D02*
X208642857Y-78733390D01*
X209261905Y-78304819D02*
X209261905Y-78542914D01*
X209023810Y-78447676D02*
X209261905Y-78542914D01*
X209261905Y-78542914D02*
X209500000Y-78447676D01*
X209119048Y-78733390D02*
X209261905Y-78542914D01*
X209261905Y-78542914D02*
X209404762Y-78733390D01*
X206761905Y-98804819D02*
X206761905Y-97804819D01*
X206761905Y-97804819D02*
X207000000Y-97804819D01*
X207000000Y-97804819D02*
X207142857Y-97852438D01*
X207142857Y-97852438D02*
X207238095Y-97947676D01*
X207238095Y-97947676D02*
X207285714Y-98042914D01*
X207285714Y-98042914D02*
X207333333Y-98233390D01*
X207333333Y-98233390D02*
X207333333Y-98376247D01*
X207333333Y-98376247D02*
X207285714Y-98566723D01*
X207285714Y-98566723D02*
X207238095Y-98661961D01*
X207238095Y-98661961D02*
X207142857Y-98757200D01*
X207142857Y-98757200D02*
X207000000Y-98804819D01*
X207000000Y-98804819D02*
X206761905Y-98804819D01*
X207714286Y-97900057D02*
X207761905Y-97852438D01*
X207761905Y-97852438D02*
X207857143Y-97804819D01*
X207857143Y-97804819D02*
X208095238Y-97804819D01*
X208095238Y-97804819D02*
X208190476Y-97852438D01*
X208190476Y-97852438D02*
X208238095Y-97900057D01*
X208238095Y-97900057D02*
X208285714Y-97995295D01*
X208285714Y-97995295D02*
X208285714Y-98090533D01*
X208285714Y-98090533D02*
X208238095Y-98233390D01*
X208238095Y-98233390D02*
X207666667Y-98804819D01*
X207666667Y-98804819D02*
X208285714Y-98804819D01*
D10*
X191738095Y-86957419D02*
X191738095Y-87766942D01*
X191738095Y-87766942D02*
X191785714Y-87862180D01*
X191785714Y-87862180D02*
X191833333Y-87909800D01*
X191833333Y-87909800D02*
X191928571Y-87957419D01*
X191928571Y-87957419D02*
X192119047Y-87957419D01*
X192119047Y-87957419D02*
X192214285Y-87909800D01*
X192214285Y-87909800D02*
X192261904Y-87862180D01*
X192261904Y-87862180D02*
X192309523Y-87766942D01*
X192309523Y-87766942D02*
X192309523Y-86957419D01*
X192738095Y-87052657D02*
X192785714Y-87005038D01*
X192785714Y-87005038D02*
X192880952Y-86957419D01*
X192880952Y-86957419D02*
X193119047Y-86957419D01*
X193119047Y-86957419D02*
X193214285Y-87005038D01*
X193214285Y-87005038D02*
X193261904Y-87052657D01*
X193261904Y-87052657D02*
X193309523Y-87147895D01*
X193309523Y-87147895D02*
X193309523Y-87243133D01*
X193309523Y-87243133D02*
X193261904Y-87385990D01*
X193261904Y-87385990D02*
X192690476Y-87957419D01*
X192690476Y-87957419D02*
X193309523Y-87957419D01*
D11*
X207333333Y-103774819D02*
X207000000Y-103298628D01*
X206761905Y-103774819D02*
X206761905Y-102774819D01*
X206761905Y-102774819D02*
X207142857Y-102774819D01*
X207142857Y-102774819D02*
X207238095Y-102822438D01*
X207238095Y-102822438D02*
X207285714Y-102870057D01*
X207285714Y-102870057D02*
X207333333Y-102965295D01*
X207333333Y-102965295D02*
X207333333Y-103108152D01*
X207333333Y-103108152D02*
X207285714Y-103203390D01*
X207285714Y-103203390D02*
X207238095Y-103251009D01*
X207238095Y-103251009D02*
X207142857Y-103298628D01*
X207142857Y-103298628D02*
X206761905Y-103298628D01*
X208190476Y-103108152D02*
X208190476Y-103774819D01*
X207952381Y-102727200D02*
X207714286Y-103441485D01*
X207714286Y-103441485D02*
X208333333Y-103441485D01*
X156166666Y-114304819D02*
X155833333Y-113828628D01*
X155595238Y-114304819D02*
X155595238Y-113304819D01*
X155595238Y-113304819D02*
X155976190Y-113304819D01*
X155976190Y-113304819D02*
X156071428Y-113352438D01*
X156071428Y-113352438D02*
X156119047Y-113400057D01*
X156119047Y-113400057D02*
X156166666Y-113495295D01*
X156166666Y-113495295D02*
X156166666Y-113638152D01*
X156166666Y-113638152D02*
X156119047Y-113733390D01*
X156119047Y-113733390D02*
X156071428Y-113781009D01*
X156071428Y-113781009D02*
X155976190Y-113828628D01*
X155976190Y-113828628D02*
X155595238Y-113828628D01*
X156595238Y-113781009D02*
X156928571Y-113781009D01*
X157071428Y-114304819D02*
X156595238Y-114304819D01*
X156595238Y-114304819D02*
X156595238Y-113304819D01*
X156595238Y-113304819D02*
X157071428Y-113304819D01*
X157833333Y-113781009D02*
X157500000Y-113781009D01*
X157500000Y-114304819D02*
X157500000Y-113304819D01*
X157500000Y-113304819D02*
X157976190Y-113304819D01*
X158500000Y-113304819D02*
X158500000Y-113542914D01*
X158261905Y-113447676D02*
X158500000Y-113542914D01*
X158500000Y-113542914D02*
X158738095Y-113447676D01*
X158357143Y-113733390D02*
X158500000Y-113542914D01*
X158500000Y-113542914D02*
X158642857Y-113733390D01*
X159261905Y-113304819D02*
X159261905Y-113542914D01*
X159023810Y-113447676D02*
X159261905Y-113542914D01*
X159261905Y-113542914D02*
X159500000Y-113447676D01*
X159119048Y-113733390D02*
X159261905Y-113542914D01*
X159261905Y-113542914D02*
X159404762Y-113733390D01*
X206166667Y-111407200D02*
X206309524Y-111454819D01*
X206309524Y-111454819D02*
X206547619Y-111454819D01*
X206547619Y-111454819D02*
X206642857Y-111407200D01*
X206642857Y-111407200D02*
X206690476Y-111359580D01*
X206690476Y-111359580D02*
X206738095Y-111264342D01*
X206738095Y-111264342D02*
X206738095Y-111169104D01*
X206738095Y-111169104D02*
X206690476Y-111073866D01*
X206690476Y-111073866D02*
X206642857Y-111026247D01*
X206642857Y-111026247D02*
X206547619Y-110978628D01*
X206547619Y-110978628D02*
X206357143Y-110931009D01*
X206357143Y-110931009D02*
X206261905Y-110883390D01*
X206261905Y-110883390D02*
X206214286Y-110835771D01*
X206214286Y-110835771D02*
X206166667Y-110740533D01*
X206166667Y-110740533D02*
X206166667Y-110645295D01*
X206166667Y-110645295D02*
X206214286Y-110550057D01*
X206214286Y-110550057D02*
X206261905Y-110502438D01*
X206261905Y-110502438D02*
X206357143Y-110454819D01*
X206357143Y-110454819D02*
X206595238Y-110454819D01*
X206595238Y-110454819D02*
X206738095Y-110502438D01*
X207071429Y-110454819D02*
X207309524Y-111454819D01*
X207309524Y-111454819D02*
X207500000Y-110740533D01*
X207500000Y-110740533D02*
X207690476Y-111454819D01*
X207690476Y-111454819D02*
X207928572Y-110454819D01*
X208261905Y-110550057D02*
X208309524Y-110502438D01*
X208309524Y-110502438D02*
X208404762Y-110454819D01*
X208404762Y-110454819D02*
X208642857Y-110454819D01*
X208642857Y-110454819D02*
X208738095Y-110502438D01*
X208738095Y-110502438D02*
X208785714Y-110550057D01*
X208785714Y-110550057D02*
X208833333Y-110645295D01*
X208833333Y-110645295D02*
X208833333Y-110740533D01*
X208833333Y-110740533D02*
X208785714Y-110883390D01*
X208785714Y-110883390D02*
X208214286Y-111454819D01*
X208214286Y-111454819D02*
X208833333Y-111454819D01*
D10*
X159190476Y-84107419D02*
X159190476Y-83107419D01*
X159190476Y-83107419D02*
X159523809Y-83821704D01*
X159523809Y-83821704D02*
X159857142Y-83107419D01*
X159857142Y-83107419D02*
X159857142Y-84107419D01*
X160857142Y-84107419D02*
X160285714Y-84107419D01*
X160571428Y-84107419D02*
X160571428Y-83107419D01*
X160571428Y-83107419D02*
X160476190Y-83250276D01*
X160476190Y-83250276D02*
X160380952Y-83345514D01*
X160380952Y-83345514D02*
X160285714Y-83393133D01*
D12*
%TO.C,C2*%
X207238748Y-89265000D02*
X207761252Y-89265000D01*
X207238748Y-90735000D02*
X207761252Y-90735000D01*
%TO.C,C4*%
X207238748Y-95735000D02*
X207761252Y-95735000D01*
X207238748Y-94265000D02*
X207761252Y-94265000D01*
%TO.C,D2*%
X205815000Y-99040000D02*
X205815000Y-100960000D01*
X205815000Y-100960000D02*
X208500000Y-100960000D01*
X208500000Y-99040000D02*
X205815000Y-99040000D01*
D10*
%TO.C,U2*%
X191190000Y-89760000D02*
X191190000Y-93570000D01*
X191190000Y-93570000D02*
X198810000Y-93570000D01*
X196016000Y-116176000D02*
X199064000Y-116176000D01*
X196016000Y-119224000D02*
X196016000Y-116176000D01*
X196524000Y-119732000D02*
X198556000Y-119732000D01*
X197032000Y-120240000D02*
X198048000Y-120240000D01*
X198810000Y-93570000D02*
X198810000Y-89760000D01*
X199064000Y-116176000D02*
X199064000Y-119224000D01*
X199064000Y-119224000D02*
X196016000Y-119224000D01*
D12*
%TO.C,R4*%
X207238748Y-104265000D02*
X207761252Y-104265000D01*
X207238748Y-105735000D02*
X207761252Y-105735000D01*
%TO.C,SW2*%
X204000000Y-114500000D02*
X204000000Y-116000000D01*
X205250000Y-118500000D02*
X209750000Y-118500000D01*
X209750000Y-112000000D02*
X205250000Y-112000000D01*
X211000000Y-116000000D02*
X211000000Y-114500000D01*
%TD*%
M02*
