%TF.GenerationSoftware,KiCad,Pcbnew,9.0.6*%
%TF.CreationDate,2026-03-05T15:20:22-08:00*%
%TF.ProjectId,schematic,73636865-6d61-4746-9963-2e6b69636164,rev?*%
%TF.SameCoordinates,Original*%
%TF.FileFunction,Soldermask,Top*%
%TF.FilePolarity,Negative*%
%FSLAX46Y46*%
G04 Gerber Fmt 4.6, Leading zero omitted, Abs format (unit mm)*
G04 Created by KiCad (PCBNEW 9.0.6) date 2026-03-05 15:20:22*
%MOMM*%
%LPD*%
G01*
G04 APERTURE LIST*
G04 Aperture macros list*
%AMRoundRect*
0 Rectangle with rounded corners*
0 $1 Rounding radius*
0 $2 $3 $4 $5 $6 $7 $8 $9 X,Y pos of 4 corners*
0 Add a 4 corners polygon primitive as box body*
4,1,4,$2,$3,$4,$5,$6,$7,$8,$9,$2,$3,0*
0 Add four circle primitives for the rounded corners*
1,1,$1+$1,$2,$3*
1,1,$1+$1,$4,$5*
1,1,$1+$1,$6,$7*
1,1,$1+$1,$8,$9*
0 Add four rect primitives between the rounded corners*
20,1,$1+$1,$2,$3,$4,$5,0*
20,1,$1+$1,$4,$5,$6,$7,0*
20,1,$1+$1,$6,$7,$8,$9,0*
20,1,$1+$1,$8,$9,$2,$3,0*%
G04 Aperture macros list end*
%ADD10R,1.700000X1.700000*%
%ADD11C,1.700000*%
%ADD12RoundRect,0.243750X-0.243750X-0.456250X0.243750X-0.456250X0.243750X0.456250X-0.243750X0.456250X0*%
%ADD13O,3.556000X1.778000*%
%ADD14C,1.905000*%
%ADD15RoundRect,0.250000X-0.250000X-0.475000X0.250000X-0.475000X0.250000X0.475000X-0.250000X0.475000X0*%
%ADD16C,2.000000*%
%ADD17C,2.700000*%
G04 APERTURE END LIST*
D10*
%TO.C,BT1*%
X155160000Y-96606120D03*
D11*
X155160000Y-94066120D03*
%TD*%
D12*
%TO.C,D2*%
X164222500Y-76566120D03*
X166097500Y-76566120D03*
%TD*%
D13*
%TO.C,U2*%
X144158000Y-59066120D03*
X144158000Y-61606120D03*
X144158000Y-64146120D03*
X144158000Y-66686120D03*
X144158000Y-69226120D03*
X144158000Y-71766120D03*
X144158000Y-74306120D03*
X160922000Y-74306120D03*
X160922000Y-71766120D03*
X160922000Y-69226120D03*
X160922000Y-66686120D03*
X160922000Y-64146120D03*
X160922000Y-61606120D03*
X160922000Y-59066120D03*
D14*
X150000000Y-84466120D03*
X155080000Y-84466120D03*
%TD*%
D15*
%TO.C,R4*%
X164210000Y-81566120D03*
X166110000Y-81566120D03*
%TD*%
D16*
%TO.C,SW2*%
X161160000Y-87066120D03*
X167660000Y-87066120D03*
X161160000Y-91566120D03*
X167660000Y-91566120D03*
%TD*%
D17*
%TO.C,REF\u002A\u002A*%
X115160000Y-96566120D03*
%TD*%
D15*
%TO.C,C2*%
X164210000Y-66566120D03*
X166110000Y-66566120D03*
%TD*%
D10*
%TO.C,SW3*%
X162620000Y-96566120D03*
D11*
X165160000Y-96566120D03*
X167700000Y-96566120D03*
%TD*%
D17*
%TO.C,REF\u002A\u002A*%
X167660000Y-61566120D03*
%TD*%
D15*
%TO.C,C4*%
X164210000Y-71566120D03*
X166110000Y-71566120D03*
%TD*%
D11*
%TO.C,M1*%
X137660000Y-75096120D03*
X137660000Y-82716120D03*
X114800000Y-82716120D03*
X114800000Y-75096120D03*
%TD*%
M02*
