%TF.GenerationSoftware,KiCad,Pcbnew,9.0.6*%
%TF.CreationDate,2026-02-16T21:28:26-08:00*%
%TF.ProjectId,schematic,73636865-6d61-4746-9963-2e6b69636164,rev?*%
%TF.SameCoordinates,Original*%
%TF.FileFunction,Legend,Top*%
%TF.FilePolarity,Positive*%
%FSLAX46Y46*%
G04 Gerber Fmt 4.6, Leading zero omitted, Abs format (unit mm)*
G04 Created by KiCad (PCBNEW 9.0.6) date 2026-02-16 21:28:26*
%MOMM*%
%LPD*%
G01*
G04 APERTURE LIST*
%ADD10C,0.100000*%
%ADD11C,0.150000*%
%ADD12C,0.120000*%
G04 APERTURE END LIST*
D10*
X155161027Y-118872419D02*
X155494360Y-119872419D01*
X155494360Y-119872419D02*
X155827693Y-118872419D01*
X156684836Y-119872419D02*
X156113408Y-119872419D01*
X156399122Y-119872419D02*
X156399122Y-118872419D01*
X156399122Y-118872419D02*
X156303884Y-119015276D01*
X156303884Y-119015276D02*
X156208646Y-119110514D01*
X156208646Y-119110514D02*
X156113408Y-119158133D01*
X157113408Y-119777180D02*
X157161027Y-119824800D01*
X157161027Y-119824800D02*
X157113408Y-119872419D01*
X157113408Y-119872419D02*
X157065789Y-119824800D01*
X157065789Y-119824800D02*
X157113408Y-119777180D01*
X157113408Y-119777180D02*
X157113408Y-119872419D01*
X157780074Y-118872419D02*
X157875312Y-118872419D01*
X157875312Y-118872419D02*
X157970550Y-118920038D01*
X157970550Y-118920038D02*
X158018169Y-118967657D01*
X158018169Y-118967657D02*
X158065788Y-119062895D01*
X158065788Y-119062895D02*
X158113407Y-119253371D01*
X158113407Y-119253371D02*
X158113407Y-119491466D01*
X158113407Y-119491466D02*
X158065788Y-119681942D01*
X158065788Y-119681942D02*
X158018169Y-119777180D01*
X158018169Y-119777180D02*
X157970550Y-119824800D01*
X157970550Y-119824800D02*
X157875312Y-119872419D01*
X157875312Y-119872419D02*
X157780074Y-119872419D01*
X157780074Y-119872419D02*
X157684836Y-119824800D01*
X157684836Y-119824800D02*
X157637217Y-119777180D01*
X157637217Y-119777180D02*
X157589598Y-119681942D01*
X157589598Y-119681942D02*
X157541979Y-119491466D01*
X157541979Y-119491466D02*
X157541979Y-119253371D01*
X157541979Y-119253371D02*
X157589598Y-119062895D01*
X157589598Y-119062895D02*
X157637217Y-118967657D01*
X157637217Y-118967657D02*
X157684836Y-118920038D01*
X157684836Y-118920038D02*
X157780074Y-118872419D01*
X199603911Y-81042419D02*
X199603911Y-80042419D01*
X199603911Y-80042419D02*
X199842006Y-80042419D01*
X199842006Y-80042419D02*
X199984863Y-80090038D01*
X199984863Y-80090038D02*
X200080101Y-80185276D01*
X200080101Y-80185276D02*
X200127720Y-80280514D01*
X200127720Y-80280514D02*
X200175339Y-80470990D01*
X200175339Y-80470990D02*
X200175339Y-80613847D01*
X200175339Y-80613847D02*
X200127720Y-80804323D01*
X200127720Y-80804323D02*
X200080101Y-80899561D01*
X200080101Y-80899561D02*
X199984863Y-80994800D01*
X199984863Y-80994800D02*
X199842006Y-81042419D01*
X199842006Y-81042419D02*
X199603911Y-81042419D01*
X200603911Y-81042419D02*
X200603911Y-80042419D01*
X201032482Y-80994800D02*
X201175339Y-81042419D01*
X201175339Y-81042419D02*
X201413434Y-81042419D01*
X201413434Y-81042419D02*
X201508672Y-80994800D01*
X201508672Y-80994800D02*
X201556291Y-80947180D01*
X201556291Y-80947180D02*
X201603910Y-80851942D01*
X201603910Y-80851942D02*
X201603910Y-80756704D01*
X201603910Y-80756704D02*
X201556291Y-80661466D01*
X201556291Y-80661466D02*
X201508672Y-80613847D01*
X201508672Y-80613847D02*
X201413434Y-80566228D01*
X201413434Y-80566228D02*
X201222958Y-80518609D01*
X201222958Y-80518609D02*
X201127720Y-80470990D01*
X201127720Y-80470990D02*
X201080101Y-80423371D01*
X201080101Y-80423371D02*
X201032482Y-80328133D01*
X201032482Y-80328133D02*
X201032482Y-80232895D01*
X201032482Y-80232895D02*
X201080101Y-80137657D01*
X201080101Y-80137657D02*
X201127720Y-80090038D01*
X201127720Y-80090038D02*
X201222958Y-80042419D01*
X201222958Y-80042419D02*
X201461053Y-80042419D01*
X201461053Y-80042419D02*
X201603910Y-80090038D01*
X202032482Y-81042419D02*
X202032482Y-80042419D01*
X202032482Y-80042419D02*
X202413434Y-80042419D01*
X202413434Y-80042419D02*
X202508672Y-80090038D01*
X202508672Y-80090038D02*
X202556291Y-80137657D01*
X202556291Y-80137657D02*
X202603910Y-80232895D01*
X202603910Y-80232895D02*
X202603910Y-80375752D01*
X202603910Y-80375752D02*
X202556291Y-80470990D01*
X202556291Y-80470990D02*
X202508672Y-80518609D01*
X202508672Y-80518609D02*
X202413434Y-80566228D01*
X202413434Y-80566228D02*
X202032482Y-80566228D01*
X203508672Y-81042419D02*
X203032482Y-81042419D01*
X203032482Y-81042419D02*
X203032482Y-80042419D01*
X203794387Y-80756704D02*
X204270577Y-80756704D01*
X203699149Y-81042419D02*
X204032482Y-80042419D01*
X204032482Y-80042419D02*
X204365815Y-81042419D01*
X204889625Y-80566228D02*
X204889625Y-81042419D01*
X204556292Y-80042419D02*
X204889625Y-80566228D01*
X204889625Y-80566228D02*
X205222958Y-80042419D01*
X206318197Y-81042419D02*
X206318197Y-80042419D01*
X206318197Y-80042419D02*
X206556292Y-80042419D01*
X206556292Y-80042419D02*
X206699149Y-80090038D01*
X206699149Y-80090038D02*
X206794387Y-80185276D01*
X206794387Y-80185276D02*
X206842006Y-80280514D01*
X206842006Y-80280514D02*
X206889625Y-80470990D01*
X206889625Y-80470990D02*
X206889625Y-80613847D01*
X206889625Y-80613847D02*
X206842006Y-80804323D01*
X206842006Y-80804323D02*
X206794387Y-80899561D01*
X206794387Y-80899561D02*
X206699149Y-80994800D01*
X206699149Y-80994800D02*
X206556292Y-81042419D01*
X206556292Y-81042419D02*
X206318197Y-81042419D01*
X207318197Y-80518609D02*
X207651530Y-80518609D01*
X207794387Y-81042419D02*
X207318197Y-81042419D01*
X207318197Y-81042419D02*
X207318197Y-80042419D01*
X207318197Y-80042419D02*
X207794387Y-80042419D01*
X208080102Y-80042419D02*
X208413435Y-81042419D01*
X208413435Y-81042419D02*
X208746768Y-80042419D01*
X209080102Y-81042419D02*
X209080102Y-80042419D01*
X210127720Y-80947180D02*
X210080101Y-80994800D01*
X210080101Y-80994800D02*
X209937244Y-81042419D01*
X209937244Y-81042419D02*
X209842006Y-81042419D01*
X209842006Y-81042419D02*
X209699149Y-80994800D01*
X209699149Y-80994800D02*
X209603911Y-80899561D01*
X209603911Y-80899561D02*
X209556292Y-80804323D01*
X209556292Y-80804323D02*
X209508673Y-80613847D01*
X209508673Y-80613847D02*
X209508673Y-80470990D01*
X209508673Y-80470990D02*
X209556292Y-80280514D01*
X209556292Y-80280514D02*
X209603911Y-80185276D01*
X209603911Y-80185276D02*
X209699149Y-80090038D01*
X209699149Y-80090038D02*
X209842006Y-80042419D01*
X209842006Y-80042419D02*
X209937244Y-80042419D01*
X209937244Y-80042419D02*
X210080101Y-80090038D01*
X210080101Y-80090038D02*
X210127720Y-80137657D01*
X210556292Y-80518609D02*
X210889625Y-80518609D01*
X211032482Y-81042419D02*
X210556292Y-81042419D01*
X210556292Y-81042419D02*
X210556292Y-80042419D01*
X210556292Y-80042419D02*
X211032482Y-80042419D01*
X201080101Y-82604744D02*
X201222958Y-82652363D01*
X201222958Y-82652363D02*
X201461053Y-82652363D01*
X201461053Y-82652363D02*
X201556291Y-82604744D01*
X201556291Y-82604744D02*
X201603910Y-82557124D01*
X201603910Y-82557124D02*
X201651529Y-82461886D01*
X201651529Y-82461886D02*
X201651529Y-82366648D01*
X201651529Y-82366648D02*
X201603910Y-82271410D01*
X201603910Y-82271410D02*
X201556291Y-82223791D01*
X201556291Y-82223791D02*
X201461053Y-82176172D01*
X201461053Y-82176172D02*
X201270577Y-82128553D01*
X201270577Y-82128553D02*
X201175339Y-82080934D01*
X201175339Y-82080934D02*
X201127720Y-82033315D01*
X201127720Y-82033315D02*
X201080101Y-81938077D01*
X201080101Y-81938077D02*
X201080101Y-81842839D01*
X201080101Y-81842839D02*
X201127720Y-81747601D01*
X201127720Y-81747601D02*
X201175339Y-81699982D01*
X201175339Y-81699982D02*
X201270577Y-81652363D01*
X201270577Y-81652363D02*
X201508672Y-81652363D01*
X201508672Y-81652363D02*
X201651529Y-81699982D01*
X202080101Y-82652363D02*
X202080101Y-81985696D01*
X202080101Y-81652363D02*
X202032482Y-81699982D01*
X202032482Y-81699982D02*
X202080101Y-81747601D01*
X202080101Y-81747601D02*
X202127720Y-81699982D01*
X202127720Y-81699982D02*
X202080101Y-81652363D01*
X202080101Y-81652363D02*
X202080101Y-81747601D01*
X202937243Y-82604744D02*
X202842005Y-82652363D01*
X202842005Y-82652363D02*
X202651529Y-82652363D01*
X202651529Y-82652363D02*
X202556291Y-82604744D01*
X202556291Y-82604744D02*
X202508672Y-82509505D01*
X202508672Y-82509505D02*
X202508672Y-82128553D01*
X202508672Y-82128553D02*
X202556291Y-82033315D01*
X202556291Y-82033315D02*
X202651529Y-81985696D01*
X202651529Y-81985696D02*
X202842005Y-81985696D01*
X202842005Y-81985696D02*
X202937243Y-82033315D01*
X202937243Y-82033315D02*
X202984862Y-82128553D01*
X202984862Y-82128553D02*
X202984862Y-82223791D01*
X202984862Y-82223791D02*
X202508672Y-82319029D01*
X203413434Y-81985696D02*
X203413434Y-82652363D01*
X203413434Y-82080934D02*
X203461053Y-82033315D01*
X203461053Y-82033315D02*
X203556291Y-81985696D01*
X203556291Y-81985696D02*
X203699148Y-81985696D01*
X203699148Y-81985696D02*
X203794386Y-82033315D01*
X203794386Y-82033315D02*
X203842005Y-82128553D01*
X203842005Y-82128553D02*
X203842005Y-82652363D01*
X204318196Y-81985696D02*
X204318196Y-82652363D01*
X204318196Y-82080934D02*
X204365815Y-82033315D01*
X204365815Y-82033315D02*
X204461053Y-81985696D01*
X204461053Y-81985696D02*
X204603910Y-81985696D01*
X204603910Y-81985696D02*
X204699148Y-82033315D01*
X204699148Y-82033315D02*
X204746767Y-82128553D01*
X204746767Y-82128553D02*
X204746767Y-82652363D01*
X205651529Y-82652363D02*
X205651529Y-82128553D01*
X205651529Y-82128553D02*
X205603910Y-82033315D01*
X205603910Y-82033315D02*
X205508672Y-81985696D01*
X205508672Y-81985696D02*
X205318196Y-81985696D01*
X205318196Y-81985696D02*
X205222958Y-82033315D01*
X205651529Y-82604744D02*
X205556291Y-82652363D01*
X205556291Y-82652363D02*
X205318196Y-82652363D01*
X205318196Y-82652363D02*
X205222958Y-82604744D01*
X205222958Y-82604744D02*
X205175339Y-82509505D01*
X205175339Y-82509505D02*
X205175339Y-82414267D01*
X205175339Y-82414267D02*
X205222958Y-82319029D01*
X205222958Y-82319029D02*
X205318196Y-82271410D01*
X205318196Y-82271410D02*
X205556291Y-82271410D01*
X205556291Y-82271410D02*
X205651529Y-82223791D01*
X206794387Y-81652363D02*
X207461053Y-81652363D01*
X207461053Y-81652363D02*
X206794387Y-82652363D01*
X206794387Y-82652363D02*
X207461053Y-82652363D01*
X207842006Y-82652363D02*
X207842006Y-81652363D01*
X208270577Y-82652363D02*
X208270577Y-82128553D01*
X208270577Y-82128553D02*
X208222958Y-82033315D01*
X208222958Y-82033315D02*
X208127720Y-81985696D01*
X208127720Y-81985696D02*
X207984863Y-81985696D01*
X207984863Y-81985696D02*
X207889625Y-82033315D01*
X207889625Y-82033315D02*
X207842006Y-82080934D01*
X209175339Y-82652363D02*
X209175339Y-82128553D01*
X209175339Y-82128553D02*
X209127720Y-82033315D01*
X209127720Y-82033315D02*
X209032482Y-81985696D01*
X209032482Y-81985696D02*
X208842006Y-81985696D01*
X208842006Y-81985696D02*
X208746768Y-82033315D01*
X209175339Y-82604744D02*
X209080101Y-82652363D01*
X209080101Y-82652363D02*
X208842006Y-82652363D01*
X208842006Y-82652363D02*
X208746768Y-82604744D01*
X208746768Y-82604744D02*
X208699149Y-82509505D01*
X208699149Y-82509505D02*
X208699149Y-82414267D01*
X208699149Y-82414267D02*
X208746768Y-82319029D01*
X208746768Y-82319029D02*
X208842006Y-82271410D01*
X208842006Y-82271410D02*
X209080101Y-82271410D01*
X209080101Y-82271410D02*
X209175339Y-82223791D01*
X209651530Y-81985696D02*
X209651530Y-82652363D01*
X209651530Y-82080934D02*
X209699149Y-82033315D01*
X209699149Y-82033315D02*
X209794387Y-81985696D01*
X209794387Y-81985696D02*
X209937244Y-81985696D01*
X209937244Y-81985696D02*
X210032482Y-82033315D01*
X210032482Y-82033315D02*
X210080101Y-82128553D01*
X210080101Y-82128553D02*
X210080101Y-82652363D01*
X210984863Y-81985696D02*
X210984863Y-82795220D01*
X210984863Y-82795220D02*
X210937244Y-82890458D01*
X210937244Y-82890458D02*
X210889625Y-82938077D01*
X210889625Y-82938077D02*
X210794387Y-82985696D01*
X210794387Y-82985696D02*
X210651530Y-82985696D01*
X210651530Y-82985696D02*
X210556292Y-82938077D01*
X210984863Y-82604744D02*
X210889625Y-82652363D01*
X210889625Y-82652363D02*
X210699149Y-82652363D01*
X210699149Y-82652363D02*
X210603911Y-82604744D01*
X210603911Y-82604744D02*
X210556292Y-82557124D01*
X210556292Y-82557124D02*
X210508673Y-82461886D01*
X210508673Y-82461886D02*
X210508673Y-82176172D01*
X210508673Y-82176172D02*
X210556292Y-82080934D01*
X210556292Y-82080934D02*
X210603911Y-82033315D01*
X210603911Y-82033315D02*
X210699149Y-81985696D01*
X210699149Y-81985696D02*
X210889625Y-81985696D01*
X210889625Y-81985696D02*
X210984863Y-82033315D01*
D11*
X210824405Y-101304819D02*
X210824405Y-100304819D01*
X210824405Y-100304819D02*
X211062500Y-100304819D01*
X211062500Y-100304819D02*
X211205357Y-100352438D01*
X211205357Y-100352438D02*
X211300595Y-100447676D01*
X211300595Y-100447676D02*
X211348214Y-100542914D01*
X211348214Y-100542914D02*
X211395833Y-100733390D01*
X211395833Y-100733390D02*
X211395833Y-100876247D01*
X211395833Y-100876247D02*
X211348214Y-101066723D01*
X211348214Y-101066723D02*
X211300595Y-101161961D01*
X211300595Y-101161961D02*
X211205357Y-101257200D01*
X211205357Y-101257200D02*
X211062500Y-101304819D01*
X211062500Y-101304819D02*
X210824405Y-101304819D01*
X211776786Y-100400057D02*
X211824405Y-100352438D01*
X211824405Y-100352438D02*
X211919643Y-100304819D01*
X211919643Y-100304819D02*
X212157738Y-100304819D01*
X212157738Y-100304819D02*
X212252976Y-100352438D01*
X212252976Y-100352438D02*
X212300595Y-100400057D01*
X212300595Y-100400057D02*
X212348214Y-100495295D01*
X212348214Y-100495295D02*
X212348214Y-100590533D01*
X212348214Y-100590533D02*
X212300595Y-100733390D01*
X212300595Y-100733390D02*
X211729167Y-101304819D01*
X211729167Y-101304819D02*
X212348214Y-101304819D01*
D10*
X195508095Y-85177419D02*
X195508095Y-85986942D01*
X195508095Y-85986942D02*
X195555714Y-86082180D01*
X195555714Y-86082180D02*
X195603333Y-86129800D01*
X195603333Y-86129800D02*
X195698571Y-86177419D01*
X195698571Y-86177419D02*
X195889047Y-86177419D01*
X195889047Y-86177419D02*
X195984285Y-86129800D01*
X195984285Y-86129800D02*
X196031904Y-86082180D01*
X196031904Y-86082180D02*
X196079523Y-85986942D01*
X196079523Y-85986942D02*
X196079523Y-85177419D01*
X196508095Y-85272657D02*
X196555714Y-85225038D01*
X196555714Y-85225038D02*
X196650952Y-85177419D01*
X196650952Y-85177419D02*
X196889047Y-85177419D01*
X196889047Y-85177419D02*
X196984285Y-85225038D01*
X196984285Y-85225038D02*
X197031904Y-85272657D01*
X197031904Y-85272657D02*
X197079523Y-85367895D01*
X197079523Y-85367895D02*
X197079523Y-85463133D01*
X197079523Y-85463133D02*
X197031904Y-85605990D01*
X197031904Y-85605990D02*
X196460476Y-86177419D01*
X196460476Y-86177419D02*
X197079523Y-86177419D01*
D11*
X211383333Y-106274819D02*
X211050000Y-105798628D01*
X210811905Y-106274819D02*
X210811905Y-105274819D01*
X210811905Y-105274819D02*
X211192857Y-105274819D01*
X211192857Y-105274819D02*
X211288095Y-105322438D01*
X211288095Y-105322438D02*
X211335714Y-105370057D01*
X211335714Y-105370057D02*
X211383333Y-105465295D01*
X211383333Y-105465295D02*
X211383333Y-105608152D01*
X211383333Y-105608152D02*
X211335714Y-105703390D01*
X211335714Y-105703390D02*
X211288095Y-105751009D01*
X211288095Y-105751009D02*
X211192857Y-105798628D01*
X211192857Y-105798628D02*
X210811905Y-105798628D01*
X212240476Y-105608152D02*
X212240476Y-106274819D01*
X212002381Y-105227200D02*
X211764286Y-105941485D01*
X211764286Y-105941485D02*
X212383333Y-105941485D01*
X181916667Y-111407200D02*
X182059524Y-111454819D01*
X182059524Y-111454819D02*
X182297619Y-111454819D01*
X182297619Y-111454819D02*
X182392857Y-111407200D01*
X182392857Y-111407200D02*
X182440476Y-111359580D01*
X182440476Y-111359580D02*
X182488095Y-111264342D01*
X182488095Y-111264342D02*
X182488095Y-111169104D01*
X182488095Y-111169104D02*
X182440476Y-111073866D01*
X182440476Y-111073866D02*
X182392857Y-111026247D01*
X182392857Y-111026247D02*
X182297619Y-110978628D01*
X182297619Y-110978628D02*
X182107143Y-110931009D01*
X182107143Y-110931009D02*
X182011905Y-110883390D01*
X182011905Y-110883390D02*
X181964286Y-110835771D01*
X181964286Y-110835771D02*
X181916667Y-110740533D01*
X181916667Y-110740533D02*
X181916667Y-110645295D01*
X181916667Y-110645295D02*
X181964286Y-110550057D01*
X181964286Y-110550057D02*
X182011905Y-110502438D01*
X182011905Y-110502438D02*
X182107143Y-110454819D01*
X182107143Y-110454819D02*
X182345238Y-110454819D01*
X182345238Y-110454819D02*
X182488095Y-110502438D01*
X182821429Y-110454819D02*
X183059524Y-111454819D01*
X183059524Y-111454819D02*
X183250000Y-110740533D01*
X183250000Y-110740533D02*
X183440476Y-111454819D01*
X183440476Y-111454819D02*
X183678572Y-110454819D01*
X184011905Y-110550057D02*
X184059524Y-110502438D01*
X184059524Y-110502438D02*
X184154762Y-110454819D01*
X184154762Y-110454819D02*
X184392857Y-110454819D01*
X184392857Y-110454819D02*
X184488095Y-110502438D01*
X184488095Y-110502438D02*
X184535714Y-110550057D01*
X184535714Y-110550057D02*
X184583333Y-110645295D01*
X184583333Y-110645295D02*
X184583333Y-110740533D01*
X184583333Y-110740533D02*
X184535714Y-110883390D01*
X184535714Y-110883390D02*
X183964286Y-111454819D01*
X183964286Y-111454819D02*
X184583333Y-111454819D01*
X211383333Y-91179580D02*
X211335714Y-91227200D01*
X211335714Y-91227200D02*
X211192857Y-91274819D01*
X211192857Y-91274819D02*
X211097619Y-91274819D01*
X211097619Y-91274819D02*
X210954762Y-91227200D01*
X210954762Y-91227200D02*
X210859524Y-91131961D01*
X210859524Y-91131961D02*
X210811905Y-91036723D01*
X210811905Y-91036723D02*
X210764286Y-90846247D01*
X210764286Y-90846247D02*
X210764286Y-90703390D01*
X210764286Y-90703390D02*
X210811905Y-90512914D01*
X210811905Y-90512914D02*
X210859524Y-90417676D01*
X210859524Y-90417676D02*
X210954762Y-90322438D01*
X210954762Y-90322438D02*
X211097619Y-90274819D01*
X211097619Y-90274819D02*
X211192857Y-90274819D01*
X211192857Y-90274819D02*
X211335714Y-90322438D01*
X211335714Y-90322438D02*
X211383333Y-90370057D01*
X211764286Y-90370057D02*
X211811905Y-90322438D01*
X211811905Y-90322438D02*
X211907143Y-90274819D01*
X211907143Y-90274819D02*
X212145238Y-90274819D01*
X212145238Y-90274819D02*
X212240476Y-90322438D01*
X212240476Y-90322438D02*
X212288095Y-90370057D01*
X212288095Y-90370057D02*
X212335714Y-90465295D01*
X212335714Y-90465295D02*
X212335714Y-90560533D01*
X212335714Y-90560533D02*
X212288095Y-90703390D01*
X212288095Y-90703390D02*
X211716667Y-91274819D01*
X211716667Y-91274819D02*
X212335714Y-91274819D01*
X211383333Y-96179580D02*
X211335714Y-96227200D01*
X211335714Y-96227200D02*
X211192857Y-96274819D01*
X211192857Y-96274819D02*
X211097619Y-96274819D01*
X211097619Y-96274819D02*
X210954762Y-96227200D01*
X210954762Y-96227200D02*
X210859524Y-96131961D01*
X210859524Y-96131961D02*
X210811905Y-96036723D01*
X210811905Y-96036723D02*
X210764286Y-95846247D01*
X210764286Y-95846247D02*
X210764286Y-95703390D01*
X210764286Y-95703390D02*
X210811905Y-95512914D01*
X210811905Y-95512914D02*
X210859524Y-95417676D01*
X210859524Y-95417676D02*
X210954762Y-95322438D01*
X210954762Y-95322438D02*
X211097619Y-95274819D01*
X211097619Y-95274819D02*
X211192857Y-95274819D01*
X211192857Y-95274819D02*
X211335714Y-95322438D01*
X211335714Y-95322438D02*
X211383333Y-95370057D01*
X212240476Y-95608152D02*
X212240476Y-96274819D01*
X212002381Y-95227200D02*
X211764286Y-95941485D01*
X211764286Y-95941485D02*
X212383333Y-95941485D01*
D10*
X161690476Y-80457419D02*
X161690476Y-79457419D01*
X161690476Y-79457419D02*
X162023809Y-80171704D01*
X162023809Y-80171704D02*
X162357142Y-79457419D01*
X162357142Y-79457419D02*
X162357142Y-80457419D01*
X163357142Y-80457419D02*
X162785714Y-80457419D01*
X163071428Y-80457419D02*
X163071428Y-79457419D01*
X163071428Y-79457419D02*
X162976190Y-79600276D01*
X162976190Y-79600276D02*
X162880952Y-79695514D01*
X162880952Y-79695514D02*
X162785714Y-79743133D01*
D12*
%TO.C,D2*%
X209877500Y-101540000D02*
X209877500Y-103460000D01*
X209877500Y-103460000D02*
X212562500Y-103460000D01*
X212562500Y-101540000D02*
X209877500Y-101540000D01*
D10*
%TO.C,U2*%
X191190000Y-89760000D02*
X191190000Y-93570000D01*
X191190000Y-93570000D02*
X198810000Y-93570000D01*
X196016000Y-116176000D02*
X199064000Y-116176000D01*
X196016000Y-119224000D02*
X196016000Y-116176000D01*
X196524000Y-119732000D02*
X198556000Y-119732000D01*
X197032000Y-120240000D02*
X198048000Y-120240000D01*
X198810000Y-93570000D02*
X198810000Y-89760000D01*
X199064000Y-116176000D02*
X199064000Y-119224000D01*
X199064000Y-119224000D02*
X196016000Y-119224000D01*
D12*
%TO.C,R4*%
X211288748Y-106765000D02*
X211811252Y-106765000D01*
X211288748Y-108235000D02*
X211811252Y-108235000D01*
%TO.C,SW2*%
X179750000Y-114500000D02*
X179750000Y-116000000D01*
X181000000Y-118500000D02*
X185500000Y-118500000D01*
X185500000Y-112000000D02*
X181000000Y-112000000D01*
X186750000Y-116000000D02*
X186750000Y-114500000D01*
%TO.C,C2*%
X211288748Y-91765000D02*
X211811252Y-91765000D01*
X211288748Y-93235000D02*
X211811252Y-93235000D01*
%TO.C,C4*%
X211288748Y-96765000D02*
X211811252Y-96765000D01*
X211288748Y-98235000D02*
X211811252Y-98235000D01*
%TD*%
M02*
