M48
; DRILL file {KiCad 9.0.6} date 2026-02-16T21:28:21-0800
; FORMAT={-:-/ absolute / metric / decimal}
; #@! TF.CreationDate,2026-02-16T21:28:21-08:00
; #@! TF.GenerationSoftware,Kicad,Pcbnew,9.0.6
; #@! TF.FileFunction,Plated,1,2,PTH
FMAT,2
METRIC
; #@! TA.AperFunction,Plated,PTH,ComponentDrill
T1C0.850
; #@! TA.AperFunction,Plated,PTH,ComponentDrill
T2C1.016
; #@! TA.AperFunction,Plated,PTH,ComponentDrill
T3C1.100
%
G90
G05
T1
X157.14Y-92.38
X157.14Y-100.0
X180.0Y-92.38
X180.0Y-100.0
T2
X187.38Y-92.3
X187.38Y-94.84
X187.38Y-97.38
X187.38Y-99.92
X187.38Y-102.46
X187.38Y-105.0
X187.38Y-107.54
X192.46Y-117.7
X197.54Y-117.7
X202.62Y-92.3
X202.62Y-94.84
X202.62Y-97.38
X202.62Y-99.92
X202.62Y-102.46
X202.62Y-105.0
X202.62Y-107.54
T3
X180.0Y-113.0
X180.0Y-117.5
X186.5Y-113.0
X186.5Y-117.5
M30
