%TF.GenerationSoftware,KiCad,Pcbnew,9.0.6*%
%TF.CreationDate,2026-02-16T21:28:26-08:00*%
%TF.ProjectId,schematic,73636865-6d61-4746-9963-2e6b69636164,rev?*%
%TF.SameCoordinates,Original*%
%TF.FileFunction,Copper,L1,Top*%
%TF.FilePolarity,Positive*%
%FSLAX46Y46*%
G04 Gerber Fmt 4.6, Leading zero omitted, Abs format (unit mm)*
G04 Created by KiCad (PCBNEW 9.0.6) date 2026-02-16 21:28:26*
%MOMM*%
%LPD*%
G01*
G04 APERTURE LIST*
G04 Aperture macros list*
%AMRoundRect*
0 Rectangle with rounded corners*
0 $1 Rounding radius*
0 $2 $3 $4 $5 $6 $7 $8 $9 X,Y pos of 4 corners*
0 Add a 4 corners polygon primitive as box body*
4,1,4,$2,$3,$4,$5,$6,$7,$8,$9,$2,$3,0*
0 Add four circle primitives for the rounded corners*
1,1,$1+$1,$2,$3*
1,1,$1+$1,$4,$5*
1,1,$1+$1,$6,$7*
1,1,$1+$1,$8,$9*
0 Add four rect primitives between the rounded corners*
20,1,$1+$1,$2,$3,$4,$5,0*
20,1,$1+$1,$4,$5,$6,$7,0*
20,1,$1+$1,$6,$7,$8,$9,0*
20,1,$1+$1,$8,$9,$2,$3,0*%
G04 Aperture macros list end*
%TA.AperFunction,SMDPad,CuDef*%
%ADD10RoundRect,0.243750X-0.243750X-0.456250X0.243750X-0.456250X0.243750X0.456250X-0.243750X0.456250X0*%
%TD*%
%TA.AperFunction,ComponentPad*%
%ADD11O,3.556000X1.778000*%
%TD*%
%TA.AperFunction,ComponentPad*%
%ADD12C,1.905000*%
%TD*%
%TA.AperFunction,SMDPad,CuDef*%
%ADD13RoundRect,0.250000X-0.250000X-0.475000X0.250000X-0.475000X0.250000X0.475000X-0.250000X0.475000X0*%
%TD*%
%TA.AperFunction,ComponentPad*%
%ADD14C,2.000000*%
%TD*%
%TA.AperFunction,ComponentPad*%
%ADD15C,1.700000*%
%TD*%
%TA.AperFunction,Conductor*%
%ADD16C,0.200000*%
%TD*%
G04 APERTURE END LIST*
D10*
%TO.P,D2,1,K*%
%TO.N,Net-(D2-K)*%
X210625000Y-102500000D03*
%TO.P,D2,2,A*%
%TO.N,Net-(D2-A)*%
X212500000Y-102500000D03*
%TD*%
D11*
%TO.P,U2,1,GPIO1_A0_D0*%
%TO.N,Net-(U2-GPIO1_A0_D0)*%
X186618000Y-92300000D03*
%TO.P,U2,2,GPIO2_A1_D1*%
%TO.N,Net-(U2-GPIO2_A1_D1)*%
X186618000Y-94840000D03*
%TO.P,U2,3,GPIO3_A2_D2*%
%TO.N,Net-(U2-GPIO3_A2_D2)*%
X186618000Y-97380000D03*
%TO.P,U2,4,GPIO4_A3_D3*%
%TO.N,Net-(M1--)*%
X186618000Y-99920000D03*
%TO.P,U2,5,GPIO4_A3_D3_SDA*%
%TO.N,Net-(SW2-B)*%
X186618000Y-102460000D03*
%TO.P,U2,6,GPIO6_A5_D5_SCL*%
%TO.N,unconnected-(U2-GPIO6_A5_D5_SCL-Pad6)*%
X186618000Y-105000000D03*
%TO.P,U2,7,GPIO43_TX_D6*%
%TO.N,unconnected-(U2-GPIO43_TX_D6-Pad7)*%
X186618000Y-107540000D03*
%TO.P,U2,8,GPIO44_D7_RX*%
%TO.N,unconnected-(U2-GPIO44_D7_RX-Pad8)*%
X203382000Y-107540000D03*
%TO.P,U2,9,GPIO7_A8_D8_SCK*%
%TO.N,unconnected-(U2-GPIO7_A8_D8_SCK-Pad9)*%
X203382000Y-105000000D03*
%TO.P,U2,10,GPIO8_A9_D9_CIPO*%
%TO.N,unconnected-(U2-GPIO8_A9_D9_CIPO-Pad10)*%
X203382000Y-102460000D03*
%TO.P,U2,11,GPIO9_A10_D10_COPI*%
%TO.N,Net-(D2-A)*%
X203382000Y-99920000D03*
%TO.P,U2,12,3V3*%
%TO.N,display_3V3*%
X203382000Y-97380000D03*
%TO.P,U2,13,GND*%
%TO.N,display_GND*%
X203382000Y-94840000D03*
%TO.P,U2,14,5V*%
%TO.N,unconnected-(U2-5V-Pad14)*%
X203382000Y-92300000D03*
D12*
%TO.P,U2,15,+BATT*%
%TO.N,unconnected-(U2-+BATT-Pad15)*%
X192460000Y-117700000D03*
%TO.P,U2,16,-BATT*%
%TO.N,unconnected-(U2--BATT-Pad16)*%
X197540000Y-117700000D03*
%TD*%
D13*
%TO.P,R4,1*%
%TO.N,Net-(D2-K)*%
X210600000Y-107500000D03*
%TO.P,R4,2*%
%TO.N,display_GND*%
X212500000Y-107500000D03*
%TD*%
D14*
%TO.P,SW2,1,A*%
%TO.N,display_GND*%
X180000000Y-113000000D03*
X186500000Y-113000000D03*
%TO.P,SW2,2,B*%
%TO.N,Net-(SW2-B)*%
X180000000Y-117500000D03*
X186500000Y-117500000D03*
%TD*%
D13*
%TO.P,C2,1*%
%TO.N,display_3V3*%
X210600000Y-92500000D03*
%TO.P,C2,2*%
%TO.N,display_GND*%
X212500000Y-92500000D03*
%TD*%
%TO.P,C4,1*%
%TO.N,display_3V3*%
X210600000Y-97500000D03*
%TO.P,C4,2*%
%TO.N,display_GND*%
X212500000Y-97500000D03*
%TD*%
D15*
%TO.P,M1,1*%
%TO.N,Net-(U2-GPIO1_A0_D0)*%
X180000000Y-92380000D03*
%TO.P,M1,2,-*%
%TO.N,Net-(M1--)*%
X180000000Y-100000000D03*
%TO.P,M1,3*%
%TO.N,Net-(U2-GPIO3_A2_D2)*%
X157140000Y-100000000D03*
%TO.P,M1,4*%
%TO.N,Net-(U2-GPIO2_A1_D1)*%
X157140000Y-92380000D03*
%TD*%
D16*
%TO.N,display_3V3*%
X202740000Y-97500000D02*
X202620000Y-97380000D01*
X210600000Y-92500000D02*
X210600000Y-97500000D01*
X210600000Y-97500000D02*
X202740000Y-97500000D01*
%TO.N,display_GND*%
X186500000Y-113000000D02*
X186500000Y-110960000D01*
X206779914Y-91474000D02*
X203413914Y-94840000D01*
X213288500Y-98288500D02*
X213288500Y-106711500D01*
X212500000Y-92500000D02*
X212500000Y-97500000D01*
X212500000Y-92500000D02*
X211474000Y-91474000D01*
X186500000Y-110960000D02*
X202620000Y-94840000D01*
X180000000Y-113000000D02*
X186500000Y-113000000D01*
X213288500Y-106711500D02*
X212500000Y-107500000D01*
X203413914Y-94840000D02*
X202620000Y-94840000D01*
X211474000Y-91474000D02*
X206779914Y-91474000D01*
X212500000Y-97500000D02*
X213288500Y-98288500D01*
%TO.N,Net-(M1--)*%
X180000000Y-100000000D02*
X187300000Y-100000000D01*
X187300000Y-100000000D02*
X187380000Y-99920000D01*
%TO.N,Net-(U2-GPIO3_A2_D2)*%
X158410000Y-98730000D02*
X186030000Y-98730000D01*
X186030000Y-98730000D02*
X187380000Y-97380000D01*
X157140000Y-100000000D02*
X158410000Y-98730000D01*
%TO.N,Net-(U2-GPIO1_A0_D0)*%
X180000000Y-92380000D02*
X187300000Y-92380000D01*
X187300000Y-92380000D02*
X187380000Y-92300000D01*
%TO.N,Net-(SW2-B)*%
X178699000Y-116199000D02*
X178699000Y-110347086D01*
X186586086Y-102460000D02*
X187380000Y-102460000D01*
X186500000Y-117500000D02*
X180000000Y-117500000D01*
X178699000Y-110347086D02*
X186586086Y-102460000D01*
X180000000Y-117500000D02*
X178699000Y-116199000D01*
%TO.N,Net-(D2-A)*%
X209920000Y-99920000D02*
X212500000Y-102500000D01*
X202620000Y-99920000D02*
X209920000Y-99920000D01*
%TO.N,Net-(D2-K)*%
X210625000Y-107475000D02*
X210600000Y-107500000D01*
X210625000Y-102500000D02*
X210625000Y-107475000D01*
%TO.N,Net-(U2-GPIO2_A1_D1)*%
X157140000Y-92380000D02*
X158291000Y-93531000D01*
X186071000Y-93531000D02*
X187380000Y-94840000D01*
X158291000Y-93531000D02*
X186071000Y-93531000D01*
%TD*%
%TA.AperFunction,Conductor*%
%TO.N,display_GND*%
G36*
X210002702Y-78000617D02*
G01*
X210386771Y-78017386D01*
X210397506Y-78018326D01*
X210775971Y-78068152D01*
X210786597Y-78070025D01*
X211159284Y-78152648D01*
X211169710Y-78155442D01*
X211533765Y-78270227D01*
X211543911Y-78273920D01*
X211896578Y-78420000D01*
X211906369Y-78424566D01*
X212244942Y-78600816D01*
X212254310Y-78606224D01*
X212576244Y-78811318D01*
X212585105Y-78817523D01*
X212887930Y-79049889D01*
X212896217Y-79056843D01*
X213177635Y-79314715D01*
X213185284Y-79322364D01*
X213443156Y-79603782D01*
X213450110Y-79612069D01*
X213682476Y-79914894D01*
X213688681Y-79923755D01*
X213893775Y-80245689D01*
X213899183Y-80255057D01*
X214075430Y-80593623D01*
X214080002Y-80603427D01*
X214226075Y-80956078D01*
X214229775Y-80966244D01*
X214344554Y-81330278D01*
X214347354Y-81340727D01*
X214429971Y-81713389D01*
X214431849Y-81724042D01*
X214481671Y-82102473D01*
X214482614Y-82113249D01*
X214499382Y-82497297D01*
X214499500Y-82502706D01*
X214499500Y-117497293D01*
X214499382Y-117502702D01*
X214482614Y-117886750D01*
X214481671Y-117897526D01*
X214431849Y-118275957D01*
X214429971Y-118286610D01*
X214347354Y-118659272D01*
X214344554Y-118669721D01*
X214229775Y-119033755D01*
X214226075Y-119043921D01*
X214080002Y-119396572D01*
X214075430Y-119406376D01*
X213899183Y-119744942D01*
X213893775Y-119754310D01*
X213688681Y-120076244D01*
X213682476Y-120085105D01*
X213450110Y-120387930D01*
X213443156Y-120396217D01*
X213185284Y-120677635D01*
X213177635Y-120685284D01*
X212896217Y-120943156D01*
X212887930Y-120950110D01*
X212585105Y-121182476D01*
X212576244Y-121188681D01*
X212254310Y-121393775D01*
X212244942Y-121399183D01*
X211906376Y-121575430D01*
X211896572Y-121580002D01*
X211543921Y-121726075D01*
X211533755Y-121729775D01*
X211169721Y-121844554D01*
X211159272Y-121847354D01*
X210786610Y-121929971D01*
X210775957Y-121931849D01*
X210397526Y-121981671D01*
X210386750Y-121982614D01*
X210002703Y-121999382D01*
X209997294Y-121999500D01*
X157502706Y-121999500D01*
X157497297Y-121999382D01*
X157113249Y-121982614D01*
X157102473Y-121981671D01*
X156724042Y-121931849D01*
X156713389Y-121929971D01*
X156340727Y-121847354D01*
X156330278Y-121844554D01*
X155966244Y-121729775D01*
X155956078Y-121726075D01*
X155603427Y-121580002D01*
X155593623Y-121575430D01*
X155255057Y-121399183D01*
X155245689Y-121393775D01*
X154923755Y-121188681D01*
X154914894Y-121182476D01*
X154612069Y-120950110D01*
X154603782Y-120943156D01*
X154322364Y-120685284D01*
X154314715Y-120677635D01*
X154056843Y-120396217D01*
X154049889Y-120387930D01*
X153817523Y-120085105D01*
X153811318Y-120076244D01*
X153606224Y-119754310D01*
X153600816Y-119744942D01*
X153424569Y-119406376D01*
X153419997Y-119396572D01*
X153319106Y-119153000D01*
X153273920Y-119043911D01*
X153270224Y-119033755D01*
X153259739Y-119000500D01*
X153155442Y-118669710D01*
X153152648Y-118659284D01*
X153070025Y-118286597D01*
X153068152Y-118275971D01*
X153018326Y-117897506D01*
X153017386Y-117886771D01*
X153000618Y-117502702D01*
X153000500Y-117497293D01*
X153000500Y-105071995D01*
X157769500Y-105071995D01*
X157769500Y-105308004D01*
X157769501Y-105308020D01*
X157800306Y-105542010D01*
X157861394Y-105769993D01*
X157951714Y-105988045D01*
X157951719Y-105988056D01*
X157993171Y-106059852D01*
X158069727Y-106192450D01*
X158069729Y-106192453D01*
X158069730Y-106192454D01*
X158213406Y-106379697D01*
X158213412Y-106379704D01*
X158380295Y-106546587D01*
X158380302Y-106546593D01*
X158400802Y-106562323D01*
X158567550Y-106690273D01*
X158698918Y-106766118D01*
X158771943Y-106808280D01*
X158771948Y-106808282D01*
X158771951Y-106808284D01*
X158990007Y-106898606D01*
X159217986Y-106959693D01*
X159451989Y-106990500D01*
X159451996Y-106990500D01*
X159688004Y-106990500D01*
X159688011Y-106990500D01*
X159922014Y-106959693D01*
X160149993Y-106898606D01*
X160368049Y-106808284D01*
X160572450Y-106690273D01*
X160759699Y-106546592D01*
X160926592Y-106379699D01*
X161070273Y-106192450D01*
X161188284Y-105988049D01*
X161278606Y-105769993D01*
X161339693Y-105542014D01*
X161370500Y-105308011D01*
X161370500Y-105071989D01*
X161339693Y-104837986D01*
X161278606Y-104610007D01*
X161188284Y-104391951D01*
X161188282Y-104391948D01*
X161188280Y-104391943D01*
X161146118Y-104318918D01*
X161070273Y-104187550D01*
X160926592Y-104000301D01*
X160926587Y-104000295D01*
X160759704Y-103833412D01*
X160759697Y-103833406D01*
X160572454Y-103689730D01*
X160572453Y-103689729D01*
X160572450Y-103689727D01*
X160478287Y-103635362D01*
X160368056Y-103571719D01*
X160368045Y-103571714D01*
X160149993Y-103481394D01*
X159924611Y-103421003D01*
X159922014Y-103420307D01*
X159922013Y-103420306D01*
X159922010Y-103420306D01*
X159688020Y-103389501D01*
X159688017Y-103389500D01*
X159688011Y-103389500D01*
X159451989Y-103389500D01*
X159451983Y-103389500D01*
X159451979Y-103389501D01*
X159217989Y-103420306D01*
X158990006Y-103481394D01*
X158771954Y-103571714D01*
X158771943Y-103571719D01*
X158567545Y-103689730D01*
X158380302Y-103833406D01*
X158380295Y-103833412D01*
X158213412Y-104000295D01*
X158213406Y-104000302D01*
X158069730Y-104187545D01*
X157951719Y-104391943D01*
X157951714Y-104391954D01*
X157861394Y-104610006D01*
X157800306Y-104837989D01*
X157769501Y-105071979D01*
X157769500Y-105071995D01*
X153000500Y-105071995D01*
X153000500Y-96075837D01*
X153619500Y-96075837D01*
X153619500Y-96304162D01*
X153655215Y-96529660D01*
X153725770Y-96746803D01*
X153793544Y-96879815D01*
X153829421Y-96950228D01*
X153963621Y-97134937D01*
X154125063Y-97296379D01*
X154309772Y-97430579D01*
X154405884Y-97479550D01*
X154513196Y-97534229D01*
X154513198Y-97534229D01*
X154513201Y-97534231D01*
X154629592Y-97572049D01*
X154730339Y-97604784D01*
X154955838Y-97640500D01*
X154955843Y-97640500D01*
X155184162Y-97640500D01*
X155409660Y-97604784D01*
X155626799Y-97534231D01*
X155830228Y-97430579D01*
X156014937Y-97296379D01*
X156176379Y-97134937D01*
X156310579Y-96950228D01*
X156414231Y-96746799D01*
X156484784Y-96529660D01*
X156495241Y-96463638D01*
X156520500Y-96304162D01*
X156520500Y-96075837D01*
X180619500Y-96075837D01*
X180619500Y-96304162D01*
X180655215Y-96529660D01*
X180725770Y-96746803D01*
X180793544Y-96879815D01*
X180829421Y-96950228D01*
X180963621Y-97134937D01*
X181125063Y-97296379D01*
X181309772Y-97430579D01*
X181405884Y-97479550D01*
X181513196Y-97534229D01*
X181513198Y-97534229D01*
X181513201Y-97534231D01*
X181629592Y-97572049D01*
X181730339Y-97604784D01*
X181955838Y-97640500D01*
X181955843Y-97640500D01*
X182184162Y-97640500D01*
X182409660Y-97604784D01*
X182626799Y-97534231D01*
X182830228Y-97430579D01*
X183014937Y-97296379D01*
X183176379Y-97134937D01*
X183310579Y-96950228D01*
X183414231Y-96746799D01*
X183484784Y-96529660D01*
X183495241Y-96463638D01*
X183520500Y-96304162D01*
X183520500Y-96075837D01*
X183484784Y-95850339D01*
X183414229Y-95633196D01*
X183310578Y-95429771D01*
X183176379Y-95245063D01*
X183014937Y-95083621D01*
X182830228Y-94949421D01*
X182830100Y-94949356D01*
X182626803Y-94845770D01*
X182409660Y-94775215D01*
X182184162Y-94739500D01*
X182184157Y-94739500D01*
X181955843Y-94739500D01*
X181955838Y-94739500D01*
X181730339Y-94775215D01*
X181513196Y-94845770D01*
X181309771Y-94949421D01*
X181125061Y-95083622D01*
X180963622Y-95245061D01*
X180829421Y-95429771D01*
X180725770Y-95633196D01*
X180655215Y-95850339D01*
X180619500Y-96075837D01*
X156520500Y-96075837D01*
X156484784Y-95850339D01*
X156414229Y-95633196D01*
X156310578Y-95429771D01*
X156176379Y-95245063D01*
X156014937Y-95083621D01*
X155830228Y-94949421D01*
X155830100Y-94949356D01*
X155626803Y-94845770D01*
X155409660Y-94775215D01*
X155184162Y-94739500D01*
X155184157Y-94739500D01*
X154955843Y-94739500D01*
X154955838Y-94739500D01*
X154730339Y-94775215D01*
X154513196Y-94845770D01*
X154309771Y-94949421D01*
X154125061Y-95083622D01*
X153963622Y-95245061D01*
X153829421Y-95429771D01*
X153725770Y-95633196D01*
X153655215Y-95850339D01*
X153619500Y-96075837D01*
X153000500Y-96075837D01*
X153000500Y-92273713D01*
X155789500Y-92273713D01*
X155789500Y-92486286D01*
X155822753Y-92696239D01*
X155822753Y-92696241D01*
X155822754Y-92696243D01*
X155888262Y-92897856D01*
X155888444Y-92898414D01*
X155984951Y-93087820D01*
X156109890Y-93259786D01*
X156260213Y-93410109D01*
X156432179Y-93535048D01*
X156432181Y-93535049D01*
X156432184Y-93535051D01*
X156621588Y-93631557D01*
X156823757Y-93697246D01*
X157033713Y-93730500D01*
X157033714Y-93730500D01*
X157246286Y-93730500D01*
X157246287Y-93730500D01*
X157456243Y-93697246D01*
X157498523Y-93683507D01*
X157568362Y-93681511D01*
X157624522Y-93713757D01*
X157806139Y-93895374D01*
X157806149Y-93895385D01*
X157810479Y-93899715D01*
X157810480Y-93899716D01*
X157922284Y-94011520D01*
X158000447Y-94056647D01*
X158059215Y-94090577D01*
X158211943Y-94131501D01*
X158211946Y-94131501D01*
X158377654Y-94131501D01*
X158377670Y-94131500D01*
X184328255Y-94131500D01*
X184395294Y-94151185D01*
X184441049Y-94203989D01*
X184450993Y-94273147D01*
X184442818Y-94302947D01*
X184441300Y-94306610D01*
X184373714Y-94514623D01*
X184339500Y-94730638D01*
X184339500Y-94949361D01*
X184373714Y-95165376D01*
X184441297Y-95373380D01*
X184441298Y-95373383D01*
X184508782Y-95505825D01*
X184540461Y-95567998D01*
X184540595Y-95568260D01*
X184669142Y-95745193D01*
X184823806Y-95899857D01*
X184974969Y-96009682D01*
X185017635Y-96065011D01*
X185023614Y-96134625D01*
X184991009Y-96196420D01*
X184974969Y-96210318D01*
X184823806Y-96320142D01*
X184669142Y-96474806D01*
X184540595Y-96651739D01*
X184441298Y-96846616D01*
X184441297Y-96846619D01*
X184373714Y-97054623D01*
X184339500Y-97270638D01*
X184339500Y-97489361D01*
X184373714Y-97705376D01*
X184441297Y-97913380D01*
X184441299Y-97913383D01*
X184459551Y-97949205D01*
X184472447Y-98017875D01*
X184446171Y-98082615D01*
X184389064Y-98122872D01*
X184349066Y-98129500D01*
X158489057Y-98129500D01*
X158330942Y-98129500D01*
X158178215Y-98170423D01*
X158178214Y-98170423D01*
X158178212Y-98170424D01*
X158178209Y-98170425D01*
X158128096Y-98199359D01*
X158128095Y-98199360D01*
X158084689Y-98224420D01*
X158041285Y-98249479D01*
X158041282Y-98249481D01*
X157929478Y-98361286D01*
X157624522Y-98666241D01*
X157563199Y-98699726D01*
X157498523Y-98696491D01*
X157456245Y-98682754D01*
X157311394Y-98659812D01*
X157246287Y-98649500D01*
X157033713Y-98649500D01*
X156985042Y-98657208D01*
X156823760Y-98682753D01*
X156621585Y-98748444D01*
X156432179Y-98844951D01*
X156260213Y-98969890D01*
X156109890Y-99120213D01*
X155984951Y-99292179D01*
X155888444Y-99481585D01*
X155822753Y-99683760D01*
X155789500Y-99893713D01*
X155789500Y-100106286D01*
X155822753Y-100316239D01*
X155888444Y-100518414D01*
X155984951Y-100707820D01*
X156109890Y-100879786D01*
X156260213Y-101030109D01*
X156432179Y-101155048D01*
X156432181Y-101155049D01*
X156432184Y-101155051D01*
X156621588Y-101251557D01*
X156823757Y-101317246D01*
X157033713Y-101350500D01*
X157033714Y-101350500D01*
X157246286Y-101350500D01*
X157246287Y-101350500D01*
X157456243Y-101317246D01*
X157658412Y-101251557D01*
X157847816Y-101155051D01*
X157909443Y-101110277D01*
X158019786Y-101030109D01*
X158019788Y-101030106D01*
X158019792Y-101030104D01*
X158170104Y-100879792D01*
X158170106Y-100879788D01*
X158170109Y-100879786D01*
X158295048Y-100707820D01*
X158295047Y-100707820D01*
X158295051Y-100707816D01*
X158391557Y-100518412D01*
X158457246Y-100316243D01*
X158490500Y-100106287D01*
X158490500Y-99893713D01*
X158457246Y-99683757D01*
X158443506Y-99641473D01*
X158443072Y-99626261D01*
X158437754Y-99612002D01*
X158442095Y-99592046D01*
X158441512Y-99571635D01*
X158449599Y-99557549D01*
X158452606Y-99543729D01*
X158473750Y-99515483D01*
X158622417Y-99366816D01*
X158683740Y-99333334D01*
X158710097Y-99330500D01*
X178626863Y-99330500D01*
X178693902Y-99350185D01*
X178739657Y-99402989D01*
X178749601Y-99472147D01*
X178744794Y-99492818D01*
X178682753Y-99683759D01*
X178649500Y-99893713D01*
X178649500Y-100106286D01*
X178682753Y-100316239D01*
X178748444Y-100518414D01*
X178844951Y-100707820D01*
X178969890Y-100879786D01*
X179120213Y-101030109D01*
X179292179Y-101155048D01*
X179292181Y-101155049D01*
X179292184Y-101155051D01*
X179481588Y-101251557D01*
X179683757Y-101317246D01*
X179893713Y-101350500D01*
X179893714Y-101350500D01*
X180106286Y-101350500D01*
X180106287Y-101350500D01*
X180316243Y-101317246D01*
X180518412Y-101251557D01*
X180707816Y-101155051D01*
X180769443Y-101110277D01*
X180879786Y-101030109D01*
X180879788Y-101030106D01*
X180879792Y-101030104D01*
X181030104Y-100879792D01*
X181030106Y-100879788D01*
X181030109Y-100879786D01*
X181088661Y-100799193D01*
X181155051Y-100707816D01*
X181155349Y-100707230D01*
X181175235Y-100668205D01*
X181223209Y-100617409D01*
X181285719Y-100600500D01*
X184442714Y-100600500D01*
X184509753Y-100620185D01*
X184543032Y-100651615D01*
X184669142Y-100825193D01*
X184823806Y-100979857D01*
X184974969Y-101089682D01*
X185017635Y-101145011D01*
X185023614Y-101214625D01*
X184991009Y-101276420D01*
X184974969Y-101290318D01*
X184823806Y-101400142D01*
X184669142Y-101554806D01*
X184540595Y-101731739D01*
X184441298Y-101926616D01*
X184441297Y-101926619D01*
X184373714Y-102134623D01*
X184339500Y-102350638D01*
X184339500Y-102569361D01*
X184373714Y-102785376D01*
X184441297Y-102993380D01*
X184441298Y-102993383D01*
X184540595Y-103188260D01*
X184669141Y-103365191D01*
X184669558Y-103365679D01*
X184669658Y-103365902D01*
X184672011Y-103369141D01*
X184671330Y-103369635D01*
X184698132Y-103429439D01*
X184687699Y-103498525D01*
X184662953Y-103533897D01*
X178218481Y-109978368D01*
X178218479Y-109978371D01*
X178168361Y-110065180D01*
X178168359Y-110065182D01*
X178139425Y-110115295D01*
X178139424Y-110115296D01*
X178139423Y-110115301D01*
X178098499Y-110268029D01*
X178098499Y-110268031D01*
X178098499Y-110436132D01*
X178098500Y-110436145D01*
X178098500Y-116112330D01*
X178098499Y-116112348D01*
X178098499Y-116278054D01*
X178098498Y-116278054D01*
X178098499Y-116278057D01*
X178139423Y-116430785D01*
X178139424Y-116430786D01*
X178154721Y-116457281D01*
X178154721Y-116457284D01*
X178154723Y-116457284D01*
X178192368Y-116522488D01*
X178218479Y-116567714D01*
X178218481Y-116567717D01*
X178337349Y-116686585D01*
X178337355Y-116686590D01*
X178547200Y-116896435D01*
X178580685Y-116957758D01*
X178577450Y-117022433D01*
X178536447Y-117148628D01*
X178499500Y-117381902D01*
X178499500Y-117618097D01*
X178536446Y-117851368D01*
X178609433Y-118075996D01*
X178662912Y-118180953D01*
X178716657Y-118286433D01*
X178855483Y-118477510D01*
X179022490Y-118644517D01*
X179213567Y-118783343D01*
X179312991Y-118834002D01*
X179424003Y-118890566D01*
X179424005Y-118890566D01*
X179424008Y-118890568D01*
X179544412Y-118929689D01*
X179648631Y-118963553D01*
X179881903Y-119000500D01*
X179881908Y-119000500D01*
X180118097Y-119000500D01*
X180351368Y-118963553D01*
X180415497Y-118942716D01*
X180575992Y-118890568D01*
X180786433Y-118783343D01*
X180977510Y-118644517D01*
X181144517Y-118477510D01*
X181283343Y-118286433D01*
X181343583Y-118168204D01*
X181391558Y-118117409D01*
X181454068Y-118100500D01*
X185045932Y-118100500D01*
X185112971Y-118120185D01*
X185156416Y-118168203D01*
X185216657Y-118286433D01*
X185355483Y-118477510D01*
X185522490Y-118644517D01*
X185713567Y-118783343D01*
X185812991Y-118834002D01*
X185924003Y-118890566D01*
X185924005Y-118890566D01*
X185924008Y-118890568D01*
X186044412Y-118929689D01*
X186148631Y-118963553D01*
X186381903Y-119000500D01*
X186381908Y-119000500D01*
X186618097Y-119000500D01*
X186851368Y-118963553D01*
X186915497Y-118942716D01*
X187075992Y-118890568D01*
X187286433Y-118783343D01*
X187477510Y-118644517D01*
X187644517Y-118477510D01*
X187783343Y-118286433D01*
X187890568Y-118075992D01*
X187963553Y-117851368D01*
X188000500Y-117618097D01*
X188000500Y-117585646D01*
X191007000Y-117585646D01*
X191007000Y-117814353D01*
X191042778Y-118040246D01*
X191042778Y-118040249D01*
X191113450Y-118257755D01*
X191217283Y-118461538D01*
X191351714Y-118646566D01*
X191513434Y-118808286D01*
X191698462Y-118942717D01*
X191811868Y-119000500D01*
X191902244Y-119046549D01*
X192119751Y-119117221D01*
X192119752Y-119117221D01*
X192119755Y-119117222D01*
X192345646Y-119153000D01*
X192345647Y-119153000D01*
X192574353Y-119153000D01*
X192574354Y-119153000D01*
X192800245Y-119117222D01*
X192800248Y-119117221D01*
X192800249Y-119117221D01*
X193017755Y-119046549D01*
X193017755Y-119046548D01*
X193017758Y-119046548D01*
X193221538Y-118942717D01*
X193406566Y-118808286D01*
X193568286Y-118646566D01*
X193702717Y-118461538D01*
X193806548Y-118257758D01*
X193831503Y-118180953D01*
X193877221Y-118040249D01*
X193877221Y-118040248D01*
X193877222Y-118040245D01*
X193913000Y-117814354D01*
X193913000Y-117585646D01*
X196087000Y-117585646D01*
X196087000Y-117814353D01*
X196122778Y-118040246D01*
X196122778Y-118040249D01*
X196193450Y-118257755D01*
X196297283Y-118461538D01*
X196431714Y-118646566D01*
X196593434Y-118808286D01*
X196778462Y-118942717D01*
X196891868Y-119000500D01*
X196982244Y-119046549D01*
X197199751Y-119117221D01*
X197199752Y-119117221D01*
X197199755Y-119117222D01*
X197425646Y-119153000D01*
X197425647Y-119153000D01*
X197654353Y-119153000D01*
X197654354Y-119153000D01*
X197880245Y-119117222D01*
X197880248Y-119117221D01*
X197880249Y-119117221D01*
X198097755Y-119046549D01*
X198097755Y-119046548D01*
X198097758Y-119046548D01*
X198301538Y-118942717D01*
X198486566Y-118808286D01*
X198648286Y-118646566D01*
X198782717Y-118461538D01*
X198886548Y-118257758D01*
X198911503Y-118180953D01*
X198957221Y-118040249D01*
X198957221Y-118040248D01*
X198957222Y-118040245D01*
X198993000Y-117814354D01*
X198993000Y-117585646D01*
X198957222Y-117359755D01*
X198957221Y-117359751D01*
X198957221Y-117359750D01*
X198886549Y-117142244D01*
X198825502Y-117022433D01*
X198782717Y-116938462D01*
X198648286Y-116753434D01*
X198486566Y-116591714D01*
X198301538Y-116457283D01*
X198249531Y-116430784D01*
X198097755Y-116353450D01*
X197880248Y-116282778D01*
X197710826Y-116255944D01*
X197654354Y-116247000D01*
X197425646Y-116247000D01*
X197350349Y-116258926D01*
X197199753Y-116282778D01*
X197199750Y-116282778D01*
X196982244Y-116353450D01*
X196778461Y-116457283D01*
X196688715Y-116522488D01*
X196593434Y-116591714D01*
X196593432Y-116591716D01*
X196593431Y-116591716D01*
X196431716Y-116753431D01*
X196431716Y-116753432D01*
X196431714Y-116753434D01*
X196374781Y-116831795D01*
X196297283Y-116938461D01*
X196193450Y-117142244D01*
X196122778Y-117359750D01*
X196122778Y-117359753D01*
X196087000Y-117585646D01*
X193913000Y-117585646D01*
X193877222Y-117359755D01*
X193877221Y-117359751D01*
X193877221Y-117359750D01*
X193806549Y-117142244D01*
X193745502Y-117022433D01*
X193702717Y-116938462D01*
X193568286Y-116753434D01*
X193406566Y-116591714D01*
X193221538Y-116457283D01*
X193169531Y-116430784D01*
X193017755Y-116353450D01*
X192800248Y-116282778D01*
X192630826Y-116255944D01*
X192574354Y-116247000D01*
X192345646Y-116247000D01*
X192270349Y-116258926D01*
X192119753Y-116282778D01*
X192119750Y-116282778D01*
X191902244Y-116353450D01*
X191698461Y-116457283D01*
X191608715Y-116522488D01*
X191513434Y-116591714D01*
X191513432Y-116591716D01*
X191513431Y-116591716D01*
X191351716Y-116753431D01*
X191351716Y-116753432D01*
X191351714Y-116753434D01*
X191294781Y-116831795D01*
X191217283Y-116938461D01*
X191113450Y-117142244D01*
X191042778Y-117359750D01*
X191042778Y-117359753D01*
X191007000Y-117585646D01*
X188000500Y-117585646D01*
X188000500Y-117381902D01*
X187963553Y-117148631D01*
X187901534Y-116957758D01*
X187890568Y-116924008D01*
X187890566Y-116924005D01*
X187890566Y-116924003D01*
X187803655Y-116753432D01*
X187783343Y-116713567D01*
X187644517Y-116522490D01*
X187477510Y-116355483D01*
X187286433Y-116216657D01*
X187075996Y-116109433D01*
X186851368Y-116036446D01*
X186618097Y-115999500D01*
X186618092Y-115999500D01*
X186381908Y-115999500D01*
X186381903Y-115999500D01*
X186148631Y-116036446D01*
X185924003Y-116109433D01*
X185713566Y-116216657D01*
X185604550Y-116295862D01*
X185522490Y-116355483D01*
X185522488Y-116355485D01*
X185522487Y-116355485D01*
X185355485Y-116522487D01*
X185355485Y-116522488D01*
X185355483Y-116522490D01*
X185322624Y-116567717D01*
X185216657Y-116713566D01*
X185156417Y-116831795D01*
X185108442Y-116882591D01*
X185045932Y-116899500D01*
X181454068Y-116899500D01*
X181387029Y-116879815D01*
X181343583Y-116831795D01*
X181303655Y-116753432D01*
X181283343Y-116713567D01*
X181144517Y-116522490D01*
X180977510Y-116355483D01*
X180786433Y-116216657D01*
X180575996Y-116109433D01*
X180351368Y-116036446D01*
X180118097Y-115999500D01*
X180118092Y-115999500D01*
X179881908Y-115999500D01*
X179881903Y-115999500D01*
X179648628Y-116036447D01*
X179522433Y-116077450D01*
X179507221Y-116077884D01*
X179492962Y-116083203D01*
X179473006Y-116078861D01*
X179452592Y-116079445D01*
X179438505Y-116071356D01*
X179424689Y-116068351D01*
X179396435Y-116047200D01*
X179335819Y-115986584D01*
X179302334Y-115925261D01*
X179299500Y-115898903D01*
X179299500Y-114520257D01*
X179319185Y-114453218D01*
X179371989Y-114407463D01*
X179441147Y-114397519D01*
X179461819Y-114402326D01*
X179648754Y-114463065D01*
X179881948Y-114500000D01*
X180118052Y-114500000D01*
X180351247Y-114463065D01*
X180575802Y-114390102D01*
X180786163Y-114282918D01*
X180786169Y-114282914D01*
X180869104Y-114222658D01*
X180869105Y-114222658D01*
X180170234Y-113523787D01*
X180212292Y-113512518D01*
X180337708Y-113440110D01*
X180440110Y-113337708D01*
X180512518Y-113212292D01*
X180523787Y-113170234D01*
X181222658Y-113869105D01*
X181222658Y-113869104D01*
X181282914Y-113786169D01*
X181282918Y-113786163D01*
X181390102Y-113575802D01*
X181463065Y-113351247D01*
X181500000Y-113118052D01*
X181500000Y-112881947D01*
X185000000Y-112881947D01*
X185000000Y-113118052D01*
X185036934Y-113351247D01*
X185109897Y-113575802D01*
X185217087Y-113786174D01*
X185277338Y-113869104D01*
X185277340Y-113869105D01*
X185976212Y-113170233D01*
X185987482Y-113212292D01*
X186059890Y-113337708D01*
X186162292Y-113440110D01*
X186287708Y-113512518D01*
X186329765Y-113523787D01*
X185630893Y-114222658D01*
X185713828Y-114282914D01*
X185924197Y-114390102D01*
X186148752Y-114463065D01*
X186148751Y-114463065D01*
X186381948Y-114500000D01*
X186618052Y-114500000D01*
X186851247Y-114463065D01*
X187075802Y-114390102D01*
X187286163Y-114282918D01*
X187286169Y-114282914D01*
X187369104Y-114222658D01*
X187369105Y-114222658D01*
X186670233Y-113523787D01*
X186712292Y-113512518D01*
X186837708Y-113440110D01*
X186940110Y-113337708D01*
X187012518Y-113212292D01*
X187023787Y-113170234D01*
X187722658Y-113869105D01*
X187722658Y-113869104D01*
X187782914Y-113786169D01*
X187782918Y-113786163D01*
X187890102Y-113575802D01*
X187963065Y-113351247D01*
X188000000Y-113118052D01*
X188000000Y-112881947D01*
X187963065Y-112648752D01*
X187890102Y-112424197D01*
X187782914Y-112213828D01*
X187722658Y-112130894D01*
X187722658Y-112130893D01*
X187023787Y-112829765D01*
X187012518Y-112787708D01*
X186940110Y-112662292D01*
X186837708Y-112559890D01*
X186712292Y-112487482D01*
X186670234Y-112476212D01*
X187369105Y-111777340D01*
X187369104Y-111777338D01*
X187286174Y-111717087D01*
X187075802Y-111609897D01*
X186851247Y-111536934D01*
X186851248Y-111536934D01*
X186618052Y-111500000D01*
X186381948Y-111500000D01*
X186148752Y-111536934D01*
X185924197Y-111609897D01*
X185713830Y-111717084D01*
X185630894Y-111777340D01*
X186329766Y-112476212D01*
X186287708Y-112487482D01*
X186162292Y-112559890D01*
X186059890Y-112662292D01*
X185987482Y-112787708D01*
X185976212Y-112829765D01*
X185277340Y-112130894D01*
X185217084Y-112213830D01*
X185109897Y-112424197D01*
X185036934Y-112648752D01*
X185000000Y-112881947D01*
X181500000Y-112881947D01*
X181463065Y-112648752D01*
X181390102Y-112424197D01*
X181282914Y-112213828D01*
X181222658Y-112130894D01*
X181222658Y-112130893D01*
X180523787Y-112829765D01*
X180512518Y-112787708D01*
X180440110Y-112662292D01*
X180337708Y-112559890D01*
X180212292Y-112487482D01*
X180170233Y-112476212D01*
X180869105Y-111777340D01*
X180869104Y-111777339D01*
X180786174Y-111717087D01*
X180575802Y-111609897D01*
X180351247Y-111536934D01*
X180351248Y-111536934D01*
X180118052Y-111500000D01*
X179881948Y-111500000D01*
X179648751Y-111536934D01*
X179461818Y-111597673D01*
X179391977Y-111599668D01*
X179332144Y-111563588D01*
X179301316Y-111500887D01*
X179299500Y-111479742D01*
X179299500Y-110647182D01*
X179319185Y-110580143D01*
X179335814Y-110559506D01*
X184293830Y-105601489D01*
X184355151Y-105568006D01*
X184424843Y-105572990D01*
X184480776Y-105614862D01*
X184491994Y-105632877D01*
X184540595Y-105728260D01*
X184669142Y-105905193D01*
X184823806Y-106059857D01*
X184974969Y-106169682D01*
X185017635Y-106225011D01*
X185023614Y-106294625D01*
X184991009Y-106356420D01*
X184974969Y-106370318D01*
X184823806Y-106480142D01*
X184669142Y-106634806D01*
X184540595Y-106811739D01*
X184441298Y-107006616D01*
X184441297Y-107006619D01*
X184373714Y-107214623D01*
X184339500Y-107430638D01*
X184339500Y-107649361D01*
X184373714Y-107865376D01*
X184441297Y-108073380D01*
X184441298Y-108073383D01*
X184540595Y-108268260D01*
X184669142Y-108445193D01*
X184823806Y-108599857D01*
X184981608Y-108714505D01*
X185000743Y-108728407D01*
X185128132Y-108793315D01*
X185195616Y-108827701D01*
X185195619Y-108827702D01*
X185299621Y-108861493D01*
X185403625Y-108895286D01*
X185503672Y-108911132D01*
X185619639Y-108929500D01*
X185619644Y-108929500D01*
X187616361Y-108929500D01*
X187721082Y-108912912D01*
X187832375Y-108895286D01*
X188040383Y-108827701D01*
X188235257Y-108728407D01*
X188334601Y-108656229D01*
X188412193Y-108599857D01*
X188412195Y-108599854D01*
X188412199Y-108599852D01*
X188566852Y-108445199D01*
X188566854Y-108445195D01*
X188566857Y-108445193D01*
X188623229Y-108367601D01*
X188695407Y-108268257D01*
X188794701Y-108073383D01*
X188862286Y-107865375D01*
X188880560Y-107750000D01*
X188896500Y-107649361D01*
X188896500Y-107430638D01*
X188876595Y-107304971D01*
X188862286Y-107214625D01*
X188794701Y-107006617D01*
X188794701Y-107006616D01*
X188739666Y-106898606D01*
X188695407Y-106811743D01*
X188618494Y-106705880D01*
X188566857Y-106634806D01*
X188412199Y-106480148D01*
X188412191Y-106480142D01*
X188261028Y-106370316D01*
X188218364Y-106314989D01*
X188212385Y-106245376D01*
X188244990Y-106183580D01*
X188261023Y-106169686D01*
X188412199Y-106059852D01*
X188566852Y-105905199D01*
X188566854Y-105905195D01*
X188566857Y-105905193D01*
X188665084Y-105769993D01*
X188695407Y-105728257D01*
X188794701Y-105533383D01*
X188862286Y-105325375D01*
X188879912Y-105214082D01*
X188896500Y-105109361D01*
X188896500Y-104890638D01*
X188863581Y-104682803D01*
X188862286Y-104674625D01*
X188794701Y-104466617D01*
X188794701Y-104466616D01*
X188756652Y-104391943D01*
X188695407Y-104271743D01*
X188634238Y-104187550D01*
X188566857Y-104094806D01*
X188412199Y-103940148D01*
X188412191Y-103940142D01*
X188261028Y-103830316D01*
X188218364Y-103774989D01*
X188212385Y-103705376D01*
X188244990Y-103643580D01*
X188261023Y-103629686D01*
X188412199Y-103519852D01*
X188566852Y-103365199D01*
X188566854Y-103365195D01*
X188566857Y-103365193D01*
X188633887Y-103272933D01*
X188695407Y-103188257D01*
X188794701Y-102993383D01*
X188862286Y-102785375D01*
X188879912Y-102674082D01*
X188896500Y-102569361D01*
X188896500Y-102350638D01*
X188876595Y-102224971D01*
X188862286Y-102134625D01*
X188794701Y-101926617D01*
X188794701Y-101926616D01*
X188760315Y-101859132D01*
X188695407Y-101731743D01*
X188687147Y-101720374D01*
X188566857Y-101554806D01*
X188412199Y-101400148D01*
X188412191Y-101400142D01*
X188261028Y-101290316D01*
X188218364Y-101234989D01*
X188212385Y-101165376D01*
X188244990Y-101103580D01*
X188261023Y-101089686D01*
X188412199Y-100979852D01*
X188566852Y-100825199D01*
X188566854Y-100825195D01*
X188566857Y-100825193D01*
X188652136Y-100707815D01*
X188695407Y-100648257D01*
X188794701Y-100453383D01*
X188862286Y-100245375D01*
X188879912Y-100134082D01*
X188896500Y-100029361D01*
X188896500Y-99810638D01*
X188869706Y-99641476D01*
X188862286Y-99594625D01*
X188811877Y-99439480D01*
X188794701Y-99386616D01*
X188750473Y-99299815D01*
X188695407Y-99191743D01*
X188643438Y-99120213D01*
X188566857Y-99014806D01*
X188412199Y-98860148D01*
X188391279Y-98844949D01*
X188261028Y-98750316D01*
X188218364Y-98694989D01*
X188212385Y-98625376D01*
X188244990Y-98563580D01*
X188261023Y-98549686D01*
X188412199Y-98439852D01*
X188566852Y-98285199D01*
X188566854Y-98285195D01*
X188566857Y-98285193D01*
X188623229Y-98207601D01*
X188695407Y-98108257D01*
X188794701Y-97913383D01*
X188862286Y-97705375D01*
X188889393Y-97534229D01*
X188896500Y-97489361D01*
X188896500Y-97270638D01*
X188875006Y-97134937D01*
X188862286Y-97054625D01*
X188805488Y-96879815D01*
X188794702Y-96846619D01*
X188794701Y-96846616D01*
X188722991Y-96705880D01*
X188695407Y-96651743D01*
X188661653Y-96605284D01*
X188566857Y-96474806D01*
X188412199Y-96320148D01*
X188370980Y-96290201D01*
X188261028Y-96210316D01*
X188218364Y-96154989D01*
X188212385Y-96085376D01*
X188244990Y-96023580D01*
X188261023Y-96009686D01*
X188412199Y-95899852D01*
X188566852Y-95745199D01*
X188566854Y-95745195D01*
X188566857Y-95745193D01*
X188623229Y-95667601D01*
X188695407Y-95568257D01*
X188794701Y-95373383D01*
X188862286Y-95165375D01*
X188896490Y-94949421D01*
X188896500Y-94949361D01*
X188896500Y-94730638D01*
X188874224Y-94590000D01*
X188862286Y-94514625D01*
X188814197Y-94366619D01*
X188794702Y-94306619D01*
X188794701Y-94306616D01*
X188742409Y-94203989D01*
X188695407Y-94111743D01*
X188655377Y-94056646D01*
X188566857Y-93934806D01*
X188412199Y-93780148D01*
X188261028Y-93670316D01*
X188218364Y-93614989D01*
X188212385Y-93545376D01*
X188244990Y-93483580D01*
X188261023Y-93469686D01*
X188412199Y-93359852D01*
X188566852Y-93205199D01*
X188566854Y-93205195D01*
X188566857Y-93205193D01*
X188652135Y-93087816D01*
X188695407Y-93028257D01*
X188794701Y-92833383D01*
X188862286Y-92625375D01*
X188879912Y-92514082D01*
X188896500Y-92409361D01*
X188896500Y-92190638D01*
X201103500Y-92190638D01*
X201103500Y-92409361D01*
X201137714Y-92625376D01*
X201205297Y-92833380D01*
X201205298Y-92833383D01*
X201254783Y-92930500D01*
X201302943Y-93025019D01*
X201304595Y-93028260D01*
X201433142Y-93205193D01*
X201587802Y-93359853D01*
X201587807Y-93359857D01*
X201739394Y-93469991D01*
X201782060Y-93525320D01*
X201788039Y-93594934D01*
X201755434Y-93656729D01*
X201739394Y-93670627D01*
X201588133Y-93780524D01*
X201588128Y-93780528D01*
X201433528Y-93935128D01*
X201433524Y-93935133D01*
X201305023Y-94112001D01*
X201205762Y-94306808D01*
X201205761Y-94306811D01*
X201138201Y-94514741D01*
X201126282Y-94590000D01*
X202177749Y-94590000D01*
X202146619Y-94643919D01*
X202112000Y-94773120D01*
X202112000Y-94906880D01*
X202146619Y-95036081D01*
X202177749Y-95090000D01*
X201126282Y-95090000D01*
X201138201Y-95165258D01*
X201205761Y-95373188D01*
X201205762Y-95373191D01*
X201305023Y-95567998D01*
X201433524Y-95744866D01*
X201433528Y-95744871D01*
X201588128Y-95899471D01*
X201588133Y-95899475D01*
X201739394Y-96009372D01*
X201782060Y-96064701D01*
X201788039Y-96134315D01*
X201755434Y-96196110D01*
X201739394Y-96210008D01*
X201587807Y-96320142D01*
X201587802Y-96320146D01*
X201433142Y-96474806D01*
X201304595Y-96651739D01*
X201205298Y-96846616D01*
X201205297Y-96846619D01*
X201137714Y-97054623D01*
X201103500Y-97270638D01*
X201103500Y-97489361D01*
X201137714Y-97705376D01*
X201205297Y-97913380D01*
X201205298Y-97913383D01*
X201304595Y-98108260D01*
X201433142Y-98285193D01*
X201587806Y-98439857D01*
X201738969Y-98549682D01*
X201781635Y-98605011D01*
X201787614Y-98674625D01*
X201755009Y-98736420D01*
X201738969Y-98750318D01*
X201587806Y-98860142D01*
X201433142Y-99014806D01*
X201304595Y-99191739D01*
X201205299Y-99386616D01*
X201137714Y-99594623D01*
X201103500Y-99810638D01*
X201103500Y-100029361D01*
X201137714Y-100245376D01*
X201205297Y-100453380D01*
X201205298Y-100453383D01*
X201272782Y-100585825D01*
X201290289Y-100620185D01*
X201304595Y-100648260D01*
X201433142Y-100825193D01*
X201587806Y-100979857D01*
X201738969Y-101089682D01*
X201781635Y-101145011D01*
X201787614Y-101214625D01*
X201755009Y-101276420D01*
X201738969Y-101290318D01*
X201587806Y-101400142D01*
X201433142Y-101554806D01*
X201304595Y-101731739D01*
X201205298Y-101926616D01*
X201205297Y-101926619D01*
X201137714Y-102134623D01*
X201103500Y-102350638D01*
X201103500Y-102569361D01*
X201137714Y-102785376D01*
X201205297Y-102993380D01*
X201205298Y-102993383D01*
X201304595Y-103188260D01*
X201433142Y-103365193D01*
X201587806Y-103519857D01*
X201738969Y-103629682D01*
X201781635Y-103685011D01*
X201787614Y-103754625D01*
X201755009Y-103816420D01*
X201738969Y-103830318D01*
X201587806Y-103940142D01*
X201433142Y-104094806D01*
X201304595Y-104271739D01*
X201205298Y-104466616D01*
X201205297Y-104466619D01*
X201137714Y-104674623D01*
X201103500Y-104890638D01*
X201103500Y-105109361D01*
X201137714Y-105325376D01*
X201205297Y-105533380D01*
X201205298Y-105533383D01*
X201304595Y-105728260D01*
X201433142Y-105905193D01*
X201587806Y-106059857D01*
X201738969Y-106169682D01*
X201781635Y-106225011D01*
X201787614Y-106294625D01*
X201755009Y-106356420D01*
X201738969Y-106370318D01*
X201587806Y-106480142D01*
X201433142Y-106634806D01*
X201304595Y-106811739D01*
X201205298Y-107006616D01*
X201205297Y-107006619D01*
X201137714Y-107214623D01*
X201103500Y-107430638D01*
X201103500Y-107649361D01*
X201137714Y-107865376D01*
X201205297Y-108073380D01*
X201205298Y-108073383D01*
X201304595Y-108268260D01*
X201433142Y-108445193D01*
X201587806Y-108599857D01*
X201745608Y-108714505D01*
X201764743Y-108728407D01*
X201892132Y-108793315D01*
X201959616Y-108827701D01*
X201959619Y-108827702D01*
X202063621Y-108861493D01*
X202167625Y-108895286D01*
X202267672Y-108911132D01*
X202383639Y-108929500D01*
X202383644Y-108929500D01*
X204380361Y-108929500D01*
X204485082Y-108912912D01*
X204596375Y-108895286D01*
X204804383Y-108827701D01*
X204999257Y-108728407D01*
X205098601Y-108656229D01*
X205176193Y-108599857D01*
X205176195Y-108599854D01*
X205176199Y-108599852D01*
X205330852Y-108445199D01*
X205330854Y-108445195D01*
X205330857Y-108445193D01*
X205387229Y-108367601D01*
X205459407Y-108268257D01*
X205558701Y-108073383D01*
X205626286Y-107865375D01*
X205644560Y-107750000D01*
X205660500Y-107649361D01*
X205660500Y-107430638D01*
X205640595Y-107304971D01*
X205626286Y-107214625D01*
X205558701Y-107006617D01*
X205558701Y-107006616D01*
X205503666Y-106898606D01*
X205459407Y-106811743D01*
X205382494Y-106705880D01*
X205330857Y-106634806D01*
X205176199Y-106480148D01*
X205176191Y-106480142D01*
X205025028Y-106370316D01*
X204982364Y-106314989D01*
X204976385Y-106245376D01*
X205008990Y-106183580D01*
X205025023Y-106169686D01*
X205176199Y-106059852D01*
X205330852Y-105905199D01*
X205330854Y-105905195D01*
X205330857Y-105905193D01*
X205429084Y-105769993D01*
X205459407Y-105728257D01*
X205558701Y-105533383D01*
X205626286Y-105325375D01*
X205643912Y-105214082D01*
X205660500Y-105109361D01*
X205660500Y-104890638D01*
X205627581Y-104682803D01*
X205626286Y-104674625D01*
X205558701Y-104466617D01*
X205558701Y-104466616D01*
X205520652Y-104391943D01*
X205459407Y-104271743D01*
X205398238Y-104187550D01*
X205330857Y-104094806D01*
X205176199Y-103940148D01*
X205176191Y-103940142D01*
X205025028Y-103830316D01*
X204982364Y-103774989D01*
X204976385Y-103705376D01*
X205008990Y-103643580D01*
X205025023Y-103629686D01*
X205176199Y-103519852D01*
X205330852Y-103365199D01*
X205330854Y-103365195D01*
X205330857Y-103365193D01*
X205397887Y-103272933D01*
X205459407Y-103188257D01*
X205558701Y-102993383D01*
X205626286Y-102785375D01*
X205643912Y-102674082D01*
X205660500Y-102569361D01*
X205660500Y-102350638D01*
X205640595Y-102224971D01*
X205626286Y-102134625D01*
X205558701Y-101926617D01*
X205558701Y-101926616D01*
X205524315Y-101859132D01*
X205459407Y-101731743D01*
X205451147Y-101720374D01*
X205330857Y-101554806D01*
X205176199Y-101400148D01*
X205176191Y-101400142D01*
X205025028Y-101290316D01*
X204982364Y-101234989D01*
X204976385Y-101165376D01*
X205008990Y-101103580D01*
X205025023Y-101089686D01*
X205176199Y-100979852D01*
X205330852Y-100825199D01*
X205330854Y-100825195D01*
X205330857Y-100825193D01*
X205416136Y-100707815D01*
X205459407Y-100648257D01*
X205490005Y-100588204D01*
X205537980Y-100537409D01*
X205600490Y-100520500D01*
X209619903Y-100520500D01*
X209686942Y-100540185D01*
X209707584Y-100556819D01*
X210261042Y-101110277D01*
X210294527Y-101171600D01*
X210289543Y-101241292D01*
X210247671Y-101297225D01*
X210212366Y-101315664D01*
X210064575Y-101364638D01*
X210064566Y-101364642D01*
X209916500Y-101455971D01*
X209916496Y-101455974D01*
X209793474Y-101578996D01*
X209793471Y-101579000D01*
X209702142Y-101727066D01*
X209702137Y-101727077D01*
X209647413Y-101892223D01*
X209637000Y-101994144D01*
X209637000Y-103005855D01*
X209647413Y-103107776D01*
X209702137Y-103272922D01*
X209702142Y-103272933D01*
X209793471Y-103420999D01*
X209793474Y-103421003D01*
X209916497Y-103544026D01*
X209965597Y-103574311D01*
X210012321Y-103626257D01*
X210024500Y-103679849D01*
X210024500Y-106274781D01*
X210004815Y-106341820D01*
X209965597Y-106380319D01*
X209881347Y-106432285D01*
X209881343Y-106432288D01*
X209757289Y-106556342D01*
X209665187Y-106705663D01*
X209665185Y-106705668D01*
X209665115Y-106705880D01*
X209610001Y-106872203D01*
X209610001Y-106872204D01*
X209610000Y-106872204D01*
X209599500Y-106974983D01*
X209599500Y-108025001D01*
X209599501Y-108025019D01*
X209610000Y-108127796D01*
X209610001Y-108127799D01*
X209656545Y-108268257D01*
X209665186Y-108294334D01*
X209757288Y-108443656D01*
X209881344Y-108567712D01*
X210030666Y-108659814D01*
X210197203Y-108714999D01*
X210299991Y-108725500D01*
X210900008Y-108725499D01*
X210900016Y-108725498D01*
X210900019Y-108725498D01*
X210956302Y-108719748D01*
X211002797Y-108714999D01*
X211169334Y-108659814D01*
X211318656Y-108567712D01*
X211442712Y-108443656D01*
X211444752Y-108440347D01*
X211446745Y-108438555D01*
X211447193Y-108437989D01*
X211447289Y-108438065D01*
X211496694Y-108393623D01*
X211565656Y-108382395D01*
X211629740Y-108410234D01*
X211655829Y-108440339D01*
X211657681Y-108443341D01*
X211657683Y-108443344D01*
X211781654Y-108567315D01*
X211930875Y-108659356D01*
X211930880Y-108659358D01*
X212097302Y-108714505D01*
X212097309Y-108714506D01*
X212200019Y-108724999D01*
X212750000Y-108724999D01*
X212799972Y-108724999D01*
X212799986Y-108724998D01*
X212902697Y-108714505D01*
X213069119Y-108659358D01*
X213069124Y-108659356D01*
X213218345Y-108567315D01*
X213342315Y-108443345D01*
X213434356Y-108294124D01*
X213434358Y-108294119D01*
X213489505Y-108127697D01*
X213489506Y-108127690D01*
X213499999Y-108024986D01*
X213500000Y-108024973D01*
X213500000Y-107750000D01*
X212750000Y-107750000D01*
X212750000Y-108724999D01*
X212200019Y-108724999D01*
X212249999Y-108724998D01*
X212250000Y-108724998D01*
X212250000Y-107250000D01*
X212750000Y-107250000D01*
X213499999Y-107250000D01*
X213499999Y-106975028D01*
X213499998Y-106975013D01*
X213489505Y-106872302D01*
X213434358Y-106705880D01*
X213434356Y-106705875D01*
X213342315Y-106556654D01*
X213218345Y-106432684D01*
X213069124Y-106340643D01*
X213069119Y-106340641D01*
X212902697Y-106285494D01*
X212902690Y-106285493D01*
X212799986Y-106275000D01*
X212750000Y-106275000D01*
X212750000Y-107250000D01*
X212250000Y-107250000D01*
X212250000Y-106275000D01*
X212249999Y-106274999D01*
X212200029Y-106275000D01*
X212200011Y-106275001D01*
X212097302Y-106285494D01*
X211930880Y-106340641D01*
X211930875Y-106340643D01*
X211781654Y-106432684D01*
X211657683Y-106556655D01*
X211657679Y-106556660D01*
X211655826Y-106559665D01*
X211654018Y-106561290D01*
X211653202Y-106562323D01*
X211653025Y-106562183D01*
X211603874Y-106606385D01*
X211534911Y-106617601D01*
X211470831Y-106589752D01*
X211444753Y-106559653D01*
X211444737Y-106559628D01*
X211442712Y-106556344D01*
X211318656Y-106432288D01*
X211318653Y-106432285D01*
X211284401Y-106411158D01*
X211237678Y-106359210D01*
X211225500Y-106305621D01*
X211225500Y-103679849D01*
X211245185Y-103612810D01*
X211284402Y-103574311D01*
X211333503Y-103544026D01*
X211456526Y-103421003D01*
X211456958Y-103420301D01*
X211457381Y-103419921D01*
X211461007Y-103415336D01*
X211461790Y-103415955D01*
X211508902Y-103373575D01*
X211577864Y-103362349D01*
X211641948Y-103390188D01*
X211663842Y-103415455D01*
X211663993Y-103415336D01*
X211666643Y-103418687D01*
X211668040Y-103420299D01*
X211668045Y-103420307D01*
X211668475Y-103421004D01*
X211791496Y-103544025D01*
X211791500Y-103544028D01*
X211939566Y-103635357D01*
X211939569Y-103635358D01*
X211939575Y-103635362D01*
X212104725Y-103690087D01*
X212206652Y-103700500D01*
X212206657Y-103700500D01*
X212793343Y-103700500D01*
X212793348Y-103700500D01*
X212895275Y-103690087D01*
X213060425Y-103635362D01*
X213208503Y-103544026D01*
X213331526Y-103421003D01*
X213422862Y-103272925D01*
X213477587Y-103107775D01*
X213488000Y-103005848D01*
X213488000Y-101994152D01*
X213477587Y-101892225D01*
X213422862Y-101727075D01*
X213422858Y-101727069D01*
X213422857Y-101727066D01*
X213331528Y-101579000D01*
X213331525Y-101578996D01*
X213208503Y-101455974D01*
X213208499Y-101455971D01*
X213060433Y-101364642D01*
X213060427Y-101364639D01*
X213060425Y-101364638D01*
X213017759Y-101350500D01*
X212895276Y-101309913D01*
X212793355Y-101299500D01*
X212793348Y-101299500D01*
X212206652Y-101299500D01*
X212206638Y-101299500D01*
X212206539Y-101299505D01*
X212206518Y-101299500D01*
X212203496Y-101299500D01*
X212203496Y-101298776D01*
X212138589Y-101283240D01*
X212112580Y-101263345D01*
X210407590Y-99558355D01*
X210407588Y-99558352D01*
X210288717Y-99439481D01*
X210288709Y-99439475D01*
X210197155Y-99386617D01*
X210197153Y-99386616D01*
X210151790Y-99360425D01*
X210151789Y-99360424D01*
X210139263Y-99357067D01*
X209999057Y-99319499D01*
X209840943Y-99319499D01*
X209833347Y-99319499D01*
X209833331Y-99319500D01*
X205600490Y-99319500D01*
X205533451Y-99299815D01*
X205490005Y-99251795D01*
X205459407Y-99191743D01*
X205407438Y-99120213D01*
X205330857Y-99014806D01*
X205176199Y-98860148D01*
X205155279Y-98844949D01*
X205025028Y-98750316D01*
X204982364Y-98694989D01*
X204976385Y-98625376D01*
X205008990Y-98563580D01*
X205025023Y-98549686D01*
X205176199Y-98439852D01*
X205330852Y-98285199D01*
X205337263Y-98276373D01*
X205427907Y-98151615D01*
X205483237Y-98108949D01*
X205528225Y-98100500D01*
X209511415Y-98100500D01*
X209578454Y-98120185D01*
X209624209Y-98172989D01*
X209629118Y-98185489D01*
X209665186Y-98294334D01*
X209757288Y-98443656D01*
X209881344Y-98567712D01*
X210030666Y-98659814D01*
X210197203Y-98714999D01*
X210299991Y-98725500D01*
X210900008Y-98725499D01*
X210900016Y-98725498D01*
X210900019Y-98725498D01*
X210956302Y-98719748D01*
X211002797Y-98714999D01*
X211169334Y-98659814D01*
X211318656Y-98567712D01*
X211442712Y-98443656D01*
X211444752Y-98440347D01*
X211446745Y-98438555D01*
X211447193Y-98437989D01*
X211447289Y-98438065D01*
X211496694Y-98393623D01*
X211565656Y-98382395D01*
X211629740Y-98410234D01*
X211655829Y-98440339D01*
X211657681Y-98443341D01*
X211657683Y-98443344D01*
X211781654Y-98567315D01*
X211930875Y-98659356D01*
X211930880Y-98659358D01*
X212097302Y-98714505D01*
X212097309Y-98714506D01*
X212200019Y-98724999D01*
X212750000Y-98724999D01*
X212799972Y-98724999D01*
X212799986Y-98724998D01*
X212902697Y-98714505D01*
X213069119Y-98659358D01*
X213069124Y-98659356D01*
X213218345Y-98567315D01*
X213342315Y-98443345D01*
X213434356Y-98294124D01*
X213434358Y-98294119D01*
X213489505Y-98127697D01*
X213489506Y-98127690D01*
X213499999Y-98024986D01*
X213500000Y-98024973D01*
X213500000Y-97750000D01*
X212750000Y-97750000D01*
X212750000Y-98724999D01*
X212200019Y-98724999D01*
X212249999Y-98724998D01*
X212250000Y-98724998D01*
X212250000Y-97250000D01*
X212750000Y-97250000D01*
X213499999Y-97250000D01*
X213499999Y-96975028D01*
X213499998Y-96975013D01*
X213489505Y-96872302D01*
X213434358Y-96705880D01*
X213434356Y-96705875D01*
X213342315Y-96556654D01*
X213218345Y-96432684D01*
X213069124Y-96340643D01*
X213069119Y-96340641D01*
X212902697Y-96285494D01*
X212902690Y-96285493D01*
X212799986Y-96275000D01*
X212750000Y-96275000D01*
X212750000Y-97250000D01*
X212250000Y-97250000D01*
X212250000Y-96275000D01*
X212249999Y-96274999D01*
X212200029Y-96275000D01*
X212200011Y-96275001D01*
X212097302Y-96285494D01*
X211930880Y-96340641D01*
X211930875Y-96340643D01*
X211781654Y-96432684D01*
X211657683Y-96556655D01*
X211657679Y-96556660D01*
X211655826Y-96559665D01*
X211654018Y-96561290D01*
X211653202Y-96562323D01*
X211653025Y-96562183D01*
X211603874Y-96606385D01*
X211534911Y-96617601D01*
X211470831Y-96589752D01*
X211444753Y-96559653D01*
X211444737Y-96559628D01*
X211442712Y-96556344D01*
X211318656Y-96432288D01*
X211318655Y-96432287D01*
X211259402Y-96395739D01*
X211212678Y-96343791D01*
X211200500Y-96290201D01*
X211200500Y-93709797D01*
X211220185Y-93642758D01*
X211259403Y-93604258D01*
X211318656Y-93567712D01*
X211442712Y-93443656D01*
X211444752Y-93440347D01*
X211446745Y-93438555D01*
X211447193Y-93437989D01*
X211447289Y-93438065D01*
X211496694Y-93393623D01*
X211565656Y-93382395D01*
X211629740Y-93410234D01*
X211655829Y-93440339D01*
X211657681Y-93443341D01*
X211657683Y-93443344D01*
X211781654Y-93567315D01*
X211930875Y-93659356D01*
X211930880Y-93659358D01*
X212097302Y-93714505D01*
X212097309Y-93714506D01*
X212200019Y-93724999D01*
X212750000Y-93724999D01*
X212799972Y-93724999D01*
X212799986Y-93724998D01*
X212902697Y-93714505D01*
X213069119Y-93659358D01*
X213069124Y-93659356D01*
X213218345Y-93567315D01*
X213342315Y-93443345D01*
X213434356Y-93294124D01*
X213434358Y-93294119D01*
X213489505Y-93127697D01*
X213489506Y-93127690D01*
X213499999Y-93024986D01*
X213500000Y-93024973D01*
X213500000Y-92750000D01*
X212750000Y-92750000D01*
X212750000Y-93724999D01*
X212200019Y-93724999D01*
X212249999Y-93724998D01*
X212250000Y-93724998D01*
X212250000Y-92250000D01*
X212750000Y-92250000D01*
X213499999Y-92250000D01*
X213499999Y-91975028D01*
X213499998Y-91975013D01*
X213489505Y-91872302D01*
X213434358Y-91705880D01*
X213434356Y-91705875D01*
X213342315Y-91556654D01*
X213218345Y-91432684D01*
X213069124Y-91340643D01*
X213069119Y-91340641D01*
X212902697Y-91285494D01*
X212902690Y-91285493D01*
X212799986Y-91275000D01*
X212750000Y-91275000D01*
X212750000Y-92250000D01*
X212250000Y-92250000D01*
X212250000Y-91275000D01*
X212249999Y-91274999D01*
X212200029Y-91275000D01*
X212200011Y-91275001D01*
X212097302Y-91285494D01*
X211930880Y-91340641D01*
X211930875Y-91340643D01*
X211781654Y-91432684D01*
X211657683Y-91556655D01*
X211657679Y-91556660D01*
X211655826Y-91559665D01*
X211654018Y-91561290D01*
X211653202Y-91562323D01*
X211653025Y-91562183D01*
X211603874Y-91606385D01*
X211534911Y-91617601D01*
X211470831Y-91589752D01*
X211444753Y-91559653D01*
X211444737Y-91559628D01*
X211442712Y-91556344D01*
X211318656Y-91432288D01*
X211169334Y-91340186D01*
X211002797Y-91285001D01*
X211002795Y-91285000D01*
X210900010Y-91274500D01*
X210299998Y-91274500D01*
X210299980Y-91274501D01*
X210197203Y-91285000D01*
X210197200Y-91285001D01*
X210030668Y-91340185D01*
X210030663Y-91340187D01*
X209881342Y-91432289D01*
X209757289Y-91556342D01*
X209665187Y-91705663D01*
X209665185Y-91705668D01*
X209665115Y-91705880D01*
X209610001Y-91872203D01*
X209610001Y-91872204D01*
X209610000Y-91872204D01*
X209599500Y-91974983D01*
X209599500Y-93025001D01*
X209599501Y-93025019D01*
X209610000Y-93127796D01*
X209610001Y-93127799D01*
X209653738Y-93259786D01*
X209665186Y-93294334D01*
X209757288Y-93443656D01*
X209881344Y-93567712D01*
X209940596Y-93604258D01*
X209987321Y-93656204D01*
X209999500Y-93709797D01*
X209999500Y-96290201D01*
X209979815Y-96357240D01*
X209940598Y-96395739D01*
X209881344Y-96432287D01*
X209757289Y-96556342D01*
X209665187Y-96705663D01*
X209665185Y-96705668D01*
X209629121Y-96814504D01*
X209589348Y-96871949D01*
X209524833Y-96898772D01*
X209511415Y-96899500D01*
X205661633Y-96899500D01*
X205594594Y-96879815D01*
X205551149Y-96831796D01*
X205459407Y-96651743D01*
X205459405Y-96651740D01*
X205459404Y-96651738D01*
X205330857Y-96474806D01*
X205176197Y-96320146D01*
X205176192Y-96320142D01*
X205024605Y-96210008D01*
X204981939Y-96154678D01*
X204975960Y-96085065D01*
X205008565Y-96023270D01*
X205024605Y-96009371D01*
X205175873Y-95899469D01*
X205330471Y-95744871D01*
X205330475Y-95744866D01*
X205458976Y-95567998D01*
X205558237Y-95373191D01*
X205558238Y-95373188D01*
X205625798Y-95165258D01*
X205637718Y-95090000D01*
X203062251Y-95090000D01*
X203093381Y-95036081D01*
X203128000Y-94906880D01*
X203128000Y-94773120D01*
X203093381Y-94643919D01*
X203062251Y-94590000D01*
X205637718Y-94590000D01*
X205625798Y-94514741D01*
X205558238Y-94306811D01*
X205558237Y-94306808D01*
X205458976Y-94112001D01*
X205330475Y-93935133D01*
X205330471Y-93935128D01*
X205175871Y-93780528D01*
X205175866Y-93780524D01*
X205024605Y-93670627D01*
X204981939Y-93615297D01*
X204975960Y-93545684D01*
X205008565Y-93483889D01*
X205024599Y-93469994D01*
X205176199Y-93359852D01*
X205330852Y-93205199D01*
X205330854Y-93205195D01*
X205330857Y-93205193D01*
X205416135Y-93087816D01*
X205459407Y-93028257D01*
X205558701Y-92833383D01*
X205626286Y-92625375D01*
X205643912Y-92514082D01*
X205660500Y-92409361D01*
X205660500Y-92190638D01*
X205640403Y-92063757D01*
X205626286Y-91974625D01*
X205558701Y-91766617D01*
X205558701Y-91766616D01*
X205510585Y-91672185D01*
X205459407Y-91571743D01*
X205407438Y-91500213D01*
X205330857Y-91394806D01*
X205176193Y-91240142D01*
X204999260Y-91111595D01*
X204999259Y-91111594D01*
X204999257Y-91111593D01*
X204903404Y-91062753D01*
X204804383Y-91012298D01*
X204804380Y-91012297D01*
X204596376Y-90944714D01*
X204380361Y-90910500D01*
X204380356Y-90910500D01*
X202383644Y-90910500D01*
X202383639Y-90910500D01*
X202167623Y-90944714D01*
X201959619Y-91012297D01*
X201959616Y-91012298D01*
X201764739Y-91111595D01*
X201587806Y-91240142D01*
X201433142Y-91394806D01*
X201304595Y-91571739D01*
X201205298Y-91766616D01*
X201205297Y-91766619D01*
X201137714Y-91974623D01*
X201103500Y-92190638D01*
X188896500Y-92190638D01*
X188876403Y-92063757D01*
X188862286Y-91974625D01*
X188794701Y-91766617D01*
X188794701Y-91766616D01*
X188746585Y-91672185D01*
X188695407Y-91571743D01*
X188643438Y-91500213D01*
X188566857Y-91394806D01*
X188412193Y-91240142D01*
X188235260Y-91111595D01*
X188235259Y-91111594D01*
X188235257Y-91111593D01*
X188139404Y-91062753D01*
X188040383Y-91012298D01*
X188040380Y-91012297D01*
X187832376Y-90944714D01*
X187616361Y-90910500D01*
X187616356Y-90910500D01*
X185619644Y-90910500D01*
X185619639Y-90910500D01*
X185403623Y-90944714D01*
X185195619Y-91012297D01*
X185195616Y-91012298D01*
X185000739Y-91111595D01*
X184823806Y-91240142D01*
X184669142Y-91394806D01*
X184540595Y-91571738D01*
X184522942Y-91606385D01*
X184469231Y-91711796D01*
X184421258Y-91762591D01*
X184358748Y-91779500D01*
X181285719Y-91779500D01*
X181218680Y-91759815D01*
X181175235Y-91711795D01*
X181155052Y-91672185D01*
X181155051Y-91672184D01*
X181030109Y-91500213D01*
X180879786Y-91349890D01*
X180707820Y-91224951D01*
X180518414Y-91128444D01*
X180518413Y-91128443D01*
X180518412Y-91128443D01*
X180316243Y-91062754D01*
X180316241Y-91062753D01*
X180316240Y-91062753D01*
X180154957Y-91037208D01*
X180106287Y-91029500D01*
X179893713Y-91029500D01*
X179845042Y-91037208D01*
X179683760Y-91062753D01*
X179481585Y-91128444D01*
X179292179Y-91224951D01*
X179120213Y-91349890D01*
X178969890Y-91500213D01*
X178844951Y-91672179D01*
X178748444Y-91861585D01*
X178682753Y-92063760D01*
X178649500Y-92273713D01*
X178649500Y-92486286D01*
X178682753Y-92696239D01*
X178706129Y-92768182D01*
X178708124Y-92838023D01*
X178672044Y-92897856D01*
X178609343Y-92928684D01*
X178588198Y-92930500D01*
X158591097Y-92930500D01*
X158561656Y-92921855D01*
X158531670Y-92915332D01*
X158526654Y-92911577D01*
X158524058Y-92910815D01*
X158503416Y-92894181D01*
X158473757Y-92864522D01*
X158440272Y-92803199D01*
X158443507Y-92738523D01*
X158457246Y-92696243D01*
X158490500Y-92486287D01*
X158490500Y-92273713D01*
X158457246Y-92063757D01*
X158391557Y-91861588D01*
X158295051Y-91672184D01*
X158295049Y-91672181D01*
X158295048Y-91672179D01*
X158170109Y-91500213D01*
X158019786Y-91349890D01*
X157847820Y-91224951D01*
X157658414Y-91128444D01*
X157658413Y-91128443D01*
X157658412Y-91128443D01*
X157456243Y-91062754D01*
X157456241Y-91062753D01*
X157456240Y-91062753D01*
X157294957Y-91037208D01*
X157246287Y-91029500D01*
X157033713Y-91029500D01*
X156985042Y-91037208D01*
X156823760Y-91062753D01*
X156621585Y-91128444D01*
X156432179Y-91224951D01*
X156260213Y-91349890D01*
X156109890Y-91500213D01*
X155984951Y-91672179D01*
X155888444Y-91861585D01*
X155822753Y-92063760D01*
X155789500Y-92273713D01*
X153000500Y-92273713D01*
X153000500Y-86052378D01*
X166119500Y-86052378D01*
X166119500Y-86327621D01*
X166150315Y-86601108D01*
X166150317Y-86601124D01*
X166211561Y-86869453D01*
X166211565Y-86869465D01*
X166302467Y-87129246D01*
X166421884Y-87377218D01*
X166421886Y-87377221D01*
X166568319Y-87610268D01*
X166739925Y-87825455D01*
X166934545Y-88020075D01*
X167149732Y-88191681D01*
X167382779Y-88338114D01*
X167630757Y-88457534D01*
X167825865Y-88525805D01*
X167890534Y-88548434D01*
X167890546Y-88548438D01*
X168158879Y-88609683D01*
X168432378Y-88640499D01*
X168432379Y-88640500D01*
X168432383Y-88640500D01*
X168707621Y-88640500D01*
X168707621Y-88640499D01*
X168981121Y-88609683D01*
X169249454Y-88548438D01*
X169509243Y-88457534D01*
X169757221Y-88338114D01*
X169990268Y-88191681D01*
X170205455Y-88020075D01*
X170400075Y-87825455D01*
X170571681Y-87610268D01*
X170718114Y-87377221D01*
X170837534Y-87129243D01*
X170928438Y-86869454D01*
X170989683Y-86601121D01*
X171020500Y-86327617D01*
X171020500Y-86052383D01*
X170989683Y-85778879D01*
X170928438Y-85510546D01*
X170837534Y-85250757D01*
X170718114Y-85002779D01*
X170571681Y-84769732D01*
X170400075Y-84554545D01*
X170205455Y-84359925D01*
X169990268Y-84188319D01*
X169757221Y-84041886D01*
X169757218Y-84041884D01*
X169509246Y-83922467D01*
X169249465Y-83831565D01*
X169249453Y-83831561D01*
X168981124Y-83770317D01*
X168981108Y-83770315D01*
X168707621Y-83739500D01*
X168707617Y-83739500D01*
X168432383Y-83739500D01*
X168432379Y-83739500D01*
X168158891Y-83770315D01*
X168158875Y-83770317D01*
X167890546Y-83831561D01*
X167890534Y-83831565D01*
X167630753Y-83922467D01*
X167382781Y-84041884D01*
X167149733Y-84188318D01*
X166934545Y-84359924D01*
X166739924Y-84554545D01*
X166568318Y-84769733D01*
X166421884Y-85002781D01*
X166302467Y-85250753D01*
X166211565Y-85510534D01*
X166211561Y-85510546D01*
X166150317Y-85778875D01*
X166150315Y-85778891D01*
X166119500Y-86052378D01*
X153000500Y-86052378D01*
X153000500Y-82502706D01*
X153000618Y-82497297D01*
X153003377Y-82434108D01*
X153017386Y-82113226D01*
X153018326Y-82102495D01*
X153068152Y-81724025D01*
X153070025Y-81713405D01*
X153152649Y-81340709D01*
X153155440Y-81330295D01*
X153270230Y-80966227D01*
X153273917Y-80956095D01*
X153420003Y-80603412D01*
X153424561Y-80593638D01*
X153600822Y-80255045D01*
X153606217Y-80245700D01*
X153811325Y-79923744D01*
X153817515Y-79914905D01*
X154049896Y-79612060D01*
X154056834Y-79603791D01*
X154314726Y-79322352D01*
X154322352Y-79314726D01*
X154603791Y-79056834D01*
X154612060Y-79049896D01*
X154914905Y-78817515D01*
X154923744Y-78811325D01*
X155245700Y-78606217D01*
X155255045Y-78600822D01*
X155593638Y-78424561D01*
X155603412Y-78420003D01*
X155956095Y-78273917D01*
X155966227Y-78270230D01*
X156330295Y-78155440D01*
X156340709Y-78152649D01*
X156713405Y-78070025D01*
X156724025Y-78068152D01*
X157102495Y-78018326D01*
X157113226Y-78017386D01*
X157497297Y-78000617D01*
X157502706Y-78000500D01*
X157565892Y-78000500D01*
X209934108Y-78000500D01*
X209997294Y-78000500D01*
X210002702Y-78000617D01*
G37*
%TD.AperFunction*%
%TD*%
M02*
